<svg width="153" height="42" viewBox="0 0 153 42" fill="none" xmlns="http://www.w3.org/2000/svg">
<g clip-path="url(#clip0)">
<path d="M20.395 0.764648C20.0196 0.764648 19.7152 1.06905 19.7152 1.44448V4.16382C19.7152 4.53925 20.0196 4.84365 20.395 4.84365C20.7704 4.84365 21.0748 4.53925 21.0748 4.16382V2.14124C31.4061 2.50772 39.5561 11.0528 39.434 21.3897C39.3118 31.7266 30.962 40.0765 20.625 40.1986C10.2881 40.3208 1.74307 32.1708 1.3766 21.8395H3.39917C3.7746 21.8395 4.079 21.5351 4.079 21.1596C4.079 20.7842 3.7746 20.4798 3.39917 20.4798H0.679833C0.304398 20.4798 0 20.7842 0 21.1596C0 32.4234 9.13128 41.5546 20.395 41.5546C31.6587 41.5546 40.79 32.4234 40.79 21.1596C40.79 9.89593 31.6587 0.764648 20.395 0.764648Z" fill="url(#paint0_linear)"/>
<path d="M29.5155 10.9737C27.6446 10.8173 26.0011 12.2075 25.8451 14.0784C25.6888 15.9493 27.079 17.5927 28.9499 17.7488C29.0458 17.7571 29.1401 17.7604 29.2347 17.7604C31.0003 17.7571 32.4705 16.404 32.6196 14.6447C32.7739 12.7745 31.3854 11.1323 29.5155 10.9737ZM29.0627 16.3941C27.9716 16.3048 27.1457 15.37 27.1912 14.2762C27.237 13.1825 28.1379 12.3197 29.2327 12.3217C29.2891 12.3217 29.3462 12.3217 29.404 12.3284C30.5266 12.4223 31.3605 13.4085 31.2669 14.5312C31.1729 15.6538 30.1867 16.4877 29.064 16.3941H29.0627Z" fill="url(#paint1_linear)"/>
<path d="M21.9677 13.4882C21.1607 12.7181 19.891 12.7181 19.0837 13.4882L14.5174 18.0555C13.8588 18.7201 13.8612 19.7923 14.5231 20.4539C15.1846 21.1154 16.2568 21.1174 16.9214 20.4588L20.5244 16.8555L23.2099 19.5397C23.8631 20.194 24.9217 20.1993 25.5816 19.5516C25.9116 19.2389 26.1011 18.8057 26.1071 18.3513C26.1134 17.8965 25.9352 17.4587 25.6135 17.137L21.9677 13.4882ZM24.6253 18.587C24.4968 18.7075 24.296 18.7035 24.1725 18.5784L21.007 15.4109C20.7415 15.1457 20.3113 15.1457 20.0457 15.4109L15.9607 19.4975C15.828 19.6303 15.6125 19.6306 15.4797 19.4979C15.347 19.3651 15.3466 19.1496 15.4794 19.0169L20.0457 14.4496C20.3113 14.1843 20.7415 14.1843 21.007 14.4496L24.6545 18.0964C24.7172 18.1588 24.7518 18.2444 24.7494 18.3327C24.7455 18.4306 24.7003 18.5223 24.6253 18.585V18.587Z" fill="url(#paint2_linear)"/>
<path d="M21.2106 34.3139H21.2192C21.67 34.3153 22.1022 34.136 22.4199 33.8163L26.0169 30.2193C26.8136 29.4226 26.8136 28.131 26.0169 27.3347L21.4513 22.7684C20.7787 22.126 19.7201 22.126 19.0479 22.7684C18.3844 23.4319 18.3844 24.5078 19.0479 25.1714L22.6509 28.7747L20.0152 31.4104C19.3603 32.0699 19.3543 33.1332 20.0023 33.7997C20.3193 34.1274 20.7548 34.3126 21.2106 34.3139V34.3139ZM20.9786 32.377L24.0949 29.2606C24.3605 28.9951 24.3605 28.5649 24.0949 28.2993L20.0099 24.213C19.9216 24.1274 19.8861 24.0012 19.9173 23.8824C19.9482 23.7636 20.0411 23.6706 20.16 23.6394C20.2788 23.6085 20.4053 23.6437 20.4906 23.7323L25.0562 28.298C25.3218 28.5636 25.3218 28.9938 25.0562 29.2593L21.4586 32.853C21.3955 32.9167 21.3095 32.9526 21.2199 32.9523C21.1269 32.9579 21.0366 32.9197 20.9759 32.8494C20.8494 32.7169 20.8504 32.5081 20.9786 32.377V32.377Z" fill="url(#paint3_linear)"/>
<path d="M32.2922 25.9186C33.2309 25.9186 33.9918 25.1577 33.9918 24.219C33.9918 23.2802 33.2309 22.5194 32.2922 22.5194H28.5531V20.4799C28.5531 20.2293 28.415 19.9986 28.1939 19.8804C27.9728 19.7622 27.7046 19.7752 27.4958 19.9142L25.4563 21.2739C25.2675 21.4001 25.1539 21.6122 25.1539 21.8396V23.8791C25.1539 25.0054 26.0671 25.9186 27.1934 25.9186H32.2922ZM26.5136 23.8791V22.2034L27.1934 21.7506V23.1992C27.1934 23.5747 27.4978 23.8791 27.8733 23.8791H32.2922C32.4801 23.8791 32.6321 24.0311 32.6321 24.219C32.6321 24.4069 32.4801 24.5589 32.2922 24.5589H27.1934C26.818 24.5589 26.5136 24.2545 26.5136 23.8791Z" fill="url(#paint4_linear)"/>
<path d="M19.8559 26.8902C19.3284 26.3618 18.7063 25.7247 18.55 25.5442C18.5208 25.496 18.4862 25.4519 18.4464 25.412C18.1812 25.1475 17.752 25.1475 17.4867 25.412L10.067 32.8331C9.40309 33.497 9.40309 34.5732 10.067 35.2371C10.7309 35.901 11.8071 35.901 12.471 35.2371L19.8559 27.8512C20.1211 27.586 20.1211 27.1554 19.8559 26.8902V26.8902ZM11.5096 34.2751C11.3769 34.4079 11.1614 34.4082 11.0286 34.2754C10.8955 34.1427 10.8955 33.9272 11.0283 33.7944L17.9395 26.8839C18.0753 27.0267 18.233 27.188 18.4152 27.3699L11.5096 34.2751Z" fill="url(#paint5_linear)"/>
<path d="M17.4431 5.10203C17.483 5.10203 17.5228 5.09871 17.562 5.09207C17.9317 5.02668 18.1787 4.67382 18.1133 4.30403L17.6373 1.62619C17.5643 1.26469 17.2161 1.02768 16.8532 1.09175C16.4901 1.15581 16.2441 1.49739 16.2989 1.86187L16.7746 4.54071C16.832 4.86502 17.1135 5.1017 17.4431 5.10203Z" fill="url(#paint6_linear)"/>
<path d="M13.943 5.42149C14.041 5.68971 14.2959 5.86863 14.5817 5.86863C14.661 5.86896 14.7397 5.85502 14.8141 5.82713C15.1673 5.69966 15.3498 5.30962 15.222 4.95643L14.2906 2.40108C14.1571 2.05552 13.7717 1.88025 13.4239 2.00705C13.076 2.13353 12.8934 2.5156 13.0132 2.86581L13.943 5.42149Z" fill="url(#paint7_linear)"/>
<path d="M11.3081 6.7806C11.4289 6.99272 11.6537 7.12384 11.8976 7.1245C12.1416 7.12483 12.3674 6.99471 12.4888 6.78326C12.6103 6.57147 12.609 6.31122 12.4859 6.10077L11.1262 3.74558C10.937 3.42326 10.5234 3.31405 10.1997 3.50093C9.87607 3.68782 9.76387 4.10077 9.94843 4.42542L11.3081 6.7806Z" fill="url(#paint8_linear)"/>
<path d="M8.94984 8.57739C9.19117 8.86552 9.62005 8.90337 9.90851 8.66237C10.1966 8.42104 10.2345 7.99183 9.99349 7.7037L8.24279 5.62005C7.99781 5.34786 7.58088 5.31864 7.30038 5.554C7.01988 5.78968 6.9764 6.20495 7.20212 6.49341L8.94984 8.57739Z" fill="url(#paint9_linear)"/>
<path d="M6.93869 10.7585C7.22682 10.9902 7.64773 10.9487 7.88541 10.6652C8.12308 10.382 8.09055 9.96045 7.81238 9.7168L5.73006 7.96908C5.44159 7.73738 5.02101 7.77854 4.78301 8.06202C4.54533 8.34551 4.57786 8.76675 4.85637 9.01041L6.93869 10.7585Z" fill="url(#paint10_linear)"/>
<path d="M2.98211 11.8909L5.33696 13.2505C5.54742 13.3737 5.80767 13.375 6.01945 13.2535C6.2309 13.132 6.36103 12.9063 6.36069 12.6623C6.36003 12.4183 6.22891 12.1936 6.01679 12.0728L3.66194 10.7131C3.33696 10.5285 2.92402 10.6407 2.73713 10.9644C2.55024 11.288 2.65945 11.7017 2.98211 11.8909Z" fill="url(#paint11_linear)"/>
<path d="M1.63594 15.0553L4.19129 15.9854C4.26565 16.013 4.34432 16.0269 4.42366 16.0269C4.75395 16.0269 5.03644 15.7903 5.09387 15.4649C5.15129 15.14 4.96673 14.8206 4.65636 14.7078L2.10067 13.778C1.75046 13.6581 1.36839 13.8407 1.24192 14.1886C1.11511 14.5365 1.29038 14.9219 1.63594 15.0553Z" fill="url(#paint12_linear)"/>
<path d="M0.861722 18.4059L3.53956 18.8782C3.57873 18.8849 3.61857 18.8882 3.6584 18.8885C4.01126 18.8885 4.30537 18.619 4.33591 18.2674C4.36678 17.9162 4.12346 17.5999 3.77624 17.5388L1.09741 17.0631C0.727614 16.9981 0.375084 17.245 0.310021 17.6148C0.244959 17.9846 0.49193 18.3372 0.861722 18.4022V18.4059Z" fill="url(#paint13_linear)"/>
</g>
<path d="M58.2668 9.56171L62.9224 22.7069L67.5531 9.56171H72.4576V27.6862H68.7107V22.7318L69.0842 14.18L64.1921 27.6862H61.6278L56.7481 14.1924L57.1216 22.7318V27.6862H53.3871V9.56171H58.2668Z" fill="#0074F0"/>
<path d="M86.6236 19.8314H79.4535V24.6862H87.8684V27.6862H75.719V9.56171H87.8435V12.5866H79.4535V16.9061H86.6236V19.8314Z" fill="#0074F0"/>
<path d="M103.951 12.5866H98.3995V27.6862H94.6651V12.5866H89.1879V9.56171H103.951V12.5866Z" fill="#0074F0"/>
<path d="M116.997 19.8314H109.827V24.6862H118.242V27.6862H106.092V9.56171H118.217V12.5866H109.827V16.9061H116.997V19.8314Z" fill="#0074F0"/>
<path d="M135.321 19.0347C135.321 20.819 135.005 22.3833 134.375 23.7277C133.744 25.0721 132.839 26.1094 131.661 26.8397C130.491 27.57 129.146 27.9351 127.628 27.9351C126.126 27.9351 124.785 27.5741 123.607 26.8521C122.429 26.1302 121.516 25.1011 120.868 23.765C120.221 22.4206 119.893 20.877 119.885 19.1343V18.238C119.885 16.4538 120.204 14.8854 120.843 13.5327C121.491 12.1717 122.399 11.1302 123.57 10.4082C124.748 9.67789 126.092 9.31274 127.603 9.31274C129.113 9.31274 130.453 9.67789 131.624 10.4082C132.802 11.1302 133.711 12.1717 134.35 13.5327C134.997 14.8854 135.321 16.4497 135.321 18.2256V19.0347ZM131.536 18.2131C131.536 16.3127 131.196 14.8688 130.516 13.8812C129.835 12.8937 128.864 12.3999 127.603 12.3999C126.35 12.3999 125.383 12.8895 124.702 13.8688C124.022 14.8397 123.677 16.2671 123.669 18.1509V19.0347C123.669 20.8853 124.009 22.321 124.69 23.3418C125.37 24.3625 126.35 24.8729 127.628 24.8729C128.881 24.8729 129.843 24.3833 130.516 23.404C131.188 22.4165 131.528 20.9808 131.536 19.097V18.2131Z" fill="#0074F0"/>
<path d="M144.744 21.0513H141.769V27.6862H138.034V9.56171H144.769C146.91 9.56171 148.561 10.0389 149.723 10.9932C150.885 11.9476 151.466 13.2961 151.466 15.0389C151.466 16.2754 151.196 17.3086 150.657 18.1385C150.126 18.96 149.316 19.6156 148.229 20.1053L152.15 27.5119V27.6862H148.142L144.744 21.0513ZM141.769 18.0264H144.781C145.719 18.0264 146.445 17.7899 146.96 17.3169C147.474 16.8356 147.731 16.1758 147.731 15.3376C147.731 14.4829 147.487 13.8107 146.997 13.321C146.516 12.8314 145.773 12.5866 144.769 12.5866H141.769V18.0264Z" fill="#0074F0"/>
<path d="M54.7735 36.0519C54.8063 36.4077 54.911 36.6637 55.0876 36.8201C55.2642 36.974 55.5202 37.051 55.8558 37.051C56.2266 37.051 56.5016 36.9286 56.6807 36.6839C56.8599 36.4367 56.9633 36.0721 56.991 35.5903H55.2503V34.6707H56.9873C56.957 34.1788 56.846 33.8142 56.6542 33.5771C56.465 33.3374 56.1938 33.2176 55.8406 33.2176C55.4975 33.2176 55.2402 33.2996 55.0687 33.4635C54.8971 33.625 54.7974 33.8861 54.7697 34.2469H53.6344C53.6899 33.6439 53.9094 33.1684 54.2929 32.8202C54.6789 32.4721 55.1948 32.298 55.8406 32.298C56.2998 32.298 56.7022 32.4065 57.0478 32.6234C57.396 32.8379 57.6634 33.1469 57.8501 33.5506C58.0367 33.9517 58.1301 34.4197 58.1301 34.9545V35.314C58.1301 36.1264 57.927 36.771 57.5208 37.2478C57.1172 37.7221 56.5622 37.9592 55.8558 37.9592C55.2049 37.9592 54.6827 37.7876 54.2891 37.4445C53.8981 37.0989 53.6811 36.6347 53.6382 36.0519H54.7735Z" fill="#585551"/>
<path d="M63.3069 32.3737V37.8835H62.1679V33.2932H60.6996L60.6088 35.2383C60.5709 35.8943 60.4877 36.4114 60.359 36.7899C60.2303 37.1658 60.0424 37.442 59.7952 37.6186C59.5479 37.7927 59.2099 37.881 58.781 37.8835H58.4858V36.9715L58.675 36.9526C58.9601 36.9148 59.1632 36.7508 59.2843 36.4606C59.4079 36.168 59.4861 35.6483 59.5189 34.9015L59.6135 32.3737H63.3069Z" fill="#585551"/>
<path d="M67.6134 35.4957H65.4337V36.9715H67.9918V37.8835H64.2984V32.3737H67.9842V33.2932H65.4337V34.6064H67.6134V35.4957Z" fill="#585551"/>
<path d="M70.4553 35.6319H69.8007V37.8835H68.6654V32.3737H69.8007V34.5799H70.3191L71.6663 32.3737H73.0513L71.3522 34.981L73.2292 37.8835H71.8744L70.4553 35.6319Z" fill="#585551"/>
<path d="M77.8156 33.2932H76.1279V37.8835H74.9926V33.2932H73.3276V32.3737H77.8156V33.2932Z" fill="#585551"/>
<path d="M79.6018 35.9422V37.8835H78.4665V32.3737H80.616C81.0297 32.3737 81.393 32.4494 81.7058 32.6007C82.0212 32.7521 82.2634 32.9678 82.4324 33.2478C82.6014 33.5253 82.6859 33.842 82.6859 34.1977C82.6859 34.7376 82.5005 35.1639 82.1297 35.4767C81.7613 35.7871 81.2505 35.9422 80.5971 35.9422H79.6018ZM79.6018 35.0226H80.616C80.9162 35.0226 81.1445 34.952 81.3009 34.8107C81.4599 34.6694 81.5393 34.4676 81.5393 34.2052C81.5393 33.9353 81.4599 33.7171 81.3009 33.5506C81.142 33.3841 80.9225 33.2983 80.6425 33.2932H79.6018V35.0226Z" fill="#585551"/>
<path d="M87.9952 35.2535C87.9952 35.7959 87.8994 36.2714 87.7076 36.6801C87.5159 37.0888 87.2409 37.4042 86.8827 37.6262C86.5269 37.8482 86.1182 37.9592 85.6566 37.9592C85.1999 37.9592 84.7925 37.8495 84.4343 37.63C84.076 37.4105 83.7985 37.0977 83.6017 36.6915C83.405 36.2828 83.3053 35.8135 83.3028 35.2837V35.0113C83.3028 34.4689 83.3999 33.9921 83.5942 33.5808C83.7909 33.1671 84.0672 32.8505 84.4229 32.631C84.7811 32.409 85.1898 32.298 85.649 32.298C86.1082 32.298 86.5156 32.409 86.8713 32.631C87.2295 32.8505 87.5058 33.1671 87.7001 33.5808C87.8968 33.9921 87.9952 34.4676 87.9952 35.0075V35.2535ZM86.8448 35.0037C86.8448 34.426 86.7414 33.987 86.5345 33.6868C86.3276 33.3866 86.0325 33.2365 85.649 33.2365C85.2681 33.2365 84.9741 33.3853 84.7673 33.683C84.5604 33.9782 84.4557 34.4121 84.4532 34.9848V35.2535C84.4532 35.8161 84.5566 36.2525 84.7635 36.5628C84.9704 36.8731 85.2681 37.0283 85.6566 37.0283C86.0375 37.0283 86.3302 36.8794 86.5345 36.5817C86.7389 36.2815 86.8423 35.8451 86.8448 35.2724V35.0037Z" fill="#585551"/>
<path d="M93.3045 37.8835H92.1692V35.5222H89.9555V37.8835H88.8202V32.3737H89.9555V34.6064H92.1692V32.3737H93.3045V37.8835Z" fill="#585551"/>
<path d="M98.7841 37.8835H97.6488V35.5222H95.435V37.8835H94.2997V32.3737H95.435V34.6064H97.6488V32.3737H98.7841V37.8835Z" fill="#585551"/>
<path d="M100.933 34.3604H101.819C102.467 34.3604 102.981 34.5181 103.359 34.8334C103.74 35.1463 103.931 35.5688 103.931 36.1011C103.931 36.636 103.741 37.0661 103.363 37.3916C102.987 37.7145 102.486 37.8785 101.861 37.8835H99.7907V32.3737H100.933V34.3604ZM105.539 37.8835H104.404V32.3737H105.539V37.8835ZM100.933 35.2762V36.9715H101.838C102.128 36.9715 102.359 36.892 102.53 36.7331C102.705 36.5742 102.792 36.361 102.792 36.0936C102.792 35.8438 102.708 35.647 102.542 35.5032C102.378 35.3569 102.152 35.2812 101.864 35.2762H100.933Z" fill="#585551"/>
<path d="M109.842 32.3737H110.981V37.8835H109.842V34.2242L107.635 37.8835H106.5V32.3737H107.635V36.0406L109.842 32.3737ZM110.061 30.9243C110.061 31.2599 109.94 31.5311 109.698 31.7379C109.458 31.9448 109.143 32.0482 108.752 32.0482C108.361 32.0482 108.044 31.9461 107.802 31.7417C107.562 31.5374 107.442 31.2649 107.442 30.9243H108.218C108.218 31.0833 108.265 31.2069 108.358 31.2952C108.454 31.3809 108.585 31.4238 108.752 31.4238C108.916 31.4238 109.044 31.3809 109.138 31.2952C109.231 31.2069 109.278 31.0833 109.278 30.9243H110.061Z" fill="#585551"/>
<path d="M118.22 36.0482C118.177 36.641 117.957 37.1077 117.561 37.4483C117.168 37.7889 116.648 37.9592 116.002 37.9592C115.296 37.9592 114.74 37.7221 114.333 37.2478C113.93 36.771 113.728 36.1175 113.728 35.2875V34.9507C113.728 34.4209 113.821 33.9542 114.008 33.5506C114.195 33.1469 114.461 32.8379 114.806 32.6234C115.155 32.4065 115.558 32.298 116.017 32.298C116.653 32.298 117.165 32.4683 117.554 32.8089C117.942 33.1494 118.167 33.6275 118.227 34.2431H117.092C117.064 33.8874 116.965 33.63 116.793 33.4711C116.624 33.3096 116.366 33.2289 116.017 33.2289C115.639 33.2289 115.355 33.3651 115.166 33.6376C114.979 33.9076 114.883 34.3276 114.878 34.8978V35.314C114.878 35.9094 114.968 36.3446 115.147 36.6196C115.329 36.8946 115.614 37.0321 116.002 37.0321C116.353 37.0321 116.614 36.9526 116.786 36.7937C116.96 36.6322 117.059 36.3837 117.085 36.0482H118.22Z" fill="#585551"/>
<path d="M123.453 37.8835H122.314V33.2932H120.108V37.8835H118.973V32.3737H123.453V37.8835Z" fill="#585551"/>
<path d="M128.978 35.2535C128.978 35.7959 128.883 36.2714 128.691 36.6801C128.499 37.0888 128.224 37.4042 127.866 37.6262C127.51 37.8482 127.101 37.9592 126.64 37.9592C126.183 37.9592 125.776 37.8495 125.417 37.63C125.059 37.4105 124.782 37.0977 124.585 36.6915C124.388 36.2828 124.288 35.8135 124.286 35.2837V35.0113C124.286 34.4689 124.383 33.9921 124.577 33.5808C124.774 33.1671 125.05 32.8505 125.406 32.631C125.764 32.409 126.173 32.298 126.632 32.298C127.091 32.298 127.499 32.409 127.854 32.631C128.213 32.8505 128.489 33.1671 128.683 33.5808C128.88 33.9921 128.978 34.4676 128.978 35.0075V35.2535ZM127.828 35.0037C127.828 34.426 127.725 33.987 127.518 33.6868C127.311 33.3866 127.016 33.2365 126.632 33.2365C126.251 33.2365 125.957 33.3853 125.75 33.683C125.544 33.9782 125.439 34.4121 125.436 34.9848V35.2535C125.436 35.8161 125.54 36.2525 125.747 36.5628C125.954 36.8731 126.251 37.0283 126.64 37.0283C127.021 37.0283 127.313 36.8794 127.518 36.5817C127.722 36.2815 127.825 35.8451 127.828 35.2724V35.0037Z" fill="#585551"/>
<path d="M130.939 35.9422V37.8835H129.803V32.3737H131.953C132.367 32.3737 132.73 32.4494 133.043 32.6007C133.358 32.7521 133.6 32.9678 133.769 33.2478C133.938 33.5253 134.023 33.842 134.023 34.1977C134.023 34.7376 133.837 35.1639 133.467 35.4767C133.098 35.7871 132.587 35.9422 131.934 35.9422H130.939ZM130.939 35.0226H131.953C132.253 35.0226 132.481 34.952 132.638 34.8107C132.797 34.6694 132.876 34.4676 132.876 34.2052C132.876 33.9353 132.797 33.7171 132.638 33.5506C132.479 33.3841 132.259 33.2983 131.979 33.2932H130.939V35.0226Z" fill="#585551"/>
<path d="M138.954 33.2932H137.266V37.8835H136.131V33.2932H134.466V32.3737H138.954V33.2932Z" fill="#585551"/>
<defs>
<linearGradient id="paint0_linear" x1="0.134607" y1="21.1596" x2="41.9824" y2="21.1596" gradientUnits="userSpaceOnUse">
<stop stop-color="#006DF0"/>
<stop offset="1" stop-color="#00E7F0"/>
</linearGradient>
<linearGradient id="paint1_linear" x1="0.134447" y1="14.3612" x2="41.9823" y2="14.3612" gradientUnits="userSpaceOnUse">
<stop stop-color="#006DF0"/>
<stop offset="1" stop-color="#00E7F0"/>
</linearGradient>
<linearGradient id="paint2_linear" x1="0.134872" y1="16.9331" x2="41.9827" y2="16.9331" gradientUnits="userSpaceOnUse">
<stop stop-color="#006DF0"/>
<stop offset="1" stop-color="#00E7F0"/>
</linearGradient>
<linearGradient id="paint3_linear" x1="0.134267" y1="28.3" x2="41.9821" y2="28.3" gradientUnits="userSpaceOnUse">
<stop stop-color="#006DF0"/>
<stop offset="1" stop-color="#00E7F0"/>
</linearGradient>
<linearGradient id="paint4_linear" x1="0.134714" y1="22.8593" x2="41.9825" y2="22.8593" gradientUnits="userSpaceOnUse">
<stop stop-color="#006DF0"/>
<stop offset="1" stop-color="#00E7F0"/>
</linearGradient>
<linearGradient id="paint5_linear" x1="0.134549" y1="30.4769" x2="41.9824" y2="30.4769" gradientUnits="userSpaceOnUse">
<stop stop-color="#006DF0"/>
<stop offset="1" stop-color="#00E7F0"/>
</linearGradient>
<linearGradient id="paint6_linear" x1="0.134412" y1="3.08301" x2="41.9823" y2="3.08301" gradientUnits="userSpaceOnUse">
<stop stop-color="#006DF0"/>
<stop offset="1" stop-color="#00E7F0"/>
</linearGradient>
<linearGradient id="paint7_linear" x1="0.134379" y1="3.91083" x2="41.9823" y2="3.91083" gradientUnits="userSpaceOnUse">
<stop stop-color="#006DF0"/>
<stop offset="1" stop-color="#00E7F0"/>
</linearGradient>
<linearGradient id="paint8_linear" x1="0.134493" y1="5.26313" x2="41.9824" y2="5.26313" gradientUnits="userSpaceOnUse">
<stop stop-color="#006DF0"/>
<stop offset="1" stop-color="#00E7F0"/>
</linearGradient>
<linearGradient id="paint9_linear" x1="0.134411" y1="7.09863" x2="41.9823" y2="7.09863" gradientUnits="userSpaceOnUse">
<stop stop-color="#006DF0"/>
<stop offset="1" stop-color="#00E7F0"/>
</linearGradient>
<linearGradient id="paint10_linear" x1="0.134882" y1="9.36126" x2="41.9827" y2="9.36126" gradientUnits="userSpaceOnUse">
<stop stop-color="#006DF0"/>
<stop offset="1" stop-color="#00E7F0"/>
</linearGradient>
<linearGradient id="paint11_linear" x1="0.134808" y1="11.9818" x2="41.9826" y2="11.9818" gradientUnits="userSpaceOnUse">
<stop stop-color="#006DF0"/>
<stop offset="1" stop-color="#00E7F0"/>
</linearGradient>
<linearGradient id="paint12_linear" x1="0.134035" y1="14.882" x2="41.9819" y2="14.882" gradientUnits="userSpaceOnUse">
<stop stop-color="#006DF0"/>
<stop offset="1" stop-color="#00E7F0"/>
</linearGradient>
<linearGradient id="paint13_linear" x1="0.134919" y1="17.9727" x2="41.9827" y2="17.9727" gradientUnits="userSpaceOnUse">
<stop stop-color="#006DF0"/>
<stop offset="1" stop-color="#00E7F0"/>
</linearGradient>
<clipPath id="clip0">
<rect width="40.79" height="40.79" fill="white" transform="translate(0 0.764648)"/>
</clipPath>
</defs>
</svg>
