<svg width="153" height="153" viewBox="0 0 153 153" fill="none" xmlns="http://www.w3.org/2000/svg">
<circle cx="76.5" cy="76.5" r="76.5" fill="#0074F0"/>
<path d="M41.3449 78.8534L47.8782 76.8034L46.7916 73.3818L36.4835 76.6126L44.054 100.579L54.3636 97.3479L53.2844 93.9203L46.7527 95.9703L44.536 88.9542L49.7267 87.3246L48.6415 83.903L43.4568 85.5266L41.3449 78.8534Z" fill="white"/>
<path d="M53.2681 86.3314L60.1426 84.1756L59.0575 80.754L52.189 82.9039L53.2681 86.3314Z" fill="white"/>
<path d="M63.5956 74.0495C63.0552 72.3365 63.606 71.4479 64.8094 71.0692C66.0113 70.698 66.9707 71.108 67.511 72.8225L71.6016 85.7634C72.142 87.4764 71.5912 88.3605 70.3878 88.7377C69.1859 89.1164 68.2205 88.7049 67.6802 86.9919L63.5956 74.0495ZM63.8261 87.9327C65.0354 91.7672 67.7565 93.3282 71.4669 92.1653C75.1788 91.0009 76.5169 88.1712 75.3016 84.3366L71.3711 71.8743C70.1558 68.0397 67.4347 66.4847 63.7243 67.6491C60.0124 68.812 58.6788 71.6372 59.8896 75.4703L63.8261 87.9327Z" fill="white"/>
<path d="M91.2972 85.5681C90.6401 84.7988 90.3318 83.9535 89.9636 82.7861L88.7961 79.0887C88.0074 76.5915 86.8189 74.9709 84.6816 74.7756C86.1155 73.4591 86.3939 71.6059 85.6171 69.137L85.0244 67.257C83.8569 63.5596 81.5968 62.27 77.6813 63.4985L71.9728 65.2875L79.5448 89.2521L83.3226 88.0654L80.2393 78.312L81.5504 77.899C83.2642 77.3608 84.2835 77.9452 84.9824 80.1741L86.1754 83.9371C86.7905 85.8901 87.048 86.2256 87.4491 86.7787L91.2972 85.5681ZM78.6587 66.9544C79.9998 66.5354 80.82 67.1064 81.3603 68.815L82.1072 71.181C82.7119 73.0983 82.0473 73.9809 80.6389 74.4237L79.1601 74.8844L76.8357 67.5284L78.6587 66.9544Z" fill="white"/>
<path d="M93.3429 84.8496L99.3209 82.977C103.105 81.7903 104.299 79.1216 103.09 75.287L99.2595 63.1661C98.0501 59.3315 95.5326 57.8257 91.7504 59.0125L85.7709 60.885L93.3429 84.8496ZM92.7622 62.4579C93.9655 62.0792 94.883 62.4669 95.4219 64.1799L99.3598 76.6408C99.8986 78.3553 99.3733 79.1961 98.1699 79.5748L96.04 80.2413L90.6338 63.1244L92.7622 62.4579Z" fill="white"/>
<path d="M108.125 53.799L102.591 55.5358L106.314 80.705L109.785 79.6182L109.065 75.062L113.702 73.6099L115.733 77.7531L119.546 76.5589L108.125 53.799ZM106.511 58.9679L112.158 70.5223L108.52 71.6613L106.511 58.9679Z" fill="white"/>
<path d="M52.1754 23.8574C52.575 23.6711 53.0001 23.5414 53.4342 23.4802L52.1754 23.8574ZM60.4344 21.3841C61.2247 20.4478 62.485 19.9155 63.7243 19.9155C64.1014 19.9155 64.4756 19.9647 64.8349 20.0661L60.4344 21.3841Z" fill="#2D8CE4"/>
<path d="M75.7935 134.717C74.7892 134.717 73.7819 134.386 73.0395 133.731C72.1609 132.958 70.8528 132.542 69.5835 132.542C68.8037 132.542 68.0389 132.698 67.3983 133.026C66.846 133.308 66.2248 133.442 65.5992 133.442C64.3165 133.442 63.0113 132.879 62.2345 131.874C61.3245 130.695 59.6152 129.954 58.0422 129.954C57.6231 129.954 57.213 130.006 56.8313 130.118C56.4886 130.216 56.1323 130.265 55.7761 130.265C54.2375 130.265 52.6689 129.383 51.9789 128.017C51.1841 126.438 49.1695 125.256 47.3689 125.256C47.2462 125.256 47.1264 125.262 47.0067 125.272C46.8944 125.283 46.7837 125.289 46.6714 125.289C44.8933 125.289 43.1271 124 42.6422 122.292C42.1258 120.476 40.1621 118.842 38.2792 118.662C36.3933 118.478 34.7214 116.792 34.5613 114.912C34.4026 113.033 32.7847 111.057 30.9706 110.521C29.9917 110.234 29.1611 109.528 28.6297 108.647L34.0689 106.888C40.7862 116.406 50.4208 123.332 61.2901 126.814C61.2736 126.83 61.2557 126.848 61.2377 126.863C61.3365 126.982 61.4173 127.115 61.5371 127.212C61.6628 127.312 61.805 127.382 61.9502 127.382C62.0624 127.382 62.1747 127.34 62.2809 127.237C62.3139 127.207 62.3408 127.176 62.3633 127.145C67.2232 128.589 72.3151 129.35 77.4893 129.348C82.921 129.348 88.447 128.512 93.8921 126.751C102.56 123.948 110.009 119.133 115.887 112.996L115.969 113.001L115.987 112.893C123.085 105.442 127.874 96.0522 129.735 85.947C129.878 86.2839 130.161 86.5865 130.462 86.7013C130.552 86.7356 130.66 86.7744 130.757 86.7744C130.781 86.7744 130.805 86.7714 130.827 86.7655C131.324 86.6641 131.867 86.7177 132.337 86.3614C132.83 86.3152 132.95 85.9663 133.021 85.61C133.087 85.2612 133.135 84.9078 132.905 84.5902C132.602 84.1728 132.068 83.9447 131.498 83.9447C131.255 83.9447 131.007 83.9864 130.766 84.0699C130.354 84.216 130.122 84.4576 129.944 84.7408C130.419 81.765 130.642 78.734 130.597 75.6762L134.252 74.4939C134.054 75.8119 134.321 77.2521 135.039 78.2599C136.135 79.797 135.951 82.1631 134.629 83.5153C133.31 84.8676 132.87 87.3767 133.655 89.0957C134.303 90.515 133.984 92.3235 132.978 93.5177L132.795 93.4446L132.722 93.6221L132.861 93.6489C132.679 93.8472 132.477 94.0246 132.255 94.1782C130.701 95.259 129.793 97.6385 130.236 99.4708C130.678 101.306 129.627 103.434 127.898 104.198C126.166 104.963 124.821 107.132 124.908 109.015C124.993 110.9 123.553 112.79 121.709 113.217C121.616 113.239 121.522 113.265 121.429 113.293C121.664 113.011 121.727 112.6 121.547 112.279C121.417 112.046 121.137 111.881 120.827 111.82C120.865 111.726 120.865 111.623 120.814 111.55C120.759 111.469 120.655 111.429 120.545 111.429C120.465 111.429 120.381 111.45 120.304 111.493C120.136 111.592 120.069 111.741 120.125 111.874C120.124 111.874 120.122 111.875 120.121 111.877C119.615 112.085 119.247 112.792 119.437 113.191C119.581 113.49 120.025 113.669 120.48 113.669C120.51 113.669 120.54 113.669 120.569 113.667C119.199 114.433 118.076 115.911 117.862 117.382C117.59 119.247 115.818 120.832 113.926 120.902C112.034 120.974 109.976 122.489 109.355 124.27C108.828 125.776 107.288 126.881 105.695 127.015C105.707 127.011 105.721 127.005 105.733 127C106.162 126.832 106.287 126.492 106.025 126.195C105.86 126.009 105.523 125.927 105.025 125.682C104.983 126.17 104.896 126.438 104.955 126.677C104.995 126.847 105.104 126.972 105.255 127.027C105.11 127.022 104.964 127.009 104.82 126.987C104.619 126.955 104.414 126.94 104.206 126.94C102.468 126.94 100.538 127.975 99.692 129.432C98.9616 130.689 97.4693 131.459 96.0085 131.459C95.5715 131.459 95.1359 131.391 94.7243 131.243C94.2573 131.078 93.7439 131 93.2171 131C91.7308 131 90.1398 131.626 89.2223 132.676C88.4455 133.567 87.2331 134.048 86.0357 134.048C85.3203 134.048 84.6108 133.876 84.0016 133.518C83.2892 133.101 82.4001 132.895 81.5006 132.895C80.3421 132.895 79.1672 133.233 78.3275 133.889C77.618 134.443 76.7065 134.717 75.7935 134.717ZM88.2464 131C88.209 131.528 88.0848 131.85 88.1925 132.09C88.2898 132.3 88.4934 132.408 88.7328 132.408C88.8705 132.408 89.0187 132.372 89.1684 132.3C89.5905 132.091 89.6743 131.743 89.3899 131.474C89.1849 131.282 88.8032 131.221 88.2464 131ZM76.4192 129.603C76.2949 129.603 76.1647 129.637 76.036 129.712C75.8713 129.809 75.7501 130.226 75.8534 130.337C76.0405 130.536 76.4057 130.615 76.8981 130.833C76.952 130.389 77.0717 130.128 76.9834 129.949C76.8757 129.733 76.6616 129.603 76.4192 129.603ZM100.927 123.953L100.874 124.041L101.033 124.158L101.136 123.996L100.927 123.953ZM110.304 121.359C110.22 121.359 110.144 121.373 110.096 121.405C109.997 121.472 110.042 121.694 110.011 121.937C110.293 121.876 110.512 121.876 110.635 121.786L110.624 121.421C110.54 121.384 110.415 121.359 110.304 121.359ZM116.882 118.538L116.852 118.703C116.905 118.75 117.003 118.752 117.135 118.788C117.135 118.675 117.169 118.575 117.128 118.542L116.882 118.538ZM117.175 117.961C117.132 117.767 117.105 117.691 117.062 117.691C117.041 117.691 117.015 117.709 116.981 117.742L117.175 117.961ZM121.324 107.082C121.321 107.232 121.281 107.344 121.329 107.411L121.595 107.446L121.669 107.179C121.651 107.134 121.495 107.128 121.324 107.082ZM128.172 103.016C128.135 103.016 128.102 103.021 128.07 103.031C127.909 103.095 127.861 103.243 127.934 103.374C127.977 103.45 128.055 103.489 128.135 103.489C128.19 103.489 128.247 103.469 128.295 103.437C128.395 103.364 128.432 103.228 128.543 103.049C128.385 103.04 128.265 103.016 128.172 103.016ZM130.076 95.9016L130.059 95.7346L129.892 95.7108L129.874 95.845L130.076 95.9016ZM131.314 92.7573C131.188 92.6291 131.13 92.5695 131.062 92.5695C131.002 92.5695 130.933 92.6157 130.809 92.7037C130.969 92.7216 131.098 92.735 131.314 92.7573ZM132.126 89.6116C132.062 89.6116 131.998 89.6265 131.944 89.6563C131.8 89.7428 131.752 89.871 131.855 89.9709C131.932 90.0439 132.084 90.0588 132.276 90.1229C132.313 89.947 132.372 89.8337 132.349 89.7338C132.33 89.6533 132.231 89.6116 132.126 89.6116ZM131.811 87.5124C131.668 87.5124 131.516 87.5452 131.362 87.6138C130.941 87.7971 130.706 88.2474 130.88 88.5411C131.008 88.7618 131.406 88.9168 131.743 88.9168C131.858 88.9168 131.966 88.8989 132.053 88.8587C132.496 88.6559 132.671 88.1952 132.442 87.8374C132.307 87.6242 132.077 87.5124 131.811 87.5124ZM77.4878 126.605C61.4502 126.604 46.2583 118.908 36.8139 106.001L38.7686 105.367C47.8733 117.47 62.2839 124.668 77.4893 124.668C82.439 124.667 87.4771 123.904 92.4388 122.299C107.809 117.329 118.972 105.427 123.574 91.1949C123.649 91.2009 123.725 91.2098 123.816 91.2172C123.715 91.1546 123.662 91.1248 123.598 91.1203C125.032 86.6581 125.822 81.9708 125.895 77.1969L127.85 76.5648C127.835 83.6361 126.307 90.5389 123.481 96.8513C123.438 96.747 123.36 96.6501 123.237 96.571C123.101 96.4846 122.951 96.4443 122.794 96.4443C122.639 96.4443 122.475 96.4831 122.306 96.5591C122.065 96.6471 122.026 96.8633 121.953 97.0526C121.884 97.2315 121.745 97.4581 121.947 97.5819C122.191 97.7265 122.492 97.8443 122.79 97.8785C122.803 97.88 122.818 97.8815 122.833 97.8815C122.894 97.8815 122.962 97.8651 123.028 97.8383C122.468 99.0176 121.863 100.175 121.215 101.306C121.167 101.348 121.121 101.397 121.074 101.457C121.089 101.461 121.106 101.466 121.122 101.469C118.915 105.291 116.2 108.831 113.037 111.976C112.901 112 112.812 112.017 112.706 112.038C112.772 112.096 112.817 112.136 112.854 112.155C107.453 117.472 100.756 121.646 93.039 124.141C87.8752 125.812 82.6381 126.605 77.4878 126.605ZM113.887 108.632C113.83 108.632 113.775 108.641 113.727 108.662C113.534 108.741 113.441 108.959 113.547 109.111C113.612 109.2 113.695 109.276 113.818 109.276C113.854 109.276 113.895 109.269 113.938 109.254C114.115 109.193 114.293 108.89 114.228 108.78C114.176 108.689 114.029 108.632 113.887 108.632ZM19.1284 78.8414C18.865 78.0736 18.8201 77.2223 19.0012 76.4276L19.0281 76.4247L19.0401 76.3471L19.0206 76.3412C19.1568 75.794 19.4008 75.2782 19.7525 74.8413C20.938 73.3698 21.1355 70.8308 20.1926 69.1953C19.2481 67.5598 19.6567 65.2221 21.0996 64.0041C22.544 62.783 23.2205 60.3245 22.6038 58.5429C21.9887 56.7598 22.8343 54.5444 24.4822 53.6155C26.1317 52.6897 27.2647 50.4042 26.9968 48.5361C26.7318 46.668 27.9831 44.6508 29.7762 44.053C31.5723 43.4551 33.1184 41.426 33.2127 39.5401C33.307 37.6556 34.919 35.9112 36.7959 35.6623C38.6713 35.4148 40.5752 33.7092 41.0257 31.8784C41.4598 30.1132 43.2529 28.7401 45.0744 28.7401C45.1433 28.7401 45.2121 28.7401 45.2825 28.746C45.3543 28.749 45.4276 28.7505 45.5025 28.7505C47.339 28.7505 49.394 27.4743 50.1513 25.8254C50.551 24.9577 51.2964 24.2674 52.1749 23.8574L53.4337 23.4802C53.6238 23.4534 53.8169 23.4385 54.0085 23.4385C54.3168 23.4385 54.6251 23.4757 54.9245 23.5518C55.2567 23.6367 55.6085 23.6755 55.9677 23.6755C57.5887 23.6755 59.3623 22.86 60.2633 21.6047C60.3172 21.5286 60.3741 21.4556 60.434 21.384L64.8344 20.0661C65.0215 20.1197 65.2041 20.1883 65.3807 20.2703C65.9779 20.5491 66.6709 20.6818 67.3803 20.6818C68.7124 20.6818 70.0984 20.2137 70.9935 19.3653C71.7433 18.6572 72.7896 18.2904 73.8358 18.283H73.9031C74.7518 18.2889 75.5945 18.5319 76.271 19.0224C77.0807 19.6084 78.1763 19.9065 79.2645 19.9065C80.2358 19.9065 81.2027 19.6695 81.9556 19.1909C82.5962 18.7824 83.361 18.5841 84.1304 18.5841C85.2754 18.5841 86.4324 19.0209 87.2062 19.8454C88.1192 20.8205 89.6354 21.3855 91.0663 21.3855C91.659 21.3855 92.2382 21.2886 92.7531 21.0843C93.2036 20.9054 93.6886 20.8205 94.1765 20.8205C94.4324 20.8205 94.6914 20.8443 94.9458 20.8905C94.3307 21.0694 93.723 21.3527 93.0928 21.6896C94.0373 22.204 94.9443 22.5931 95.9681 22.5931C96.0624 22.5931 96.1582 22.5901 96.2555 22.5827C96.5952 22.5573 96.9829 22.3441 97.2897 22.1011C97.4753 22.289 97.6414 22.4947 97.7821 22.7184C98.6547 24.1004 100.529 25.0471 102.221 25.0471C102.486 25.0471 102.745 25.0262 102.995 24.9771C103.221 24.9338 103.452 24.9144 103.682 24.9144C105.342 24.9144 107.022 25.9879 107.625 27.5324C108.312 29.2902 110.421 30.7319 112.314 30.7334C114.207 30.7393 116.032 32.26 116.372 34.1147C116.421 34.3816 116.5 34.6484 116.605 34.9108C116.496 34.9839 116.473 35.1062 116.536 35.218C116.58 35.294 116.658 35.3313 116.738 35.3313C116.758 35.3313 116.777 35.3298 116.797 35.3253C117.509 36.7014 118.919 37.8628 120.366 38.1416C122.225 38.5009 123.73 40.3377 123.71 42.2251C123.703 43.0809 123.992 43.9829 124.474 44.779L120.88 45.9419C119.997 44.6941 119.063 43.4924 118.082 42.334C118.287 41.845 117.903 41.3321 117.288 41.3321C117.271 41.3321 117.253 41.3321 117.237 41.3321C117.229 41.3321 117.219 41.3321 117.211 41.3321C107.706 30.6782 94.166 24.2227 79.8003 23.5995C79.5518 23.1895 79.0579 22.942 78.5715 22.942C78.3993 22.942 78.2287 22.9748 78.0701 23.0404C77.8351 23.1373 77.6405 23.3266 77.5088 23.5503C77.5073 23.5503 77.5088 23.5503 77.5073 23.5503C72.0771 23.5503 66.5496 24.3867 61.106 26.1474C38.4274 33.4811 24.0976 54.5742 24.3999 77.1373L19.1284 78.8414ZM119.121 40.1066C119.085 40.2542 119.013 40.3779 119.055 40.4152L119.37 40.5032C119.509 40.4719 119.576 40.3407 119.483 40.2438C119.422 40.1782 119.286 40.1632 119.121 40.1066ZM110.334 32.9951C110.015 32.9951 109.85 33.0815 109.675 33.2977C109.762 33.326 109.843 33.3394 109.922 33.3394C110.132 33.3394 110.337 33.241 110.651 33.0144C110.53 33.0025 110.425 32.9951 110.334 32.9951ZM106.962 28.3688C107.069 28.6849 107.072 28.907 107.207 29.0114L107.747 28.9831C107.839 28.8325 107.87 28.5626 107.765 28.4583C107.662 28.3584 107.36 28.4061 106.962 28.3688ZM106.182 28.0006C106.173 28.0006 106.167 28.0021 106.162 28.005L105.99 28.2674L106.185 28.333C106.281 28.2838 106.351 28.2004 106.484 28.0811C106.34 28.0453 106.227 28.0006 106.182 28.0006ZM103.211 27.7173C103.087 27.7292 102.876 27.7143 102.853 27.759C102.778 27.9022 102.775 28.0706 102.732 28.2913C102.955 28.2779 103.193 28.2749 103.196 28.26C103.221 28.0811 103.212 27.8977 103.211 27.7173ZM90.2431 23.5875C90.249 23.8395 90.2116 23.9796 90.267 24.081L90.5888 24.1496L90.743 23.8156C90.7026 23.7307 90.505 23.6994 90.2431 23.5875ZM76.6033 20.8741C75.7636 21.0739 75.3774 21.3199 75.4313 21.9759C76.1542 21.9163 76.476 21.6255 76.6033 20.8741ZM27.1494 76.2487C27.2318 55.1795 40.7413 35.6175 61.9561 28.7579C64.2596 28.0125 66.5766 27.443 68.895 27.039C68.6615 27.5116 68.6466 28.0721 68.9115 28.5567C68.9908 28.6968 69.1076 28.828 69.2528 28.9443C67.0151 29.3319 64.7775 29.8806 62.5563 30.6007C49.5063 34.8199 39.4886 44.0366 33.9446 55.4359C33.081 55.5686 32.2533 55.9294 31.3837 56.396C31.9749 56.7181 32.5527 56.9909 33.1514 57.1504C30.6204 62.9172 29.2104 69.1894 29.0997 75.6181L27.1494 76.2487ZM116.179 47.4611C107.071 35.4013 92.6872 28.2317 77.5073 28.2317C75.9327 28.2317 74.3492 28.3092 72.7626 28.4657C72.9258 28.005 72.8928 27.4504 72.6219 26.9555C72.5426 26.8079 72.4468 26.6782 72.336 26.5619C74.0648 26.3844 75.7905 26.295 77.5073 26.295C82.9644 26.295 88.3242 27.1865 93.3922 28.8713C93.3248 28.8668 93.2545 28.8623 93.1797 28.8534C93.2919 29.2007 93.2859 29.4259 93.4191 29.5407C93.5344 29.6391 93.6766 29.6898 93.8173 29.6898C93.9744 29.6898 94.1301 29.6256 94.2453 29.4915C94.2992 29.4259 94.3082 29.2932 94.2843 29.1769C95.7885 29.7076 97.2658 30.31 98.7101 30.9794C98.556 31.0614 98.4871 31.2179 98.5604 31.3431C98.6188 31.443 98.7041 31.4893 98.8059 31.4893C98.8478 31.4893 98.8912 31.4818 98.9376 31.4669C99.0798 31.4058 99.1561 31.2969 99.1502 31.1851C101.112 32.1169 103.013 33.174 104.839 34.3488C104.706 34.55 104.678 34.8274 104.803 35.0137C104.919 35.1852 105.106 35.2746 105.317 35.2746C105.444 35.2746 105.58 35.2418 105.715 35.1762C105.788 35.1404 105.853 35.1002 105.906 35.0555C108.925 37.1084 111.726 39.4894 114.251 42.173C114.239 42.1715 114.225 42.17 114.213 42.17C114.201 42.17 114.188 42.1715 114.177 42.1759L114.079 42.3713L114.324 42.4175L114.393 42.3235C115.719 43.7444 116.967 45.2487 118.13 46.8305L116.179 47.4611ZM109.925 38.9258C109.922 39.0764 109.885 39.1867 109.931 39.2553L110.198 39.2896L110.271 39.0227C110.253 38.9765 110.097 38.9705 109.925 38.9258Z" fill="white"/>
<path d="M68.8654 57.1024L68.5241 53.4855L65.1759 52.0453L68.5241 50.6051L68.8624 46.9882L71.2721 49.715L74.8314 48.9174L72.9724 52.0453L74.8329 55.1687L71.2736 54.374L68.8654 57.1024ZM69.7724 54.7959C69.7514 54.9167 69.7006 55.0077 69.7305 55.0703L69.955 55.1254L70.0523 54.9033C70.0448 54.863 69.9116 54.8451 69.7724 54.7959Z" fill="white"/>
<path d="M79.1272 53.784L78.8802 51.1496L76.442 50.1L78.8787 49.0519L78.9027 48.8029C78.9146 48.791 78.9281 48.779 78.9416 48.7686C79.5328 48.2155 79.5657 47.7861 79.0389 47.3433L79.1257 46.4175L80.8814 48.4033L83.4737 47.8219L82.1192 50.1L83.4737 52.3751L80.8828 51.7966L79.1272 53.784Z" fill="white"/>
<path d="M59.9225 59.9935L59.6726 57.3591L57.2344 56.311L59.6726 55.2614L59.921 52.6285L60.7023 53.5111C60.6903 53.535 60.6784 53.5589 60.6664 53.5827C60.4 54.1209 60.8804 54.9156 61.4118 55.1213C61.5016 55.1556 61.6123 55.1914 61.7096 55.1914C61.7336 55.1914 61.756 55.1899 61.7755 55.1854C62.2739 55.0825 62.8157 55.1362 63.2872 54.7799C63.7452 54.7367 63.8829 54.431 63.9562 54.103L64.2676 54.033L63.0971 55.9994C62.9968 55.9547 62.8831 55.9309 62.7618 55.9309C62.6196 55.9309 62.4655 55.9637 62.3113 56.0307C61.8922 56.2141 61.6587 56.6659 61.8309 56.9611C61.9566 57.1802 62.3562 57.3353 62.693 57.3353C62.8097 57.3353 62.9175 57.3159 63.0058 57.2771C63.1435 57.213 63.2558 57.1251 63.3366 57.0237L64.2676 58.5861L63.2737 58.364C63.2977 58.2805 63.3141 58.2134 63.2992 58.1508C63.2797 58.0718 63.1809 58.0285 63.0762 58.0285C63.0133 58.0285 62.9489 58.0449 62.895 58.0762C62.8142 58.124 62.7633 58.1851 62.7529 58.2477L61.6752 58.0062L59.9225 59.9935Z" fill="white"/>
<path d="M87.4024 104.89L84.9926 102.163L81.4349 102.959L82.9571 100.401C83.0469 100.441 83.1442 100.468 83.225 100.468C83.2534 100.468 83.2789 100.465 83.3013 100.459C83.445 100.417 83.5109 100.142 83.668 99.8703C83.5243 99.8554 83.3971 99.836 83.2863 99.8196L81.4319 96.7081L84.9926 97.5027L87.4009 94.7744L87.7421 98.3928L91.0904 99.8315L87.7421 101.272L87.4024 104.89Z" fill="white"/>
<path d="M77.1395 105.46L75.3853 103.476L72.793 104.054L74.1475 101.777L72.793 99.5024L75.3853 100.081L77.138 98.095L77.388 100.728L79.8262 101.777L77.388 102.824L77.1395 105.46Z" fill="white"/>
<path d="M96.3472 99.2487L94.5915 97.2643L91.9991 97.8442L93.3552 95.5677L91.9991 93.2896L94.5915 93.871L96.3457 91.8837L96.5941 94.5181L99.0323 95.5662L96.5941 96.6143L96.3472 99.2487Z" fill="white"/>
<path d="M10.1618 83.5659L9.62292 81.9155L19.1287 78.8413L24.4003 77.1372L24.7101 77.0373C24.8104 77.2207 25.0034 77.3161 25.2354 77.3161C25.3671 77.3161 25.5108 77.2863 25.6575 77.2222C25.9374 77.1 26.1245 76.8241 26.114 76.5826L27.1498 76.2487L29.1 75.618L80.2152 59.09C80.2886 59.0975 80.3739 59.1019 80.4682 59.1139C80.4652 59.0781 80.4637 59.0438 80.4622 59.011L108.188 50.0463C108.258 50.088 108.346 50.1104 108.435 50.1104C108.513 50.1104 108.589 50.094 108.659 50.0582C108.752 50.009 108.819 49.924 108.851 49.8316L113.296 48.3944C113.578 48.6135 114 48.7567 114.518 48.7895C114.567 48.7939 114.615 48.7939 114.661 48.7939C115.353 48.7939 115.808 48.4466 115.8 47.8427C115.799 47.7593 115.787 47.6773 115.767 47.5953L116.179 47.4611L118.131 46.8304L120.88 45.9419L124.474 44.779L133.686 41.8002L134.224 43.4506L70.3322 64.1098L70.3472 64.0621L70.0928 63.9429L70.0524 64.089L70.3128 64.1158L48.4798 71.1752C48.4738 71.0947 48.4454 71.0112 48.3945 70.9277C48.2763 70.7339 48.0562 70.628 47.8138 70.628C47.6821 70.628 47.5429 70.6593 47.4082 70.7264C47.1058 70.874 46.9726 71.3242 47.1507 71.5911C47.1537 71.5956 47.1567 71.6001 47.1597 71.603L44.3309 72.517C44.2949 72.341 44.265 72.2098 44.1797 72.1174C44.0839 72.0115 43.9312 71.9609 43.7756 71.9609C43.572 71.9609 43.3655 72.0473 43.2757 72.2054C43.1754 72.3828 43.1814 72.7704 43.2966 72.8166C43.3131 72.8226 43.331 72.83 43.349 72.8345L10.1618 83.5659ZM13.5459 81.1865C13.5249 81.3356 13.489 81.4295 13.5115 81.513L13.7135 81.5771L13.8991 81.3445C13.8018 81.2998 13.706 81.2566 13.5459 81.1865ZM37.8081 73.8975C37.7796 73.8975 37.7527 73.9005 37.7272 73.908C37.5671 73.9572 37.5282 74.0839 37.5835 74.2091C37.618 74.2881 37.7287 74.3418 37.823 74.3418C37.8679 74.3418 37.9083 74.3314 37.9353 74.3045C38.0206 74.2225 38.049 74.1018 38.1373 73.9318C37.9966 73.9214 37.8919 73.8975 37.8081 73.8975ZM52.6827 69.5695C52.3624 69.5695 52.1992 69.6559 52.0256 69.8736C52.1109 69.9004 52.1917 69.9139 52.2711 69.9139C52.4806 69.9139 52.6872 69.817 53 69.5903C52.8787 69.5769 52.774 69.5695 52.6827 69.5695ZM98.9065 53.2025C98.8242 53.2025 98.7479 53.2159 98.7 53.2472C98.5997 53.3128 98.6446 53.5364 98.6147 53.781C98.896 53.7198 99.1146 53.7198 99.2373 53.6289L99.2268 53.2651C99.143 53.2278 99.0188 53.2025 98.9065 53.2025ZM107.698 50.7604L107.58 50.917L107.725 51.0511L107.842 50.8961L107.698 50.7604ZM118.566 47.8472C118.512 47.9859 118.481 48.0783 118.446 48.1678C118.532 48.1827 118.635 48.2214 118.708 48.2214C118.731 48.2214 118.75 48.2184 118.765 48.2095L118.869 47.9486C118.867 47.9113 118.71 47.8905 118.566 47.8472Z" fill="white"/>
<path d="M19.3171 111.659L18.7783 110.008L142.842 69.8931L143.378 71.5435L134.252 74.4939L130.597 75.6762L127.85 76.5648L125.896 77.1969L87.8754 89.4893C87.9307 89.3596 87.9712 89.2075 88.0011 89.0286C87.3096 89.1956 86.9264 89.3924 86.8426 89.8233L42.337 104.213C42.3206 104.166 42.3056 104.121 42.2906 104.079L42.0646 104.188L42.0736 104.3L38.7688 105.367L36.814 106.001L34.069 106.888L28.6299 108.647L19.3171 111.659Z" fill="white"/>
<path d="M40.6923 68.244L39.3213 67.84L40.0607 65.3502L41.4332 65.7543L40.6923 68.244ZM40.6025 66.1374C40.5097 66.1374 40.4124 66.1598 40.3196 66.2045C40.0442 66.3446 39.9454 66.6085 40.0906 66.8366C40.1804 66.9753 40.3705 67.0543 40.5681 67.0543C40.6743 67.0543 40.7821 67.0319 40.8794 66.9842C41.1189 66.8605 41.1862 66.613 41.0455 66.3774C40.9527 66.2224 40.7851 66.1374 40.6025 66.1374Z" fill="white"/>
<path d="M100.8 49.4842L98.7556 47.874L99.6417 46.7559L101.688 48.3645L100.8 49.4842Z" fill="white"/>
<path d="M52.5121 108.933L50.5364 107.241L51.4703 106.159L53.4445 107.852L52.5121 108.933Z" fill="white"/>
<path d="M114.56 89.0733L113.171 88.7275L113.805 86.2094L115.194 86.5552L114.56 89.0733Z" fill="white"/>
<path d="M61.9504 127.382C61.8052 127.382 61.663 127.312 61.5373 127.212C61.4175 127.115 61.3367 126.982 61.2379 126.863C61.2559 126.848 61.2738 126.83 61.2903 126.814C61.6465 126.927 62.0042 127.039 62.3635 127.145C62.341 127.176 62.3141 127.207 62.2811 127.237C62.1749 127.34 62.0626 127.382 61.9504 127.382Z" fill="#2D8CE4"/>
<path d="M119.926 71.6329C119.907 71.3421 119.893 71.1364 119.878 70.9277C119.898 70.9277 119.917 70.9277 119.937 70.9277C119.997 70.9277 120.058 70.9262 120.121 70.9232C120.182 70.9202 120.244 70.9172 120.303 70.9172C120.426 70.9172 120.535 70.9292 120.601 70.9813C120.739 71.0872 120.681 71.3675 120.711 71.5702C120.489 71.5881 120.269 71.606 119.926 71.6329Z" fill="#2D8CE4"/>
<path d="M128.77 64.1694C128.488 64.1694 128.377 64.0218 128.431 63.7445C128.535 63.7117 128.627 63.6938 128.71 63.6938C128.883 63.6938 129.003 63.7773 129.042 63.9786L128.867 64.1635C128.832 64.1665 128.801 64.1694 128.77 64.1694Z" fill="#2D8CE4"/>
<path d="M114.13 96.4474C114.172 96.2253 114.176 96.0598 114.251 95.9137C114.266 95.8824 114.387 95.8824 114.499 95.8794C114.453 96.0002 114.402 96.1224 114.347 96.2462L114.257 96.4415C114.215 96.4429 114.172 96.4459 114.13 96.4474Z" fill="#2D8CE4"/>
<path d="M132.862 93.6488L132.722 93.622L132.796 93.4446L132.978 93.5176C132.939 93.5624 132.902 93.6056 132.862 93.6488Z" fill="#2D8CE4"/>
<path d="M72.4637 119.681C72.329 119.645 72.2003 119.601 72.076 119.547C72.0775 119.504 72.0686 119.468 72.0476 119.448C71.9713 119.378 71.874 119.325 71.7557 119.276C72.0715 119.331 72.32 119.469 72.4637 119.681Z" fill="#2D8CE4"/>
<path d="M110.011 121.937C110.042 121.694 109.997 121.472 110.096 121.405C110.144 121.373 110.22 121.358 110.304 121.358C110.415 121.358 110.541 121.384 110.624 121.421L110.635 121.786C110.512 121.876 110.294 121.876 110.011 121.937Z" fill="#2D8CE4"/>
<path d="M94.7997 111.127C94.8012 111.001 94.7637 110.896 94.8131 110.858L95.0765 110.837L95.096 110.985C95.0346 111.042 94.9359 111.066 94.7997 111.127Z" fill="#2D8CE4"/>
<path d="M75.5478 116.194L75.387 116.125L75.4245 115.981L75.5838 116.046L75.5478 116.194Z" fill="#2D8CE4"/>
<path d="M83.9033 82.7354L82.1521 80.6646C82.8316 80.7734 83.5007 80.8763 84.1532 81.0283C84.6502 81.1446 85.1171 81.3847 84.9839 81.9512C84.8911 82.3388 84.4646 82.6474 83.9033 82.7354Z" fill="#2D8CE4"/>
<path d="M107.825 90.7119C108.021 90.5971 108.229 90.5046 108.449 90.4286C108.25 90.5583 108.035 90.6627 107.825 90.7119Z" fill="#2D8CE4"/>
<path d="M120.481 113.669C120.026 113.669 119.581 113.49 119.437 113.192C119.247 112.792 119.615 112.085 120.121 111.877C120.123 111.875 120.124 111.874 120.126 111.874C120.133 111.89 120.142 111.907 120.153 111.923C120.22 112.017 120.346 112.069 120.47 112.069C120.534 112.069 120.599 112.054 120.654 112.023C120.735 111.98 120.796 111.904 120.828 111.82C121.138 111.881 121.418 112.047 121.548 112.279C121.727 112.6 121.664 113.011 121.429 113.293C121.136 113.384 120.849 113.512 120.569 113.667C120.54 113.669 120.51 113.669 120.481 113.669Z" fill="#2D8CE4"/>
<path d="M94.2848 108.899C94.0303 108.899 93.8223 108.781 93.7325 108.561C93.6337 108.319 93.7909 107.993 93.8642 107.504C94.2189 107.612 94.5108 107.66 94.7338 107.732C94.5737 107.942 94.4629 108.197 94.3955 108.495C94.3686 108.62 94.3581 108.753 94.3626 108.896C94.3357 108.898 94.3102 108.899 94.2848 108.899Z" fill="#2D8CE4"/>
<path d="M72.0757 119.547C71.8452 119.449 71.6357 119.322 71.4441 119.168C71.5593 119.204 71.6641 119.238 71.7554 119.276C71.8737 119.325 71.9709 119.379 72.0473 119.449C72.0682 119.468 72.0772 119.504 72.0757 119.547Z" fill="#2D8CE4"/>
<path d="M88.7331 132.408C88.4936 132.408 88.2901 132.3 88.1928 132.09C88.085 131.85 88.2092 131.528 88.2467 131C88.8034 131.221 89.1851 131.282 89.3902 131.474C89.6746 131.743 89.5907 132.092 89.1687 132.3C89.019 132.372 88.8708 132.408 88.7331 132.408Z" fill="#2D8CE4"/>
<path d="M105.371 127.028C105.333 127.028 105.295 127.028 105.256 127.027C105.104 126.972 104.995 126.846 104.955 126.676C104.896 126.438 104.983 126.17 105.025 125.682C105.524 125.927 105.86 126.009 106.025 126.195C106.287 126.492 106.163 126.831 105.733 127C105.721 127.004 105.708 127.01 105.696 127.015C105.588 127.024 105.48 127.028 105.371 127.028Z" fill="#2D8CE4"/>
<path d="M76.8986 130.833C76.4062 130.616 76.041 130.537 75.8539 130.337C75.7506 130.226 75.8719 129.809 76.0365 129.712C76.1652 129.638 76.2954 129.603 76.4197 129.603C76.6621 129.603 76.8762 129.733 76.9839 129.949C77.0722 130.128 76.9525 130.389 76.8986 130.833Z" fill="#2D8CE4"/>
<path d="M86.8429 89.8235C86.9267 89.3926 87.3099 89.1958 88.0014 89.0288C87.9714 89.2077 87.931 89.3598 87.8757 89.4895L86.8429 89.8235Z" fill="#2D8CE4"/>
<path d="M83.2252 100.468C83.1444 100.468 83.0471 100.441 82.9573 100.401L83.294 99.833L83.2866 99.8196C83.3973 99.836 83.5245 99.8554 83.6682 99.8703C83.5111 100.142 83.4452 100.417 83.3015 100.459C83.2791 100.465 83.2536 100.468 83.2252 100.468Z" fill="#2D8CE4"/>
<path d="M106.996 100.796C106.813 100.792 106.604 100.735 106.474 100.635C106.42 100.598 106.544 100.395 106.62 100.167C106.881 100.294 107.081 100.343 107.18 100.458L106.996 100.796Z" fill="#2D8CE4"/>
<path d="M89.2478 83.4169C89.2613 83.2932 89.2762 83.1739 89.2957 82.9875C89.4768 83.0367 89.6444 83.0487 89.6534 83.0949L89.5591 83.3707C89.5022 83.4229 89.3571 83.405 89.2478 83.4169Z" fill="#2D8CE4"/>
<path d="M101.033 124.158L100.875 124.04L100.927 123.952L101.136 123.996L101.033 124.158Z" fill="#2D8CE4"/>
<path d="M130.757 86.7745C130.66 86.7745 130.552 86.7358 130.462 86.7015C130.161 86.5867 129.879 86.284 129.735 85.9471C129.81 85.5445 129.879 85.1435 129.944 84.741C130.123 84.4577 130.355 84.2162 130.766 84.0701C131.007 83.9866 131.256 83.9448 131.498 83.9448C132.068 83.9448 132.603 84.1729 132.905 84.5904C133.135 84.9079 133.088 85.2613 133.022 85.6101C132.95 85.9665 132.83 86.3153 132.338 86.3616C131.868 86.7179 131.324 86.6642 130.827 86.7656C130.805 86.7715 130.781 86.7745 130.757 86.7745Z" fill="#2D8CE4"/>
<path d="M122.833 97.8814C122.819 97.8814 122.804 97.8799 122.79 97.8785C122.492 97.8442 122.191 97.7264 121.947 97.5818C121.745 97.458 121.885 97.2314 121.953 97.0525C122.027 96.8632 122.066 96.647 122.307 96.559C122.476 96.483 122.639 96.4442 122.795 96.4442C122.952 96.4442 123.101 96.4845 123.238 96.5709C123.36 96.65 123.438 96.7469 123.482 96.8512C123.335 97.1807 123.182 97.5117 123.028 97.8382C122.962 97.865 122.895 97.8814 122.833 97.8814Z" fill="#2D8CE4"/>
<path d="M131.744 88.9169C131.407 88.9169 131.009 88.7618 130.88 88.5412C130.706 88.2475 130.941 87.7972 131.362 87.6138C131.516 87.5452 131.669 87.5125 131.811 87.5125C132.077 87.5125 132.308 87.6243 132.443 87.8375C132.672 88.1953 132.496 88.656 132.053 88.8587C131.967 88.899 131.859 88.9169 131.744 88.9169Z" fill="#2D8CE4"/>
<path d="M120.47 112.069C120.346 112.069 120.22 112.017 120.153 111.923C120.142 111.906 120.133 111.89 120.126 111.873C120.069 111.741 120.136 111.592 120.304 111.493C120.382 111.45 120.466 111.429 120.545 111.429C120.656 111.429 120.759 111.469 120.814 111.55C120.865 111.623 120.865 111.726 120.828 111.82C120.796 111.903 120.735 111.979 120.654 112.023C120.599 112.054 120.534 112.069 120.47 112.069Z" fill="#2D8CE4"/>
<path d="M113.819 109.276C113.696 109.276 113.612 109.2 113.548 109.111C113.441 108.959 113.534 108.741 113.727 108.662C113.775 108.641 113.831 108.632 113.887 108.632C114.03 108.632 114.176 108.689 114.229 108.78C114.293 108.89 114.115 109.193 113.938 109.254C113.895 109.269 113.855 109.276 113.819 109.276Z" fill="#2D8CE4"/>
<path d="M121.123 101.469C121.106 101.466 121.089 101.461 121.074 101.457C121.121 101.397 121.168 101.348 121.216 101.306C121.186 101.361 121.154 101.415 121.123 101.469Z" fill="#2D8CE4"/>
<path d="M132.276 90.1227C132.085 90.0586 131.932 90.0437 131.856 89.9706C131.752 89.8707 131.8 89.7425 131.944 89.6561C131.998 89.6262 132.062 89.6113 132.127 89.6113C132.231 89.6113 132.33 89.6531 132.35 89.7336C132.372 89.8335 132.314 89.9468 132.276 90.1227Z" fill="#2D8CE4"/>
<path d="M128.135 103.489C128.055 103.489 127.978 103.45 127.934 103.374C127.861 103.243 127.909 103.095 128.07 103.031C128.102 103.021 128.135 103.016 128.172 103.016C128.265 103.016 128.385 103.04 128.543 103.049C128.433 103.228 128.395 103.363 128.295 103.437C128.247 103.469 128.19 103.489 128.135 103.489Z" fill="#2D8CE4"/>
<path d="M121.595 107.446L121.329 107.411C121.281 107.344 121.322 107.232 121.325 107.082C121.495 107.128 121.651 107.134 121.669 107.179L121.595 107.446Z" fill="#2D8CE4"/>
<path d="M117.135 118.788C117.003 118.752 116.904 118.749 116.852 118.703L116.882 118.538L117.127 118.542C117.169 118.575 117.135 118.675 117.135 118.788Z" fill="#2D8CE4"/>
<path d="M131.314 92.7573C131.098 92.7349 130.97 92.7215 130.809 92.7036C130.934 92.6157 131.003 92.5695 131.062 92.5695C131.13 92.5695 131.188 92.6291 131.314 92.7573Z" fill="#2D8CE4"/>
<path d="M117.177 117.961L116.981 117.742C117.016 117.709 117.042 117.691 117.063 117.691C117.106 117.691 117.133 117.767 117.177 117.961Z" fill="#2D8CE4"/>
<path d="M112.855 112.155C112.817 112.136 112.772 112.096 112.707 112.037C112.813 112.017 112.901 112 113.037 111.976C112.976 112.037 112.916 112.096 112.855 112.155Z" fill="#2D8CE4"/>
<path d="M130.077 95.9015L129.874 95.8449L129.892 95.7107L130.061 95.7346L130.077 95.9015Z" fill="#2D8CE4"/>
<path d="M123.817 91.2188C123.725 91.2112 123.649 91.2021 123.574 91.196C123.582 91.1703 123.591 91.1446 123.598 91.1204C123.663 91.1249 123.715 91.1552 123.817 91.2188Z" fill="#2D8CE4"/>
<path d="M115.97 113.002L115.887 112.998C115.922 112.963 115.953 112.928 115.988 112.893L115.97 113.002Z" fill="#2D8CE4"/>
<path d="M66.4349 36.4343C66.2149 36.4119 66.0068 36.3404 65.8646 36.2196C65.5952 35.99 65.5308 35.7052 65.6745 35.4592L66.0981 35.3325L66.4349 36.4343Z" fill="#2D8CE4"/>
<path d="M67.9881 68.1857C67.7636 68.0932 67.7636 67.8547 67.789 67.2986C67.8833 67.3105 67.9672 67.3224 68.0435 67.3329L67.9881 68.1857Z" fill="#2D8CE4"/>
<path d="M43.0288 54.4755C43.0318 54.3309 43.0093 54.1952 43.0408 54.1848C43.1216 54.1565 43.2129 54.1445 43.3012 54.1445C43.3341 54.1445 43.3656 54.146 43.397 54.1505L43.415 54.3577C43.3252 54.4144 43.1964 54.4308 43.0288 54.4755Z" fill="#2D8CE4"/>
<path d="M19.8021 85.8842C19.4758 85.8842 19.1735 85.8111 18.9624 85.6546C18.5194 85.3251 18.3593 84.1011 18.714 83.7418C18.9475 83.5047 19.3636 83.387 19.8156 83.387C20.317 83.387 20.8603 83.5301 21.2495 83.8119C21.251 83.8119 21.251 83.8134 21.2525 83.8149L21.1297 85.4742C20.763 85.7396 20.2586 85.8842 19.8021 85.8842Z" fill="#2D8CE4"/>
<path d="M24.9915 104.643C24.4721 104.643 24.282 104.373 24.514 103.871C24.6577 103.554 24.9436 103.162 25.2804 103.031C25.7279 102.858 26.1859 102.791 26.6619 102.791C26.7681 102.791 26.8744 102.794 26.9807 102.8L27.1842 103.423C26.9208 103.751 26.6185 104.055 26.2757 104.334C25.9749 104.468 25.6486 104.565 25.2849 104.619C25.1771 104.635 25.0798 104.643 24.9915 104.643Z" fill="#2D8CE4"/>
<path d="M38.6688 98.5329C38.3844 98.5329 38.0896 98.4494 37.8606 98.278C37.3996 97.9365 37.3262 97.367 37.6899 96.9943C37.8905 96.7901 38.2302 96.6842 38.573 96.6842C38.8544 96.6842 39.1373 96.7558 39.3438 96.9049C39.7704 97.2105 39.8093 97.944 39.4187 98.2824C39.2241 98.4494 38.9502 98.5329 38.6688 98.5329Z" fill="#2D8CE4"/>
<path d="M43.3488 72.8347C43.3309 72.8302 43.3129 72.8228 43.2965 72.8168C43.1812 72.7706 43.1752 72.383 43.2755 72.2056C43.3653 72.0475 43.5719 71.9611 43.7754 71.9611C43.9311 71.9611 44.0837 72.0117 44.1795 72.1176C44.2648 72.21 44.2948 72.3412 44.3307 72.5172L43.3488 72.8347Z" fill="#2D8CE4"/>
<path d="M40.9633 90.3557C40.9917 90.1112 40.9483 89.8905 41.0486 89.8234C41.095 89.7906 41.1713 89.7787 41.2551 89.7787C41.3674 89.7787 41.4931 89.8025 41.5754 89.8383L41.5859 90.2051C41.4647 90.296 41.2461 90.2945 40.9633 90.3557Z" fill="#2D8CE4"/>
<path d="M37.3263 80.3949C37.1767 80.3815 37.0839 80.3711 36.9926 80.3636L37.0569 80.1415H37.1273C37.1856 80.1907 37.241 80.2399 37.2979 80.2891C37.3054 80.3204 37.3144 80.3562 37.3263 80.3949Z" fill="#2D8CE4"/>
<path d="M42.0737 104.3L42.0647 104.188L42.2907 104.079C42.3057 104.121 42.3206 104.166 42.3371 104.213L42.0737 104.3Z" fill="#2D8CE4"/>
<path d="M47.6015 76.8196L47.5428 76.6944L47.7052 76.6497L47.7608 76.7779L47.6015 76.8196Z" fill="#2D8CE4"/>
<path d="M19.0013 76.4291C19.0074 76.3988 19.015 76.3701 19.021 76.3413L19.0407 76.3474L19.0286 76.4261L19.0013 76.4291Z" fill="#2D8CE4"/>
<path d="M35.3326 84.1071C35.2398 84.1071 35.1455 84.1011 35.0497 84.0877C34.3957 83.1946 33.6997 82.6236 32.9618 82.3702C32.8944 81.8886 33.2132 81.5159 33.9496 81.1775C34.2804 81.0254 34.6621 80.9553 35.0378 80.9553C35.7487 80.9553 36.4357 81.2103 36.6977 81.6516C37.0239 82.1943 36.5734 83.6762 35.9957 83.9669C35.8041 84.0638 35.5751 84.1071 35.3326 84.1071Z" fill="#2D8CE4"/>
<path d="M33.1518 57.1503C32.5531 56.9908 31.9754 56.718 31.3842 56.3959C32.2538 55.9293 33.0815 55.5685 33.9451 55.4358C33.6697 56.0023 33.4063 56.5733 33.1518 57.1503Z" fill="#2D8CE4"/>
<path d="M51.6363 82.0751C51.6363 82.0751 51.6378 82.0751 51.6378 82.0736C51.6648 81.9409 51.8324 81.6323 51.7546 81.3892C51.6648 81.1075 51.4956 80.8719 51.2666 80.6841C51.2457 80.6006 51.2247 80.5156 51.2023 80.4276C51.2666 80.4664 51.3445 80.4873 51.4208 80.4873C51.4852 80.4873 51.551 80.4724 51.6064 80.4425C51.6872 80.3978 51.7471 80.3218 51.78 80.2383C52.0883 80.2994 52.3667 80.4634 52.4955 80.696C52.7424 81.1298 52.5389 81.7307 52.0734 81.9513C51.9387 82.0154 51.789 82.0557 51.6363 82.0751Z" fill="#2D8CE4"/>
<path d="M25.2353 77.316C25.0033 77.316 24.8102 77.2206 24.71 77.0372L26.1139 76.5825C26.1244 76.824 25.9373 77.0999 25.6574 77.2221C25.5107 77.2862 25.367 77.316 25.2353 77.316Z" fill="#2D8CE4"/>
<path d="M25.8462 86.6358L25.5424 86.5657L25.5962 86.3853C25.6935 86.3466 25.8133 86.3495 25.9989 86.3257C25.933 86.4718 25.918 86.609 25.8462 86.6358Z" fill="#2D8CE4"/>
<path d="M13.7135 81.5771L13.5114 81.513C13.4889 81.4295 13.5249 81.3356 13.5458 81.1865C13.706 81.2566 13.8018 81.2998 13.8991 81.3446L13.7135 81.5771Z" fill="#2D8CE4"/>
<path d="M50.0736 87.6256L49.9285 87.4929L50.0482 87.3348L50.1919 87.472L50.0736 87.6256Z" fill="#2D8CE4"/>
<path d="M61.7095 55.1911C61.6122 55.1911 61.5015 55.1553 61.4117 55.121C60.8803 54.9153 60.3999 54.1206 60.6663 53.5824C60.6782 53.5586 60.6902 53.5347 60.7022 53.5109L61.6751 54.6126L63.9561 54.1027C63.8828 54.4307 63.7451 54.7364 63.2871 54.7796C62.8156 55.1359 62.2738 55.0823 61.7754 55.1851C61.7559 55.1896 61.7334 55.1911 61.7095 55.1911Z" fill="#2D8CE4"/>
<path d="M55.0131 84.6171C54.832 84.5231 54.6658 84.377 54.5177 84.1758C54.4144 84.0326 54.3291 83.8806 54.2333 83.73C54.338 83.3737 54.603 83.0949 54.8814 82.8161C55.0221 82.6759 55.1717 82.6133 55.3828 82.5984C55.486 82.5924 55.5744 82.5865 55.6522 82.5835C55.5684 83.2291 55.3918 83.8329 55.1253 84.3949C55.0894 84.471 55.052 84.544 55.0131 84.6171Z" fill="#2D8CE4"/>
<path d="M71.8439 72.3469L71.1913 70.3431C71.2871 70.3208 71.3889 70.3088 71.4996 70.3088C71.5355 70.3088 71.573 70.3118 71.6119 70.3133C71.7391 70.3223 71.8708 70.3163 71.995 70.3297L72.26 70.3908C72.48 70.6816 72.7973 70.9335 72.7718 71.3286L72.7494 71.4509C72.6985 71.6417 72.7195 71.919 72.5758 72.0099C72.3587 72.1486 72.1043 72.2664 71.8439 72.3469Z" fill="#2D8CE4"/>
<path d="M47.0072 94.1409L46.4908 92.5591C46.5926 92.744 46.7363 92.8766 46.9264 93.0019C47.0551 93.0839 47.1524 93.221 47.2108 93.3522C47.329 93.631 47.2317 93.9396 47.0072 94.1409Z" fill="#2D8CE4"/>
<path d="M75.0591 82.2105L74.7897 81.3831C74.878 81.4591 74.9558 81.5456 75.0292 81.635C75.1698 81.8094 75.1115 82.0062 75.0591 82.2105Z" fill="#2D8CE4"/>
<path d="M60.1422 79.4466L58.9673 78.0153C59.1349 77.9125 59.3864 77.9169 59.5869 77.908C59.6034 77.9065 59.6199 77.9065 59.6363 77.9065C60.2889 77.9065 60.6811 78.4805 60.3877 78.9963C60.3069 79.1395 60.2305 79.2841 60.1422 79.4466Z" fill="#2D8CE4"/>
<path d="M62.6929 57.3353C62.3561 57.3353 61.9565 57.1803 61.8308 56.9611C61.6586 56.6659 61.8921 56.2142 62.3112 56.0308C62.4654 55.9637 62.6195 55.9309 62.7617 55.9309C62.883 55.9309 62.9967 55.9548 63.097 55.9995L62.9114 56.3111L63.3365 57.0237C63.2557 57.1251 63.1434 57.2131 63.0057 57.2772C62.9174 57.3159 62.8096 57.3353 62.6929 57.3353Z" fill="#2D8CE4"/>
<path d="M47.1599 71.603C47.1569 71.6 47.1539 71.5955 47.1509 71.591C46.9728 71.3242 47.106 70.8739 47.4084 70.7263C47.5431 70.6592 47.6823 70.6279 47.814 70.6279C48.0565 70.6279 48.2765 70.7338 48.3947 70.9276C48.4456 71.0111 48.4741 71.0946 48.48 71.1751L47.1599 71.603Z" fill="#2D8CE4"/>
<path d="M40.568 67.0544C40.3704 67.0544 40.1803 66.9753 40.0905 66.8367C39.9453 66.6086 40.0441 66.3447 40.3195 66.2045C40.4123 66.1598 40.5096 66.1375 40.6024 66.1375C40.785 66.1375 40.9526 66.2224 41.0454 66.3775C41.1861 66.613 41.1188 66.8605 40.8793 66.9843C40.782 67.032 40.6742 67.0544 40.568 67.0544Z" fill="#2D8CE4"/>
<path d="M77.4506 85.8574C77.3039 85.8574 77.1588 85.8082 77.0884 85.7217C76.9762 85.5816 77.0734 85.2774 77.2635 85.1731C77.3249 85.1417 77.4012 85.1268 77.4791 85.1268C77.6467 85.1268 77.8278 85.1939 77.8996 85.3042C77.9984 85.4533 77.8982 85.7083 77.7006 85.8037C77.6257 85.8395 77.5374 85.8574 77.4506 85.8574Z" fill="#2D8CE4"/>
<path d="M50.7834 86.6866C50.6397 86.6866 50.5005 86.6285 50.4301 86.5241C50.3194 86.3631 50.3897 86.1738 50.5948 86.0769C50.6711 86.0411 50.7579 86.0232 50.8403 86.0232C50.9869 86.0232 51.1231 86.0769 51.183 86.1738C51.2683 86.3169 51.183 86.542 51.0064 86.6345C50.9375 86.6702 50.8597 86.6866 50.7834 86.6866Z" fill="#2D8CE4"/>
<path d="M51.421 80.4873C51.3447 80.4873 51.2669 80.4664 51.2025 80.4276C51.1696 80.3099 51.1351 80.1861 51.0947 80.0624C51.1277 80.0057 51.1815 79.9535 51.2534 79.9118C51.3312 79.8686 51.415 79.8462 51.4944 79.8462C51.6066 79.8462 51.7069 79.8894 51.7653 79.9684C51.8147 80.0415 51.8162 80.1444 51.7802 80.2383C51.7473 80.3218 51.6874 80.3978 51.6066 80.4425C51.5512 80.4724 51.4854 80.4873 51.421 80.4873Z" fill="#2D8CE4"/>
<path d="M44.7676 77.6946C44.6463 77.6946 44.5625 77.6186 44.4996 77.5276C44.3919 77.3771 44.4832 77.1579 44.6763 77.0789C44.7242 77.0595 44.7795 77.0491 44.8364 77.0491C44.9786 77.0491 45.1268 77.1087 45.1777 77.1982C45.2435 77.3085 45.0654 77.6111 44.8888 77.6723C44.8454 77.6887 44.8035 77.6946 44.7676 77.6946Z" fill="#2D8CE4"/>
<path d="M52.2711 69.9141C52.1918 69.9141 52.1109 69.9007 52.0256 69.8738C52.1993 69.6562 52.3624 69.5697 52.6827 69.5697C52.774 69.5697 52.8788 69.5772 53 69.5906C52.6872 69.8172 52.4806 69.9141 52.2711 69.9141Z" fill="#2D8CE4"/>
<path d="M63.2737 58.3643L62.7528 58.248C62.7633 58.1854 62.8142 58.1242 62.895 58.0765C62.9489 58.0452 63.0132 58.0288 63.0761 58.0288C63.1809 58.0288 63.2797 58.072 63.2991 58.1511C63.3141 58.2137 63.2976 58.2808 63.2737 58.3643Z" fill="#2D8CE4"/>
<path d="M59.0857 71.9059C59.0049 71.9059 58.9285 71.8701 58.8866 71.7911C58.8208 71.6792 58.8462 71.5555 58.957 71.481L59.2384 71.8611C59.192 71.891 59.1381 71.9059 59.0857 71.9059Z" fill="#2D8CE4"/>
<path d="M76.8415 81.8484C76.7547 81.8484 76.6784 81.8111 76.6425 81.7321C76.6036 81.6441 76.6529 81.5204 76.6724 81.3325C76.8819 81.4056 77.0301 81.4235 77.1065 81.4965C77.2172 81.5994 77.1603 81.7306 77.0122 81.8051C76.9553 81.832 76.8954 81.8484 76.8415 81.8484Z" fill="#2D8CE4"/>
<path d="M37.8228 74.342C37.7285 74.342 37.6177 74.2883 37.5833 74.2093C37.5279 74.0841 37.5669 73.9573 37.727 73.9081C37.7525 73.9007 37.7794 73.8977 37.8078 73.8977C37.8916 73.8977 37.9964 73.9216 38.1371 73.932C38.0488 74.102 38.0204 74.2227 37.9351 74.3047C37.9081 74.3316 37.8677 74.342 37.8228 74.342Z" fill="#2D8CE4"/>
<path d="M61.717 77.0789L61.4026 76.9894C61.3637 76.9536 61.4326 76.8284 61.4715 76.6808C61.6331 76.7389 61.7693 76.7538 61.8337 76.818C61.9265 76.9164 61.8562 77.0475 61.717 77.0789Z" fill="#2D8CE4"/>
<path d="M52.5463 75.8643L52.2799 75.83C52.2335 75.7629 52.2694 75.6526 52.2754 75.5005C52.446 75.5467 52.6017 75.5527 52.6181 75.5974L52.5463 75.8643Z" fill="#2D8CE4"/>
<path d="M69.955 55.1259L69.7305 55.0707C69.7006 55.0081 69.7515 54.9171 69.7724 54.7964C69.9116 54.8456 70.0448 54.8635 70.0523 54.9037L69.955 55.1259Z" fill="#2D8CE4"/>
<path d="M48.6116 92.2101L48.417 92.1579L48.5113 92.0029C48.5218 91.9999 48.5337 91.9984 48.5472 91.9984C48.5966 91.9984 48.6669 92.0223 48.7582 92.0372L48.6116 92.2101Z" fill="#2D8CE4"/>
<path d="M48.0849 87.2069C47.9547 87.1711 47.8559 87.1696 47.802 87.1219L47.8334 86.9564L48.0774 86.9609C48.1193 86.9922 48.0864 87.0936 48.0849 87.2069Z" fill="#2D8CE4"/>
<path d="M74.7235 73.7173L74.5543 73.6353L74.6337 73.5116C74.6456 73.5086 74.6591 73.5071 74.6711 73.5071C74.7264 73.5071 74.7923 73.528 74.8926 73.5399L74.7235 73.7173Z" fill="#2D8CE4"/>
<path d="M52.0167 84.1984L51.9912 84.1417C52.1454 84.0702 52.298 83.9971 52.4537 83.9241L52.5046 84.0269C52.3414 84.0866 52.1783 84.1417 52.0167 84.1984Z" fill="#2D8CE4"/>
<path d="M67.2346 80.0729L67.0753 80.0476L67.1279 79.9134C67.1505 79.9045 67.176 79.9015 67.2046 79.9015C67.2166 79.9015 67.2301 79.9015 67.2452 79.903L67.2346 80.0729Z" fill="#2D8CE4"/>
<path d="M48.1246 86.3792L47.9292 86.1586C47.9638 86.1288 47.9908 86.1094 48.0119 86.1094C48.0569 86.1094 48.084 86.1839 48.1246 86.3792Z" fill="#2D8CE4"/>
<path d="M43.8533 80.5887C43.8039 80.5887 43.7515 80.541 43.6572 80.456C43.753 80.4381 43.8353 80.4232 43.9506 80.4009C43.9581 80.4382 43.97 80.4724 43.982 80.5067C43.9281 80.5619 43.8922 80.5887 43.8533 80.5887Z" fill="#2D8CE4"/>
<path d="M79.6514 85.8082L79.4996 85.7605L79.5748 85.6367L79.7176 85.7247L79.6514 85.8082Z" fill="#2D8CE4"/>
<path d="M46.9191 81.419L46.7598 81.4116L46.7478 81.2774L46.8154 81.17L46.9417 81.2863L46.9191 81.419Z" fill="#2D8CE4"/>
<path d="M70.3127 64.1158L70.0522 64.089L70.0927 63.9429L70.3471 64.0621L70.3321 64.1099L70.3127 64.1158Z" fill="#2D8CE4"/>
<path d="M44.8861 81.0699C44.6631 81.0699 44.4625 81.0297 44.3233 80.9373C44.1601 80.8299 44.0449 80.6778 43.982 80.5064C43.9701 80.4721 43.9581 80.4378 43.9506 80.4005C43.8713 80.0725 43.9671 79.6924 44.2425 79.4121C44.5358 79.1139 44.9684 78.9529 45.371 78.9529C45.624 78.9529 45.8649 79.017 46.0535 79.1497C46.5175 79.4732 46.5774 80.1963 46.1748 80.6063C45.8889 80.8955 45.3411 81.0699 44.8861 81.0699Z" fill="#2D8CE4"/>
<path d="M51.3757 82.3044C51.4461 81.8438 51.4087 81.304 51.2665 80.6838C51.4955 80.8717 51.6646 81.1072 51.7544 81.389C51.8322 81.632 51.6646 81.9407 51.6377 82.0733C51.6377 82.0748 51.6362 82.0748 51.6362 82.0748C51.5464 82.1643 51.4596 82.2403 51.3757 82.3044Z" fill="#2D8CE4"/>
<path d="M49.3045 77.4951C49.0081 77.355 48.6818 77.2864 48.3256 77.2849C48.2792 77.1537 48.2567 77.021 48.2208 76.9301C48.4379 76.6945 48.6264 76.614 48.8016 76.614C48.9333 76.614 49.0575 76.6602 49.1802 76.7214C49.5095 76.8883 49.5799 77.2476 49.3299 77.4728C49.3209 77.4802 49.3134 77.4892 49.3045 77.4951Z" fill="#2D8CE4"/>
<path d="M107.208 29.0113C107.073 28.907 107.07 28.6848 106.962 28.3688C107.36 28.406 107.663 28.3583 107.766 28.4582C107.871 28.5626 107.839 28.8324 107.748 28.983L107.208 29.0113Z" fill="#2D8CE4"/>
<path d="M102.732 28.2912C102.775 28.0705 102.778 27.902 102.853 27.7589C102.876 27.7142 103.087 27.7291 103.211 27.7172C103.213 27.8976 103.221 28.0809 103.196 28.2598C103.193 28.2748 102.955 28.2777 102.732 28.2912Z" fill="#2D8CE4"/>
<path d="M74.212 79.6091L74.1158 79.3184C74.1624 79.3199 74.2075 79.3258 74.2466 79.3333L74.2767 79.5614C74.2586 79.5793 74.2376 79.5942 74.212 79.6091Z" fill="#2D8CE4"/>
<path d="M73.094 74.6789L73.0564 74.5343L73.1391 74.4985L73.2563 74.6059L73.094 74.6789Z" fill="#2D8CE4"/>
<path d="M78.9027 48.8028L79.0389 47.3433C79.5658 47.7861 79.5328 48.2154 78.9416 48.7686C78.9282 48.779 78.9147 48.7909 78.9027 48.8028Z" fill="#2D8CE4"/>
<path d="M104.685 68.0695L104.266 66.7844C104.375 66.7173 104.503 66.6621 104.642 66.6189C105.185 66.4549 105.738 66.3252 106.366 66.1582C106.444 66.7396 107.376 66.9871 107.01 67.7818C106.255 67.8832 105.518 68.0099 104.778 68.0636C104.747 68.0665 104.717 68.068 104.685 68.0695Z" fill="#2D8CE4"/>
<path d="M82.6444 68.0679C82.125 68.0679 81.9349 67.7981 82.1654 67.2941C82.2986 67.0004 82.5561 66.6426 82.8599 66.4861C83.1308 66.902 83.3748 67.3687 83.5933 67.889C83.3868 67.9576 83.1697 68.0098 82.9363 68.0441C82.83 68.0605 82.7327 68.0679 82.6444 68.0679Z" fill="#2D8CE4"/>
<path d="M96.3352 61.9587C96.4355 61.4592 96.5732 60.9777 96.7468 60.514C96.7797 60.423 96.8157 60.3336 96.8516 60.2441C96.9025 60.2695 96.9504 60.2978 96.9953 60.3306C97.4218 60.6362 97.4623 61.3683 97.0701 61.7067C96.8785 61.8722 96.6121 61.9572 96.3352 61.9587Z" fill="#2D8CE4"/>
<path d="M72.3392 39.4907C72.1491 39.4728 72.0054 39.4549 71.8946 39.3982C71.5848 39.2372 71.5654 38.9525 71.8438 38.7214C71.9545 38.6289 72.0758 38.5857 72.191 38.5857C72.1985 38.5857 72.2045 38.5857 72.212 38.5857C72.2149 38.6364 72.2209 38.6886 72.2254 38.7407C72.2539 39.0136 72.2913 39.2626 72.3392 39.4907Z" fill="#2D8CE4"/>
<path d="M93.8177 29.6897C93.677 29.6897 93.5348 29.639 93.4195 29.5406C93.2863 29.4258 93.2923 29.2006 93.1801 28.8533C93.2549 28.8622 93.3252 28.8667 93.3926 28.8712C93.6919 28.9711 93.9883 29.0724 94.2846 29.1768C94.3086 29.2931 94.2996 29.4258 94.2457 29.4914C94.1305 29.6256 93.9748 29.6897 93.8177 29.6897Z" fill="#2D8CE4"/>
<path d="M98.9754 62.9799C98.8137 62.385 98.9649 62.0898 99.5112 61.8662C99.7806 62.3478 99.5636 62.6281 98.9754 62.9799Z" fill="#2D8CE4"/>
<path d="M98.6145 53.7809C98.6444 53.5363 98.5995 53.3127 98.6998 53.2471C98.7477 53.2158 98.824 53.2024 98.9064 53.2024C99.0186 53.2024 99.1429 53.2277 99.2267 53.265L99.2371 53.6288C99.1144 53.7197 98.8959 53.7197 98.6145 53.7809Z" fill="#2D8CE4"/>
<path d="M80.468 59.1154C80.3737 59.1033 80.2884 59.0988 80.2151 59.0912L80.462 59.011C80.4635 59.0443 80.465 59.0791 80.468 59.1154Z" fill="#2D8CE4"/>
<path d="M87.3097 64.2412C87.0882 64.2233 86.9311 64.2412 86.8577 64.2069L86.8383 64.1472L86.8442 63.9057L87.1181 63.8804C87.1975 63.94 87.2169 64.0548 87.3097 64.2412Z" fill="#2D8CE4"/>
<path d="M99.7925 67.8565C99.7641 67.8565 99.7461 67.8535 99.7386 67.8446L99.7162 67.6135L99.9422 67.5032C99.9766 67.5971 100.007 67.6955 100.057 67.8386C99.9482 67.8416 99.8509 67.8565 99.7925 67.8565Z" fill="#2D8CE4"/>
<path d="M101.261 56.7704L101.086 56.7615L101.087 56.6079L101.328 56.6228L101.261 56.7704Z" fill="#2D8CE4"/>
<path d="M69.2529 28.9442C69.1078 28.8279 68.991 28.6967 68.9117 28.5566C68.6468 28.072 68.6617 27.5115 68.8952 27.0389C70.0447 26.8391 71.1897 26.681 72.3362 26.5618C72.447 26.6781 72.5428 26.8078 72.6221 26.9554C72.893 27.4503 72.926 28.0049 72.7628 28.4656C71.5939 28.5819 70.4219 28.74 69.2529 28.9442ZM70.7138 27.428L70.9727 27.5323L71.0535 27.3564L70.8619 27.2834L70.7138 27.428Z" fill="#2D8CE4"/>
<path d="M88.8488 45.0802L88.7391 45.0469C88.7842 45.0242 88.8308 45.0015 88.8804 44.9773L88.8488 45.0802Z" fill="#2D8CE4"/>
<path d="M91.7251 46.3579L90.7118 45.8122L91.1548 44.9967C91.3749 45.11 91.55 45.2576 91.6577 45.4365C91.782 45.6452 91.7924 45.9926 91.7251 46.3579Z" fill="#2D8CE4"/>
<path d="M95.9681 22.5931C94.9444 22.5931 94.0373 22.204 93.0929 21.6896C93.723 21.3527 94.3307 21.0694 94.9459 20.8905C95.8274 21.0485 96.6701 21.4719 97.2898 22.1011C96.9829 22.3441 96.5953 22.5573 96.2555 22.5827C96.1582 22.5901 96.0624 22.5931 95.9681 22.5931Z" fill="#2D8CE4"/>
<path d="M79.8005 23.5993C79.0387 23.5665 78.2739 23.5501 77.509 23.5501C77.6407 23.3264 77.8353 23.1371 78.0703 23.0402C78.229 22.9746 78.3996 22.9418 78.5717 22.9418C79.0582 22.9418 79.5521 23.1893 79.8005 23.5993Z" fill="#2D8CE4"/>
<path d="M114.661 48.7941C114.615 48.7941 114.567 48.7941 114.517 48.7897C113.999 48.7569 113.577 48.6137 113.296 48.3946L115.767 47.5955C115.786 47.6775 115.798 47.7595 115.8 47.8429C115.807 48.4468 115.352 48.7941 114.661 48.7941Z" fill="#2D8CE4"/>
<path d="M77.3338 64.2515C77.1707 64.2515 77.024 64.2009 76.9163 64.101C77.2934 64.0369 77.6571 63.9966 78.0044 63.9817C77.9445 64.0413 77.8652 64.095 77.7694 64.1427C77.6227 64.2158 77.473 64.2515 77.3338 64.2515Z" fill="#2D8CE4"/>
<path d="M75.4316 21.9758C75.3777 21.3198 75.7639 21.0738 76.6035 20.874C76.4763 21.6254 76.1545 21.9162 75.4316 21.9758Z" fill="#2D8CE4"/>
<path d="M90.5893 24.1496L90.2675 24.081C90.2121 23.9796 90.2495 23.8395 90.2436 23.5875C90.5055 23.6993 90.7031 23.7306 90.7435 23.8156L90.5893 24.1496Z" fill="#2D8CE4"/>
<path d="M107.725 51.051L107.58 50.9168L107.698 50.7603L107.842 50.8959L107.725 51.051Z" fill="#2D8CE4"/>
<path d="M70.9726 27.5324L70.7136 27.4281L70.8618 27.2834L71.0534 27.3565L70.9726 27.5324Z" fill="#2D8CE4"/>
<path d="M103.886 57.8214C103.521 57.8214 103.217 57.6619 103.081 57.3712C103.02 57.2385 102.961 57.0998 102.892 56.9418C102.735 56.9716 102.632 56.991 102.562 56.991C102.427 56.991 102.413 56.9209 102.385 56.7167C102.365 56.5974 102.345 56.4781 102.343 56.3573C102.348 56.013 102.562 55.7938 102.966 55.7118C103.094 55.6894 103.222 55.6656 103.35 55.6507C103.403 55.6447 103.455 55.6417 103.503 55.6417C103.79 55.6417 104.016 55.7446 104.141 55.9787C104.239 56.168 104.386 56.3007 104.579 56.4259C104.706 56.5094 104.805 56.6451 104.864 56.7778C105.022 57.155 104.787 57.5888 104.37 57.7349C104.202 57.7946 104.039 57.8214 103.886 57.8214Z" fill="#2D8CE4"/>
<path d="M118.083 42.3338C117.795 41.9983 117.505 41.6629 117.212 41.3319C117.219 41.3319 117.23 41.3319 117.237 41.3319C117.254 41.3319 117.272 41.3319 117.288 41.3319C117.903 41.3319 118.288 41.8448 118.083 42.3338Z" fill="#2D8CE4"/>
<path d="M105.317 35.2745C105.106 35.2745 104.919 35.185 104.804 35.0136C104.678 34.8272 104.706 34.5499 104.84 34.3486C105.197 34.5797 105.554 34.8168 105.907 35.0553C105.853 35.1 105.789 35.1403 105.715 35.1761C105.581 35.2417 105.444 35.2745 105.317 35.2745Z" fill="#2D8CE4"/>
<path d="M135.102 49.2813C134.954 49.2813 134.809 49.2321 134.74 49.1456C134.628 49.007 134.725 48.7028 134.915 48.6C134.975 48.5672 135.053 48.5522 135.132 48.5522C135.298 48.5522 135.479 48.6193 135.553 48.7297C135.65 48.8788 135.55 49.1337 135.355 49.2276C135.279 49.2634 135.189 49.2813 135.102 49.2813Z" fill="#2D8CE4"/>
<path d="M108.434 50.1103C108.346 50.1103 108.258 50.088 108.188 50.0462L108.851 49.8315C108.819 49.924 108.752 50.009 108.659 50.0582C108.589 50.0939 108.512 50.1103 108.434 50.1103Z" fill="#2D8CE4"/>
<path d="M98.8064 31.4893C98.7046 31.4893 98.6193 31.443 98.5609 31.3431C98.4876 31.2179 98.5564 31.0614 98.7106 30.9794C98.8588 31.048 99.004 31.1165 99.1506 31.1851C99.1566 31.2969 99.0803 31.4058 98.9381 31.4669C98.8917 31.4818 98.8483 31.4893 98.8064 31.4893Z" fill="#2D8CE4"/>
<path d="M109.923 33.3393C109.843 33.3393 109.762 33.3259 109.676 33.2975C109.851 33.0813 110.015 32.9949 110.334 32.9949C110.426 32.9949 110.53 33.0023 110.652 33.0143C110.337 33.2409 110.132 33.3393 109.923 33.3393Z" fill="#2D8CE4"/>
<path d="M116.739 35.3311C116.658 35.3311 116.58 35.2938 116.537 35.2178C116.474 35.106 116.496 34.9837 116.605 34.9106C116.661 35.0493 116.725 35.1879 116.797 35.3251C116.778 35.3296 116.758 35.3311 116.739 35.3311Z" fill="#2D8CE4"/>
<path d="M130.938 47.2955C130.833 47.2955 130.745 47.2642 130.717 47.2061L130.775 47.0018C130.842 46.9497 130.937 46.9243 131.025 46.9243C131.137 46.9243 131.241 46.9646 131.269 47.0391L131.229 47.2195C131.139 47.2702 131.032 47.2955 130.938 47.2955Z" fill="#2D8CE4"/>
<path d="M119.37 40.5033L119.056 40.4153C119.014 40.378 119.086 40.2543 119.122 40.1067C119.286 40.1633 119.423 40.1783 119.484 40.2439C119.577 40.3408 119.509 40.472 119.37 40.5033Z" fill="#2D8CE4"/>
<path d="M118.708 48.2215C118.635 48.2215 118.532 48.1827 118.447 48.1678C118.481 48.0784 118.512 47.9859 118.566 47.8473C118.71 47.8905 118.867 47.9114 118.869 47.9487L118.765 48.2096C118.75 48.2185 118.731 48.2215 118.708 48.2215Z" fill="#2D8CE4"/>
<path d="M110.198 39.2896L109.932 39.2553C109.885 39.1867 109.923 39.0764 109.926 38.9258C110.098 38.9705 110.253 38.9765 110.271 39.0227L110.198 39.2896Z" fill="#2D8CE4"/>
<path d="M106.185 28.333L105.99 28.2674L106.163 28.005C106.167 28.002 106.173 28.0005 106.182 28.0005C106.227 28.0005 106.341 28.0452 106.484 28.081C106.351 28.2003 106.281 28.2838 106.185 28.333Z" fill="#2D8CE4"/>
<path d="M96.9637 41.7228C96.9517 41.6318 96.9338 41.5424 96.9083 41.4574C96.9862 41.4589 97.07 41.4842 97.1613 41.5275C97.1044 41.6333 97.0385 41.6959 96.9637 41.7228Z" fill="#2D8CE4"/>
<path d="M97.2078 42.8709C97.0746 42.8321 96.9459 42.8276 96.9294 42.7844L96.9624 42.5414L97.2318 42.5906C97.2737 42.6413 97.2228 42.7471 97.2078 42.8709Z" fill="#2D8CE4"/>
<path d="M114.325 42.4177L114.079 42.3714L114.178 42.1761C114.188 42.1717 114.202 42.1702 114.214 42.1702C114.226 42.1702 114.239 42.1717 114.251 42.1731C114.298 42.2223 114.347 42.2745 114.394 42.3237L114.325 42.4177Z" fill="#2D8CE4"/>
<path d="M106.263 55.6341L106.068 55.5834L106.163 55.4283C106.173 55.4239 106.183 55.4224 106.198 55.4224C106.246 55.4224 106.318 55.4477 106.41 55.4626L106.263 55.6341Z" fill="#2D8CE4"/>
<path d="M46.0926 48.3588C45.7663 48.3588 45.464 48.2858 45.2529 48.1292C44.8099 47.7997 44.6512 46.5757 45.0045 46.2149C45.238 45.9779 45.6556 45.8616 46.1076 45.8616C46.6075 45.8616 47.1523 46.0047 47.5399 46.2865C47.5414 46.2865 47.5429 46.288 47.5429 46.2895L47.4217 47.9488C47.0535 48.2142 46.5506 48.3588 46.0926 48.3588Z" fill="#2D8CE4"/>
<path d="M90.3152 43.7055C90.1745 43.7055 90.0323 43.6548 89.9171 43.5564C89.7854 43.4431 89.7899 43.2165 89.6776 42.8706C89.7524 42.8781 89.8228 42.8825 89.8901 42.887C90.1895 42.9869 90.4859 43.0883 90.7822 43.1926C90.8062 43.3104 90.7972 43.4431 90.7433 43.5072C90.628 43.6414 90.4724 43.7055 90.3152 43.7055Z" fill="#2D8CE4"/>
<path d="M65.6309 35.8457C65.4902 35.8457 65.348 35.7935 65.2328 35.6966C65.1011 35.5818 65.1055 35.3567 64.9933 35.0093C65.0696 35.0182 65.14 35.0227 65.2073 35.0272C65.5052 35.1271 65.803 35.2284 66.0979 35.3328C66.1218 35.4491 66.1129 35.5818 66.059 35.6459C65.9437 35.7816 65.7896 35.8457 65.6309 35.8457Z" fill="#2D8CE4"/>
<path d="M101.512 108.633C101.371 108.633 101.228 108.58 101.114 108.483C100.981 108.369 100.985 108.144 100.875 107.796C100.949 107.805 101.02 107.81 101.087 107.814C101.385 107.912 101.683 108.015 101.979 108.12C102.002 108.236 101.993 108.369 101.939 108.433C101.823 108.568 101.669 108.633 101.512 108.633Z" fill="#2D8CE4"/>
<path d="M78.8634 116.905C78.4084 116.905 77.9639 116.726 77.8217 116.428C77.6301 116.027 77.9983 115.322 78.5042 115.113C78.5057 115.112 78.5072 115.11 78.5102 115.11C78.5162 115.126 78.5251 115.143 78.5356 115.158C78.6045 115.252 78.7287 115.305 78.8529 115.305C78.9173 115.305 78.9816 115.29 79.0385 115.259C79.1193 115.216 79.1792 115.138 79.2121 115.055C79.5205 115.118 79.8004 115.282 79.9321 115.516C80.1102 115.835 80.0473 116.248 79.8123 116.529C79.5205 116.62 79.2316 116.747 78.9517 116.904C78.9233 116.905 78.8933 116.905 78.8634 116.905Z" fill="#2D8CE4"/>
<path d="M106.129 104.206C106.032 104.206 105.924 104.169 105.835 104.133C105.534 104.018 105.251 103.715 105.107 103.378C105.182 102.976 105.251 102.575 105.317 102.172C105.495 101.889 105.727 101.648 106.138 101.501C106.379 101.418 106.628 101.376 106.87 101.376C107.441 101.376 107.975 101.604 108.277 102.023C108.508 102.339 108.46 102.693 108.394 103.042C108.322 103.398 108.202 103.747 107.71 103.793C107.24 104.149 106.697 104.096 106.2 104.198C106.177 104.203 106.153 104.206 106.129 104.206Z" fill="#2D8CE4"/>
<path d="M108.053 103.259C107.931 103.259 107.847 103.185 107.782 103.094C107.676 102.942 107.769 102.724 107.962 102.645C108.01 102.624 108.065 102.615 108.124 102.615C108.264 102.615 108.411 102.673 108.465 102.763C108.529 102.873 108.35 103.176 108.173 103.237C108.13 103.253 108.089 103.259 108.053 103.259Z" fill="#2D8CE4"/>
<path d="M35.6825 59.9443L34.6438 62.7337L46.4471 67.0931L47.5277 64.1873C48.2148 62.3401 47.5951 61.0192 45.7736 60.3498L44.8127 59.9935C43.5644 59.5313 42.5271 59.588 41.7698 60.4378C41.6875 59.4702 41.0499 58.8142 39.8375 58.3669L39.4154 58.2104C37.5939 57.5365 36.3935 58.03 35.6825 59.9443ZM42.129 62.4609C42.4403 61.6215 42.9088 61.3934 44.0044 61.796L45.0357 62.1776C45.9128 62.5026 46.0729 62.9425 45.8409 63.5656L45.4488 64.6212L41.8222 63.2839L42.129 62.4609ZM37.3499 60.6182C37.5909 59.9637 38.0683 59.8161 38.9125 60.1262L39.5696 60.3692C40.5155 60.718 40.6607 61.2503 40.4048 61.9391L40.1353 62.6607L37.0176 61.5097L37.3499 60.6182Z" fill="white"/>
<path d="M47.67 54.5397L49.1383 55.5714C49.8747 56.0887 49.9106 56.5956 49.5499 57.11C49.1862 57.6199 48.6938 57.757 47.9574 57.2412L42.4015 53.3425C41.6681 52.8281 41.6142 52.3078 41.9779 51.795C42.3416 51.2851 42.8475 51.1569 43.5809 51.6742L44.684 52.4465L45.7617 50.9243L44.7618 50.2221C43.1169 49.0666 41.5962 49.2262 40.4767 50.808C39.3601 52.3898 39.7208 53.8703 41.3657 55.0257L46.7151 58.7783C48.363 59.9352 49.8822 59.7757 51.0017 58.1953C52.1198 56.6135 51.7591 55.1316 50.1142 53.9776L48.7447 53.0175L47.67 54.5397Z" fill="white"/>
<path d="M47.7584 45.3975L50.3283 43.1523L49.1444 41.806L45.0867 45.3454L53.3802 54.7767L57.4378 51.2359L56.2539 49.8896L53.6825 52.1334L51.2518 49.3708L53.2963 47.5891L52.1124 46.2429L50.0694 48.023L47.7584 45.3975ZM43.8474 43.2581L44.9864 44.5522L46.2856 43.4206L45.1466 42.1265L43.8474 43.2581ZM45.9039 41.4661L47.0415 42.7587L48.3406 41.6271L47.2031 40.3345L45.9039 41.4661Z" fill="white"/>
<path d="M61.8443 43.0344L62.7184 44.5998C63.1524 45.3825 62.9653 45.8566 62.4145 46.1623C61.8622 46.4649 61.3593 46.374 60.9253 45.5913L57.6265 39.6724C57.1894 38.8897 57.3705 38.3977 57.9213 38.0951C58.4736 37.7924 58.984 37.8983 59.4196 38.681L60.0751 39.8543L61.7096 38.9508L61.1169 37.8863C60.138 36.1345 58.7011 35.6172 57.0023 36.5565C55.3035 37.4942 54.9832 38.9821 55.9576 40.7369L59.1352 46.4366C60.1096 48.1914 61.5509 48.7087 63.2497 47.7694C64.944 46.8317 65.2688 45.3408 64.2914 43.589L63.4787 42.1309L61.8443 43.0344Z" fill="white"/>
<path d="M68.4312 32.7017L65.6113 33.3472L66.4555 46.0138L68.2276 45.6098L68.051 43.3168L70.4159 42.7771L71.2585 44.918L73.2028 44.4767L68.4312 32.7017ZM67.4209 35.2108L69.7708 41.1789L67.9163 41.6038L67.4209 35.2108Z" fill="white"/>
<path d="M76.8759 31.8606H74.1234V44.402H75.8507V35.5341L77.3249 44.402H79.1959L80.5639 35.4089V44.402H82.4333V31.8606H79.6823L78.3322 40.7657L76.8759 31.8606Z" fill="white"/>
<path d="M88.7182 36.2585C89.0101 35.4102 89.492 35.2149 90.0892 35.4176C90.6849 35.6189 90.9514 36.0692 90.6595 36.9175L88.4742 43.3283C88.1854 44.1766 87.7004 44.3719 87.1032 44.1707C86.509 43.9679 86.2441 43.5176 86.533 42.6693L88.7182 36.2585ZM84.6995 41.9179C84.0544 43.8158 84.6875 45.2426 86.5255 45.8643C88.365 46.4875 89.739 45.7406 90.3886 43.8427L92.493 37.6674C93.1411 35.768 92.505 34.3442 90.6655 33.7225C88.8275 33.0993 87.452 33.8448 86.8069 35.7442L84.6995 41.9179Z" fill="white"/>
<path d="M97.3904 38.6128L100.409 40.205L101.25 38.6217L96.4849 36.1066L90.5907 47.1869L95.3563 49.702L96.199 48.1202L93.1801 46.5249L94.9058 43.2822L97.3036 44.548L98.1462 42.9647L95.7485 41.7004L97.3904 38.6128Z" fill="white"/>
<path d="M65.2401 118.047L65.5425 118.099C67.4927 118.433 68.4596 117.691 68.9206 115.442L70.4248 108.01L72.1266 108.301L70.2961 118.895L72.2808 119.237L74.4166 106.876L68.9026 105.932L66.9703 115.217C66.7369 116.359 66.4315 116.434 65.5454 116.282L65.2401 118.047ZM80.9589 106.855L78.8919 106.895L78.0747 111.211L77.6616 114.139L76.994 111.213L75.834 106.952L73.8733 106.989L76.792 116.611L76.7755 116.719C76.6318 117.635 76.0601 117.825 75.0513 117.773L75.0842 119.529C77.8397 119.656 78.591 118.512 79.0161 116.246L80.9589 106.855ZM84.9208 105.995L86.0703 110.953C86.2603 111.773 85.976 112.298 85.3623 112.44C84.7486 112.581 84.1514 112.313 83.9613 111.493L82.7999 106.482L80.8721 106.926L82.0695 112.094C82.4586 113.77 83.5453 114.715 85.1228 114.352C85.6482 114.232 86.2963 113.843 86.6121 113.292L87.7526 118.215L89.6804 117.773L86.8486 105.552L84.9208 105.995ZM101.145 112.581L95.2947 101.477L93.5435 102.393L98.5591 111.912L97.0459 112.702L92.0303 103.184L90.2776 104.1L95.2932 113.617L93.78 114.409L88.7644 104.891L87.0132 105.807L92.864 116.912L101.145 112.581ZM98.0472 101.252L100.604 98.9918L99.4092 97.6515L95.374 101.221L103.735 110.598L107.769 107.029L106.574 105.689L104.019 107.949L101.571 105.203L103.602 103.408L102.407 102.068L100.378 103.864L98.0472 101.252ZM102.671 96.511L104.821 93.8662L103.423 92.7391L100.027 96.9165L109.813 104.808L113.209 100.63L111.811 99.5032L109.66 102.148L106.796 99.8372L108.503 97.735L107.105 96.6079L105.398 98.7101L102.671 96.511ZM112.67 95.9161L108.825 93.48L104.245 90.9202L103.277 92.6392L107.857 95.199L111.949 97.1983L112.67 95.9161ZM112.612 97.8155L114.275 98.7444L115.207 97.088L113.546 96.1592L112.612 97.8155Z" fill="white"/>
<path d="M126.278 68.5944L125.683 62.3208L119.878 59.8227L125.683 57.3246L126.273 51.051L130.453 55.7808L136.626 54.3973L133.399 59.8227L136.629 65.2403L130.455 63.862L126.278 68.5944ZM127.851 64.5938C127.815 64.8033 127.724 64.9636 127.778 65.0697L128.168 65.1653L128.334 64.78C128.324 64.7102 128.093 64.6792 127.851 64.5938Z" fill="white"/>
<path d="M22.4233 102.198L21.8237 95.8673L15.9685 93.3476L21.8237 90.828L22.4181 84.5027L26.634 89.2734L32.861 87.8779L29.6061 93.3476L32.8637 98.8147L26.6367 97.4245L22.4233 102.198ZM24.0102 98.1626C23.9735 98.3739 23.8819 98.533 23.9369 98.6426L24.3297 98.7391L24.4973 98.3504C24.4868 98.28 24.2537 98.2487 24.0102 98.1626Z" fill="white"/>
</svg>
