<svg width="26" height="22" viewBox="0 0 26 22" fill="none" xmlns="http://www.w3.org/2000/svg">
<path d="M15.9538 10.6705C16.7697 10.6705 17.4311 10.0084 17.4311 9.19169C17.4311 8.37497 16.7697 7.71289 15.9538 7.71289C15.138 7.71289 14.4766 8.37497 14.4766 9.19169C14.4766 10.0084 15.138 10.6705 15.9538 10.6705Z" fill="#0074F0"/>
<path d="M10.0456 10.6705C10.8615 10.6705 11.5229 10.0084 11.5229 9.19169C11.5229 8.37497 10.8615 7.71289 10.0456 7.71289C9.22975 7.71289 8.56836 8.37497 8.56836 9.19169C8.56836 10.0084 9.22975 10.6705 10.0456 10.6705Z" fill="#0074F0"/>
<path d="M25.9291 11.7461C26.0236 11.2299 26.0236 10.7008 25.9291 10.1845C25.7807 9.31133 25.391 8.49719 24.804 7.83436C24.2171 7.17154 23.4564 6.68654 22.6082 6.43433C21.9856 5.12417 21.1053 3.95325 20.02 2.99171C18.7839 1.90273 17.3119 1.11623 15.7201 0.694272C14.1284 0.272313 12.4604 0.226446 10.8479 0.560291C9.2354 0.894136 7.72248 1.59856 6.42852 2.61796C5.13455 3.63737 4.09498 4.94386 3.39182 6.43433C2.54266 6.6848 1.78099 7.16927 1.19376 7.8324C0.606543 8.49553 0.217448 9.3106 0.0709091 10.1845C-0.0236364 10.7008 -0.0236364 11.2299 0.0709091 11.7461C0.219284 12.6193 0.609029 13.4335 1.19598 14.0963C1.78293 14.7591 2.54361 15.2441 3.39182 15.4963C4.00629 16.7982 4.87882 17.9615 5.95636 18.9153C7.89453 20.6522 10.4045 21.6126 13.0059 21.6126C15.6073 21.6126 18.1173 20.6522 20.0555 18.9153C21.1304 17.959 22.0025 16.7964 22.62 15.4963C23.4666 15.2432 24.2253 14.7577 24.8102 14.0949C25.3951 13.432 25.7827 12.6183 25.9291 11.7461ZM21.2727 13.3314C21.158 13.3254 21.0436 13.3136 20.93 13.2959C20.6982 14.0743 20.356 14.8154 19.9136 15.4963C19.1639 16.6478 18.1389 17.5938 16.9317 18.2486C15.7245 18.9035 14.3731 19.2464 13 19.2464C11.6269 19.2464 10.2755 18.9035 9.06831 18.2486C7.86108 17.5938 6.83614 16.6478 6.08636 15.4963C5.64405 14.8154 5.30176 14.0743 5.07 13.2959C4.95644 13.3136 4.84204 13.3254 4.72727 13.3314C4.1004 13.3314 3.4992 13.0821 3.05593 12.6384C2.61266 12.1947 2.36364 11.5929 2.36364 10.9653C2.36364 10.3378 2.61266 9.736 3.05593 9.29228C3.4992 8.84856 4.1004 8.59928 4.72727 8.59928C4.84204 8.60525 4.95644 8.61709 5.07 8.63477C5.30176 7.85635 5.64405 7.1153 6.08636 6.43433C6.83614 5.28286 7.86108 4.33685 9.06831 3.68203C10.2755 3.0272 11.6269 2.68425 13 2.68425C14.3731 2.68425 15.7245 3.0272 16.9317 3.68203C18.1389 4.33685 19.1639 5.28286 19.9136 6.43433C20.356 7.1153 20.6982 7.85635 20.93 8.63477C21.0436 8.61709 21.158 8.60525 21.2727 8.59928C21.8996 8.59928 22.5008 8.84856 22.9441 9.29228C23.3873 9.736 23.6364 10.3378 23.6364 10.9653C23.6364 11.5929 23.3873 12.1947 22.9441 12.6384C22.5008 13.0821 21.8996 13.3314 21.2727 13.3314ZM7.68182 13.3314C8.11929 14.3824 8.85777 15.2803 9.80417 15.9119C10.7506 16.5435 11.8626 16.8805 13 16.8805C14.1374 16.8805 15.2494 16.5435 16.1958 15.9119C17.1422 15.2803 17.8807 14.3824 18.3182 13.3314H7.68182Z" fill="#0074F0"/>
</svg>
