<svg width="19" height="20" viewBox="0 0 19 20" fill="none" xmlns="http://www.w3.org/2000/svg">
<path d="M7.67969 0.910156C11.8218 0.910156 15.1797 4.26802 15.1797 8.41016C15.1797 10.1203 14.6073 11.6968 13.6437 12.9584L18.3868 17.703C18.7773 18.0936 18.7773 18.7267 18.3868 19.1173C18.0263 19.4777 17.4591 19.5055 17.0668 19.2005L16.9726 19.1173L12.228 14.3741C10.9663 15.3378 9.38984 15.9102 7.67969 15.9102C3.53755 15.9102 0.179688 12.5523 0.179688 8.41016C0.179688 4.26802 3.53755 0.910156 7.67969 0.910156ZM7.67969 2.91016C4.64212 2.91016 2.17969 5.37259 2.17969 8.41016C2.17969 11.4477 4.64212 13.9102 7.67969 13.9102C10.7173 13.9102 13.1797 11.4477 13.1797 8.41016C13.1797 5.37259 10.7173 2.91016 7.67969 2.91016Z" fill="#0074F0"/>
</svg>
