<svg width="429" height="199" viewBox="0 0 429 199" fill="none" xmlns="http://www.w3.org/2000/svg">
<path d="M146.86 119.335V125.117H133.561V132.678H143.747V138.238H133.561V145.955H146.86V151.738H126V119.335H146.86Z" fill="#1845B7"/>
<path d="M180.897 135.525C180.897 137.868 180.49 140.032 179.674 142.019C178.874 143.991 177.739 145.703 176.272 147.156C174.804 148.594 173.032 149.721 170.956 150.537C168.896 151.337 166.605 151.738 164.085 151.738H151.497V119.335H164.085C166.605 119.335 168.896 119.743 170.956 120.558C173.032 121.373 174.804 122.5 176.272 123.938C177.739 125.377 178.874 127.089 179.674 129.076C180.49 131.048 180.897 133.197 180.897 135.525ZM173.203 135.525C173.203 133.924 172.995 132.478 172.58 131.188C172.165 129.899 171.564 128.809 170.779 127.919C170.008 127.015 169.059 126.325 167.932 125.851C166.805 125.362 165.523 125.117 164.085 125.117H159.058V145.955H164.085C165.523 145.955 166.805 145.718 167.932 145.244C169.059 144.754 170.008 144.065 170.779 143.175C171.564 142.271 172.165 141.174 172.58 139.884C172.995 138.594 173.203 137.141 173.203 135.525Z" fill="#1845B7"/>
<path d="M195.453 118.979C197.054 118.979 198.492 119.216 199.767 119.691C201.057 120.15 202.154 120.795 203.059 121.625C203.963 122.456 204.652 123.449 205.127 124.606C205.616 125.747 205.861 127.007 205.861 128.386C205.861 129.572 205.69 130.669 205.349 131.678C205.023 132.686 204.571 133.65 203.993 134.569C203.414 135.473 202.74 136.355 201.969 137.215C201.213 138.06 200.405 138.92 199.545 139.795L193.207 146.289C194.022 146.052 194.823 145.866 195.608 145.733C196.409 145.585 197.158 145.511 197.855 145.511H203.904C204.645 145.511 205.231 145.718 205.661 146.133C206.091 146.534 206.306 147.067 206.306 147.734V151.738H183.532V149.514C183.532 149.084 183.621 148.624 183.799 148.135C183.977 147.646 184.289 147.201 184.733 146.8L194.074 137.393C194.875 136.593 195.571 135.829 196.164 135.103C196.757 134.376 197.247 133.664 197.632 132.968C198.018 132.256 198.307 131.552 198.5 130.855C198.692 130.143 198.789 129.394 198.789 128.609C198.789 127.319 198.477 126.333 197.855 125.651C197.247 124.954 196.313 124.606 195.052 124.606C194.029 124.606 193.162 124.88 192.45 125.428C191.754 125.962 191.272 126.629 191.005 127.43C190.694 128.245 190.286 128.787 189.782 129.053C189.278 129.32 188.559 129.38 187.624 129.231L183.977 128.586C184.214 126.97 184.667 125.562 185.334 124.361C186.016 123.16 186.854 122.159 187.847 121.359C188.855 120.558 190.004 119.965 191.294 119.579C192.584 119.179 193.97 118.979 195.453 118.979Z" fill="#1845B7"/>
<path d="M229.46 139.15H232.796V143.02C232.796 143.361 232.677 143.657 232.44 143.909C232.218 144.161 231.892 144.287 231.462 144.287H229.46V151.738H223.456V144.287H210.423C209.993 144.287 209.6 144.154 209.245 143.887C208.904 143.62 208.689 143.287 208.6 142.886L207.888 139.484L222.877 119.335H229.46V139.15ZM223.456 130.699C223.456 130.18 223.47 129.624 223.5 129.031C223.544 128.423 223.604 127.801 223.678 127.163L215.116 139.15H223.456V130.699Z" fill="#1845B7"/>
<path d="M235.201 148.246C235.201 147.712 235.298 147.216 235.49 146.756C235.698 146.296 235.972 145.896 236.313 145.555C236.669 145.214 237.084 144.947 237.559 144.754C238.033 144.547 238.552 144.443 239.115 144.443C239.664 144.443 240.176 144.547 240.65 144.754C241.124 144.947 241.54 145.214 241.895 145.555C242.251 145.896 242.526 146.296 242.718 146.756C242.926 147.216 243.03 147.712 243.03 148.246C243.03 148.78 242.926 149.284 242.718 149.758C242.526 150.218 242.251 150.618 241.895 150.959C241.54 151.3 241.124 151.567 240.65 151.76C240.176 151.953 239.664 152.049 239.115 152.049C238.552 152.049 238.033 151.953 237.559 151.76C237.084 151.567 236.669 151.3 236.313 150.959C235.972 150.618 235.698 150.218 235.49 149.758C235.298 149.284 235.201 148.78 235.201 148.246Z" fill="#1845B7"/>
<path d="M255.095 132.456H256.296C257.408 132.456 258.208 132.108 258.698 131.411L265.992 120.825C266.422 120.261 266.882 119.876 267.371 119.668C267.875 119.446 268.498 119.335 269.239 119.335H275.777L266.17 132.434C265.488 133.338 264.754 133.991 263.968 134.391C264.532 134.598 265.043 134.888 265.503 135.258C265.962 135.629 266.392 136.111 266.793 136.704L276.578 151.738H269.862C269.432 151.738 269.061 151.708 268.75 151.649C268.453 151.589 268.194 151.5 267.971 151.382C267.749 151.263 267.556 151.122 267.393 150.959C267.23 150.781 267.074 150.581 266.926 150.359L259.587 139.083C259.32 138.668 258.979 138.379 258.564 138.216C258.164 138.038 257.615 137.949 256.918 137.949H255.095V151.738H247.578V119.335H255.095V132.456Z" fill="#1845B7"/>
<path d="M301.955 119.335V122.048C301.955 122.434 301.889 122.812 301.755 123.182C301.637 123.553 301.466 123.901 301.244 124.227L286.032 145.955H301.466V151.738H276.469V148.846C276.469 148.505 276.529 148.172 276.647 147.846C276.766 147.505 276.929 147.193 277.136 146.912L292.393 125.117H277.715V119.335H301.955Z" fill="#1845B7"/>
<path d="M5.59319 192.528C6.20848 192.528 6.73852 192.458 7.1833 192.317C7.62809 192.176 7.99133 191.98 8.27303 191.728C8.56214 191.468 8.77341 191.164 8.90685 190.816C9.04029 190.46 9.10701 190.071 9.10701 189.648C9.10701 188.826 8.81419 188.177 8.22855 187.702C7.64292 187.221 6.76446 186.98 5.59319 186.98H2.1461V192.528H5.59319ZM2.1461 180.008V185.445H4.99273C5.6006 185.445 6.12694 185.378 6.57172 185.245C7.02392 185.112 7.39458 184.926 7.68369 184.689C7.98021 184.452 8.1989 184.166 8.33975 183.833C8.4806 183.492 8.55102 183.121 8.55102 182.721C8.55102 181.779 8.26932 181.094 7.70593 180.664C7.14253 180.226 6.26778 180.008 5.08169 180.008H2.1461ZM5.08169 178.306C6.06022 178.306 6.9016 178.403 7.60585 178.595C8.31751 178.788 8.89944 179.062 9.35164 179.418C9.81125 179.774 10.1485 180.212 10.3635 180.73C10.5785 181.242 10.686 181.82 10.686 182.465C10.686 182.858 10.623 183.236 10.497 183.599C10.3784 183.955 10.1967 184.289 9.9521 184.6C9.70747 184.911 9.39612 185.193 9.01805 185.445C8.64739 185.69 8.21002 185.89 7.70593 186.046C8.8772 186.268 9.75565 186.687 10.3413 187.302C10.9343 187.91 11.2309 188.711 11.2309 189.704C11.2309 190.379 11.1048 190.994 10.8528 191.55C10.6082 192.106 10.2449 192.584 9.76307 192.984C9.28863 193.385 8.70299 193.696 8.00616 193.918C7.30933 194.133 6.51612 194.241 5.62655 194.241H0V178.306H5.08169Z" fill="#585551"/>
<path d="M25.5638 190.949C25.6824 190.949 25.7862 190.998 25.8751 191.094L26.7313 192.017C26.079 192.773 25.2858 193.362 24.3517 193.785C23.4251 194.207 22.302 194.419 20.9825 194.419C19.8408 194.419 18.803 194.222 17.869 193.829C16.9349 193.429 16.138 192.873 15.4782 192.161C14.8185 191.442 14.307 190.582 13.9437 189.582C13.5805 188.581 13.3988 187.48 13.3988 186.279C13.3988 185.078 13.5879 183.977 13.966 182.977C14.344 181.976 14.8741 181.116 15.5561 180.397C16.2455 179.678 17.0683 179.122 18.0246 178.729C18.9809 178.329 20.0373 178.128 21.1937 178.128C22.3279 178.128 23.3287 178.31 24.196 178.673C25.0634 179.037 25.8269 179.529 26.4867 180.152L25.775 181.142C25.7306 181.216 25.6712 181.279 25.5971 181.331C25.5304 181.375 25.4377 181.398 25.3191 181.398C25.1857 181.398 25.0226 181.327 24.8299 181.186C24.6371 181.038 24.3851 180.875 24.0737 180.697C23.7624 180.519 23.3732 180.36 22.9062 180.219C22.4391 180.071 21.8646 179.997 21.1826 179.997C20.3598 179.997 19.6073 180.141 18.9253 180.43C18.2433 180.712 17.654 181.123 17.1573 181.664C16.668 182.206 16.2863 182.865 16.012 183.644C15.7377 184.422 15.6005 185.301 15.6005 186.279C15.6005 187.272 15.7414 188.158 16.0231 188.937C16.3122 189.715 16.7014 190.375 17.1907 190.916C17.6873 191.45 18.2693 191.857 18.9364 192.139C19.611 192.421 20.3375 192.562 21.1159 192.562C21.5903 192.562 22.0166 192.536 22.3947 192.484C22.7801 192.425 23.1323 192.336 23.451 192.217C23.7772 192.098 24.0774 191.95 24.3517 191.772C24.6334 191.587 24.9114 191.368 25.1857 191.116C25.3117 191.005 25.4377 190.949 25.5638 190.949Z" fill="#585551"/>
<path d="M39.0623 192.484L39.0512 194.241H29.2326V178.306H39.0512V180.063H31.3898V185.356H37.5945V187.046H31.3898V192.484H39.0623Z" fill="#585551"/>
<path d="M59.6339 178.306L53.1622 192.161C52.9621 192.599 52.7434 192.962 52.5062 193.251C52.2764 193.533 52.028 193.759 51.7612 193.929C51.4943 194.093 51.2052 194.207 50.8938 194.274C50.5825 194.348 50.2489 194.385 49.8931 194.385C49.4928 194.385 49.1851 194.348 48.9701 194.274C48.7552 194.207 48.6477 194.104 48.6477 193.963V192.595H49.426C49.6114 192.595 49.7967 192.577 49.982 192.54C50.1673 192.495 50.3453 192.421 50.5158 192.317C50.6863 192.213 50.8493 192.076 51.005 191.906C51.1607 191.728 51.3016 191.505 51.4276 191.239L52.206 189.615L45.801 178.306H47.8137C48.0064 178.306 48.1584 178.355 48.2696 178.451C48.3808 178.54 48.4772 178.658 48.5587 178.807L52.4951 186.034C52.7693 186.561 52.9917 187.095 53.1622 187.636C53.2438 187.369 53.3327 187.102 53.4291 186.835C53.5329 186.568 53.6478 186.301 53.7738 186.034L57.1208 178.807C57.1801 178.681 57.2691 178.566 57.3877 178.462C57.5137 178.358 57.6694 178.306 57.8547 178.306H59.6339Z" fill="#585551"/>
<path d="M72.3011 190.949C72.4197 190.949 72.5235 190.998 72.6124 191.094L73.4687 192.017C72.8163 192.773 72.0231 193.362 71.0891 193.785C70.1624 194.207 69.0393 194.419 67.7198 194.419C66.5782 194.419 65.5403 194.222 64.6063 193.829C63.6722 193.429 62.8753 192.873 62.2156 192.161C61.5558 191.442 61.0443 190.582 60.681 189.582C60.3178 188.581 60.1362 187.48 60.1362 186.279C60.1362 185.078 60.3252 183.977 60.7033 182.977C61.0814 181.976 61.6114 181.116 62.2934 180.397C62.9828 179.678 63.8057 179.122 64.762 178.729C65.7183 178.329 66.7746 178.128 67.9311 178.128C69.0653 178.128 70.066 178.31 70.9334 178.673C71.8007 179.037 72.5643 179.529 73.224 180.152L72.5124 181.142C72.4679 181.216 72.4086 181.279 72.3345 181.331C72.2677 181.375 72.1751 181.398 72.0565 181.398C71.923 181.398 71.7599 181.327 71.5672 181.186C71.3745 181.038 71.1224 180.875 70.8111 180.697C70.4997 180.519 70.1105 180.36 69.6435 180.219C69.1765 180.071 68.602 179.997 67.9199 179.997C67.0971 179.997 66.3447 180.141 65.6627 180.43C64.9807 180.712 64.3913 181.123 63.8946 181.664C63.4054 182.206 63.0236 182.865 62.7493 183.644C62.475 184.422 62.3379 185.301 62.3379 186.279C62.3379 187.272 62.4787 188.158 62.7604 188.937C63.0495 189.715 63.4387 190.375 63.928 190.916C64.4247 191.45 65.0066 191.857 65.6738 192.139C66.3484 192.421 67.0749 192.562 67.8532 192.562C68.3277 192.562 68.7539 192.536 69.132 192.484C69.5175 192.425 69.8696 192.336 70.1884 192.217C70.5145 192.098 70.8148 191.95 71.0891 191.772C71.3707 191.587 71.6487 191.368 71.923 191.116C72.049 191.005 72.1751 190.949 72.3011 190.949Z" fill="#585551"/>
<path d="M88.165 194.241H86.0078V180.008H80.7371C80.6333 182.054 80.4925 183.829 80.3145 185.334C80.144 186.839 79.9328 188.125 79.6807 189.192C79.4361 190.26 79.1544 191.131 78.8356 191.806C78.5243 192.473 78.1796 192.999 77.8015 193.385C77.4309 193.77 77.0305 194.033 76.6006 194.174C76.1706 194.315 75.7147 194.385 75.2329 194.385C74.8326 194.385 74.5249 194.348 74.3099 194.274C74.0949 194.207 73.9875 194.104 73.9875 193.963V192.595H74.7658C75.0624 192.595 75.3552 192.54 75.6443 192.428C75.9334 192.31 76.2114 192.076 76.4783 191.728C76.7451 191.379 76.9972 190.883 77.2344 190.238C77.4716 189.593 77.6866 188.74 77.8793 187.68C78.0721 186.62 78.2389 185.327 78.3797 183.799C78.5206 182.265 78.6281 180.434 78.7022 178.306H88.165V194.241Z" fill="#585551"/>
<path d="M104.113 178.306L97.6409 192.161C97.4407 192.599 97.2221 192.962 96.9848 193.251C96.755 193.533 96.5067 193.759 96.2398 193.929C95.9729 194.093 95.6838 194.207 95.3725 194.274C95.0611 194.348 94.7275 194.385 94.3717 194.385C93.9714 194.385 93.6638 194.348 93.4488 194.274C93.2338 194.207 93.1263 194.104 93.1263 193.963V192.595H93.9047C94.09 192.595 94.2753 192.577 94.4607 192.54C94.646 192.495 94.8239 192.421 94.9944 192.317C95.1649 192.213 95.328 192.076 95.4837 191.906C95.6394 191.728 95.7802 191.505 95.9062 191.239L96.6846 189.615L90.2797 178.306H92.2923C92.4851 178.306 92.637 178.355 92.7482 178.451C92.8594 178.54 92.9558 178.658 93.0374 178.807L96.9737 186.034C97.248 186.561 97.4704 187.095 97.6409 187.636C97.7224 187.369 97.8114 187.102 97.9078 186.835C98.0115 186.568 98.1265 186.301 98.2525 186.034L101.6 178.807C101.659 178.681 101.748 178.566 101.866 178.462C101.992 178.358 102.148 178.306 102.333 178.306H104.113Z" fill="#585551"/>
<path d="M115.754 180.008H108.315V194.241H106.158V178.306H115.754V180.008Z" fill="#585551"/>
<path d="M131.035 178.306V194.241H128.877V182.921C128.877 182.602 128.885 182.272 128.9 181.931C128.914 181.583 128.948 181.216 129 180.83C128.874 181.164 128.74 181.475 128.599 181.765C128.459 182.054 128.314 182.306 128.166 182.521L120.693 193.563C120.59 193.733 120.456 193.889 120.293 194.03C120.13 194.17 119.941 194.241 119.726 194.241H118.125V178.306H120.282V189.637C120.282 189.956 120.275 190.29 120.26 190.638C120.245 190.979 120.211 191.346 120.16 191.739C120.286 191.398 120.419 191.083 120.56 190.794C120.708 190.505 120.853 190.249 120.994 190.026L128.466 178.985C128.57 178.814 128.703 178.658 128.866 178.518C129.029 178.377 129.218 178.306 129.433 178.306H131.035Z" fill="#585551"/>
<path d="M150.94 192.551V180.008H145.669C145.58 181.824 145.454 183.418 145.291 184.789C145.128 186.161 144.935 187.35 144.713 188.359C144.49 189.367 144.242 190.212 143.967 190.894C143.693 191.568 143.397 192.121 143.078 192.551H150.94ZM155.71 192.551V197.477C155.71 197.669 155.647 197.825 155.521 197.944C155.395 198.062 155.228 198.122 155.02 198.122H153.742V194.241H140.898V197.477C140.898 197.669 140.832 197.825 140.698 197.944C140.572 198.062 140.409 198.122 140.209 198.122H138.919V192.551H140.543C140.772 192.439 141.002 192.262 141.232 192.017C141.462 191.765 141.681 191.409 141.888 190.949C142.103 190.482 142.303 189.897 142.489 189.192C142.674 188.488 142.841 187.628 142.989 186.613C143.145 185.59 143.278 184.396 143.389 183.032C143.5 181.668 143.586 180.093 143.645 178.306H153.108V192.551H155.71Z" fill="#585551"/>
<path d="M168.111 192.484L168.1 194.241H158.281V178.306H168.1V180.063H160.439V185.356H166.643V187.046H160.439V192.484H168.111Z" fill="#585551"/>
<path d="M181.892 180.119H176.732V194.241H174.586V180.119H169.416V178.306H181.892V180.119Z" fill="#585551"/>
<path d="M194.726 190.949C194.845 190.949 194.948 190.998 195.037 191.094L195.894 192.017C195.241 192.773 194.448 193.362 193.514 193.785C192.587 194.207 191.464 194.419 190.145 194.419C189.003 194.419 187.965 194.222 187.031 193.829C186.097 193.429 185.3 192.873 184.64 192.161C183.981 191.442 183.469 190.582 183.106 189.582C182.743 188.581 182.561 187.48 182.561 186.279C182.561 185.078 182.75 183.977 183.128 182.977C183.506 181.976 184.036 181.116 184.718 180.397C185.408 179.678 186.231 179.122 187.187 178.729C188.143 178.329 189.2 178.128 190.356 178.128C191.49 178.128 192.491 178.31 193.358 178.673C194.226 179.037 194.989 179.529 195.649 180.152L194.937 181.142C194.893 181.216 194.833 181.279 194.759 181.331C194.693 181.375 194.6 181.398 194.481 181.398C194.348 181.398 194.185 181.327 193.992 181.186C193.799 181.038 193.547 180.875 193.236 180.697C192.925 180.519 192.535 180.36 192.068 180.219C191.601 180.071 191.027 179.997 190.345 179.997C189.522 179.997 188.77 180.141 188.088 180.43C187.406 180.712 186.816 181.123 186.32 181.664C185.83 182.206 185.448 182.865 185.174 183.644C184.9 184.422 184.763 185.301 184.763 186.279C184.763 187.272 184.904 188.158 185.185 188.937C185.474 189.715 185.864 190.375 186.353 190.916C186.85 191.45 187.431 191.857 188.099 192.139C188.773 192.421 189.5 192.562 190.278 192.562C190.753 192.562 191.179 192.536 191.557 192.484C191.942 192.425 192.294 192.336 192.613 192.217C192.939 192.098 193.24 191.95 193.514 191.772C193.796 191.587 194.074 191.368 194.348 191.116C194.474 191.005 194.6 190.949 194.726 190.949Z" fill="#585551"/>
<path d="M211.116 194.241H209.181C208.966 194.241 208.781 194.185 208.625 194.074C208.477 193.955 208.336 193.785 208.202 193.563L203.988 187.725C203.795 187.436 203.588 187.235 203.365 187.124C203.143 187.006 202.839 186.946 202.453 186.946H200.541V194.241H198.395V178.306H200.541V185.289H202.198C202.531 185.289 202.813 185.238 203.043 185.134C203.28 185.03 203.514 184.826 203.743 184.522L207.913 178.918C208.024 178.74 208.158 178.595 208.314 178.484C208.477 178.366 208.666 178.306 208.881 178.306H210.693L205.878 184.856C205.515 185.367 205.048 185.719 204.477 185.912C204.87 186.016 205.2 186.183 205.467 186.413C205.741 186.635 206.001 186.946 206.245 187.347L211.116 194.241Z" fill="#585551"/>
<path d="M227.299 186.279C227.299 187.473 227.11 188.57 226.732 189.571C226.354 190.564 225.82 191.42 225.131 192.139C224.441 192.858 223.611 193.418 222.64 193.818C221.676 194.211 220.609 194.408 219.438 194.408C218.266 194.408 217.199 194.211 216.235 193.818C215.271 193.418 214.445 192.858 213.755 192.139C213.066 191.42 212.532 190.564 212.154 189.571C211.776 188.57 211.587 187.473 211.587 186.279C211.587 185.086 211.776 183.992 212.154 182.999C212.532 181.998 213.066 181.138 213.755 180.419C214.445 179.693 215.271 179.129 216.235 178.729C217.199 178.329 218.266 178.128 219.438 178.128C220.609 178.128 221.676 178.329 222.64 178.729C223.611 179.129 224.441 179.693 225.131 180.419C225.82 181.138 226.354 181.998 226.732 182.999C227.11 183.992 227.299 185.086 227.299 186.279ZM225.086 186.279C225.086 185.301 224.953 184.422 224.686 183.644C224.419 182.865 224.041 182.209 223.552 181.676C223.063 181.134 222.469 180.719 221.773 180.43C221.076 180.141 220.297 179.997 219.438 179.997C218.585 179.997 217.81 180.141 217.114 180.43C216.417 180.719 215.82 181.134 215.323 181.676C214.834 182.209 214.456 182.865 214.189 183.644C213.922 184.422 213.789 185.301 213.789 186.279C213.789 187.258 213.922 188.136 214.189 188.914C214.456 189.685 214.834 190.342 215.323 190.883C215.82 191.416 216.417 191.828 217.114 192.117C217.81 192.399 218.585 192.54 219.438 192.54C220.297 192.54 221.076 192.399 221.773 192.117C222.469 191.828 223.063 191.416 223.552 190.883C224.041 190.342 224.419 189.685 224.686 188.914C224.953 188.136 225.086 187.258 225.086 186.279Z" fill="#585551"/>
<path d="M239.982 180.008H232.543V194.241H230.386V178.306H239.982V180.008Z" fill="#585551"/>
<path d="M256.293 186.279C256.293 187.473 256.104 188.57 255.726 189.571C255.348 190.564 254.814 191.42 254.124 192.139C253.435 192.858 252.605 193.418 251.634 193.818C250.67 194.211 249.602 194.408 248.431 194.408C247.26 194.408 246.192 194.211 245.229 193.818C244.265 193.418 243.438 192.858 242.749 192.139C242.06 191.42 241.526 190.564 241.148 189.571C240.77 188.57 240.581 187.473 240.581 186.279C240.581 185.086 240.77 183.992 241.148 182.999C241.526 181.998 242.06 181.138 242.749 180.419C243.438 179.693 244.265 179.129 245.229 178.729C246.192 178.329 247.26 178.128 248.431 178.128C249.602 178.128 250.67 178.329 251.634 178.729C252.605 179.129 253.435 179.693 254.124 180.419C254.814 181.138 255.348 181.998 255.726 182.999C256.104 183.992 256.293 185.086 256.293 186.279ZM254.08 186.279C254.08 185.301 253.947 184.422 253.68 183.644C253.413 182.865 253.035 182.209 252.545 181.676C252.056 181.134 251.463 180.719 250.766 180.43C250.069 180.141 249.291 179.997 248.431 179.997C247.579 179.997 246.804 180.141 246.107 180.43C245.41 180.719 244.814 181.134 244.317 181.676C243.828 182.209 243.45 182.865 243.183 183.644C242.916 184.422 242.782 185.301 242.782 186.279C242.782 187.258 242.916 188.136 243.183 188.914C243.45 189.685 243.828 190.342 244.317 190.883C244.814 191.416 245.41 191.828 246.107 192.117C246.804 192.399 247.579 192.54 248.431 192.54C249.291 192.54 250.069 192.399 250.766 192.117C251.463 191.828 252.056 191.416 252.545 190.883C253.035 190.342 253.413 189.685 253.68 188.914C253.947 188.136 254.08 187.258 254.08 186.279Z" fill="#585551"/>
<path d="M279.792 186.279C279.792 187.473 279.603 188.57 279.225 189.571C278.847 190.564 278.313 191.42 277.623 192.139C276.934 192.858 276.104 193.418 275.133 193.818C274.169 194.211 273.101 194.408 271.93 194.408C270.759 194.408 269.691 194.211 268.728 193.818C267.764 193.418 266.937 192.858 266.248 192.139C265.559 191.42 265.025 190.564 264.647 189.571C264.269 188.57 264.08 187.473 264.08 186.279C264.08 185.086 264.269 183.992 264.647 182.999C265.025 181.998 265.559 181.138 266.248 180.419C266.937 179.693 267.764 179.129 268.728 178.729C269.691 178.329 270.759 178.128 271.93 178.128C273.101 178.128 274.169 178.329 275.133 178.729C276.104 179.129 276.934 179.693 277.623 180.419C278.313 181.138 278.847 181.998 279.225 182.999C279.603 183.992 279.792 185.086 279.792 186.279ZM277.579 186.279C277.579 185.301 277.445 184.422 277.179 183.644C276.912 182.865 276.534 182.209 276.044 181.676C275.555 181.134 274.962 180.719 274.265 180.43C273.568 180.141 272.79 179.997 271.93 179.997C271.078 179.997 270.303 180.141 269.606 180.43C268.909 180.719 268.313 181.134 267.816 181.676C267.327 182.209 266.949 182.865 266.682 183.644C266.415 184.422 266.281 185.301 266.281 186.279C266.281 187.258 266.415 188.136 266.682 188.914C266.949 189.685 267.327 190.342 267.816 190.883C268.313 191.416 268.909 191.828 269.606 192.117C270.303 192.399 271.078 192.54 271.93 192.54C272.79 192.54 273.568 192.399 274.265 192.117C274.962 191.828 275.555 191.416 276.044 190.883C276.534 190.342 276.912 189.685 277.179 188.914C277.445 188.136 277.579 187.258 277.579 186.279Z" fill="#585551"/>
<path d="M288.116 192.528C288.731 192.528 289.257 192.458 289.695 192.317C290.139 192.176 290.499 191.984 290.773 191.739C291.055 191.487 291.259 191.187 291.385 190.838C291.518 190.482 291.585 190.093 291.585 189.671C291.585 189.226 291.518 188.833 291.385 188.492C291.259 188.144 291.055 187.851 290.773 187.613C290.499 187.369 290.143 187.187 289.706 187.069C289.268 186.943 288.742 186.88 288.127 186.88H285.024V192.528H288.116ZM288.127 185.167C289.098 185.167 289.935 185.275 290.64 185.49C291.344 185.697 291.922 185.994 292.374 186.379C292.834 186.757 293.171 187.209 293.386 187.736C293.609 188.262 293.72 188.837 293.72 189.459C293.72 190.193 293.594 190.857 293.342 191.45C293.097 192.035 292.734 192.536 292.252 192.951C291.778 193.366 291.192 193.685 290.495 193.907C289.798 194.13 289.005 194.241 288.116 194.241H282.878V178.306H293.175V180.008H285.024V185.167H288.127Z" fill="#585551"/>
<path d="M301.373 186.568C301.988 186.568 302.529 186.487 302.996 186.324C303.471 186.161 303.867 185.934 304.186 185.645C304.512 185.349 304.757 184.997 304.92 184.589C305.083 184.181 305.165 183.733 305.165 183.243C305.165 182.228 304.85 181.435 304.219 180.864C303.597 180.293 302.648 180.008 301.373 180.008H298.815V186.568H301.373ZM301.373 178.306C302.381 178.306 303.256 178.425 303.997 178.662C304.746 178.892 305.365 179.222 305.854 179.652C306.343 180.082 306.706 180.601 306.944 181.209C307.188 181.816 307.311 182.495 307.311 183.243C307.311 183.985 307.181 184.663 306.921 185.278C306.662 185.894 306.28 186.424 305.776 186.868C305.279 187.313 304.66 187.662 303.919 187.914C303.185 188.158 302.336 188.281 301.373 188.281H298.815V194.241H296.669V178.306H301.373Z" fill="#585551"/>
<path d="M317.38 188.325L314.878 181.842C314.804 181.65 314.726 181.427 314.644 181.175C314.563 180.916 314.485 180.641 314.411 180.352C314.255 180.953 314.096 181.453 313.933 181.854L311.431 188.325H317.38ZM321.872 194.241H320.204C320.011 194.241 319.856 194.193 319.737 194.096C319.618 194 319.529 193.878 319.47 193.729L317.98 189.882H310.83L309.34 193.729C309.296 193.863 309.21 193.981 309.084 194.085C308.958 194.189 308.799 194.241 308.606 194.241H306.949L313.321 178.306H315.5L321.872 194.241Z" fill="#585551"/>
<path d="M323.024 179.796C323.625 179.263 324.321 178.855 325.115 178.573C325.908 178.292 326.809 178.151 327.817 178.151C328.64 178.151 329.377 178.251 330.03 178.451C330.689 178.651 331.249 178.933 331.709 179.296C332.168 179.659 332.52 180.089 332.765 180.586C333.017 181.083 333.143 181.627 333.143 182.22C333.143 183.021 332.943 183.725 332.543 184.333C332.15 184.941 331.594 185.412 330.875 185.745C331.282 185.916 331.653 186.127 331.987 186.379C332.32 186.624 332.606 186.902 332.843 187.213C333.087 187.525 333.273 187.866 333.399 188.236C333.532 188.607 333.599 188.996 333.599 189.404C333.599 190.101 333.469 190.753 333.21 191.361C332.95 191.969 332.572 192.499 332.076 192.951C331.586 193.396 330.982 193.748 330.263 194.007C329.544 194.267 328.725 194.396 327.806 194.396C326.664 194.396 325.637 194.211 324.725 193.841C323.814 193.462 323.032 192.955 322.379 192.317L323.002 191.294C323.061 191.213 323.135 191.146 323.224 191.094C323.313 191.035 323.41 191.005 323.513 191.005C323.669 191.005 323.854 191.09 324.069 191.261C324.284 191.424 324.559 191.605 324.892 191.806C325.226 192.006 325.63 192.191 326.104 192.362C326.586 192.525 327.172 192.606 327.861 192.606C328.447 192.606 328.969 192.536 329.429 192.395C329.896 192.254 330.285 192.05 330.597 191.783C330.915 191.516 331.156 191.19 331.319 190.805C331.49 190.419 331.575 189.986 331.575 189.504C331.575 189.089 331.494 188.707 331.331 188.359C331.175 188.01 330.945 187.714 330.641 187.469C330.337 187.217 329.967 187.024 329.529 186.891C329.092 186.75 328.599 186.679 328.05 186.679H325.871V184.911H327.961C328.413 184.911 328.832 184.856 329.218 184.745C329.611 184.633 329.944 184.47 330.219 184.255C330.5 184.04 330.719 183.777 330.875 183.466C331.038 183.155 331.119 182.799 331.119 182.398C331.119 182.035 331.045 181.702 330.897 181.398C330.749 181.094 330.534 180.834 330.252 180.619C329.97 180.397 329.625 180.226 329.218 180.108C328.81 179.989 328.347 179.93 327.828 179.93C327.227 179.93 326.716 179.993 326.293 180.119C325.871 180.245 325.515 180.386 325.226 180.541C324.937 180.69 324.7 180.827 324.514 180.953C324.336 181.079 324.181 181.142 324.047 181.142C323.929 181.142 323.832 181.116 323.758 181.064C323.684 181.012 323.613 180.927 323.547 180.808L323.024 179.796Z" fill="#585551"/>
<path d="M351.461 186.279C351.461 187.473 351.272 188.57 350.894 189.571C350.516 190.564 349.983 191.42 349.293 192.139C348.604 192.858 347.773 193.418 346.802 193.818C345.839 194.211 344.771 194.408 343.6 194.408C342.429 194.408 341.361 194.211 340.397 193.818C339.434 193.418 338.607 192.858 337.918 192.139C337.228 191.42 336.695 190.564 336.316 189.571C335.938 188.57 335.749 187.473 335.749 186.279C335.749 185.086 335.938 183.992 336.316 182.999C336.695 181.998 337.228 181.138 337.918 180.419C338.607 179.693 339.434 179.129 340.397 178.729C341.361 178.329 342.429 178.128 343.6 178.128C344.771 178.128 345.839 178.329 346.802 178.729C347.773 179.129 348.604 179.693 349.293 180.419C349.983 181.138 350.516 181.998 350.894 182.999C351.272 183.992 351.461 185.086 351.461 186.279ZM349.249 186.279C349.249 185.301 349.115 184.422 348.848 183.644C348.581 182.865 348.203 182.209 347.714 181.676C347.225 181.134 346.632 180.719 345.935 180.43C345.238 180.141 344.46 179.997 343.6 179.997C342.747 179.997 341.973 180.141 341.276 180.43C340.579 180.719 339.982 181.134 339.486 181.676C338.996 182.209 338.618 182.865 338.351 183.644C338.085 184.422 337.951 185.301 337.951 186.279C337.951 187.258 338.085 188.136 338.351 188.914C338.618 189.685 338.996 190.342 339.486 190.883C339.982 191.416 340.579 191.828 341.276 192.117C341.973 192.399 342.747 192.54 343.6 192.54C344.46 192.54 345.238 192.399 345.935 192.117C346.632 191.828 347.225 191.416 347.714 190.883C348.203 190.342 348.581 189.685 348.848 188.914C349.115 188.136 349.249 187.258 349.249 186.279Z" fill="#585551"/>
<path d="M360.141 192.528C360.756 192.528 361.286 192.458 361.731 192.317C362.176 192.176 362.539 191.98 362.821 191.728C363.11 191.468 363.321 191.164 363.455 190.816C363.588 190.46 363.655 190.071 363.655 189.648C363.655 188.826 363.362 188.177 362.776 187.702C362.191 187.221 361.312 186.98 360.141 186.98H356.694V192.528H360.141ZM356.694 180.008V185.445H359.541C360.148 185.445 360.675 185.378 361.12 185.245C361.572 185.112 361.942 184.926 362.232 184.689C362.528 184.452 362.747 184.166 362.888 183.833C363.028 183.492 363.099 183.121 363.099 182.721C363.099 181.779 362.817 181.094 362.254 180.664C361.69 180.226 360.816 180.008 359.63 180.008H356.694ZM359.63 178.306C360.608 178.306 361.449 178.403 362.154 178.595C362.865 178.788 363.447 179.062 363.9 179.418C364.359 179.774 364.696 180.212 364.911 180.73C365.126 181.242 365.234 181.82 365.234 182.465C365.234 182.858 365.171 183.236 365.045 183.599C364.926 183.955 364.745 184.289 364.5 184.6C364.255 184.911 363.944 185.193 363.566 185.445C363.195 185.69 362.758 185.89 362.254 186.046C363.425 186.268 364.304 186.687 364.889 187.302C365.482 187.91 365.779 188.711 365.779 189.704C365.779 190.379 365.653 190.994 365.401 191.55C365.156 192.106 364.793 192.584 364.311 192.984C363.837 193.385 363.251 193.696 362.554 193.918C361.857 194.133 361.064 194.241 360.174 194.241H354.548V178.306H359.63Z" fill="#585551"/>
<path d="M377.148 188.325L374.646 181.842C374.572 181.65 374.494 181.427 374.412 181.175C374.331 180.916 374.253 180.641 374.179 180.352C374.023 180.953 373.864 181.453 373.701 181.854L371.199 188.325H377.148ZM381.64 194.241H379.972C379.78 194.241 379.624 194.193 379.505 194.096C379.387 194 379.298 193.878 379.238 193.729L377.748 189.882H370.598L369.108 193.729C369.064 193.863 368.979 193.981 368.853 194.085C368.727 194.189 368.567 194.241 368.374 194.241H366.718L373.089 178.306H375.269L381.64 194.241Z" fill="#585551"/>
<path d="M396.625 178.306V194.241H394.468V186.991H385.872V194.241H383.715V178.306H385.872V185.412H394.468V178.306H396.625Z" fill="#585551"/>
<path d="M413.609 178.306V194.241H411.452V182.921C411.452 182.602 411.459 182.272 411.474 181.931C411.489 181.583 411.522 181.216 411.574 180.83C411.448 181.164 411.314 181.475 411.174 181.765C411.033 182.054 410.888 182.306 410.74 182.521L403.267 193.563C403.164 193.733 403.03 193.889 402.867 194.03C402.704 194.17 402.515 194.241 402.3 194.241H400.699V178.306H402.856V189.637C402.856 189.956 402.849 190.29 402.834 190.638C402.819 190.979 402.786 191.346 402.734 191.739C402.86 191.398 402.993 191.083 403.134 190.794C403.282 190.505 403.427 190.249 403.568 190.026L411.04 178.985C411.144 178.814 411.277 178.658 411.44 178.518C411.603 178.377 411.793 178.306 412.008 178.306H413.609Z" fill="#585551"/>
<path d="M426.256 185.679V180.019H423.098C422.482 180.019 421.956 180.085 421.519 180.219C421.081 180.352 420.722 180.545 420.44 180.797C420.158 181.042 419.951 181.338 419.817 181.687C419.691 182.028 419.628 182.409 419.628 182.832C419.628 183.277 419.691 183.677 419.817 184.033C419.951 184.381 420.155 184.678 420.429 184.923C420.711 185.167 421.07 185.356 421.508 185.49C421.952 185.616 422.482 185.679 423.098 185.679H426.256ZM428.402 194.241H426.256V187.38H424.087C423.887 187.38 423.698 187.399 423.52 187.436C423.35 187.465 423.183 187.525 423.02 187.613C422.857 187.702 422.694 187.825 422.531 187.98C422.367 188.129 422.204 188.321 422.041 188.559L418.583 193.474C418.45 193.711 418.268 193.9 418.038 194.041C417.808 194.174 417.538 194.241 417.226 194.241H415.603L419.728 188.425C420.173 187.773 420.696 187.31 421.296 187.035C420.659 186.917 420.103 186.731 419.628 186.479C419.154 186.227 418.757 185.923 418.439 185.567C418.127 185.204 417.894 184.793 417.738 184.333C417.582 183.874 417.504 183.377 417.504 182.843C417.504 182.161 417.627 181.542 417.871 180.986C418.123 180.43 418.487 179.956 418.961 179.563C419.443 179.163 420.029 178.855 420.718 178.64C421.415 178.418 422.208 178.306 423.098 178.306H428.402V194.241Z" fill="#585551"/>
<path d="M232.767 62.3523L218.503 55.543L202.425 98.108L232.767 67.766C234.259 66.271 234.259 63.8473 232.767 62.3523Z" fill="#9765FF"/>
<path d="M232.767 31.7373C231.272 30.2448 228.848 30.2448 227.353 31.7373L220.536 46.0166L263.109 62.0793L232.767 31.7373Z" fill="#FFC700"/>
<path d="M264.502 65.0592V95.6742C264.502 99.0954 260.364 100.774 257.968 98.381L217.459 57.8698C215.946 56.3569 215.988 53.9294 217.459 52.4586L220.536 46.0167C226.685 45.5421 234.683 47.5015 244.434 51.8871C250.891 54.7904 257.989 58.7331 263.109 62.0793C263.203 62.2117 264.502 63.1644 264.502 65.0592Z" fill="#FFC700"/>
<path d="M196.738 31.7373C195.246 33.2323 195.246 35.656 196.738 37.151C198.1 38.5108 208.581 46.9784 211.561 47.3381C211.594 47.2384 210.711 49.8544 227.08 1.39526L196.738 31.7373Z" fill="#0DC92B"/>
<path d="M263.382 6.53619L222.87 47.0449C222.123 47.7924 221.143 48.1675 220.163 48.1675C208.388 47.0334 212.422 47.445 211.561 47.3383C209.808 40.6744 211.765 31.1455 217.39 18.9684C220.247 12.7816 223.989 6.12136 227.08 1.39542C227.212 1.30154 228.165 0.00244141 230.06 0.00244141H260.675C264.078 0.00244141 265.785 4.13036 263.382 6.53619Z" fill="#0DC92B"/>
<path d="M166.396 37.4241L196.738 67.7661C198.233 69.2586 200.657 69.2586 202.152 67.7661C203.494 66.4241 214.227 55.1757 215.293 51.831L166.396 37.4241Z" fill="#FF6443"/>
<path d="M215.294 51.8309C213.011 52.9816 210.283 53.5556 207.12 53.5556C201.267 53.5556 193.925 51.5886 185.164 47.6571C175.25 43.2103 167.073 37.868 166.731 37.6434L166.397 37.424C166.303 37.2916 165.004 36.339 165.004 34.4442V3.8292C165.004 0.423283 169.134 -1.2784 171.538 1.12488L212.046 41.6336L213.001 44.4221L215.264 51.0273C215.414 51.1778 215.417 51.4534 215.294 51.8309Z" fill="#FF6443"/>
<path d="M211.655 81.5198C208.869 87.414 205.326 93.6717 202.425 98.1081C202.292 98.202 201.34 99.501 199.445 99.501H168.83C165.424 99.501 163.722 95.3706 166.123 92.9673L206.634 52.4586C208.123 50.9702 210.553 50.9618 212.046 52.4586L218.503 55.543C219.011 62.1023 216.714 70.8174 211.655 81.5198Z" fill="#9765FF"/>
<path d="M214.753 38.271C208.423 38.271 203.272 43.422 203.272 49.7516C203.272 56.0813 208.423 61.2322 214.753 61.2322C221.082 61.2322 226.233 56.0813 226.233 49.7516C226.233 43.422 221.082 38.271 214.753 38.271Z" fill="white"/>
</svg>
