<svg width="80" height="77" viewBox="0 0 80 77" fill="none" xmlns="http://www.w3.org/2000/svg">
<path d="M48.3467 70.774C48.3467 70.0888 47.786 69.5281 47.1007 69.5281H2.24597C1.56068 69.5281 1 70.0888 1 70.774V74.5119C1 75.1972 1.56068 75.7579 2.24597 75.7579H47.1007C47.786 75.7579 48.3467 75.1972 48.3467 74.5119V70.774Z" stroke="#3E9BFF" stroke-width="2" stroke-miterlimit="10" stroke-linecap="round" stroke-linejoin="round"/>
<path d="M3.49194 69.5282V67.9209C3.49194 65.8775 4.73791 64.0459 6.61932 63.2983L9.72177 62.0524M39.625 62.0524L42.6651 63.398C44.2599 64.1082 45.3689 65.6034 45.5807 67.3353L45.8548 69.5282" stroke="#3E9BFF" stroke-width="2" stroke-miterlimit="10" stroke-linecap="round" stroke-linejoin="round"/>
<path d="M9.72174 62.0523V57.0685H12.2137" stroke="#3E9BFF" stroke-width="2" stroke-miterlimit="10" stroke-linecap="round" stroke-linejoin="round"/>
<path d="M36.9825 57.0685H39.625V62.0523" stroke="#3E9BFF" stroke-width="2" stroke-miterlimit="10" stroke-linecap="round" stroke-linejoin="round"/>
<path d="M37.1331 57.0685C37.1331 44.5091 43.3629 40.5594 43.3629 32.1491C43.3629 7.22983 25.9194 4.7379 25.9194 4.7379C23.3278 1 18.4436 1 18.4436 1L19.6896 5.98386L14.9175 10.7559C13.9831 11.6904 13.4597 12.9613 13.4597 14.282V14.7056C13.4597 14.7056 7.22992 22.5926 7.22992 24.6733C7.22992 25.9941 9.26084 28.4112 11.7528 28.4112C13.547 28.4112 15.9641 25.9193 15.9641 25.9193C15.9641 25.9193 29.6698 25.6826 29.6698 18.4435" stroke="#3E9BFF" stroke-width="2" stroke-miterlimit="10" stroke-linecap="round" stroke-linejoin="round"/>
<path d="M27.1777 22.929C24.2123 32.6973 9.72174 36.8962 9.72174 48.3467C9.72174 53.0564 12.2137 57.0684 12.2137 57.0684" stroke="#3E9BFF" stroke-width="2" stroke-miterlimit="10" stroke-linecap="round" stroke-linejoin="round"/>
<path d="M48.3467 75.758H77.2282C77.7765 75.758 78.2125 75.3094 78.2125 74.7737V71.8083C78.2125 71.2601 77.764 70.824 77.2282 70.824H48.3467" stroke="#3E9BFF" stroke-width="2" stroke-miterlimit="10" stroke-linecap="round" stroke-linejoin="round"/>
<path d="M46.5526 69.5281C46.5526 67.9083 47.5369 66.4505 49.0445 65.8525L51.499 64.8682M71.285 64.8682L73.6897 65.9397C74.9606 66.5004 75.8327 67.6841 76.0072 69.0671L76.219 70.8114" stroke="#3E9BFF" stroke-width="2" stroke-miterlimit="10" stroke-linecap="round" stroke-linejoin="round"/>
<path d="M66.3385 46.0791V51.2872C66.3385 55.1124 68.1825 58.6883 71.285 60.9186" stroke="#3E9BFF" stroke-width="2" stroke-miterlimit="10" stroke-linecap="round" stroke-linejoin="round"/>
<path d="M56.4455 46.0791V51.2872C56.4455 55.1124 54.6015 58.6883 51.499 60.9186V64.8807" stroke="#3E9BFF" stroke-width="2" stroke-miterlimit="10" stroke-linecap="round" stroke-linejoin="round"/>
<path d="M69.9666 60.7651H71.4658V64.5133" stroke="#3E9BFF" stroke-width="2" stroke-miterlimit="10" stroke-linecap="round" stroke-linejoin="round"/>
<path d="M61.3921 41.1326H66.052C66.8743 41.1326 67.6468 41.469 68.2075 42.067L69.8522 43.8114C70.1263 43.9983 70.2883 44.3098 70.2883 44.6337V46.0791H52.4834V44.6337C52.4834 44.2973 52.6454 43.9983 52.9195 43.8114L54.7635 41.8552C55.1996 41.3942 55.7977 41.1326 56.4331 41.1326H61.3921Z" stroke="#3E9BFF" stroke-width="2" stroke-miterlimit="10" stroke-linecap="round" stroke-linejoin="round"/>
<path d="M65.4539 41.1325C68.3196 39.6623 70.2883 36.672 70.2883 33.2207C70.2883 28.2991 66.3012 24.312 61.3796 24.312C56.458 24.312 52.4709 28.2991 52.4709 33.2207C52.4709 36.672 54.4396 39.6623 57.3053 41.1325" stroke="#3E9BFF" stroke-width="2" stroke-miterlimit="10" stroke-linecap="round" stroke-linejoin="round"/>
</svg>
