<svg width="81" height="81" viewBox="0 0 81 81" fill="none" xmlns="http://www.w3.org/2000/svg">
<path d="M61.1927 52.3764H28.1119C27.8216 52.3764 27.5431 52.2611 27.3379 52.0558C27.1326 51.8505 27.0173 51.5721 27.0173 51.2818C27.0173 50.9915 27.1326 50.7131 27.3379 50.5078C27.5431 50.3025 27.8216 50.1872 28.1119 50.1872H60.2678L65.6127 18.3805C65.902 16.6587 65.8124 14.8946 65.3502 13.211C64.888 11.5274 64.0642 9.96479 62.9364 8.63208C61.8085 7.29938 60.4037 6.2286 58.8197 5.49434C57.2357 4.76009 55.5107 4.38001 53.7648 4.3806H36.8237C33.7396 4.384 30.7818 5.6065 28.5953 7.78158C26.4087 9.95667 25.1706 12.908 25.151 15.9921L25.7662 21.3884C25.7876 21.5336 25.7796 21.6816 25.7427 21.8236C25.7057 21.9657 25.6406 22.0988 25.5512 22.2152C25.4618 22.3316 25.3498 22.4287 25.2221 22.501C25.0944 22.5732 24.9534 22.619 24.8076 22.6357C24.6618 22.6524 24.5141 22.6396 24.3734 22.598C24.2326 22.5564 24.1016 22.487 23.9883 22.3938C23.8749 22.3006 23.7814 22.1856 23.7134 22.0556C23.6454 21.9255 23.6042 21.7832 23.5923 21.6369L22.9706 16.177C22.9654 16.136 22.9628 16.0947 22.9629 16.0534C22.9669 12.3784 24.4286 8.85505 27.0271 6.25634C29.6256 3.65763 33.1488 2.19575 36.8237 2.19141H53.7648C55.8292 2.1906 57.8689 2.63988 59.7419 3.50793C61.6148 4.37598 63.2761 5.64194 64.6098 7.21761C65.9435 8.79329 66.9177 10.6408 67.4644 12.6314C68.0112 14.6221 68.1174 16.708 67.7756 18.7439L62.2731 51.4624C62.2303 51.718 62.0983 51.9501 61.9005 52.1175C61.7026 52.2848 61.4518 52.3766 61.1927 52.3764Z" fill="#00B7F0"/>
<path d="M28.1077 52.3804C28.0252 52.3808 27.9429 52.3716 27.8625 52.3531C20.0909 50.5765 15.0174 38.8731 14.804 38.3751C11.6822 30.8804 13.2715 26.4101 15.1488 23.9779C16.415 22.4073 18.1256 21.2552 20.0569 20.6721C21.9882 20.089 24.0505 20.102 25.9743 20.7094C35.2707 23.5171 33.7788 37.4775 33.7098 38.0708C33.6687 38.3523 33.5196 38.6066 33.2941 38.7801C33.0686 38.9535 32.7845 39.0323 32.5019 38.9999C32.2193 38.9674 31.9604 38.8263 31.7801 38.6062C31.5998 38.3862 31.5123 38.1047 31.536 37.8212C31.5502 37.6943 32.8889 25.0845 25.3416 22.8056C23.8426 22.3245 22.2334 22.3067 20.7241 22.7545C19.2148 23.2022 17.8756 24.0948 16.8815 25.3155C14.6639 28.1866 14.6431 32.2935 16.8213 37.5246C16.8651 37.6264 21.666 48.6895 28.3496 50.2219C28.612 50.2817 28.8431 50.436 28.9989 50.6555C29.1547 50.8749 29.2242 51.144 29.1941 51.4114C29.1641 51.6788 29.0365 51.9258 28.8359 52.1051C28.6353 52.2845 28.3757 52.3837 28.1066 52.3837L28.1077 52.3804Z" fill="#00B7F0"/>
<path d="M43.9935 36.5792C43.7604 36.5792 43.5251 36.5738 43.2908 36.5617C36.2 36.2213 31.5119 30.8523 31.317 30.6235C31.1441 30.4015 31.0633 30.1214 31.0914 29.8413C31.1196 29.5613 31.2546 29.3028 31.4683 29.1197C31.682 28.9365 31.9581 28.8427 32.2391 28.8578C32.5202 28.8729 32.7846 28.9956 32.9775 29.2006C33.0191 29.2498 37.2771 34.0967 43.4178 34.3802C47.4152 34.5652 51.381 32.7974 55.2011 29.1261C55.4104 28.9248 55.6911 28.8149 55.9815 28.8205C56.2718 28.8262 56.5481 28.9469 56.7494 29.1562C56.9507 29.3655 57.0607 29.6463 57.055 29.9366C57.0494 30.227 56.9286 30.5032 56.7193 30.7045C52.6562 34.6046 48.3807 36.5792 43.9935 36.5792Z" fill="#00B7F0"/>
<path d="M62.7407 70.7799H25.6515C24.7723 70.7787 23.9295 70.4289 23.3079 69.8071C22.6864 69.1853 22.3368 68.3424 22.3359 67.4632V53.5061C22.3368 52.6269 22.6864 51.784 23.3079 51.1622C23.9295 50.5404 24.7723 50.1906 25.6515 50.1895H62.7407C63.6199 50.1906 64.4627 50.5404 65.0842 51.1622C65.7058 51.784 66.0554 52.6269 66.0562 53.5061V67.4632C66.0554 68.3424 65.7058 69.1853 65.0842 69.8071C64.4627 70.4289 63.6199 70.7787 62.7407 70.7799ZM25.6515 52.3786C25.3527 52.3792 25.0664 52.4982 24.8553 52.7096C24.6441 52.9209 24.5254 53.2073 24.5251 53.5061V67.4632C24.5254 67.762 24.6441 68.0484 24.8553 68.2598C25.0664 68.4711 25.3527 68.5901 25.6515 68.5907H62.7407C63.0394 68.5901 63.3258 68.4711 63.5369 68.2598C63.748 68.0484 63.8668 67.762 63.867 67.4632V53.5061C63.8668 53.2073 63.748 52.9209 63.5369 52.7096C63.3258 52.4982 63.0394 52.3792 62.7407 52.3786H25.6515Z" fill="#00B7F0"/>
<path d="M55.0829 70.7816H33.3114C33.0211 70.7816 32.7427 70.6663 32.5374 70.461C32.3321 70.2558 32.2168 69.9773 32.2168 69.687V65.2955C32.218 64.0408 32.7168 62.8378 33.604 61.9504C34.4911 61.0631 35.694 60.5639 36.9487 60.5625H51.4477C52.7025 60.5639 53.9054 61.0631 54.7925 61.9504C55.6796 62.8378 56.1785 64.0408 56.1797 65.2955V69.687C56.1797 69.831 56.1513 69.9735 56.0961 70.1064C56.041 70.2394 55.9602 70.3601 55.8583 70.4618C55.7564 70.5635 55.6355 70.6441 55.5024 70.6989C55.3694 70.7538 55.2268 70.7819 55.0829 70.7816ZM34.4049 68.5924H53.9883V65.2955C53.9877 64.6216 53.72 63.9754 53.2437 63.4986C52.7675 63.0217 52.1217 62.7531 51.4477 62.7517H36.9487C36.2744 62.7526 35.628 63.0209 35.1513 63.4978C34.6746 63.9747 34.4066 64.6212 34.406 65.2955L34.4049 68.5924Z" fill="#00B7F0"/>
<path d="M58.9705 78.8098H28.9852C28.6949 78.8098 28.4165 78.6945 28.2112 78.4892C28.0059 78.284 27.8906 78.0055 27.8906 77.7152V69.6864C27.8906 69.3961 28.0059 69.1177 28.2112 68.9124C28.4165 68.7071 28.6949 68.5918 28.9852 68.5918H58.9705C59.2609 68.5918 59.5393 68.7071 59.7445 68.9124C59.9498 69.1177 60.0651 69.3961 60.0651 69.6864V77.7152C60.0651 78.0055 59.9498 78.284 59.7445 78.4892C59.5393 78.6945 59.2609 78.8098 58.9705 78.8098ZM30.0798 76.6206H57.876V70.781H30.0798V76.6206Z" fill="#00B7F0"/>
</svg>
