<svg width="70" height="71" viewBox="0 0 70 71" fill="none" xmlns="http://www.w3.org/2000/svg">
<path d="M26.5792 6.72388L18.2619 10.4475C15.917 11.4985 14.1258 13.493 13.3347 15.9453L2.00006 51.0794L13.7246 54.8426L19.036 36.6031C19.3241 35.6143 20.3017 34.9871 21.3187 35.1453" stroke="#F2810B" stroke-width="2" stroke-miterlimit="10" stroke-linecap="round"/>
<path d="M30.1107 1C28.2122 1.68935 26.8843 3.41272 26.6979 5.42425L26.5792 6.72384C26.5792 6.72384 32.8455 10.4757 35.5294 15.1429" stroke="#F2810B" stroke-width="2" stroke-miterlimit="10" stroke-linecap="round"/>
<path d="M43.5303 6.72384C43.5303 6.72384 25.6356 21.0928 21.1152 46.6777L17.4425 66.2563C17.1261 67.9514 18.4257 69.5166 20.149 69.5166H35.0547H49.9605C51.6838 69.5166 52.9834 67.9514 52.667 66.2563L48.9942 46.6777L47.4008 35.5634C47.2878 34.7724 47.7625 34.0209 48.5196 33.7779C49.3898 33.501 50.3108 33.9926 50.5707 34.8684V34.8741L56.385 54.8425L68.1095 51.0794L56.7748 15.9396C55.9838 13.493 54.1926 11.4928 51.8477 10.4418L43.5303 6.72384ZM43.5303 6.72384L43.4117 5.42425C43.2252 3.41272 41.8974 1.68935 39.9988 1" stroke="#F2810B" stroke-width="2" stroke-miterlimit="10" stroke-linecap="round"/>
<path d="M39.9989 1H30.1107" stroke="#F2810B" stroke-width="2" stroke-miterlimit="10" stroke-linecap="round"/>
<path d="M22.0532 42.2478C30.4553 43.7113 39.7728 43.8525 48.158 42.293L48.4066 42.2478" stroke="#F2810B" stroke-width="2" stroke-miterlimit="10" stroke-linecap="round"/>
<path d="M20.974 48.0282L23.4319 48.435C31.4216 49.7572 39.5751 49.712 47.5478 48.3107L49.1299 48.0338" stroke="#F2810B" stroke-width="2" stroke-miterlimit="10" stroke-linecap="round"/>
<path d="M36.959 49.3956V61.8151H43.5304V48.8983" stroke="#F2810B" stroke-width="2" stroke-miterlimit="10" stroke-linecap="round"/>
<path d="M36.959 56.5886H31.382V49.2996" stroke="#F2810B" stroke-width="2" stroke-miterlimit="10" stroke-linecap="round"/>
</svg>
