<svg width="80" height="66" viewBox="0 0 80 66" fill="none" xmlns="http://www.w3.org/2000/svg">
<path d="M78.3138 64.5626C74.1873 64.5626 70.5925 62.3222 68.6495 58.9995C66.7066 62.3222 63.1118 64.5626 58.9853 64.5626C54.8589 64.5626 51.2641 62.3222 49.3211 58.9995C47.3781 62.3222 43.7833 64.5626 39.6569 64.5626C35.5304 64.5626 31.9356 62.3222 29.9927 58.9995C28.0497 62.3222 24.4549 64.5626 20.3284 64.5626C16.202 64.5626 12.6072 62.3222 10.6642 58.9995C8.72125 62.3222 5.12644 64.5626 1 64.5626" stroke="#3E9BFF" stroke-width="2" stroke-miterlimit="10" stroke-linecap="round" stroke-linejoin="round"/>
<path d="M1.01996 51.1138C5.1464 51.1138 8.74121 48.8733 10.6842 45.5507C12.6271 48.8733 16.222 51.1138 20.3484 51.1138C24.4748 51.1138 28.0696 48.8733 30.0126 45.5507C31.9556 48.8733 35.5504 51.1138 39.6768 51.1138C43.8033 51.1138 47.3981 48.8733 49.3411 45.5507C51.284 48.8733 54.8788 51.1138 59.0053 51.1138C63.1317 51.1138 66.7265 48.8733 68.6695 45.5507C70.6125 48.8733 74.2073 51.1138 78.3337 51.1138" stroke="#3E9BFF" stroke-width="2" stroke-miterlimit="10" stroke-linecap="round" stroke-linejoin="round"/>
<path d="M33.3598 31.1461C38.0331 31.1461 41.8215 27.3577 41.8215 22.6844C41.8215 18.0111 38.0331 14.2227 33.3598 14.2227C28.6865 14.2227 24.8981 18.0111 24.8981 22.6844C24.8981 27.3577 28.6865 31.1461 33.3598 31.1461Z" stroke="#3E9BFF" stroke-width="2" stroke-miterlimit="10" stroke-linecap="round" stroke-linejoin="round"/>
<path d="M1.01996 43.9241L11.0196 33.8865V13.0645C11.0196 12.2417 11.3487 11.4506 11.931 10.862L20.7724 2.02053C22.1331 0.659822 24.3419 0.659822 25.7026 2.02053C27.0634 3.38125 27.0634 5.59003 25.7026 6.95074L19.0573 13.6024C18.4687 14.191 18.1396 14.9884 18.1459 15.8175L18.2092 26.7412L27.8102 36.3421C29.1202 37.6522 29.1202 39.7787 27.8102 41.0888L22.2028 46.6962" stroke="#3E9BFF" stroke-width="2" stroke-miterlimit="10" stroke-linecap="round" stroke-linejoin="round"/>
<path d="M70.5038 31.1461C75.1771 31.1461 78.9655 27.3577 78.9655 22.6844C78.9655 18.0111 75.1771 14.2227 70.5038 14.2227C65.8305 14.2227 62.0421 18.0111 62.0421 22.6844C62.0421 27.3577 65.8305 31.1461 70.5038 31.1461Z" stroke="#3E9BFF" stroke-width="2" stroke-miterlimit="10" stroke-linecap="round" stroke-linejoin="round"/>
<path d="M38.1633 43.9241L48.1629 33.8865V13.0645C48.1629 12.2417 48.492 11.4506 49.0743 10.862L57.9157 2.02053C59.2765 0.659822 61.4852 0.659822 62.846 2.02053C64.2067 3.38125 64.2067 5.59003 62.846 6.95074L56.2006 13.6024C55.612 14.191 55.2829 14.9884 55.2893 15.8175L55.3525 26.7412L64.9535 36.3421C66.2636 37.6522 66.2636 39.7787 64.9535 41.0888L59.3461 46.6962" stroke="#3E9BFF" stroke-width="2" stroke-miterlimit="10" stroke-linecap="round" stroke-linejoin="round"/>
</svg>
