<svg width="64" height="75" viewBox="0 0 64 75" fill="none" xmlns="http://www.w3.org/2000/svg">
<path d="M36.0825 34.2058V14.6949C36.0825 12.3955 35.8289 10.1017 35.3216 7.85871L34.3636 3.60935C34.0254 2.08206 32.6672 1 31.1061 1H30.9201C29.3534 1 28.0008 2.08206 27.657 3.60935L26.6989 7.85871C26.1974 10.1017 25.9381 12.3955 25.9381 14.6949V34.2002" stroke="#EF4136" stroke-width="2" stroke-miterlimit="10" stroke-linecap="round" stroke-linejoin="round"/>
<path d="M25.9381 52.2797V71.3172C25.9381 72.2697 26.7102 73.0418 27.6627 73.0418H29.9733H34.3523C35.3047 73.0418 36.0768 72.2697 36.0768 71.3172V52.2797" stroke="#EF4136" stroke-width="2" stroke-miterlimit="10" stroke-linecap="round" stroke-linejoin="round"/>
<path d="M23.9656 36.9729H38.055" stroke="#EF4136" stroke-width="2" stroke-miterlimit="10" stroke-linecap="round" stroke-linejoin="round"/>
<path d="M31.0103 42.2368V47.4499" stroke="#EF4136" stroke-width="2" stroke-miterlimit="10" stroke-linecap="round" stroke-linejoin="round"/>
<path d="M31.0103 53.1308C34.9009 53.1308 38.055 51.8894 38.055 50.358C38.055 48.8266 34.9009 47.5852 31.0103 47.5852C27.1196 47.5852 23.9656 48.8266 23.9656 50.358C23.9656 51.8894 27.1196 53.1308 31.0103 53.1308Z" stroke="#EF4136" stroke-width="2" stroke-miterlimit="10" stroke-linecap="round" stroke-linejoin="round"/>
<path d="M25.9381 36.9729V45.3364" stroke="#EF4136" stroke-width="2" stroke-miterlimit="10" stroke-linecap="round" stroke-linejoin="round"/>
<path d="M36.0825 36.9729V45.3364" stroke="#EF4136" stroke-width="2" stroke-miterlimit="10" stroke-linecap="round" stroke-linejoin="round"/>
<path d="M13.1169 34.2058V14.6949C13.1169 12.3955 12.8633 10.1017 12.3561 7.85871L11.398 3.60935C11.0542 2.08206 9.70162 1 8.13488 1H7.9489C6.38216 1 5.02958 2.08206 4.6858 3.60935L3.72772 7.85871C3.22614 10.1074 2.97253 12.4011 2.97253 14.6949V34.2002" stroke="#EF4136" stroke-width="2" stroke-miterlimit="10" stroke-linecap="round" stroke-linejoin="round"/>
<path d="M2.97253 52.2797V71.3172C2.97253 72.2697 3.74463 73.0418 4.69707 73.0418H7.00773H11.3867C12.3392 73.0418 13.1112 72.2697 13.1112 71.3172V52.2797" stroke="#EF4136" stroke-width="2" stroke-miterlimit="10" stroke-linecap="round" stroke-linejoin="round"/>
<path d="M1 36.9729H15.0894" stroke="#EF4136" stroke-width="2" stroke-miterlimit="10" stroke-linecap="round" stroke-linejoin="round"/>
<path d="M8.04468 42.2368V47.4499" stroke="#EF4136" stroke-width="2" stroke-miterlimit="10" stroke-linecap="round" stroke-linejoin="round"/>
<path d="M8.04469 53.1308C11.9354 53.1308 15.0894 51.8894 15.0894 50.358C15.0894 48.8266 11.9354 47.5852 8.04469 47.5852C4.15401 47.5852 1 48.8266 1 50.358C1 51.8894 4.15401 53.1308 8.04469 53.1308Z" stroke="#EF4136" stroke-width="2" stroke-miterlimit="10" stroke-linecap="round" stroke-linejoin="round"/>
<path d="M2.97253 36.9729V45.3364" stroke="#EF4136" stroke-width="2" stroke-miterlimit="10" stroke-linecap="round" stroke-linejoin="round"/>
<path d="M13.1169 36.9729V45.3364" stroke="#EF4136" stroke-width="2" stroke-miterlimit="10" stroke-linecap="round" stroke-linejoin="round"/>
<path d="M55.244 66.1887V73.0418" stroke="#EF4136" stroke-width="2" stroke-miterlimit="10" stroke-linecap="round" stroke-linejoin="round"/>
<path d="M55.244 13.5846V62.8072" stroke="#EF4136" stroke-width="2" stroke-miterlimit="10" stroke-linecap="round" stroke-linejoin="round"/>
<path d="M51.6484 66.1887H58.834" stroke="#EF4136" stroke-width="2" stroke-miterlimit="10" stroke-linecap="round" stroke-linejoin="round"/>
<path d="M57.7802 3.15845V12.2715C57.7802 12.9985 57.194 13.5846 56.467 13.5846H54.0267C53.2997 13.5846 52.7136 12.9985 52.7136 12.2715V3.15845" stroke="#EF4136" stroke-width="2" stroke-miterlimit="10" stroke-linecap="round" stroke-linejoin="round"/>
<path d="M50.4988 3.15845H61.4885C62.2662 3.15845 62.8974 3.78965 62.8974 4.56738V9.63956C62.8974 10.4173 62.2662 11.0485 61.4885 11.0485H60.4684" stroke="#EF4136" stroke-width="2" stroke-miterlimit="10" stroke-linecap="round" stroke-linejoin="round"/>
</svg>
