<svg width="94" height="84" viewBox="0 0 94 84" fill="none" xmlns="http://www.w3.org/2000/svg">
<path d="M22.0946 19.1389C24.8243 15.294 23.1976 9.45113 18.4613 6.08852C13.7249 2.72591 7.67241 3.11691 4.94265 6.96184C2.2129 10.8068 3.83958 16.6496 8.57595 20.0122C13.3123 23.3749 19.3648 22.9839 22.0946 19.1389Z" stroke="#00B7F0" stroke-width="2" stroke-miterlimit="10" stroke-linecap="round"/>
<path d="M22.0936 19.1421L32.8257 26.8394" stroke="#00B7F0" stroke-width="2" stroke-miterlimit="10" stroke-linecap="round"/>
<path d="M52.5787 22.946C56.7376 22.946 60.1091 19.5745 60.1091 15.4156C60.1091 11.2567 56.7376 7.88525 52.5787 7.88525C48.4198 7.88525 45.0483 11.2567 45.0483 15.4156C45.0483 19.5745 48.4198 22.946 52.5787 22.946Z" stroke="#00B7F0" stroke-width="2" stroke-miterlimit="10" stroke-linecap="round"/>
<path d="M43.7904 31.4303L37.7983 26.2133C36.427 25.0149 34.3462 25.1461 33.1299 26.5055L32.8258 26.8453C31.5558 28.2584 31.7287 30.4466 33.2014 31.6509L43.0988 39.7418C43.8322 40.338 44.8458 40.4513 45.6864 40.022L55.3871 35.127L62.9174 50.7779V63.1556C62.9174 63.9367 62.6491 64.6999 62.1483 65.3021L53.4016 75.9924C52.0482 77.644 52.2986 80.0825 53.9502 81.43C55.6017 82.7715 58.0224 82.5271 59.3699 80.8875L69.9708 67.9672C70.4657 67.359 70.7399 66.6018 70.7399 65.8148V54.7071C70.7399 53.5206 72.2901 53.0675 72.9281 54.0691L79.5105 64.4137C79.8563 64.9562 80.0411 65.5882 80.0411 66.2322V78.4847C80.0411 80.6192 81.7702 82.3423 83.8987 82.3423H84.006C86.1405 82.3423 87.8636 80.6132 87.8636 78.4847V64.5985C87.8636 64.05 87.7324 63.5134 87.482 63.0304L70.3285 30.1246L81.8417 33.07C82.7539 33.3025 83.4754 34.0001 83.7437 34.9063L85.5324 40.9879C86.0332 42.699 87.798 43.7126 89.5331 43.2834C91.3456 42.8302 92.4307 40.9819 91.9478 39.1813L89.0978 28.6042C88.8414 27.6562 88.0902 26.9288 87.1422 26.7022L67.735 22.0636C66.1073 21.676 64.3961 21.9026 62.9294 22.7075L46.5033 31.7225C45.6268 32.2054 44.5476 32.0862 43.7904 31.4303Z" stroke="#00B7F0" stroke-width="2" stroke-miterlimit="10" stroke-linecap="round"/>
</svg>
