<svg width="101" height="86" viewBox="0 0 101 86" fill="none" xmlns="http://www.w3.org/2000/svg">
<path d="M74.3709 35.8975C83.0351 39.9606 89.0349 48.7641 89.0349 58.9663C89.0349 73.0354 77.6302 84.4337 63.5674 84.4337C49.5046 84.4337 38.1 73.0291 38.1 58.9663" stroke="#00B7F0" stroke-width="2" stroke-miterlimit="10" stroke-linecap="round"/>
<path d="M56.0677 54.6373L63.5612 50.3147L71.0546 54.6373V63.2889L63.5612 67.6179L56.0677 63.2889V54.6373Z" stroke="#00B7F0" stroke-width="2" stroke-miterlimit="10" stroke-linecap="round"/>
<path d="M38.7329 64.6497L41.0809 63.2889L48.5743 67.6179V76.2695L46.2263 77.6302" stroke="#00B7F0" stroke-width="2" stroke-miterlimit="10" stroke-linecap="round"/>
<path d="M56.0677 83.3073V80.5985L63.5612 76.2695L71.0546 80.5985V83.3136" stroke="#00B7F0" stroke-width="2" stroke-miterlimit="10" stroke-linecap="round"/>
<path d="M80.8959 77.6239L78.5479 76.2695V67.6179L86.0413 63.2889L88.3956 64.6497" stroke="#00B7F0" stroke-width="2" stroke-miterlimit="10" stroke-linecap="round"/>
<path d="M88.3893 53.2831L86.0413 54.6374L78.5479 50.3148V41.6632L80.9022 40.3025" stroke="#00B7F0" stroke-width="2" stroke-miterlimit="10" stroke-linecap="round"/>
<path d="M50.1312 51.2072L56.0677 54.6374" stroke="#00B7F0" stroke-width="2" stroke-miterlimit="10" stroke-linecap="round"/>
<path d="M63.5611 50.3148V45.1504" stroke="#00B7F0" stroke-width="2" stroke-miterlimit="10" stroke-linecap="round"/>
<path d="M71.0545 54.6373L78.5479 50.3147" stroke="#00B7F0" stroke-width="2" stroke-miterlimit="10" stroke-linecap="round"/>
<path d="M71.0545 63.2889L78.5479 67.6179" stroke="#00B7F0" stroke-width="2" stroke-miterlimit="10" stroke-linecap="round"/>
<path d="M63.5611 67.6179V76.2695" stroke="#00B7F0" stroke-width="2" stroke-miterlimit="10" stroke-linecap="round"/>
<path d="M56.0677 63.2889L48.5743 67.6179" stroke="#00B7F0" stroke-width="2" stroke-miterlimit="10" stroke-linecap="round"/>
<path d="M85.2375 33.3914L92.9715 25.6511" stroke="#00B7F0" stroke-width="2" stroke-miterlimit="10" stroke-linecap="round"/>
<path d="M89.4653 37.6189L99.9776 34.5874" stroke="#00B7F0" stroke-width="2" stroke-miterlimit="10" stroke-linecap="round"/>
<path d="M80.7441 28.8978L83.7756 18.3855" stroke="#00B7F0" stroke-width="2" stroke-miterlimit="10" stroke-linecap="round"/>
<path d="M40.8277 47.568L44.6377 45.9731C46.1313 45.3466 47.8464 45.5681 49.1375 46.5491C49.4097 46.7579 49.7704 46.8022 50.0869 46.6693L53.5361 45.2263C54.0234 45.0238 54.2576 44.4605 54.0487 43.9732C53.8462 43.4859 54.0741 42.9226 54.5614 42.7201L57.7891 41.372C58.2764 41.1695 58.8397 41.3974 59.0422 41.8847C59.2448 42.372 59.808 42.6062 60.2954 42.3973L63.2446 41.1632C63.656 40.9923 63.9471 40.6252 64.0357 40.1885C64.194 39.3974 64.675 38.1 66.1243 37.3848C66.1243 37.3848 72.757 34.5368 74.5607 28.0054C75.7822 23.5625 72.2317 19.6639 68.5862 20.493L63.9471 21.5563C52.707 24.1321 41.0998 23.6258 32.9545 21.4107C30.4167 22.6638 29.6825 26.3916 28.8408 28.151C25.6763 34.771 18.1513 34.271 18.1259 34.271C14.74 33.9419 11.9932 35.7203 12.1515 38.9038C12.6515 48.6946 19.0816 53.6754 19.0816 53.6754L23.3346 57.2576C23.6131 57.5044 24.0055 57.574 24.3472 57.4284L27.2839 56.2006C27.7712 55.9981 28.0053 55.4348 27.7965 54.9475C27.594 54.4602 27.8218 53.8969 28.3091 53.6944L31.5369 52.3463C32.0242 52.1438 32.5875 52.3717 32.79 52.859C32.9925 53.3463 33.5558 53.5805 34.0431 53.3716L37.4924 51.9286C37.8088 51.7957 38.0303 51.5046 38.0746 51.1628C38.2835 49.568 39.3341 48.1883 40.8277 47.568Z" stroke="#00B7F0" stroke-width="2" stroke-miterlimit="10" stroke-linecap="round"/>
<path d="M42.1062 23.012L40.7202 27.2397" stroke="#00B7F0" stroke-width="2" stroke-miterlimit="10" stroke-linecap="round"/>
<path d="M46.5491 23.36L45.163 27.594" stroke="#00B7F0" stroke-width="2" stroke-miterlimit="10" stroke-linecap="round"/>
<path d="M51.5109 23.2904L50.1312 27.5181" stroke="#00B7F0" stroke-width="2" stroke-miterlimit="10" stroke-linecap="round"/>
<path d="M13.6135 35.4292C13.6135 35.4292 12.7781 26.9295 1 8.48706" stroke="#00B7F0" stroke-width="2" stroke-miterlimit="10" stroke-linecap="round"/>
<path d="M30.8344 23.5182C30.8344 23.5182 22.9106 13.8856 18.8918 1" stroke="#00B7F0" stroke-width="2" stroke-miterlimit="10" stroke-linecap="round"/>
<path d="M9.6579 23.7207C15.8412 22.9043 21.3094 20.1449 25.3536 15.3982" stroke="#00B7F0" stroke-width="2" stroke-miterlimit="10" stroke-linecap="round"/>
<path d="M18.2463 52.9223L63.5675 32.8787C63.5675 32.8787 69.3458 30.1636 70.2065 25.4043" stroke="#00B7F0" stroke-width="2" stroke-miterlimit="10" stroke-linecap="round"/>
</svg>
