<svg width="80" height="70" viewBox="0 0 80 70" fill="none" xmlns="http://www.w3.org/2000/svg">
<path d="M80 25.0562V19.4983C80 17.9968 78.7781 16.7749 77.2766 16.7749C76.3147 16.7749 75.4108 16.4008 74.7308 15.722C74.0509 15.0409 73.6761 14.1364 73.6761 13.175V3.38867C73.6761 1.86462 72.4365 0.625 70.9125 0.625H67.5793C66.0553 0.625 64.8157 1.86523 64.8157 3.38867V9.11682C64.8157 12.6703 61.9818 15.6085 58.4991 15.6671C56.7676 15.694 55.1221 15.0415 53.8843 13.8239C52.6459 12.6056 51.9641 10.9784 51.9641 9.24194V3.38867C51.9641 1.86462 50.7239 0.625 49.1998 0.625H45.8673C44.3433 0.625 43.103 1.86523 43.103 3.38867V11.9202C43.103 12.5677 43.6279 13.092 44.2749 13.092C44.9225 13.092 45.4468 12.5677 45.4468 11.9202V3.38867C45.4468 3.15735 45.6354 2.96875 45.8673 2.96875H49.1998C49.4318 2.96875 49.6204 3.15735 49.6204 3.38867V9.24194C49.6204 11.6119 50.5511 13.8324 52.2406 15.4944C53.9301 17.1564 56.1664 18.045 58.5382 18.0109C63.2922 17.9303 67.1594 13.9404 67.1594 9.11682V3.38867C67.1594 3.15735 67.348 2.96875 67.5793 2.96875H70.9125C71.1438 2.96875 71.3324 3.15735 71.3324 3.38867V13.175C71.3324 14.7614 71.9501 16.2543 73.0737 17.3792C74.1974 18.501 75.6897 19.1187 77.2766 19.1187C77.486 19.1187 77.6562 19.2889 77.6562 19.4983V24.3402L58.3893 33.584L39.1235 24.3408V19.4983C39.1235 19.3689 39.184 19.281 39.2371 19.2279C39.278 19.187 39.3665 19.1187 39.5032 19.1187C42.7808 19.1187 45.4468 16.4526 45.4468 13.175V11.6077C45.4468 10.9607 44.9225 10.4358 44.2749 10.4358C43.6279 10.4358 43.103 10.9607 43.103 11.6077V13.175C43.103 15.1599 41.488 16.7749 39.5032 16.7749C38.7732 16.7749 38.0884 17.0587 37.5775 17.5726C37.063 18.0872 36.7798 18.7714 36.7798 19.4983V25.0378C36.7792 25.0641 36.7792 25.0903 36.7798 25.1166V44.5886L30.7532 48.2007C29.9042 47.7136 28.9325 47.4512 27.9468 47.4512H20.9546V27.207H27.9468C31.0529 27.207 33.5797 24.6802 33.5797 21.5741C33.5797 18.468 31.0529 15.9412 27.9468 15.9412H26.7194V14.6613C26.7194 12.1252 24.6558 10.0623 22.1198 10.0623H20.9546V7.7655C20.9546 6.43005 19.8682 5.34363 18.5327 5.34363H15.047C13.7115 5.34363 12.6251 6.43005 12.6251 7.7655V10.0623H11.46C8.92395 10.0623 6.86035 12.1252 6.86035 14.6613V15.9412H5.63293C5.11841 15.9412 4.60876 16.0107 4.11743 16.1475C3.49426 16.3214 3.12927 16.9678 3.30322 17.5916C3.47717 18.2147 4.12292 18.5785 4.74731 18.4052C5.03357 18.3252 5.33142 18.2849 5.63293 18.2849H27.9468C29.7607 18.2849 31.236 19.7601 31.236 21.5741C31.236 23.3875 29.7607 24.8627 27.9468 24.8627H5.63293C3.81897 24.8627 2.34375 23.3875 2.34375 21.5741C2.34375 21.3879 2.35962 21.2006 2.39014 21.0187C2.49817 20.3802 2.06848 19.7754 1.43066 19.6674C0.792847 19.5587 0.187378 19.989 0.0793456 20.6274C0.0268555 20.9387 0 21.2573 0 21.5741C0 24.6802 2.52686 27.207 5.63293 27.207H12.6251V47.4512H5.63293C2.52686 47.4512 0 49.978 0 53.0841C0 54.5868 0.585327 56.0016 1.65039 57.0685C2.71545 58.1317 4.13025 58.717 5.63293 58.717H6.86096V59.9963C6.86096 62.533 8.92395 64.5966 11.4594 64.5966H12.6251V66.8933C12.6251 68.2288 13.7115 69.3152 15.047 69.3152H18.5327C19.8682 69.3152 20.9546 68.2288 20.9546 66.8933V64.5966H21.001C21.2433 64.9146 21.51 65.2167 21.8011 65.5005C23.3752 67.038 25.4169 67.8204 27.4976 67.8204H69.7467C72.2137 67.8204 74.2212 65.813 74.2212 63.3453V56.4044H74.8468C77.6886 56.4044 80 54.0924 80 51.2512V25.0964C80 25.083 80 25.0696 80 25.0562ZM14.9689 7.7655C14.9689 7.72278 15.0037 7.68738 15.047 7.68738H18.5327C18.576 7.68738 18.6108 7.72278 18.6108 7.7655V10.0623H14.9689V7.7655ZM9.2041 15.9412V14.6613C9.2041 13.4174 10.2161 12.406 11.46 12.406H13.7726H13.797H13.8208H19.7583H19.7827H19.8071H22.1198C23.3636 12.406 24.3756 13.4174 24.3756 14.6613V15.9412H9.2041ZM49.1443 41.9421C49.668 41.9421 50.1392 42.2729 50.318 42.7649C51.6785 46.5186 55.2753 49.0405 59.267 49.0405C63.3441 49.0405 66.9659 46.4471 68.2788 42.5873C68.41 42.2015 68.7726 41.9421 69.1803 41.9421H69.9084C70.9943 41.9421 71.8774 42.8253 71.8774 43.9111V58.6743H55.6531L51.8091 53.1665C51.4392 52.6361 50.708 52.5061 50.1776 52.8766C49.6472 53.2465 49.5172 53.9771 49.8871 54.5081L52.7948 58.6743H49.9829L42.7441 48.3002L44.7272 47.1112L47.2058 50.6641C47.4341 50.9906 47.7979 51.1658 48.1683 51.1658C48.3997 51.1658 48.6334 51.0974 48.8373 50.9546C49.3683 50.5841 49.4983 49.8535 49.1284 49.3231L46.6339 45.7477C47.2968 45.0006 47.6819 44.0228 47.6819 43.0023V41.9421H49.1443ZM44.3939 58.6743L38.8031 50.6622L40.7288 49.5081L47.1246 58.6743H44.3939ZM38.7231 58.6743L34.8047 53.0591L36.7877 51.8707L41.5356 58.6749L38.7231 58.6743ZM27.8699 52.6611C27.9297 52.7698 27.998 52.8748 28.0743 52.9742C28.855 53.9899 30.0378 54.5337 31.2421 54.5337C31.7554 54.5337 32.2729 54.4348 32.7649 54.231L35.8655 58.6743H21.7694C22.0575 57.027 23.0524 55.5487 24.5087 54.6765L27.8699 52.6611ZM45.3381 42.1924V43.0029C45.3381 43.6188 45.0134 44.198 44.4897 44.5209C44.469 44.5331 44.4482 44.5453 44.4281 44.5587L40.4938 46.9165C40.4736 46.9281 40.4535 46.9403 40.4333 46.9531L36.5338 49.2902C36.5265 49.2944 36.5186 49.2993 36.5112 49.3042L32.0874 51.9556C31.369 52.3865 30.4431 52.2101 29.9323 51.546C29.9261 51.5381 29.9072 51.5131 29.9152 51.4722C29.9219 51.4362 29.9432 51.4197 29.9542 51.4124L31.2964 50.6079C31.3116 50.5994 31.3275 50.5896 31.3428 50.5798L45.2856 42.2223C45.3033 42.2119 45.3204 42.2021 45.3381 42.1924ZM14.9689 27.207H18.6108V47.4512H14.9689V27.207ZM9.20471 59.9969V58.717H15.8252C16.4722 58.717 16.9971 58.1927 16.9971 57.5452C16.9971 56.8982 16.4722 56.3733 15.8252 56.3733H5.63293C4.75525 56.3733 3.92883 56.0315 3.3075 55.4114C2.68616 54.7882 2.34375 53.9618 2.34375 53.0841C2.34375 51.2708 3.81897 49.7949 5.63293 49.7949H27.9468C27.9944 49.7949 28.0414 49.7961 28.0884 49.798L23.3038 52.666C20.8588 54.1315 19.3402 56.8121 19.3402 59.6631C19.3402 60.4419 19.4501 61.1957 19.6545 61.9092C19.657 61.9183 19.66 61.9275 19.6625 61.9366C19.6643 61.9427 19.6661 61.9489 19.668 61.955C19.6967 62.0551 19.7278 62.1539 19.7607 62.2528H11.4594C10.2161 62.2528 9.20471 61.2408 9.20471 59.9969ZM18.6108 66.8933C18.6108 66.936 18.5754 66.9714 18.5327 66.9714H15.047C15.0043 66.9714 14.9689 66.936 14.9689 66.8933V64.5966H18.6108V66.8933ZM71.8774 63.3453C71.8774 64.5209 70.9216 65.4767 69.7461 65.4767C42.7148 65.4767 27.467 65.4779 27.3425 65.4749C24.6716 65.4047 22.4438 63.5242 21.8433 61.0181H38.0829C38.0933 61.0187 38.103 61.0187 38.1134 61.0187C38.1238 61.0187 38.1342 61.0187 38.1445 61.0181H43.7531C43.7634 61.0187 43.7732 61.0187 43.7836 61.0187C43.7939 61.0187 43.8043 61.0187 43.8147 61.0181H49.342C49.3524 61.0187 49.3628 61.0187 49.3726 61.0187C49.3829 61.0187 49.3933 61.0187 49.4037 61.0181H55.0122C55.0226 61.0187 55.0323 61.0187 55.0427 61.0187C55.0531 61.0187 55.0635 61.0187 55.0739 61.0181H71.8774V63.3453ZM74.8468 54.0607H74.2212V43.9111C74.2212 41.5332 72.2864 39.5984 69.9084 39.5984H69.1803C67.7686 39.5984 66.5149 40.4962 66.0596 41.8323C65.0702 44.7418 62.3401 46.6962 59.267 46.6962C56.2573 46.6962 53.5468 44.7955 52.5208 41.9666C52.0074 40.5499 50.6506 39.5984 49.1437 39.5984C46.5314 39.6655 45.5359 39.342 44.0808 40.2124L39.1229 43.1836V26.9403L57.8821 35.9406C58.0426 36.0175 58.2159 36.0559 58.3893 36.0559C58.5626 36.0559 58.736 36.0175 58.8959 35.9406L77.6556 26.9397V51.2512C77.6562 52.8003 76.3959 54.0607 74.8468 54.0607Z" fill="#33B958"/>
</svg>
