<svg width="25" height="30" viewBox="0 0 25 30" fill="none" xmlns="http://www.w3.org/2000/svg">
<path d="M0.00976562 3.69862C0.00976562 1.65593 1.64098 0 3.65317 0H15.911C16.3557 0 16.7807 0.185612 17.0865 0.513295L23.4506 7.33268C23.7355 7.63802 23.8943 8.04262 23.8943 8.46322V26.3013C23.8943 28.344 22.2631 29.9999 20.2509 29.9999H3.65317C1.64097 29.9999 0.00976562 28.344 0.00976562 26.3013V3.69862Z" fill="#CAE8FF"/>
<path d="M2.23535 11.4328H4.62236C5.62906 11.4328 6.41379 11.723 6.97655 12.3033C7.54243 12.8837 7.82537 13.6974 7.82537 14.7444C7.82537 15.7946 7.54399 16.6129 6.98124 17.1993C6.41848 17.7858 5.63219 18.0791 4.62236 18.0791H2.23535V11.4328ZM3.28582 12.3217V17.1855H4.52388C5.24295 17.1855 5.7932 16.9767 6.17462 16.5591C6.55917 16.1415 6.75144 15.5397 6.75144 14.7536C6.75144 13.9706 6.55917 13.3703 6.17462 12.9527C5.79007 12.5321 5.23983 12.3217 4.52388 12.3217H3.28582Z" fill="#3D98DF"/>
<path d="M11.7553 11.3223C12.7276 11.3223 13.4982 11.6309 14.0672 12.248C14.6394 12.8652 14.9254 13.702 14.9254 14.7582C14.9254 15.8145 14.6409 16.6513 14.0719 17.2684C13.5029 17.8826 12.7307 18.1896 11.7553 18.1896C10.7798 18.1896 10.0076 17.8826 9.43859 17.2684C8.86958 16.6513 8.58508 15.8145 8.58508 14.7582C8.58508 13.702 8.86958 12.8652 9.43859 12.248C10.0076 11.6309 10.7798 11.3223 11.7553 11.3223ZM11.7553 12.2296C11.1112 12.2296 10.6 12.4568 10.2218 12.9113C9.84659 13.3657 9.659 13.9814 9.659 14.7582C9.659 15.532 9.84659 16.1461 10.2218 16.6006C10.6 17.055 11.1112 17.2823 11.7553 17.2823C12.3962 17.2823 12.9042 17.055 13.2794 16.6006C13.6577 16.1461 13.8468 15.532 13.8468 14.7582C13.8468 13.9814 13.6577 13.3657 13.2794 12.9113C12.9042 12.4568 12.3962 12.2296 11.7553 12.2296Z" fill="#3D98DF"/>
<path d="M18.785 18.1896C17.8346 18.1896 17.0795 17.881 16.5199 17.2638C15.9634 16.6466 15.6851 15.8099 15.6851 14.7536C15.6851 13.7035 15.965 12.8698 16.5246 12.2527C17.0842 11.6324 17.8377 11.3223 18.785 11.3223C19.5541 11.3223 20.2028 11.5357 20.7312 11.9625C21.2595 12.3862 21.5675 12.9435 21.655 13.6344H20.6139C20.5201 13.2076 20.306 12.8668 19.9715 12.6119C19.6401 12.354 19.2446 12.225 18.785 12.225C18.1691 12.225 17.6767 12.4553 17.3078 12.9159C16.942 13.3734 16.7591 13.986 16.7591 14.7536C16.7591 15.5305 16.942 16.1477 17.3078 16.6052C17.6735 17.0596 18.1675 17.2869 18.7897 17.2869C19.2586 17.2869 19.6526 17.1748 19.9715 16.9506C20.2935 16.7265 20.5076 16.4133 20.6139 16.011H21.6597C21.5315 16.6988 21.2142 17.2347 20.7077 17.6185C20.2044 17.9992 19.5635 18.1896 18.785 18.1896Z" fill="#3D98DF"/>
<path d="M15.3916 0.823569C15.3916 0.083206 16.2802 -0.279722 16.7853 0.254366L23.7918 7.6634C24.2859 8.18582 23.9211 9.05452 23.2078 9.05452H16.6061C15.9353 9.05452 15.3916 8.50255 15.3916 7.82165V0.823569Z" fill="#8DCDFF"/>
</svg>
