<svg width="37" height="37" viewBox="0 0 37 37" fill="none" xmlns="http://www.w3.org/2000/svg">
<g clip-path="url(#clip0)">
<path d="M19.5042 1.2179H5.70422V21.7647L7.03665 18.1117C7.14725 17.7022 7.51864 17.4178 7.94276 17.4179H28.5042V10.2179L19.5042 1.2179Z" fill="url(#paint0_linear)"/>
<path d="M28.331 10.2182H19.5039V1.39115C19.5039 1.36219 19.5213 1.3361 19.5481 1.32499C19.5749 1.31388 19.6057 1.32 19.6262 1.34053L28.3816 10.096C28.4021 10.1164 28.4082 10.1473 28.3972 10.174C28.3861 10.2007 28.36 10.2182 28.331 10.2182Z" fill="#ACA8D3"/>
<path d="M5.70383 7.81824H1.94331C1.66761 7.81824 1.40324 7.92771 1.20826 8.12269C1.01336 8.3176 0.903809 8.58204 0.903809 8.85774V34.4943C0.945363 34.4958 0.986426 34.4978 1.02707 34.5004L5.70383 21.7457V7.81824Z" fill="#ACA8D3"/>
<path d="M2.70393 8.85761C2.70393 8.58192 2.81341 8.31754 3.00838 8.12257C3.20329 7.92766 3.46774 7.81812 3.74343 7.81812H1.94343C1.66774 7.81812 1.40336 7.92759 1.20838 8.12257C1.01348 8.31747 0.903931 8.58192 0.903931 8.85761V34.4942C0.945485 34.4957 0.986548 34.4977 1.02719 34.5003L2.70393 29.9273V8.85761Z" fill="white"/>
<path d="M31.0647 12.0183H28.5042V17.4183H32.1042V13.0577C32.1042 12.782 31.9947 12.5177 31.7997 12.3227C31.6047 12.1277 31.3403 12.0183 31.0647 12.0183Z" fill="#ACA8D3"/>
<path d="M29.2647 12.0183H28.5042V17.4183H30.3042V13.0577C30.3042 12.782 30.1947 12.5177 29.9997 12.3227C29.8047 12.1277 29.5404 12.0183 29.2647 12.0183Z" fill="#ACA8D3"/>
<path d="M28.6987 36.0186H1.84333C1.55118 36.0186 1.27563 35.8825 1.09802 35.6506C0.92041 35.4186 0.860926 35.1171 0.937215 34.8351L7.03654 18.1123C7.14722 17.7029 7.51861 17.4185 7.94266 17.4185H34.798C35.4161 17.4185 35.7041 18.0091 35.7041 18.6021L29.6048 35.3248C29.4941 35.7342 29.1228 36.0186 28.6987 36.0186Z" fill="#ACA8D3"/>
<path d="M26.8987 36.0181H1.84333C1.55118 36.0181 1.27563 35.882 1.09802 35.6501C0.92041 35.4181 0.860926 35.1166 0.937215 34.8346L7.03654 18.1118C7.14722 17.7024 7.51861 17.418 7.94266 17.418H32.998C33.6161 17.418 33.9041 18.0087 33.9041 18.6016L27.8048 35.3243C27.6941 35.7337 27.3228 36.0181 26.8987 36.0181Z" fill="#E3E1F4"/>
<path d="M28.6987 36.6183H1.84337C1.36433 36.6183 0.912569 36.3952 0.621405 36.0148C0.330241 35.6344 0.232858 35.14 0.358014 34.6776L6.47288 17.9064C6.66638 17.2572 7.26537 16.8138 7.94276 16.8183H34.798C35.6708 16.8183 36.3042 17.5683 36.3042 18.6019C36.3042 18.6721 36.2919 18.7417 36.2678 18.8076L30.1685 35.5302C29.975 36.1793 29.376 36.6227 28.6987 36.6183ZM7.94269 18.0183C7.78983 18.0186 7.65596 18.121 7.61574 18.2685L1.50087 35.0403C1.49054 35.1286 1.51719 35.2172 1.57442 35.2852C1.63777 35.3699 1.73762 35.4192 1.84337 35.4182H28.6987C28.8515 35.418 28.9854 35.3155 29.0256 35.1681L35.0991 18.5098C35.0842 18.3458 35.0259 18.0182 34.798 18.0182H7.94269V18.0183Z" fill="#554F8B"/>
<path d="M15.9042 10.8182H9.90417C9.57279 10.8182 9.3042 10.5495 9.3042 10.2182C9.3042 9.88689 9.57286 9.61823 9.90417 9.61823H15.9042C16.2355 9.61823 16.5041 9.88689 16.5041 10.2182C16.5041 10.5495 16.2355 10.8182 15.9042 10.8182Z" fill="#554F8B"/>
<path d="M15.9042 6.61804H9.90417C9.57279 6.61804 9.3042 6.34945 9.3042 6.01807C9.3042 5.68668 9.57286 5.41809 9.90417 5.41809H15.9042C16.2355 5.41809 16.5041 5.68676 16.5041 6.01807C16.5041 6.34945 16.2355 6.61804 15.9042 6.61804Z" fill="#554F8B"/>
<path d="M24.3042 15.0183H9.90418C9.57279 15.0183 9.3042 14.7496 9.3042 14.4183C9.3042 14.087 9.57286 13.8183 9.90418 13.8183H24.3042C24.6356 13.8183 24.9042 14.087 24.9042 14.4183C24.9042 14.7496 24.6355 15.0183 24.3042 15.0183Z" fill="#554F8B"/>
<path d="M28.3313 10.8182H19.5041C19.345 10.8183 19.1923 10.7551 19.0798 10.6425C18.9673 10.53 18.9041 10.3774 18.9041 10.2182V1.39107C18.904 1.11939 19.0676 0.874488 19.3186 0.770566C19.5696 0.666644 19.8585 0.72423 20.0504 0.916464L28.8061 9.67157C28.9981 9.86366 29.0556 10.1526 28.9516 10.4035C28.8477 10.6545 28.6029 10.8182 28.3313 10.8182ZM20.1041 9.6182H27.0557L20.1041 2.66718V9.6182Z" fill="#554F8B"/>
<path d="M5.70421 22.3646C5.66912 22.3646 5.63411 22.3615 5.59959 22.3552C5.31285 22.3049 5.10374 22.0558 5.10388 21.7646V1.21809C5.10381 1.05897 5.16702 0.906323 5.27959 0.793753C5.39209 0.681253 5.54474 0.618042 5.70393 0.618042H19.504C19.6631 0.618112 19.8156 0.681323 19.9281 0.793823L28.9281 9.79382C29.0407 9.90632 29.1039 10.0589 29.1039 10.218V17.418C29.104 17.5771 29.0408 17.7298 28.9282 17.8424C28.8157 17.9549 28.6631 18.0181 28.5039 18.0181H7.94254C7.78968 18.0183 7.6558 18.1208 7.61558 18.2682C7.61116 18.2853 7.60588 18.3011 7.60005 18.3175L6.26762 21.9702C6.18107 22.2069 5.95614 22.3643 5.70421 22.3646ZM6.30398 1.81814V18.3691L6.46513 17.9274C6.65694 17.2708 7.25854 16.8191 7.94261 16.8182H27.904V10.4666L19.2556 1.81821H6.30398V1.81814Z" fill="#554F8B"/>
<path d="M32.1041 18.0181H28.5041C28.345 18.0181 28.1923 17.9549 28.0798 17.8424C27.9673 17.7299 27.9041 17.5772 27.9041 17.418V12.018C27.904 11.8589 27.9672 11.7063 28.0798 11.5937C28.1923 11.4812 28.3449 11.418 28.5041 11.418H31.0647C31.9697 11.419 32.7032 12.1524 32.7041 13.0574V17.418C32.7042 17.5771 32.641 17.7298 32.5284 17.8424C32.4159 17.9549 32.2632 18.0181 32.1041 18.0181ZM29.1041 16.818H31.5041V13.0575C31.5038 12.8149 31.3072 12.6183 31.0646 12.6181H29.1041V16.818Z" fill="#554F8B"/>
<path d="M1.02773 35.1004C1.01339 35.1004 0.999046 35.0998 0.984351 35.0986L0.878882 35.0934C0.557554 35.0799 0.304007 34.8156 0.304077 34.4939V8.85737C0.305062 7.95231 1.03849 7.21888 1.94355 7.2179H5.70408C5.86319 7.21783 6.01584 7.28104 6.12841 7.39361C6.24098 7.50618 6.30412 7.65876 6.30412 7.81794V21.7457C6.30419 21.8162 6.29175 21.8862 6.26749 21.9525L1.5908 34.7072C1.50396 34.9432 1.27924 35.1002 1.02773 35.1004ZM1.94355 8.41792C1.70091 8.41813 1.50431 8.61472 1.5041 8.85737V31.4576L5.1041 21.639V8.41792H1.94355Z" fill="#554F8B"/>
</g>
<defs>
<linearGradient id="paint0_linear" x1="4.0182" y1="2.90124" x2="21.309" y2="24.1949" gradientUnits="userSpaceOnUse">
<stop stop-color="#E3E1F4"/>
<stop offset="0.1717" stop-color="#E3E1F4"/>
<stop offset="0.2" stop-color="#E3E1F4"/>
<stop offset="0.2001" stop-color="#E3E1F4"/>
<stop offset="0.2007" stop-color="#EBEBF4"/>
<stop offset="0.2014" stop-color="#F6F1F4"/>
<stop offset="0.2023" stop-color="#FDF4F4"/>
<stop offset="0.205" stop-color="#FFF5F4"/>
<stop offset="0.2522" stop-color="#E3E1F4"/>
<stop offset="0.26" stop-color="#E3E1F4"/>
<stop offset="0.3974" stop-color="#E3E1F4"/>
<stop offset="0.42" stop-color="#E3E1F4"/>
<stop offset="0.4201" stop-color="#DAE4F4"/>
<stop offset="0.4207" stop-color="#EBEBF4"/>
<stop offset="0.4214" stop-color="#F6F1F4"/>
<stop offset="0.4223" stop-color="#FDF4F4"/>
<stop offset="0.425" stop-color="#FFF5F4"/>
<stop offset="0.4894" stop-color="#FFF5F4"/>
<stop offset="0.5" stop-color="#F9F2F4"/>
<stop offset="0.5001" stop-color="#E8EBF4"/>
<stop offset="0.5003" stop-color="#DDE5F4"/>
<stop offset="0.5005" stop-color="#D6E2F4"/>
<stop offset="0.501" stop-color="#E3E1F4"/>
<stop offset="0.7062" stop-color="#E3E1F4"/>
<stop offset="0.74" stop-color="#E3E1F4"/>
<stop offset="0.741" stop-color="#FFF5F4"/>
<stop offset="0.8346" stop-color="#FFF5F4"/>
<stop offset="0.85" stop-color="#FFF5F4"/>
<stop offset="0.851" stop-color="#E3E1F4"/>
</linearGradient>
<clipPath id="clip0">
<rect width="36" height="36" fill="white" transform="translate(0.304077 0.618164)"/>
</clipPath>
</defs>
</svg>
