<svg width="20" height="20" viewBox="0 0 20 20" fill="none" xmlns="http://www.w3.org/2000/svg">
<path d="M8.86485 6.52635C8.90141 6.59948 8.93797 6.6726 8.97453 6.72745C9.0111 6.78229 9.06594 6.83713 9.1025 6.89198C9.15735 6.94682 9.21219 7.00167 9.28532 7.05651C9.34016 7.09307 9.41329 7.14792 9.5047 7.1662C9.57782 7.20276 9.65095 7.22105 9.74236 7.23933C9.83377 7.25761 9.90689 7.25761 9.98002 7.25761C10.0531 7.25761 10.1446 7.25761 10.2177 7.23933C10.2908 7.22105 10.3639 7.20276 10.4188 7.1662H10.4371C10.5102 7.12964 10.5833 7.09308 10.6564 7.03823C10.7113 7.00167 10.7661 6.94682 10.821 6.89198L10.8393 6.8737C10.8941 6.81885 10.9307 6.76401 10.9672 6.70916C11.0038 6.65432 11.0403 6.59948 11.0586 6.52635C11.0586 6.50807 11.0586 6.50807 11.0769 6.48979C11.1135 6.41666 11.1318 6.32525 11.15 6.25213C11.1683 6.179 11.1683 6.08759 11.1683 6.01447C11.1683 5.94134 11.1683 5.84993 11.15 5.77681C11.1318 5.70368 11.1135 5.63056 11.0769 5.53915C11.0221 5.41118 10.9489 5.30149 10.8575 5.21008C10.8393 5.1918 10.8393 5.1918 10.821 5.17352C10.7661 5.11868 10.7113 5.08211 10.6382 5.02727C10.565 4.99071 10.5102 4.95414 10.4371 4.91758C10.3639 4.88102 10.2908 4.86273 10.2177 4.84445C10.1263 4.82617 10.0531 4.82617 9.98002 4.82617C9.90689 4.82617 9.81548 4.82617 9.74236 4.84445C9.66923 4.86273 9.59611 4.88102 9.52298 4.91758H9.5047C9.43157 4.95414 9.35845 4.99071 9.3036 5.02727C9.23048 5.08211 9.17563 5.11868 9.12079 5.17352C9.06594 5.22836 9.0111 5.28321 8.97453 5.33805C8.93797 5.3929 8.90141 5.46602 8.86485 5.53915C8.82828 5.61228 8.81 5.6854 8.79172 5.75853C8.77344 5.84993 8.77344 5.92306 8.77344 5.99619C8.77344 6.06931 8.77344 6.16072 8.79172 6.23385C8.81 6.3801 8.84656 6.45322 8.86485 6.52635Z" fill="#0074F0"/>
<path d="M11.4079 13.218H10.9874V8.73899C10.9874 8.48305 10.7863 8.26367 10.5121 8.26367H8.59251C8.33657 8.26367 8.11719 8.46477 8.11719 8.73899V9.7262C8.11719 9.98214 8.31828 10.2015 8.59251 10.2015H8.97642V13.2363H8.59251C8.33657 13.2363 8.11719 13.4374 8.11719 13.7116V14.6988C8.11719 14.9547 8.31828 15.1741 8.59251 15.1741H11.4079C11.6638 15.1741 11.8832 14.973 11.8832 14.6988V13.7116C11.8832 13.4374 11.6638 13.218 11.4079 13.218Z" fill="#0074F0"/>
<path d="M10 0C4.47898 0 0 4.47898 0 10C0 15.521 4.47898 20 10 20C15.521 20 20 15.521 20 10C20 4.47898 15.521 0 10 0ZM10 18.6837C5.21024 18.6837 1.31627 14.7898 1.31627 10C1.31627 5.21024 5.21024 1.31627 10 1.31627C14.7898 1.31627 18.6837 5.21024 18.6837 10C18.6837 14.7898 14.7898 18.6837 10 18.6837Z" fill="#0074F0"/>
</svg>
