<svg width="86" height="86" viewBox="0 0 86 86" fill="none" xmlns="http://www.w3.org/2000/svg">
<g clip-path="url(#clip0)">
<path d="M26.2073 55.6019C27.8838 55.6019 29.2428 54.2587 29.2428 52.6017C29.2428 50.9448 27.8838 49.6016 26.2073 49.6016C24.5309 49.6016 23.1719 50.9448 23.1719 52.6017C23.1719 54.2587 24.5309 55.6019 26.2073 55.6019Z" fill="#C8C8C8"/>
<path d="M59.7894 55.6019C61.4658 55.6019 62.8248 54.2587 62.8248 52.6017C62.8248 50.9448 61.4658 49.6016 59.7894 49.6016C58.1129 49.6016 56.7539 50.9448 56.7539 52.6017C56.7539 54.2587 58.1129 55.6019 59.7894 55.6019Z" fill="#C8C8C8"/>
<path d="M26.2083 42.9805C24.5503 42.9805 22.9914 43.6186 21.8189 44.7775C21.1854 45.4034 21.1854 46.4182 21.8189 47.0444C22.4524 47.6705 23.4791 47.6703 24.1122 47.0444C24.6721 46.491 25.4165 46.1862 26.2083 46.1862C27.0001 46.1862 27.7445 46.491 28.3044 47.0444C28.621 47.3573 29.036 47.514 29.4511 47.5138C29.8661 47.5138 30.2812 47.3573 30.5979 47.0444C31.2314 46.4184 31.2314 45.4036 30.5979 44.7775C29.4252 43.6188 27.8663 42.9805 26.2083 42.9805Z" fill="#C8C8C8"/>
<path d="M55.4009 44.7774C54.7674 45.4033 54.7674 46.4181 55.4009 47.0442C56.0342 47.6704 57.0609 47.6702 57.6942 47.0442C58.8499 45.9018 60.7307 45.902 61.8864 47.0442C62.203 47.3572 62.618 47.5137 63.0332 47.5137C63.4483 47.5137 63.8633 47.3572 64.1799 47.0442C64.8134 46.4183 64.8134 45.4035 64.1799 44.7774C61.7599 42.3855 57.8215 42.3853 55.4009 44.7774Z" fill="#C8C8C8"/>
<path d="M46.1206 65.3405C45.2862 66.165 44.1772 66.6192 42.9972 66.6192C41.8174 66.6192 40.7081 66.1652 39.8739 65.3405C39.2406 64.7146 38.2139 64.7146 37.5806 65.3405C36.9471 65.9665 36.9471 66.9813 37.5806 67.6074C39.0274 69.0376 40.9511 69.825 42.9974 69.825C45.0436 69.825 46.9674 69.0374 48.4141 67.6074C49.0476 66.9815 49.0476 65.9667 48.4141 65.3405C47.7806 64.7146 46.7539 64.7146 46.1206 65.3405Z" fill="#C8C8C8"/>
<path d="M81.2645 51.0557C81.2645 46.7017 78.0798 43.0712 73.8925 42.3141V15.4995C73.8925 12.0208 72.1417 8.79587 69.209 6.87262C66.4545 5.06639 63.0347 4.65645 59.9426 5.73338L49.761 2.31767C41.9374 -0.307235 33.7021 -0.576517 25.9456 1.53867C15.7911 4.30783 9.96951 10.1635 9.07087 18.4872C8.27562 19.5239 7.64375 20.6882 7.2144 21.9444L6.42462 24.2547C6.00074 25.4952 6.468 26.7987 7.5878 27.4984C8.7072 28.198 10.0993 28.0566 11.0514 27.1459C11.3766 26.8348 11.7321 26.5727 12.1063 26.3535V42.3143C7.91904 43.0714 4.73438 46.7017 4.73438 51.0559C4.73438 55.5843 8.17872 59.33 12.6135 59.8745C13.7273 65.9526 16.6539 71.5593 21.1288 76.0459C26.9713 81.9036 34.7382 85.1294 42.9994 85.1294C43.0005 85.1294 43.0015 85.1294 43.0025 85.1294C51.2532 85.1286 59.0099 81.9525 64.8441 76.1863C69.4014 71.6821 72.3594 66.0183 73.4364 59.8681C77.8465 59.3007 81.2645 55.5664 81.2645 51.0557ZM67.4158 9.54401C69.4707 10.8914 70.6491 13.0621 70.6491 15.4995V36.4748C65.6154 35.7016 61.7505 31.3891 61.7505 26.2006L61.6163 8.57708C63.5966 8.06115 65.6617 8.39375 67.4158 9.54401ZM9.97215 23.8923L10.2874 22.9704C11.113 20.5551 12.9466 18.5942 15.3178 17.5908C17.6887 16.5874 20.3899 16.6291 22.7283 17.7056C27.6392 19.9663 33.5762 18.7441 37.1655 14.7337L37.5673 14.2847C38.1608 13.6217 38.098 12.6087 37.4272 12.0222C36.756 11.4358 35.7313 11.4977 35.1379 12.1607L34.7361 12.6097C32.0911 15.565 27.7163 16.4654 24.0976 14.7996C20.9245 13.3388 17.2588 13.2821 14.0411 14.6439C13.7481 14.768 13.4633 14.9064 13.183 15.0513C15.068 10.0842 19.6303 6.58631 26.8085 4.6288C33.9362 2.68492 41.5125 2.93557 48.7189 5.3531L58.3728 8.5919L58.4993 16.8741C54.2007 22.6507 47.9315 26.5611 40.7874 27.9057C33.4722 29.2824 26.0092 27.8255 19.7733 23.8035C16.726 21.8386 12.8846 21.9226 9.97215 23.8923ZM7.97783 51.0557C7.97783 48.4785 9.72301 46.2978 12.1063 45.604V54.2919C12.1063 55.0425 12.1337 55.7888 12.187 56.5304C9.76274 55.8626 7.97783 53.662 7.97783 51.0557ZM62.5508 73.9191C57.3292 79.0799 50.3868 81.9224 43.0023 81.9232C43.0011 81.9232 43.0009 81.9232 42.9994 81.9232C35.6139 81.9232 28.6664 79.0363 23.4386 73.7951C18.2225 68.5653 15.3498 61.6389 15.3498 54.2917V25.5978C16.2683 25.6655 17.1797 25.9592 18.0003 26.4884C24.9425 30.9658 33.2502 32.5877 41.3937 31.0549C48.0041 29.8107 53.9424 26.5943 58.5068 21.8508V26.2004C58.5068 33.1591 63.8214 38.9106 70.6489 39.7066V54.5949C70.6491 61.8948 67.7731 68.7576 62.5508 73.9191ZM73.8299 56.5251C73.87 55.8852 73.8925 55.2418 73.8925 54.5951V45.604C76.2759 46.2978 78.021 48.4785 78.021 51.0557C78.021 53.6554 76.2453 55.8515 73.8299 56.5251Z" fill="#C8C8C8"/>
</g>
<defs>
<clipPath id="clip0">
<rect width="86" height="85" fill="white" transform="translate(0 0.128906)"/>
</clipPath>
</defs>
</svg>
