<svg width="21" height="21" viewBox="0 0 21 21" fill="none" xmlns="http://www.w3.org/2000/svg">
<path d="M9.46094 15.3574H11.4609V9.35742H9.46094V15.3574ZM10.4609 0.357422C8.48313 0.357422 6.54973 0.943911 4.90524 2.04273C3.26075 3.14154 1.97902 4.70332 1.22215 6.53059C0.46527 8.35785 0.267237 10.3685 0.653089 12.3083C1.03894 14.2481 1.99135 16.03 3.38987 17.4285C4.7884 18.827 6.57023 19.7794 8.51004 20.1653C10.4498 20.5511 12.4605 20.3531 14.2878 19.5962C16.115 18.8393 17.6768 17.5576 18.7756 15.9131C19.8744 14.2686 20.4609 12.3352 20.4609 10.3574C20.4609 9.0442 20.2023 7.74384 19.6997 6.53059C19.1972 5.31733 18.4606 4.21494 17.532 3.28635C16.6034 2.35777 15.501 1.62117 14.2878 1.11863C13.0745 0.616079 11.7742 0.357422 10.4609 0.357422ZM10.4609 18.3574C8.87869 18.3574 7.33197 17.8882 6.01638 17.0092C4.70079 16.1301 3.67541 14.8807 3.06991 13.4189C2.4644 11.9571 2.30598 10.3485 2.61466 8.7967C2.92334 7.24485 3.68527 5.81939 4.80409 4.70057C5.92291 3.58175 7.34837 2.81982 8.90022 2.51114C10.4521 2.20246 12.0606 2.36088 13.5224 2.96639C14.9842 3.57189 16.2336 4.59727 17.1127 5.91286C17.9917 7.22845 18.4609 8.77517 18.4609 10.3574C18.458 12.4783 17.6142 14.5114 16.1146 16.0111C14.6149 17.5107 12.5818 18.3545 10.4609 18.3574ZM9.46094 7.35742H11.4609V5.35742H9.46094V7.35742Z" fill="#0074F0"/>
</svg>
