<svg width="161" height="145" viewBox="0 0 161 145" fill="none" xmlns="http://www.w3.org/2000/svg">
<circle cx="80.5" cy="72.5" r="72.5" fill="#F3FAFF"/>
<line x1="119.939" y1="25.9393" x2="138.939" y2="6.93934" stroke="#F99746" stroke-width="3"/>
<line x1="33.4864" y1="119.561" x2="14.4864" y2="138.561" stroke="#F99746" stroke-width="3"/>
<line x1="129.439" y1="138.561" x2="118.439" y2="127.561" stroke="#F99746" stroke-width="3"/>
<line x1="35.6153" y1="6.93934" x2="46.6153" y2="17.9393" stroke="#F99746" stroke-width="3"/>
<line x1="160.555" y1="74.5" x2="144.998" y2="74.5" stroke="#F99746" stroke-width="3"/>
<line x1="-1.31134e-07" y1="65.5" x2="15.5563" y2="65.5" stroke="#F99746" stroke-width="3"/>
<mask id="mask0" mask-type="alpha" maskUnits="userSpaceOnUse" x="38" y="33" width="85" height="79">
<path d="M75.673 34.638C80.0609 32.2076 85.5386 33.6198 88.2303 37.7618L88.5797 38.3435L121.323 97.4587C122.103 98.8666 122.512 100.45 122.512 102.059C122.512 107.085 118.607 111.198 113.667 111.532L113.017 111.554H47.5398C45.9306 111.554 44.3479 111.145 42.9401 110.366C38.552 107.936 36.8427 102.544 38.9255 98.0644L39.2332 97.4596L71.967 38.3444C72.8301 36.7857 74.1144 35.5013 75.673 34.638ZM80.2811 90.4251C77.9536 90.4251 76.0667 92.312 76.0667 94.6395C76.0667 96.967 77.9536 98.8539 80.2811 98.8539C82.6087 98.8539 84.4955 96.967 84.4955 94.6395C84.4955 92.312 82.6087 90.4251 80.2811 90.4251ZM80.272 56.6492C78.1078 56.65 76.3247 58.2797 76.0817 60.3786L76.0535 60.8708L76.0611 81.9746L76.0897 82.4667C76.3342 84.5654 78.1185 86.1939 80.2826 86.1931C82.4468 86.1923 84.2299 84.5626 84.4729 82.4637L84.5011 81.9715L84.4935 60.8677L84.465 60.3756C84.2204 58.2769 82.4362 56.6484 80.272 56.6492Z" fill="#0074F0"/>
</mask>
<g mask="url(#mask0)">
<rect x="80.2773" y="28.1035" width="66.2133" height="88.7936" fill="#F78222"/>
<rect x="14.0625" y="28.1035" width="66.2133" height="88.7936" fill="#F99746"/>
</g>
</svg>
