<svg width="24" height="28" viewBox="0 0 24 28" fill="none" xmlns="http://www.w3.org/2000/svg">
<path d="M0 4.08792C0 2.23176 1.61731 0.727051 3.61236 0.727051H15.7657C16.2066 0.727051 16.6281 0.895713 16.9312 1.19347L23.2411 7.39013C23.5236 7.66758 23.681 8.03523 23.681 8.41743V24.6266C23.681 26.4827 22.0637 27.9874 20.0687 27.9874H3.61236C1.61731 27.9874 0 26.4827 0 24.6266V4.08792Z" fill="#CAE8FF"/>
<path d="M3.24609 16.4306H4.30121C4.30761 16.7035 4.40512 16.9249 4.59377 17.0947C4.78561 17.2645 5.0318 17.3494 5.33235 17.3494C5.68405 17.3494 5.95263 17.2523 6.13807 17.0583C6.32672 16.8612 6.42104 16.5746 6.42104 16.1986V11.5501H7.49534V16.2032C7.49534 16.8521 7.3051 17.357 6.92462 17.7178C6.54413 18.0786 6.01658 18.2591 5.34194 18.2591C4.71846 18.2591 4.21328 18.0908 3.82641 17.7542C3.43953 17.4176 3.24609 16.9764 3.24609 16.4306Z" fill="#3D98DF"/>
<path d="M8.78546 11.5501H11.3801C12.0515 11.5501 12.5983 11.7502 13.0203 12.1505C13.4456 12.5507 13.6582 13.0693 13.6582 13.7061C13.6582 14.3459 13.4424 14.8674 13.0107 15.2707C12.5823 15.671 12.0275 15.8711 11.3465 15.8711H9.85976V18.1135H8.78546V11.5501ZM9.85976 12.4097V15.016H11.0923C11.5591 15.016 11.9204 14.9023 12.1762 14.6749C12.432 14.4475 12.5599 14.126 12.5599 13.7106C12.5599 13.2982 12.432 12.9783 12.1762 12.7509C11.9236 12.5235 11.5639 12.4097 11.0971 12.4097H9.85976Z" fill="#3D98DF"/>
<path d="M20.5596 15.3844C20.5596 16.2729 20.2958 16.9688 19.7683 17.4722C19.2439 17.9725 18.5133 18.2227 17.5765 18.2227C16.5853 18.2227 15.7988 17.9164 15.2169 17.3039C14.6382 16.6883 14.3488 15.8544 14.3488 14.8022C14.3488 13.7682 14.6366 12.9495 15.2121 12.3461C15.7908 11.7426 16.5741 11.4409 17.5621 11.4409C18.3327 11.4409 18.9849 11.6395 19.5189 12.0368C20.056 12.434 20.3854 12.9601 20.5068 13.6151H19.4038C19.2759 13.2088 19.0505 12.8934 18.7275 12.669C18.4046 12.4446 18.0177 12.3324 17.5669 12.3324C16.9051 12.3324 16.3855 12.5507 16.0082 12.9874C15.6341 13.421 15.4471 14.0229 15.4471 14.7931C15.4471 15.5785 15.6389 16.1986 16.0226 16.6535C16.4063 17.1053 16.9274 17.3312 17.5861 17.3312C18.1456 17.3312 18.6028 17.1765 18.9577 16.8672C19.3126 16.5549 19.4933 16.1501 19.4997 15.6528V15.5391H17.7108V14.7158H20.5596V15.3844Z" fill="#3D98DF"/>
<path d="M15.25 1.47541C15.25 0.802659 16.1311 0.472872 16.6318 0.958189L23.5786 7.69065C24.0685 8.16536 23.7068 8.95473 22.9995 8.95473H16.4541C15.7891 8.95473 15.25 8.45316 15.25 7.83444V1.47541Z" fill="#8DCDFF"/>
</svg>
