<svg width="76" height="122" viewBox="0 0 76 122" fill="none" xmlns="http://www.w3.org/2000/svg">
<g clip-path="url(#clip0)">
<path d="M38 0.763672C17.279 0.763672 0.5 17.5707 0.5 38.3261C0.5 59.0297 17.2272 75.8367 37.8963 75.8886C37.6888 89.1887 37.2739 121.062 38 121.764C38.778 122.543 66.8641 67.0825 70.3133 59.809C74.5664 50.8729 75.5 45.3659 75.5 38.3521C75.5 17.5707 58.695 0.763672 38 0.763672ZM38 49.9897C31.5685 49.9897 26.3558 44.7684 26.3558 38.3261C26.3558 31.8839 31.5685 26.6626 38 26.6626C44.4315 26.6626 49.6442 31.8839 49.6442 38.3261C49.6442 44.7684 44.4315 49.9897 38 49.9897Z" fill="#EF4136"/>
</g>
<defs>
<clipPath id="clip0">
<rect width="75" height="121" fill="white" transform="translate(0.5 0.763672)"/>
</clipPath>
</defs>
</svg>
