<svg width="293" height="256" viewBox="0 0 293 256" fill="none" xmlns="http://www.w3.org/2000/svg">
<rect width="293" height="256" rx="10" fill="#B7B9D9"/>
<path d="M122.273 186H119.93V181.125H115.359V186H113.016V174.625H115.359V179.234H119.93V174.625H122.273V186ZM128.07 186.156C126.831 186.156 125.82 185.776 125.039 185.016C124.263 184.255 123.875 183.242 123.875 181.977V181.758C123.875 180.909 124.039 180.151 124.367 179.484C124.695 178.812 125.159 178.297 125.758 177.938C126.362 177.573 127.049 177.391 127.82 177.391C128.977 177.391 129.885 177.755 130.547 178.484C131.214 179.214 131.547 180.247 131.547 181.586V182.508H126.164C126.237 183.06 126.456 183.503 126.82 183.836C127.19 184.169 127.656 184.336 128.219 184.336C129.089 184.336 129.768 184.021 130.258 183.391L131.367 184.633C131.029 185.112 130.57 185.487 129.992 185.758C129.414 186.023 128.773 186.156 128.07 186.156ZM127.812 179.219C127.365 179.219 127 179.37 126.719 179.672C126.443 179.974 126.266 180.406 126.188 180.969H129.328V180.789C129.318 180.289 129.182 179.904 128.922 179.633C128.661 179.357 128.292 179.219 127.812 179.219ZM139.758 179.359H137.047V186H134.781V179.359H132.117V177.547H139.758V179.359ZM144.547 181.836C144.547 180.477 144.823 179.396 145.375 178.594C145.932 177.792 146.698 177.391 147.672 177.391C148.052 177.391 148.398 177.466 148.711 177.617V174H150.969V177.625C151.292 177.469 151.648 177.391 152.039 177.391C153.018 177.391 153.784 177.792 154.336 178.594C154.893 179.391 155.172 180.526 155.172 182C155.172 183.276 154.893 184.289 154.336 185.039C153.779 185.784 153.018 186.156 152.055 186.156C151.654 186.156 151.292 186.083 150.969 185.938V189.25H148.711V185.945C148.398 186.086 148.047 186.156 147.656 186.156C146.745 186.156 146.013 185.815 145.461 185.133C144.909 184.451 144.607 183.516 144.555 182.328L144.547 181.836ZM152.906 181.836C152.906 180.992 152.779 180.346 152.523 179.898C152.268 179.445 151.909 179.219 151.445 179.219C151.299 179.219 151.141 179.237 150.969 179.273V184.297C151.115 184.328 151.279 184.344 151.461 184.344C152.346 184.344 152.826 183.672 152.898 182.328L152.906 181.836ZM146.805 182C146.805 183.557 147.281 184.336 148.234 184.336C148.432 184.336 148.591 184.323 148.711 184.297V179.273C148.539 179.237 148.385 179.219 148.25 179.219C147.786 179.219 147.43 179.44 147.18 179.883C146.93 180.32 146.805 181.026 146.805 182ZM156.219 181.695C156.219 180.857 156.38 180.109 156.703 179.453C157.026 178.797 157.49 178.289 158.094 177.93C158.703 177.57 159.409 177.391 160.211 177.391C161.352 177.391 162.281 177.74 163 178.438C163.724 179.135 164.128 180.083 164.211 181.281L164.227 181.859C164.227 183.156 163.865 184.198 163.141 184.984C162.417 185.766 161.445 186.156 160.227 186.156C159.008 186.156 158.034 185.766 157.305 184.984C156.581 184.203 156.219 183.141 156.219 181.797V181.695ZM158.477 181.859C158.477 182.661 158.628 183.276 158.93 183.703C159.232 184.125 159.664 184.336 160.227 184.336C160.773 184.336 161.201 184.128 161.508 183.711C161.815 183.289 161.969 182.617 161.969 181.695C161.969 180.909 161.815 180.299 161.508 179.867C161.201 179.435 160.768 179.219 160.211 179.219C159.659 179.219 159.232 179.435 158.93 179.867C158.628 180.294 158.477 180.958 158.477 181.859ZM172.398 179.359H169.688V186H167.422V179.359H164.758V177.547H172.398V179.359ZM172.953 181.695C172.953 180.857 173.115 180.109 173.438 179.453C173.76 178.797 174.224 178.289 174.828 177.93C175.438 177.57 176.143 177.391 176.945 177.391C178.086 177.391 179.016 177.74 179.734 178.438C180.458 179.135 180.862 180.083 180.945 181.281L180.961 181.859C180.961 183.156 180.599 184.198 179.875 184.984C179.151 185.766 178.18 186.156 176.961 186.156C175.742 186.156 174.768 185.766 174.039 184.984C173.315 184.203 172.953 183.141 172.953 181.797V181.695ZM175.211 181.859C175.211 182.661 175.362 183.276 175.664 183.703C175.966 184.125 176.398 184.336 176.961 184.336C177.508 184.336 177.935 184.128 178.242 183.711C178.549 183.289 178.703 182.617 178.703 181.695C178.703 180.909 178.549 180.299 178.242 179.867C177.935 179.435 177.503 179.219 176.945 179.219C176.393 179.219 175.966 179.435 175.664 179.867C175.362 180.294 175.211 180.958 175.211 181.859Z" fill="white"/>
<path d="M146.5 65C145.626 65 144.917 65.7089 144.917 66.5833V72.9167C144.917 73.7911 145.626 74.5 146.5 74.5C147.374 74.5 148.083 73.7911 148.083 72.9167V68.2061C172.145 69.0596 191.126 88.9611 190.842 113.036C190.557 137.11 171.11 156.557 147.036 156.842C122.961 157.126 103.06 138.145 102.206 114.083H106.917C107.791 114.083 108.5 113.374 108.5 112.5C108.5 111.626 107.791 110.917 106.917 110.917H100.583C99.7089 110.917 99 111.626 99 112.5C99 138.733 120.267 160 146.5 160C172.733 160 194 138.733 194 112.5C194 86.2668 172.733 65 146.5 65Z" fill="white"/>
<path d="M167.74 88.774C163.383 88.4099 159.555 91.6477 159.192 96.005C158.828 100.362 162.066 104.19 166.423 104.553C166.646 104.573 166.866 104.58 167.086 104.58C171.198 104.573 174.623 101.421 174.97 97.3239C175.329 92.9682 172.095 89.1436 167.74 88.774ZM166.686 101.398C164.145 101.19 162.221 99.0131 162.327 96.4657C162.434 93.9183 164.532 91.909 167.082 91.9136C167.213 91.9136 167.346 91.9136 167.481 91.9291C170.095 92.1479 172.037 94.4448 171.819 97.0595C171.6 99.6741 169.304 101.616 166.689 101.398H166.686Z" fill="white"/>
<path d="M150.163 94.6304C148.283 92.8368 145.326 92.8368 143.446 94.6304L132.811 105.268C131.277 106.815 131.282 109.313 132.824 110.853C134.365 112.394 136.862 112.399 138.41 110.865L146.801 102.473L153.055 108.724C154.577 110.248 157.042 110.26 158.579 108.752C159.348 108.024 159.789 107.015 159.803 105.956C159.818 104.897 159.403 103.878 158.654 103.128L150.163 94.6304ZM156.352 106.505C156.053 106.786 155.585 106.777 155.298 106.485L147.925 99.1082C147.307 98.4905 146.305 98.4905 145.686 99.1082L136.172 108.626C135.863 108.935 135.361 108.936 135.052 108.627C134.743 108.318 134.742 107.816 135.051 107.507L145.686 96.8693C146.305 96.2516 147.307 96.2516 147.925 96.8693L156.42 105.363C156.566 105.508 156.647 105.708 156.641 105.913C156.632 106.141 156.527 106.355 156.352 106.501V106.505Z" fill="white"/>
<path d="M148.399 143.137H148.419C149.469 143.14 150.476 142.722 151.215 141.978L159.593 133.6C161.448 131.745 161.448 128.737 159.593 126.882L148.96 116.247C147.393 114.751 144.928 114.751 143.362 116.247C141.817 117.792 141.817 120.298 143.362 121.844L151.754 130.236L145.615 136.374C144.09 137.91 144.076 140.387 145.585 141.939C146.323 142.702 147.338 143.134 148.399 143.137ZM147.859 138.626L155.117 131.368C155.735 130.749 155.735 129.747 155.117 129.129L145.603 119.612C145.397 119.412 145.314 119.118 145.387 118.842C145.459 118.565 145.675 118.348 145.952 118.276C146.229 118.204 146.523 118.286 146.722 118.492L157.356 129.126C157.974 129.744 157.974 130.746 157.356 131.364L148.977 139.734C148.83 139.883 148.629 139.966 148.421 139.965C148.204 139.978 147.994 139.89 147.852 139.726C147.558 139.417 147.56 138.931 147.859 138.626Z" fill="white"/>
<path d="M174.207 123.582C176.393 123.582 178.165 121.81 178.165 119.624C178.165 117.437 176.393 115.665 174.207 115.665H165.499V110.915C165.499 110.332 165.177 109.794 164.662 109.519C164.147 109.244 163.523 109.274 163.036 109.598L158.286 112.765C157.846 113.058 157.582 113.552 157.582 114.082V118.832C157.582 121.455 159.709 123.582 162.332 123.582H174.207ZM160.749 118.832V114.929L162.332 113.875V117.249C162.332 118.123 163.041 118.832 163.915 118.832H174.207C174.645 118.832 174.999 119.186 174.999 119.624C174.999 120.061 174.645 120.415 174.207 120.415H162.332C161.458 120.415 160.749 119.706 160.749 118.832Z" fill="white"/>
<path d="M145.247 125.846C144.019 124.615 142.57 123.132 142.206 122.711C142.138 122.599 142.057 122.496 141.964 122.404C141.347 121.787 140.347 121.787 139.729 122.404L122.449 139.687C120.903 141.233 120.903 143.74 122.449 145.286C123.995 146.832 126.501 146.832 128.048 145.286L145.247 128.084C145.865 127.467 145.865 126.464 145.247 125.846ZM125.809 143.046C125.499 143.355 124.998 143.356 124.688 143.046C124.378 142.737 124.378 142.235 124.688 141.926L140.784 125.832C141.1 126.164 141.467 126.54 141.892 126.963L125.809 143.046Z" fill="white"/>
<path d="M139.628 75.1026C139.721 75.1026 139.814 75.0948 139.905 75.0794C140.766 74.9271 141.341 74.1053 141.189 73.244L140.08 67.0073C139.91 66.1654 139.099 65.6134 138.254 65.7626C137.408 65.9118 136.836 66.7074 136.963 67.5562L138.071 73.7952C138.205 74.5506 138.86 75.1018 139.628 75.1026Z" fill="white"/>
<path d="M131.474 75.849C131.702 76.4737 132.296 76.8904 132.961 76.8904C133.146 76.8912 133.329 76.8587 133.502 76.7938C134.325 76.4969 134.75 75.5885 134.453 74.7659L132.283 68.8145C131.972 68.0097 131.075 67.6015 130.265 67.8968C129.454 68.1914 129.029 69.0812 129.308 69.8969L131.474 75.849Z" fill="white"/>
<path d="M125.335 79.0111C125.616 79.5051 126.139 79.8105 126.708 79.812C127.276 79.8128 127.802 79.5097 128.084 79.0173C128.367 78.524 128.364 77.9179 128.078 77.4277L124.911 71.9425C124.47 71.1918 123.507 70.9375 122.753 71.3727C121.999 71.808 121.738 72.7697 122.168 73.5258L125.335 79.0111Z" fill="white"/>
<path d="M119.844 83.193C120.406 83.8641 121.405 83.9522 122.077 83.3909C122.748 82.8289 122.836 81.8292 122.275 81.1582L118.198 76.3054C117.627 75.6714 116.656 75.6034 116.003 76.1515C115.349 76.7004 115.248 77.6676 115.774 78.3394L119.844 83.193Z" fill="white"/>
<path d="M115.16 88.2755C115.831 88.8151 116.812 88.7185 117.365 88.0582C117.919 87.3988 117.843 86.4169 117.195 85.8494L112.345 81.779C111.674 81.2394 110.694 81.3352 110.14 81.9955C109.586 82.6557 109.662 83.6368 110.311 84.2043L115.16 88.2755Z" fill="white"/>
<path d="M105.943 90.9109L111.428 94.0775C111.918 94.3643 112.524 94.3674 113.017 94.0845C113.51 93.8015 113.813 93.2758 113.812 92.7076C113.81 92.1393 113.505 91.6159 113.011 91.3345L107.527 88.1679C106.77 87.738 105.808 87.9993 105.373 88.7531C104.937 89.5069 105.192 90.4702 105.943 90.9109Z" fill="white"/>
<path d="M102.807 98.2832L108.758 100.449C108.931 100.514 109.115 100.546 109.299 100.546C110.069 100.546 110.726 99.9949 110.86 99.2372C110.994 98.4804 110.564 97.7366 109.841 97.4738L103.889 95.3083C103.073 95.0292 102.184 95.4544 101.889 96.2646C101.594 97.0748 102.002 97.9724 102.807 98.2832Z" fill="white"/>
<path d="M101.008 106.089L107.245 107.189C107.336 107.205 107.429 107.212 107.522 107.213C108.344 107.213 109.029 106.585 109.1 105.767C109.172 104.949 108.605 104.212 107.796 104.07L101.557 102.962C100.696 102.81 99.875 103.385 99.7234 104.247C99.5719 105.108 100.147 105.929 101.008 106.08V106.089Z" fill="white"/>
</svg>
