<svg width="26" height="26" viewBox="0 0 26 26" fill="none" xmlns="http://www.w3.org/2000/svg">
<path d="M3.25096 0H17.0577L24.3759 7.28977V24.375C24.3759 25.2728 23.648 26 22.7509 26H3.25096C2.35394 26 1.62598 25.2728 1.62598 24.375V1.62498C1.62598 0.727203 2.35402 0 3.25096 0Z" fill="#E2574C"/>
<path d="M24.3514 7.31187H18.6875C17.7905 7.31187 17.0625 6.58391 17.0625 5.68689V0.015625L24.3514 7.31187Z" fill="#B53629"/>
<path d="M8.292 11.8C8.656 11.8 8.972 11.86 9.24 11.98C9.512 12.1 9.72 12.272 9.864 12.496C10.008 12.72 10.08 12.986 10.08 13.294C10.08 13.598 10.008 13.864 9.864 14.092C9.72 14.316 9.512 14.488 9.24 14.608C8.972 14.728 8.656 14.788 8.292 14.788H7.344V16H6.564V11.8H8.292ZM8.256 14.128C8.596 14.128 8.854 14.056 9.03 13.912C9.206 13.768 9.294 13.562 9.294 13.294C9.294 13.026 9.206 12.82 9.03 12.676C8.854 12.532 8.596 12.46 8.256 12.46H7.344V14.128H8.256ZM10.8589 11.8H12.6949C13.1429 11.8 13.5409 11.888 13.8889 12.064C14.2369 12.236 14.5069 12.482 14.6989 12.802C14.8909 13.118 14.9869 13.484 14.9869 13.9C14.9869 14.316 14.8909 14.684 14.6989 15.004C14.5069 15.32 14.2369 15.566 13.8889 15.742C13.5409 15.914 13.1429 16 12.6949 16H10.8589V11.8ZM12.6589 15.34C12.9669 15.34 13.2369 15.282 13.4689 15.166C13.7049 15.046 13.8849 14.878 14.0089 14.662C14.1369 14.442 14.2009 14.188 14.2009 13.9C14.2009 13.612 14.1369 13.36 14.0089 13.144C13.8849 12.924 13.7049 12.756 13.4689 12.64C13.2369 12.52 12.9669 12.46 12.6589 12.46H11.6389V15.34H12.6589ZM16.596 12.454V13.732H18.624V14.392H16.596V16H15.816V11.8H18.882V12.454H16.596Z" fill="white"/>
</svg>
