<svg width="26" height="26" viewBox="0 0 26 26" fill="none" xmlns="http://www.w3.org/2000/svg">
<path d="M3.25096 0H17.0577L24.3759 7.28977V24.375C24.3759 25.2728 23.648 26 22.7509 26H3.25096C2.35394 26 1.62598 25.2728 1.62598 24.375V1.62498C1.62598 0.727203 2.35402 0 3.25096 0Z" fill="#12B2A0"/>
<path d="M24.3514 7.31187H18.6875C17.7905 7.31187 17.0625 6.58391 17.0625 5.68689V0.015625L24.3514 7.31187Z" fill="#048274"/>
<path d="M7.89969 11.4997L6.39969 14.9997H5.42469L3.92969 11.4997H4.99969L5.94969 13.7797L6.91969 11.4997H7.89969Z" fill="white"/>
<path d="M8.10457 11.4997H9.09457V14.9997H8.10457V11.4997Z" fill="white"/>
<path d="M9.79891 11.4997H11.4539C11.8372 11.4997 12.1772 11.5714 12.4739 11.7147C12.7706 11.858 13.0006 12.0614 13.1639 12.3247C13.3272 12.588 13.4089 12.8964 13.4089 13.2497C13.4089 13.603 13.3272 13.9114 13.1639 14.1747C13.0006 14.438 12.7706 14.6414 12.4739 14.7847C12.1772 14.928 11.8372 14.9997 11.4539 14.9997H9.79891V11.4997ZM11.4139 14.2097C11.7139 14.2097 11.9539 14.1247 12.1339 13.9547C12.3172 13.7847 12.4089 13.5497 12.4089 13.2497C12.4089 12.9497 12.3172 12.7147 12.1339 12.5447C11.9539 12.3747 11.7139 12.2897 11.4139 12.2897H10.7889V14.2097H11.4139Z" fill="white"/>
<path d="M16.7398 14.2347V14.9997H13.9298V11.4997H16.6748V12.2647H14.9098V12.8547H16.4648V13.5947H14.9098V14.2347H16.7398Z" fill="white"/>
<path d="M19.0493 15.0697C18.6793 15.0697 18.3459 14.9914 18.0493 14.8347C17.7559 14.678 17.5243 14.4614 17.3543 14.1847C17.1876 13.908 17.1043 13.5964 17.1043 13.2497C17.1043 12.903 17.1876 12.5914 17.3543 12.3147C17.5243 12.038 17.7559 11.8214 18.0493 11.6647C18.3459 11.508 18.6793 11.4297 19.0493 11.4297C19.4193 11.4297 19.7509 11.508 20.0443 11.6647C20.3409 11.8214 20.5726 12.038 20.7393 12.3147C20.9093 12.5914 20.9943 12.903 20.9943 13.2497C20.9943 13.5964 20.9093 13.908 20.7393 14.1847C20.5726 14.4614 20.3409 14.678 20.0443 14.8347C19.7509 14.9914 19.4193 15.0697 19.0493 15.0697ZM19.0493 14.2497C19.2259 14.2497 19.3859 14.208 19.5293 14.1247C19.6726 14.0414 19.7859 13.9247 19.8693 13.7747C19.9526 13.6214 19.9943 13.4464 19.9943 13.2497C19.9943 13.053 19.9526 12.8797 19.8693 12.7297C19.7859 12.5764 19.6726 12.458 19.5293 12.3747C19.3859 12.2914 19.2259 12.2497 19.0493 12.2497C18.8726 12.2497 18.7126 12.2914 18.5693 12.3747C18.4259 12.458 18.3126 12.5764 18.2293 12.7297C18.1459 12.8797 18.1043 13.053 18.1043 13.2497C18.1043 13.4464 18.1459 13.6214 18.2293 13.7747C18.3126 13.9247 18.4259 14.0414 18.5693 14.1247C18.7126 14.208 18.8726 14.2497 19.0493 14.2497Z" fill="white"/>
</svg>
