<?xml version="1.0" encoding="utf-8"?>
<!-- Generator: Adobe Illustrator 17.0.0, SVG Export Plug-In . SVG Version: 6.00 Build 0)  -->
<!DOCTYPE svg PUBLIC "-//W3C//DTD SVG 1.1//EN" "http://www.w3.org/Graphics/SVG/1.1/DTD/svg11.dtd">
<svg version="1.1" id="Слой_1" xmlns="http://www.w3.org/2000/svg" xmlns:xlink="http://www.w3.org/1999/xlink" x="0px" y="0px"
	 width="1919.53px" height="488.917px" viewBox="95.5 0 1919.53 488.917" enable-background="new 95.5 0 1919.53 488.917"
	 xml:space="preserve">
<linearGradient id="SVGID_1_" gradientUnits="userSpaceOnUse" x1="1389.46" y1="-220.651" x2="1389.4601" y2="-174.651" gradientTransform="matrix(1 0 0 -1 -333.46 268.4)">
	<stop  offset="0" style="stop-color:#FFB800"/>
	<stop  offset="1" style="stop-color:#FFB800;stop-opacity:0"/>
</linearGradient>
<rect x="96" y="397.051" fill="url(#SVGID_1_)" width="1920" height="92"/>
<path d="M2040.73,480.051c0,0,1.67,2.978,1.8,5.186c0.14,2.209-3.41,3.815-6.42,4.183c-3.01,0.368-11.44,0-24.03,0
	c-12.58,0-31.85-0.903-31.85-0.903s0.33-3.28,2.81-3.28s3.55,0,4.89,0c1.33,0,3.84-0.702,3.84-2.609c0-1.941,0-3.581,0-3.581h3.72
	c0,0,0,1.807,0,3.212c0,1.406,0.2,3.715,3.71,3.715c3.52,0,18.87,0.401,20.82,0.401c1.94,0,3.21-1.974,3.21-3.48
	c0-1.472,0-2.576,0-2.576h4.11c0,0,0,2.61,0,4.015c0,1.405,1.41,2.175,3.22,2.175c1.8,0,4.04,0,5.65,0s3.58-3.413,1.54-5.923
	C2039.32,479.583,2040.73,480.051,2040.73,480.051z"/>
<path d="M1775.51,457.164c0,0-2.14,2.676-4.11,3.613c-1.98,0.937-4.82-1.706-6.29-4.383c-1.51-2.644-4.29-10.607-9.04-22.252
	c-4.72-11.678-11.14-29.847-11.14-29.847s3.18-0.937,4.12,1.372c0.93,2.308,1.33,3.279,1.84,4.517c0.5,1.238,2.07,3.312,3.88,2.576
	c1.77-0.736,3.34-1.338,3.34-1.338l1.38,3.48c0,0-1.68,0.669-2.98,1.204c-1.31,0.536-3.38,1.573-2.04,4.852
	c1.33,3.28,6.72,17.634,7.46,19.441c0.73,1.807,3.04,2.242,4.41,1.673c1.38-0.568,2.38-0.97,2.38-0.97l1.54,3.815
	c0,0-2.41,0.97-3.71,1.505c-1.31,0.536-1.48,2.109-0.81,3.782s1.51,3.747,2.11,5.253s4.52,2.041,6.06-0.803
	C1775.45,455.691,1775.51,457.164,1775.51,457.164z"/>
<path fill="#F4B39F" d="M1773.84,199.913c-0.27-0.937-0.43-0.837-1.34-1.305c-1.44-0.703-3.91-1.339-7.53-0.402
	c-6.22,1.606-12.65,4.317-12.65,4.317s-12.48,4.617-12.91,6.893c-0.4,2.275,2.17,1.171,2.17,1.171s8.74-4.986,9.61-4.216
	c0.33,0.267,0.33,0,0.33,0s-11.31,4.082-13.48,8.03c0,0-0.57,2.911,2.77,0.87c3.68-2.242,3.38-2.777,11.41-5.989l0.14,0.1
	c0,0-14.02,6.124-14.22,9.068c-0.2,2.945,4.55,0.402,4.55,0.402s7.06-4.886,10.97-6.09l-0.03,0.1c0,0-9.7,6.358-10.61,8.633
	c-0.9,2.275,2.21,2.108,3.48,1.339c1.31-0.77,8.37-7.161,10.31-7.362c0.9-0.1,7.06-1.305,6.86,0.234
	c-0.24,2.075-2.91,2.175-3.78,5.388c0,0.033-0.04,0.1-0.04,0.133c-1.34,4.551,2.91,3.38,2.91,3.38c0.27-0.033,0.64-0.569,1.08-2.409
	c0.26-1.104,5.95-6.592,6.39-7.429c1-1.873,3.34-3.848,3.61-5.052c0.07-0.368,1.31-3.079,1.44-3.313c0.5-0.97,0.3-1.037,0.03-2.008
	L1773.84,199.913z"/>
<path fill="#4F2E30" d="M1889.52,19.857c0,0-1.38-2.543,1.37-6.96c2.71-4.417-4.59-5.923-4.59-5.923s2.21-4.919-5.25-4.25
	c0,0-2.71-5.253-8.3-1.171c0,0-6.62-2.878-7.29,4.25c0,0-7.13-1.171-5.26,5.421c0,0-6.29,1.171-3.54,7.462c0,0-4.92,4.25-0.34,8.298
	c0,0-5.25,4.584-0.33,7.797c0,0-0.34,8.131,6.96,6.96c0,0,6.62,6.625,12.55,1.372c0,0,8.29,1.874,9.83-9.001
	C1886.81,23.237,1894.6,35.45,1889.52,19.857z"/>
<path fill="#F4A792" d="M1977.12,223.971c0,0,3.01,16.162,10.17,16.999c7.16,0.836,5.79-1.071,5.79-1.071s5.82,2.543,7.83-0.034
	c0.8-1.037,1.51-1.974,2.04-2.743c0.77-1.071,0.74-2.51-0.1-3.547l-4.95-6.258c0,0,2.41,3.715,6.49,4.651
	c0.97,0.235,1.54,0.302,2.78,0.201c5.79-0.468-1.94-2.643-3.45-5.354c-2.48-4.517-5.99-5.855-5.99-5.855l-8.6-1.841l-4.62-2.744
	C1984.58,216.409,1976.32,222.432,1977.12,223.971z"/>
<path fill="#DB6403" d="M1948.17,165.38c0,0,37.11,44.772,38.89,48.486c1.77,3.714-11.58,11.912-11.58,11.912l-49.93-42.964
	C1925.55,182.814,1937.23,161.532,1948.17,165.38z"/>
<path fill="#C37550" d="M2011.98,451.542c0,0-1.43,1.506-5.01-9.436c-3.55-10.942-12.49,7.127-12.49,7.127s1.28,7.361,1.01,9.67
	c-0.27,2.276,15.76,5.354,15.76,5.354L2011.98,451.542z"/>
<path fill="#C37550" d="M1786.69,400.647l11.21-4.082l6.09,11.209l-2.54,4.083l-10.95,8.633
	C1790.5,420.49,1782.61,413.864,1786.69,400.647z"/>
<path fill="#EDB312" d="M1936.09,240.802l-2.71-18.303l-29.17-4.752L1936.09,240.802z"/>
<path fill="#DDA20E" d="M1869.27,215.539c0,0-14.92,17.634,1.37,44.102l2.71,4.752c0,0-5.42,23.757,4.76,67.826
	c10.17,44.102,36.74,14.857,36.74,14.857c9.43-30.216,11.24-54.342,10.74-69.801C1925.55,277.275,1910.63,191.112,1869.27,215.539z"
	/>
<path fill="#DDA20E" d="M1877.07,335.096c-0.17,2.778-2.55,4.852-5.32,4.718c-9.67-0.468-31.52,1.54-47.95,25.665
	c-21.72,31.889-36.64,33.227-36.64,33.227l10.17,18.304c0,0,29.85-23.055,63.78-37.979c19.54-8.599,30.75-12.447,36.74-14.187
	c9.77-2.845,17.13-11.444,17.53-21.617c0.03-0.702,0.03-1.438,0-2.174c-0.67-14.924-37.98-11.545-37.98-11.545L1877.07,335.096z"/>
<path fill="#EDB312" d="M1874.59,219.287c0,0-17.3,38.146,20.45,54.609c0,0,22.38,38.681,61.73,65.785c0,0,8.84,4.082,7.47,15.593
	c-1.38,11.544-1.38,11.544-1.38,11.544l34.6-27.807c0,0-12.65-65.785-73.95-113.266
	C1879.65,191.715,1874.59,219.287,1874.59,219.287z"/>
<path fill="#EDB312" d="M1965.61,344.432c0,0-12.22,38.681,15.59,75.288l12.21,31.22l16.3-5.421c0,0-10.84-44.771-12.21-106.508
	C1997.46,339.011,1980.53,323.385,1965.61,344.432z"/>
<path fill="#0074F0" d="M1869.27,215.539c0,0,20.61-21.114,15.76-44.771c-3.98-19.542-6.56-37.678-7.96-49.088
	c-1.31-10.708,3.24-23.892,11.24-31.153c7.8-7.06,18.77-5.722,36.14-1.539c5.82,1.405,11.18,4.584,14.86,9.336l13.92,27.639
	c0,0,8.46,14.756-0.17,25.431c-11.04,13.652-6.09,62.238-14.25,76.994C1938.81,228.422,1885.7,227.083,1869.27,215.539z"/>
<path fill="#F4B39F" d="M1924.48,10.019c0,0,16.1,5.789,19.31,20.177c0,0,0.24,3.681,0.44,5.086c0.7,4.584,4.55,6.793,7.22,9.235
	c1.48,1.338-0.3,3.815-0.8,4.45c-0.3,0.368-1.61,0.803-2.21,1.004c0,0-0.33,0.636,1.41,2.576c2.14,2.409-3.58,4.183-3.75,3.748
	l2.88,1.606c0,0,1.27,1.305-0.57,2.644c-2.24,1.673-0.67,3.848-0.74,5.622c-0.13,3.38-11.21,7.93-22.35,2.242
	c-11.14-5.655-6.93-6.592-6.93-6.592l-2.54-9.369C1915.88,52.515,1892.23,18.92,1924.48,10.019z"/>
<path fill="#4F2E30" d="M1923.41,56.798c0,0-20.21,16.463-32.39-4.283c-12.14-20.746-1.47-38.28,11.35-42.998
	c8.6-3.179,31.75-4.383,32.69,6.023C1936.06,26.215,1923.41,56.798,1923.41,56.798z"/>
<path fill="#F4B39F" d="M1933.35,64.494l-7.49,25.564l-29.89-3.179l12.95-32.692L1933.35,64.494z"/>
<path fill="#4F2E30" d="M1904.54,62.654c0,0-17.93-12.448-10.31-26.702c7.63-14.254,21.85,21.884,17.1,25.096
	C1906.62,64.26,1904.54,62.654,1904.54,62.654z"/>
<path fill="#331B1E" d="M1934.89,41.473c0,0,4.05-3.647,5.76-4.517c0,0,1.5,2.911-0.21,4.919L1934.89,41.473z"/>
<path fill="#331B1E" d="M1932.68,37.357c0,0,5.62-5.454,8.97-3.246c0,0,1.6-1.941-0.2-2.978c-1.84-1.037-7.56,2.543-9.57,5.588
	L1932.68,37.357z"/>
<path fill="#F4B39F" d="M1934.92,16.076c0,0,0.91,4.885-10.07,16.128c-2.34,2.376-2.78,10.574-2.07,12.381
	c0.46,1.238-0.34,2.309-0.34,2.309s-3.08-4.852-9.64-2.576c-6.55,2.275,0.44,10.54,3.08,14.957c2.65,4.417-0.63-0.669-6.19,4.283
	l-0.43,10.34l24.89-15.191l-2-20.345C1935.66,28.657,1937.7,20.292,1934.92,16.076z"/>
<path fill="#1EDEF2" d="M1890.22,19.221c0,0-7.56,3.848-5.49,14.823l0.64,1.941C1885.33,35.986,1889.18,21.999,1890.22,19.221z"/>
<path fill="#F2810B" d="M1902.97,89.925c0,0-16.9-4.785-37.95,18.002c-21.04,22.787-39.45,53.237-39.45,53.237l19.21,10.34
	c0,0,56.11-35.268,65.05-51.598C1918.79,103.544,1912.67,94.509,1902.97,89.925z"/>
<path fill="#F2810B" d="M1766.71,194.96c0,0,50.56-39.216,61.31-41.659c10.74-2.443,23.02,4.082,23.02,4.082
	s3.94,18.103-39.09,35.135c-32.92,13.016-36.37,14.053-36.37,14.053L1766.71,194.96z"/>
<path fill="#DD9280" d="M1930.31,74.901l1.13-4.316c0,0-12.71-2.409-15.89-9.804C1915.55,60.78,1916.19,71.354,1930.31,74.901z"/>
<path fill="#4F2E30" d="M1890.52,20.526c0,0-2.21-3.045,2.71-5.923c4.92-2.878,1.87-5.253,7.63-5.421
	c5.75-0.167,4.08-4.25,10.84-2.543c6.79,1.707,5.76-3.212,11.18,0.167c5.42,3.38,4.58-2.208,8.63,2.543
	c4.08,4.752,5.69,2.108,3.35,6.759C1932.58,20.693,1890.52,20.526,1890.52,20.526z"/>
<path fill="#4F2E30" d="M1886.17,33.442c0,0-3.55,7.83,0,10.54c3.55,2.71-0.03,5.688,3.85,8.231c3.91,2.543-0.34,5.923,4.41,6.625
	c4.76,0.669,0.34,3.38,5.59,3.714c5.26,0.335,3.21,2.71,6.96,0.669C1910.73,61.215,1886.17,33.442,1886.17,33.442z"/>
<path fill="#E8D3AC" d="M1988.29,439.864c0,0,10.95-1.841,14.63-3.848c3.64-2.008,8.4-1.105,8.4-1.105s0.73,19.174,8.03,26.468
	c7.29,7.295,8.03,7.496,8.03,7.496s4.28,1.974,10.94,2.175c1,0.033,1.94,0.435,2.64,1.137c1.04,1.004,2.08,2.778,1.57,5.454
	l-0.53,2.376c0,0-17.17,2.744-23.19,1.473c0,0-8.6-3.112-13.68-5.655l-19.18-1.439c0,0-2.37-10.574,1.44-17.166
	C1991.21,450.638,1988.29,439.864,1988.29,439.864z"/>
<path fill="#696D7F" d="M2014.33,457.398c0,0.401-0.34,0.703-0.71,0.703c-0.4,0-0.7-0.335-0.7-0.703c0-0.402,0.34-0.703,0.7-0.703
	C2013.99,456.695,2014.33,456.996,2014.33,457.398z"/>
<path fill="#696D7F" d="M2013.22,454.018c0,0.402-0.33,0.703-0.7,0.703c-0.4,0-0.7-0.335-0.7-0.703c0-0.401,0.33-0.703,0.7-0.703
	S2013.22,453.65,2013.22,454.018z"/>
<path fill="#696D7F" d="M2012.35,450.906c0,0.402-0.33,0.703-0.7,0.703c-0.4,0-0.7-0.335-0.7-0.703c0-0.368,0.33-0.703,0.7-0.703
	C2012.05,450.17,2012.35,450.505,2012.35,450.906z"/>
<path fill="#696D7F" d="M2011.78,447.895c0,0.401-0.33,0.702-0.7,0.702c-0.4,0-0.7-0.334-0.7-0.702c0-0.402,0.33-0.703,0.7-0.703
	S2011.78,447.493,2011.78,447.895z"/>
<path fill="#696D7F" d="M2011.28,445.251c0,0.402-0.33,0.703-0.7,0.703c-0.4,0-0.7-0.335-0.7-0.703c0-0.368,0.33-0.703,0.7-0.703
	S2011.28,444.85,2011.28,445.251z"/>
<path fill="#696D7F" d="M2010.61,441.47c0,0.468-0.37,0.836-0.83,0.836c-0.47,0-0.84-0.368-0.84-0.836
	c0-0.469,0.37-0.837,0.84-0.837C2010.21,440.633,2010.61,441.001,2010.61,441.47z"/>
<path fill="#696D7F" d="M2010.28,438.525c0,0.469-0.37,0.837-0.84,0.837c-0.47,0-0.84-0.368-0.84-0.837
	c0-0.468,0.37-0.836,0.84-0.836C2009.91,437.722,2010.28,438.091,2010.28,438.525z"/>
<path fill="#696D7F" d="M2015.77,460.141c0,0.402-0.34,0.703-0.71,0.703c-0.4,0-0.7-0.335-0.7-0.703c0-0.401,0.33-0.702,0.7-0.702
	C2015.43,459.405,2015.77,459.74,2015.77,460.141z"/>
<path fill="#696D7F" d="M2017.37,462.685c0,0.401-0.33,0.702-0.7,0.702c-0.4,0-0.7-0.334-0.7-0.702c0-0.402,0.33-0.703,0.7-0.703
	C2017.07,461.982,2017.37,462.317,2017.37,462.685z"/>
<path fill="#696D7F" d="M2019.38,465.194c0,0.402-0.33,0.703-0.7,0.703c-0.4,0-0.71-0.335-0.71-0.703c0-0.402,0.34-0.703,0.71-0.703
	C2019.08,464.458,2019.38,464.792,2019.38,465.194z"/>
<path fill="#696D7F" d="M2021.69,467.871c0,0.402-0.34,0.703-0.71,0.703c-0.4,0-0.7-0.335-0.7-0.703s0.34-0.702,0.7-0.702
	C2021.35,467.135,2021.69,467.47,2021.69,467.871z"/>
<path fill="#696D7F" d="M2024.67,469.845c0,0.402-0.34,0.703-0.71,0.703c-0.4,0-0.7-0.334-0.7-0.703c0-0.401,0.34-0.702,0.7-0.702
	C2024.33,469.143,2024.67,469.444,2024.67,469.845z"/>
<path fill="#696D7F" d="M2027.48,471.518c0,0.402-0.34,0.703-0.71,0.703c-0.4,0-0.7-0.335-0.7-0.703c0-0.401,0.34-0.702,0.7-0.702
	C2027.14,470.816,2027.48,471.117,2027.48,471.518z"/>
<path fill="#696D7F" d="M2030.49,472.89c0,0.402-0.34,0.703-0.7,0.703c-0.4,0-0.71-0.335-0.71-0.703c0-0.401,0.34-0.703,0.71-0.703
	C2030.15,472.187,2030.49,472.489,2030.49,472.89z"/>
<path fill="#696D7F" d="M2033.27,473.626c0,0.402-0.34,0.703-0.71,0.703c-0.4,0-0.7-0.335-0.7-0.703c0-0.401,0.34-0.702,0.7-0.702
	C2032.93,472.924,2033.27,473.258,2033.27,473.626z"/>
<path fill="#F4D8A8" d="M1985.68,473.058c0,0,9.07,1.171,17.71,1.639c0.93,0.034,1.84,0.268,2.67,0.636
	c3.05,1.372,10.51,5.053,13.45,5.622c3.72,0.736,21.69-0.937,22.76-2.075l-0.17,0.803c0,0-13.69,2.677-22.72,1.84l-14.56-5.788
	l-18.9-1.473C1985.92,474.296,1985.92,474.463,1985.68,473.058z"/>
<path fill="#F4D8A8" d="M2032.76,475.768c-0.1,0-0.16,0-0.26,0c-2.01-0.167-7.6-2.275-7.83-2.376
	c-0.07-0.033-5.93-3.179-10.44-9.704c-2.81-4.015-3.95-8.767-4.82-12.213c-0.54-2.175-0.97-3.882-1.57-4.584
	c-0.24-0.268-0.44-0.435-0.57-0.603c-0.94-0.936-0.81-1.137-3.01-9.068l-0.31-1.137l0.17-0.034l0.3,1.138
	c2.18,7.897,2.18,7.897,3.11,8.8c0.17,0.168,0.37,0.335,0.61,0.603c0.67,0.736,1.07,2.476,1.6,4.651
	c0.84,3.446,2.01,8.131,4.79,12.146c4.52,6.492,10.3,9.604,10.37,9.637c0.03,0.034,5.66,2.376,7.63,2.543
	c1.81,0.167,2.58-1.338,3.01-2.677c0.37-1.071,0.47-1.974,0.47-1.974l0.17,0.033c0,0-0.14,0.904-0.47,2.008
	C2035.41,473.727,2034.74,475.768,2032.76,475.768z"/>
<path d="M2010.58,446.121c-0.47,0-0.87-0.401-0.87-0.87c0-0.468,0.4-0.87,0.87-0.87c0.47,0,0.87,0.402,0.87,0.87
	C2011.45,445.72,2011.05,446.121,2010.58,446.121z M2010.58,444.649c-0.34,0-0.6,0.268-0.6,0.602c0,0.335,0.26,0.603,0.6,0.603
	c0.33,0,0.6-0.268,0.6-0.603C2011.15,444.917,2010.88,444.649,2010.58,444.649z"/>
<path d="M2011.08,448.798c-0.5,0-0.9-0.402-0.9-0.903c0-0.502,0.4-0.904,0.9-0.904s0.9,0.402,0.9,0.87
	C2011.98,448.396,2011.58,448.798,2011.08,448.798z M2011.08,447.326c-0.33,0-0.6,0.267-0.6,0.602c0,0.335,0.27,0.602,0.6,0.602
	c0.34,0,0.6-0.267,0.6-0.602C2011.72,447.593,2011.45,447.326,2011.08,447.326z"/>
<path d="M2011.65,451.776c-0.5,0-0.9-0.401-0.9-0.87c0-0.502,0.4-0.903,0.9-0.903s0.9,0.401,0.9,0.903
	C2012.55,451.375,2012.15,451.776,2011.65,451.776z M2011.65,450.27c-0.33,0-0.6,0.268-0.6,0.603c0,0.334,0.27,0.602,0.6,0.602
	c0.34,0,0.6-0.268,0.6-0.602C2012.29,450.572,2011.99,450.27,2011.65,450.27z"/>
<path d="M2012.52,454.955c-0.5,0-0.9-0.401-0.9-0.903c0-0.502,0.4-0.904,0.9-0.904s0.9,0.402,0.9,0.904
	C2013.39,454.554,2012.99,454.955,2012.52,454.955z M2012.52,453.45c-0.33,0-0.6,0.267-0.6,0.602c0,0.334,0.27,0.602,0.6,0.602
	c0.34,0,0.6-0.268,0.6-0.602C2013.12,453.717,2012.86,453.45,2012.52,453.45z"/>
<path d="M2013.62,458.334c-0.5,0-0.9-0.401-0.9-0.869c0-0.502,0.4-0.904,0.9-0.904c0.51,0,0.91,0.402,0.91,0.904
	C2014.49,457.933,2014.09,458.334,2013.62,458.334z M2013.62,456.829c-0.33,0-0.6,0.267-0.6,0.602s0.27,0.602,0.6,0.602
	c0.34,0,0.61-0.267,0.61-0.602S2013.96,456.829,2013.62,456.829z"/>
<path d="M2015.03,461.011c-0.5,0-0.9-0.401-0.9-0.869c0-0.502,0.4-0.904,0.9-0.904s0.9,0.402,0.9,0.904
	C2015.93,460.61,2015.53,461.011,2015.03,461.011z M2015.03,459.506c-0.33,0-0.6,0.267-0.6,0.602s0.27,0.602,0.6,0.602
	c0.34,0,0.6-0.267,0.6-0.602S2015.37,459.506,2015.03,459.506z"/>
<path d="M2016.67,463.621c-0.5,0-0.9-0.401-0.9-0.903c0-0.502,0.4-0.904,0.9-0.904s0.9,0.402,0.9,0.904
	C2017.57,463.22,2017.17,463.621,2016.67,463.621z M2016.67,462.149c-0.34,0-0.6,0.268-0.6,0.602c0,0.335,0.26,0.603,0.6,0.603
	c0.33,0,0.6-0.268,0.6-0.603C2017.27,462.417,2017,462.149,2016.67,462.149z"/>
<path d="M2018.71,466.031c-0.5,0-0.9-0.402-0.9-0.904c0-0.502,0.4-0.903,0.9-0.903s0.9,0.401,0.9,0.87
	C2019.61,465.629,2019.21,466.031,2018.71,466.031z M2018.71,464.525c-0.33,0-0.6,0.268-0.6,0.602c0,0.335,0.27,0.603,0.6,0.603
	c0.33,0,0.6-0.268,0.6-0.603C2019.35,464.793,2019.08,464.525,2018.71,464.525z"/>
<path d="M2020.95,468.741c-0.5,0-0.9-0.401-0.9-0.903c0-0.502,0.4-0.904,0.9-0.904s0.91,0.402,0.91,0.904
	C2021.86,468.34,2021.45,468.741,2020.95,468.741z M2020.95,467.235c-0.33,0-0.6,0.268-0.6,0.603c0,0.334,0.27,0.602,0.6,0.602
	c0.34,0,0.6-0.268,0.6-0.602C2021.59,467.503,2021.29,467.235,2020.95,467.235z"/>
<path d="M2023.86,470.749c-0.5,0-0.9-0.402-0.9-0.904c0-0.502,0.4-0.903,0.9-0.903c0.51,0,0.91,0.401,0.91,0.87
	C2024.73,470.347,2024.33,470.749,2023.86,470.749z M2023.86,469.243c-0.33,0-0.6,0.268-0.6,0.602c0,0.335,0.27,0.603,0.6,0.603
	c0.34,0,0.61-0.268,0.61-0.603C2024.47,469.511,2024.2,469.243,2023.86,469.243z"/>
<path d="M2026.71,472.355c-0.5,0-0.91-0.402-0.91-0.903c0-0.502,0.41-0.904,0.87-0.904c0.51,0,0.91,0.402,0.91,0.87
	C2027.61,471.953,2027.21,472.355,2026.71,472.355z M2026.71,470.849c-0.34,0-0.6,0.268-0.6,0.603c0,0.334,0.26,0.602,0.6,0.602
	c0.33,0,0.6-0.268,0.6-0.602C2027.34,471.117,2027.08,470.849,2026.71,470.849z"/>
<path d="M2029.75,473.76c-0.5,0-0.9-0.401-0.9-0.903c0-0.502,0.4-0.904,0.9-0.904s0.91,0.402,0.91,0.87
	C2030.66,473.359,2030.25,473.76,2029.75,473.76z M2029.75,472.255c-0.33,0-0.6,0.267-0.6,0.602s0.27,0.602,0.6,0.602
	c0.34,0,0.6-0.267,0.6-0.602C2030.35,472.556,2030.09,472.255,2029.75,472.255z"/>
<path d="M2032.56,474.463c-0.5,0-0.9-0.402-0.9-0.904c0-0.501,0.4-0.903,0.9-0.903c0.51,0,0.91,0.402,0.91,0.903
	C2033.43,474.061,2033.03,474.463,2032.56,474.463z M2032.56,472.957c-0.33,0-0.6,0.268-0.6,0.602c0,0.335,0.27,0.603,0.6,0.603
	c0.34,0,0.61-0.268,0.61-0.603C2033.17,473.258,2032.9,472.957,2032.56,472.957z"/>
<path fill="#FBF6E2" d="M2033.83,470.515c0.14,0.067,0.24,0.201,0.17,0.368c-0.23,0.703-0.9,2.811-1.14,2.944
	c-0.3,0.134-0.9,0.067-0.7-0.836c0.17-0.736,0.64-1.941,0.8-2.376c0.04-0.1,0.14-0.167,0.24-0.201
	C2033.43,470.381,2033.63,470.414,2033.83,470.515z"/>
<path fill="#FBF6E2" d="M2027.34,471.451c0,0-0.3,0.435-0.73,0.268c-0.44-0.201-0.37-0.636-0.07-1.272
	c0.27-0.535,0.67-1.271,0.8-1.505c0.04-0.034,0.07-0.067,0.14-0.067c0.33,0,0.63,0.167,0.9,0.334c0.07,0.034,0.07,0.134,0.03,0.201
	L2027.34,471.451z"/>
<path fill="#FBF6E2" d="M2030.59,469.879c-0.07,0-0.13,0.067-0.17,0.134l-0.9,2.275c0,0-0.24,0.569,0.1,0.836
	c0.37,0.302,0.77-0.033,0.77-0.033l1-2.777c0.04-0.101,0-0.234-0.13-0.301C2031.12,469.912,2030.86,469.812,2030.59,469.879z"/>
<path fill="#FFE6B3" d="M1989.33,448.028c0,0,6.63,0.101,7.56-2.71c0.94-2.811,1.41-7.797,1.41-7.797s-6.49,2.008-10.01,2.376
	C1988.29,439.864,1989.37,444.782,1989.33,448.028z"/>
<path fill="#A07028" d="M1985.92,474.396c0,0,1.17,3.882,1.1,6.826c0,0.067,0.07,0.134,0.14,0.134l11.77,0.167l0.17-3.848
	c0.04-0.702,0.37-1.338,0.94-1.74c0.23-0.167,0.53-0.267,0.84-0.234L1985.92,474.396z"/>
<path fill="#A07028" d="M2023.26,482.025c-1.77,0-2.98-0.134-3.95-0.267c-2.34-0.368-12.18-4.718-14.12-5.555
	c-0.23-0.1-0.5-0.167-0.77-0.201l-18.5-1.405c-0.1,0-0.17-0.101-0.17-0.201s0.03-0.301,0.13-0.301l18.54,1.439
	c0.3,0.033,0.6,0.1,0.91,0.234c1.94,0.87,11.77,5.287,14.05,5.655c2.78,0.435,7.46,0.402,22.62-1.707c0.1,0,0.1,0.168,0.13,0.268
	c0,0.101,0,0.234-0.1,0.268C2032.09,481.59,2026.64,482.025,2023.26,482.025z"/>
<path fill="#FBF6E2" d="M2024.4,470.046c0,0-1.11,0.168-0.8-0.736c0.26-0.736,1.17-1.74,1.47-2.075c0.07-0.1,0.2-0.133,0.3-0.1
	c0.2,0.034,0.43,0.167,0.6,0.569c0.04,0.1,0.04,0.234-0.03,0.335L2024.4,470.046z"/>
<path fill="#FBF6E2" d="M2017.24,463.019c0,0-1.11,0.067-0.7-0.836c0.33-0.703,1.3-1.606,1.67-1.941c0.1-0.067,0.2-0.1,0.33-0.067
	c0.17,0.067,0.44,0.234,0.57,0.636c0.04,0.1,0,0.234-0.07,0.301L2017.24,463.019z"/>
<path fill="#FBF6E2" d="M2015.36,460.543c0,0-1.1-0.234-0.5-0.97c0.5-0.603,1.68-1.238,2.11-1.439c0.1-0.067,0.23-0.034,0.34,0.033
	c0.16,0.101,0.36,0.335,0.36,0.736c0,0.101-0.06,0.235-0.16,0.302L2015.36,460.543z"/>
<path fill="#FBF6E2" d="M2013.86,457.966c0,0-1.04-0.368-0.34-1.037c0.57-0.535,1.84-0.97,2.28-1.138c0.1-0.033,0.23,0,0.33,0.067
	c0.14,0.134,0.31,0.368,0.27,0.803c0,0.101-0.1,0.201-0.2,0.268L2013.86,457.966z"/>
<path fill="#FBF6E2" d="M2012.96,454.453c-0.24,0.067-0.54,0-0.71-0.167c-0.16-0.201-0.26-0.469,0.14-0.77
	c0.63-0.468,1.67-0.736,2.14-0.836c0.1-0.034,0.23,0,0.3,0.1c0.13,0.134,0.27,0.402,0.2,0.803c-0.03,0.101-0.1,0.201-0.23,0.234
	L2012.96,454.453z"/>
<path fill="#FBF6E2" d="M2012.05,451.375c-0.23,0.067-0.53,0-0.7-0.201c-0.17-0.201-0.24-0.469,0.17-0.77
	c0.63-0.468,1.7-0.669,2.17-0.736c0.1-0.033,0.23,0.034,0.3,0.1c0.14,0.134,0.27,0.402,0.17,0.804c-0.03,0.1-0.1,0.2-0.24,0.234
	L2012.05,451.375z"/>
<path fill="#FBF6E2" d="M2011.42,448.43c-0.27,0.067-0.54-0.067-0.67-0.268c-0.14-0.2-0.2-0.502,0.23-0.736
	c0.7-0.401,1.57-0.502,2.04-0.535c0.14,0,0.24,0.033,0.3,0.134c0.1,0.167,0.24,0.435,0.07,0.836c-0.03,0.101-0.13,0.201-0.23,0.201
	L2011.42,448.43z"/>
<path fill="#FBF6E2" d="M2010.98,445.686c-0.27,0.067-0.53-0.067-0.67-0.268c-0.13-0.201-0.2-0.502,0.24-0.736
	c0.7-0.401,1.5-0.368,1.97-0.401c0.13,0,0.23,0.033,0.3,0.133c0.1,0.168,0.24,0.435,0.07,0.837c-0.03,0.1-0.14,0.201-0.24,0.201
	L2010.98,445.686z"/>
<path fill="#FBF6E2" d="M2020.75,467.302c0,0-0.37,0.703,0.57,0.87c0.1,0.034,0.24-0.033,0.3-0.1l2.01-2.175
	c0.13-0.167,0.2-0.402,0.1-0.602c-0.07-0.168-0.2-0.301-0.47-0.435c-0.23-0.101-0.5-0.034-0.63,0.167
	C2022.06,465.663,2020.75,467.302,2020.75,467.302z"/>
<path fill="#FBF6E2" d="M2020.18,462.584l-1.74,2.108c0,0-0.06,1.138,0.91,0.736l1.8-2.074c0.07-0.067,0.17-0.168,0.14-0.268
	c-0.1-0.301-0.17-0.669-0.74-0.636C2020.38,462.417,2020.25,462.484,2020.18,462.584z"/>
<path fill="#FBF6E2" d="M1989.26,446.255c-1.87,0-3.81-0.435-5.58-1.305c-1.61-0.803-3.38-0.803-5.26-0.033
	c-0.23,0.1-0.5,0-0.6-0.235c-0.1-0.234,0-0.501,0.24-0.602c2.1-0.87,4.14-0.87,5.98,0.034c4.25,2.074,9.17,1.472,12.59-1.573
	c0.13-0.1,0.26-0.234,0.36-0.335c7.8-7.16,12.72-3.948,12.95-3.814c0.2,0.134,0.27,0.435,0.14,0.636
	c-0.14,0.2-0.44,0.267-0.64,0.133c-0.03,0-1.14-0.736-3.14-0.669c-1.88,0.067-4.89,0.904-8.67,4.384
	c-0.13,0.133-0.27,0.234-0.4,0.368C1995.05,445.251,1992.21,446.255,1989.26,446.255z"/>
<path fill="#FBF6E2" d="M1993.31,452.546c-4.18,0-7.59-2.343-7.76-2.477c-0.2-0.133-0.27-0.435-0.1-0.635
	c0.13-0.201,0.44-0.268,0.64-0.101c0.03,0.034,4.51,3.112,9.2,2.108c2.71-0.568,4.98-2.375,6.76-5.32
	c3.81-6.291,7.66-5.253,7.83-5.186c0.23,0.066,0.37,0.334,0.3,0.568c-0.07,0.235-0.34,0.368-0.57,0.301
	c-0.13-0.033-3.38-0.836-6.79,4.785c-1.94,3.213-4.42,5.12-7.36,5.756C1994.72,452.479,1994.02,452.546,1993.31,452.546z"/>
<path fill="#E8D3AC" d="M1795.56,394.423c0,0,5.45,9.671,8.6,12.414c3.14,2.744,3.91,7.529,3.91,7.529s-17.77,7.228-22.15,16.597
	c-4.38,9.369-4.28,10.106-4.28,10.106s-0.4,4.684,1.7,11.042c0.3,0.937,0.24,1.974-0.16,2.844c-0.61,1.305-1.88,2.911-4.59,3.346
	l-2.41,0.301c0,0-8.43-15.191-9.3-21.281c0,0,0-9.135,0.64-14.79l-5.19-18.504c0,0,9.14-5.856,16.63-4.484
	C1786.46,400.848,1795.56,394.423,1795.56,394.423z"/>
<path fill="#696D7F" d="M1787.99,424.873c-0.36,0.134-0.77-0.067-0.9-0.435c-0.13-0.368,0.07-0.769,0.44-0.903
	c0.36-0.134,0.77,0.067,0.9,0.435C1788.53,424.338,1788.36,424.74,1787.99,424.873z"/>
<path fill="#696D7F" d="M1790.77,422.698c-0.37,0.134-0.77-0.067-0.9-0.435c-0.14-0.368,0.07-0.769,0.43-0.903
	c0.37-0.134,0.77,0.067,0.91,0.435C1791.34,422.163,1791.14,422.564,1790.77,422.698z"/>
<path fill="#696D7F" d="M1793.42,420.824c-0.37,0.134-0.77-0.067-0.91-0.435c-0.13-0.368,0.07-0.769,0.44-0.903
	s0.77,0.067,0.9,0.435C1793.98,420.289,1793.78,420.691,1793.42,420.824z"/>
<path fill="#696D7F" d="M1796.06,419.252c-0.37,0.133-0.77-0.067-0.9-0.435c-0.14-0.369,0.06-0.77,0.43-0.904s0.77,0.067,0.9,0.435
	C1796.63,418.716,1796.43,419.118,1796.06,419.252z"/>
<path fill="#696D7F" d="M1798.37,417.88c-0.37,0.133-0.77-0.067-0.91-0.435c-0.13-0.368,0.07-0.77,0.44-0.904
	c0.37-0.134,0.77,0.067,0.9,0.435C1798.94,417.344,1798.74,417.746,1798.37,417.88z"/>
<path fill="#696D7F" d="M1801.68,415.939c-0.43,0.167-0.9-0.067-1.07-0.502s0.07-0.903,0.5-1.071c0.44-0.167,0.91,0.067,1.07,0.502
	C1802.35,415.303,1802.12,415.772,1801.68,415.939z"/>
<path fill="#696D7F" d="M1804.32,414.667c-0.43,0.168-0.9-0.066-1.07-0.501c-0.16-0.435,0.07-0.904,0.5-1.071
	c0.44-0.168,0.91,0.067,1.08,0.502C1804.99,414.032,1804.76,414.5,1804.32,414.667z"/>
<path fill="#696D7F" d="M1785.89,427.148c-0.37,0.134-0.77-0.066-0.91-0.435c-0.13-0.368,0.07-0.769,0.44-0.903
	s0.77,0.067,0.9,0.435C1786.46,426.613,1786.25,427.015,1785.89,427.148z"/>
<path fill="#696D7F" d="M1784.05,429.558c-0.37,0.134-0.77-0.067-0.91-0.435c-0.13-0.368,0.07-0.77,0.44-0.904s0.77,0.067,0.9,0.435
	C1784.61,429.022,1784.41,429.424,1784.05,429.558z"/>
<path fill="#696D7F" d="M1782.41,432.301c-0.37,0.134-0.77-0.066-0.91-0.435c-0.13-0.368,0.07-0.769,0.44-0.903
	c0.37-0.134,0.77,0.067,0.9,0.435C1782.94,431.766,1782.77,432.168,1782.41,432.301z"/>
<path fill="#696D7F" d="M1780.67,435.347c-0.37,0.133-0.77-0.067-0.91-0.435c-0.13-0.368,0.07-0.77,0.44-0.904s0.77,0.067,0.9,0.435
	C1781.23,434.811,1781.03,435.213,1780.67,435.347z"/>
<path fill="#696D7F" d="M1779.83,438.86c-0.37,0.134-0.77-0.067-0.9-0.435c-0.14-0.368,0.06-0.77,0.43-0.903
	c0.37-0.134,0.77,0.067,0.9,0.435C1780.4,438.291,1780.2,438.726,1779.83,438.86z"/>
<path fill="#696D7F" d="M1779.19,442.039c-0.36,0.134-0.77-0.067-0.9-0.435c-0.13-0.368,0.07-0.77,0.44-0.903
	c0.36-0.134,0.77,0.066,0.9,0.435C1779.76,441.504,1779.56,441.905,1779.19,442.039z"/>
<path fill="#696D7F" d="M1778.93,445.352c-0.37,0.133-0.77-0.067-0.91-0.435c-0.13-0.368,0.07-0.77,0.44-0.904s0.77,0.067,0.9,0.435
	C1779.5,444.816,1779.29,445.218,1778.93,445.352z"/>
<path fill="#696D7F" d="M1779.16,448.229c-0.37,0.134-0.77-0.067-0.9-0.435c-0.14-0.368,0.06-0.769,0.43-0.903
	c0.37-0.134,0.77,0.067,0.91,0.435C1779.73,447.66,1779.56,448.095,1779.16,448.229z"/>
<path fill="#F4D8A8" d="M1763.5,403.291c0,0,1.97,8.9,4.48,17.199c0.27,0.87,0.37,1.807,0.31,2.743
	c-0.24,3.313-1.18,11.578-0.71,14.556c0.57,3.748,8.27,20.044,9.71,20.679l-0.81,0.134c0,0-7.16-11.946-9.5-20.746l0.5-15.66
	l-5.05-18.27C1762.4,403.926,1762.23,404.027,1763.5,403.291z"/>
<path fill="#F4D8A8" d="M1777.02,448.464c-0.03-0.101-0.07-0.168-0.07-0.268c-0.5-1.941-0.23-7.863-0.23-8.098
	c0-0.067,0.97-6.658,5.55-13.15c2.85-4.015,6.9-6.726,9.84-8.7c1.87-1.238,3.31-2.208,3.78-3.045c0.17-0.301,0.27-0.535,0.37-0.77
	c0.53-1.204,0.53-1.204,7.29-5.989l0.97-0.669l0.1,0.134l-0.97,0.669c-6.69,4.751-6.69,4.751-7.22,5.922
	c-0.1,0.201-0.2,0.435-0.37,0.77c-0.47,0.87-1.94,1.84-3.82,3.112c-2.94,1.974-6.96,4.651-9.8,8.633
	c-4.55,6.458-5.52,12.983-5.52,13.05c0,0.067-0.3,6.123,0.2,8.031c0.47,1.773,2.14,1.94,3.55,1.907c1.13-0.034,2-0.234,2-0.234
	l0.04,0.167c0,0-0.91,0.201-2.04,0.234C1779.83,450.271,1777.69,450.337,1777.02,448.464z"/>
<path d="M1797.3,417.512c-0.17-0.435,0.06-0.937,0.53-1.104c0.44-0.168,0.94,0.067,1.11,0.535c0.16,0.435-0.07,0.937-0.54,1.104
	C1797.97,418.181,1797.46,417.947,1797.3,417.512z M1798.67,417.01c-0.1-0.301-0.47-0.468-0.77-0.368c-0.3,0.1-0.47,0.468-0.37,0.77
	c0.1,0.301,0.47,0.468,0.77,0.368C1798.64,417.646,1798.77,417.311,1798.67,417.01z"/>
<path d="M1794.95,418.917c-0.16-0.468,0.07-0.97,0.54-1.138c0.47-0.167,0.97,0.067,1.14,0.536c0.16,0.468-0.07,0.97-0.54,1.137
	C1795.62,419.62,1795.12,419.386,1794.95,418.917z M1796.36,418.415c-0.1-0.334-0.47-0.468-0.77-0.368
	c-0.3,0.1-0.47,0.469-0.37,0.77c0.1,0.301,0.47,0.468,0.77,0.368C1796.33,419.084,1796.49,418.716,1796.36,418.415z"/>
<path d="M1792.34,420.456c-0.16-0.468,0.07-0.97,0.54-1.137c0.47-0.168,0.97,0.066,1.14,0.535c0.16,0.468-0.07,0.97-0.54,1.138
	C1793.01,421.159,1792.51,420.925,1792.34,420.456z M1793.75,419.954c-0.1-0.334-0.47-0.468-0.77-0.368
	c-0.33,0.101-0.47,0.469-0.37,0.77c0.1,0.334,0.47,0.468,0.77,0.368C1793.72,420.624,1793.88,420.255,1793.75,419.954z"/>
<path d="M1789.67,422.33c-0.17-0.468,0.06-0.97,0.53-1.138c0.47-0.167,0.97,0.067,1.14,0.536c0.17,0.468-0.07,0.97-0.54,1.138
	C1790.34,423.033,1789.83,422.799,1789.67,422.33z M1791.07,421.828c-0.1-0.334-0.47-0.468-0.77-0.368
	c-0.33,0.101-0.47,0.469-0.37,0.77c0.11,0.301,0.47,0.468,0.77,0.368C1791.04,422.497,1791.21,422.163,1791.07,421.828z"/>
<path d="M1786.89,424.538c-0.17-0.468,0.07-0.97,0.54-1.137c0.46-0.168,0.97,0.067,1.13,0.535c0.17,0.469-0.06,0.97-0.53,1.138
	C1787.56,425.241,1787.06,425.007,1786.89,424.538z M1788.3,424.003c-0.11-0.335-0.47-0.468-0.77-0.368
	c-0.31,0.1-0.47,0.468-0.37,0.77c0.1,0.301,0.47,0.468,0.77,0.368C1788.23,424.706,1788.4,424.338,1788.3,424.003z"/>
<path d="M1784.85,426.78c-0.17-0.468,0.07-0.97,0.53-1.137c0.47-0.168,0.97,0.067,1.14,0.535c0.17,0.469-0.07,0.971-0.53,1.138
	C1785.52,427.483,1785.02,427.249,1784.85,426.78z M1786.25,426.279c-0.1-0.302-0.46-0.469-0.77-0.369
	c-0.33,0.101-0.46,0.469-0.36,0.77s0.46,0.469,0.77,0.368C1786.19,426.948,1786.35,426.58,1786.25,426.279z"/>
<path d="M1782.91,429.223c-0.17-0.468,0.07-0.97,0.53-1.137c0.47-0.168,0.97,0.067,1.14,0.535c0.17,0.468-0.07,0.97-0.53,1.138
	C1783.61,429.926,1783.08,429.692,1782.91,429.223z M1784.35,428.688c-0.1-0.335-0.47-0.469-0.77-0.368
	c-0.3,0.1-0.47,0.468-0.37,0.769c0.1,0.302,0.47,0.469,0.77,0.369C1784.28,429.391,1784.45,429.023,1784.35,428.688z"/>
<path d="M1781.37,431.967c-0.17-0.469,0.07-0.971,0.53-1.138c0.47-0.167,0.97,0.067,1.14,0.535c0.17,0.469-0.07,0.971-0.53,1.138
	C1782.04,432.669,1781.54,432.435,1781.37,431.967z M1782.77,431.465c-0.1-0.335-0.46-0.469-0.77-0.368
	c-0.3,0.1-0.46,0.468-0.36,0.769c0.1,0.335,0.46,0.469,0.77,0.368C1782.74,432.134,1782.91,431.766,1782.77,431.465z"/>
<path d="M1779.6,434.978c-0.17-0.468,0.06-0.97,0.53-1.137c0.47-0.168,0.97,0.067,1.14,0.535c0.17,0.469-0.07,0.971-0.54,1.138
	C1780.27,435.681,1779.76,435.447,1779.6,434.978z M1781,434.477c-0.1-0.302-0.47-0.469-0.77-0.369
	c-0.33,0.101-0.47,0.469-0.37,0.77s0.47,0.469,0.77,0.368C1780.93,435.146,1781.1,434.811,1781,434.477z"/>
<path d="M1778.69,438.392c-0.17-0.469,0.07-0.971,0.54-1.138s0.97,0.067,1.13,0.535c0.17,0.469-0.06,0.971-0.53,1.138
	C1779.36,439.094,1778.86,438.86,1778.69,438.392z M1780.1,437.89c-0.1-0.335-0.47-0.469-0.77-0.368c-0.3,0.1-0.47,0.468-0.37,0.769
	c0.1,0.335,0.47,0.469,0.77,0.369C1780.06,438.559,1780.23,438.191,1780.1,437.89z"/>
<path d="M1778.16,441.637c-0.17-0.468,0.06-0.97,0.53-1.138c0.47-0.167,0.97,0.067,1.14,0.536c0.17,0.468-0.07,0.97-0.54,1.138
	C1778.83,442.34,1778.32,442.106,1778.16,441.637z M1779.56,441.135c-0.1-0.334-0.47-0.468-0.77-0.368
	c-0.33,0.101-0.47,0.469-0.37,0.77c0.1,0.334,0.47,0.468,0.77,0.368C1779.53,441.804,1779.7,441.436,1779.56,441.135z"/>
<path d="M1777.86,444.984c-0.17-0.469,0.06-0.971,0.53-1.138c0.47-0.167,0.97,0.067,1.14,0.535c0.17,0.469-0.07,0.971-0.54,1.138
	C1778.52,445.653,1778.02,445.419,1777.86,444.984z M1779.26,444.448c-0.1-0.334-0.47-0.468-0.77-0.368
	c-0.3,0.101-0.47,0.469-0.37,0.77c0.1,0.334,0.47,0.468,0.77,0.368C1779.23,445.117,1779.39,444.783,1779.26,444.448z"/>
<path d="M1778.16,447.828c-0.17-0.469,0.06-0.971,0.53-1.138c0.47-0.167,0.97,0.067,1.14,0.536c0.17,0.468-0.07,0.97-0.54,1.137
	C1778.83,448.531,1778.32,448.296,1778.16,447.828z M1779.56,447.326c-0.1-0.301-0.47-0.469-0.77-0.368
	c-0.33,0.1-0.47,0.468-0.37,0.769c0.1,0.302,0.47,0.469,0.77,0.369C1779.53,447.995,1779.7,447.627,1779.56,447.326z"/>
<path fill="#FBF6E2" d="M1782.34,447.694c0,0.167-0.13,0.268-0.27,0.268c-0.73,0.033-2.94,0.134-3.14-0.067
	c-0.24-0.234-0.37-0.837,0.53-0.937c0.77-0.1,2.04-0.067,2.51-0.067c0.1,0,0.2,0.067,0.27,0.167
	C1782.31,447.293,1782.34,447.493,1782.34,447.694z"/>
<path fill="#FBF6E2" d="M1779.23,441.905c0,0-0.54-0.134-0.5-0.602c0.03-0.469,0.46-0.569,1.17-0.502
	c0.6,0.067,1.4,0.201,1.67,0.234c0.07,0,0.1,0.034,0.1,0.101c0.1,0.334,0.07,0.635-0.03,0.97c-0.04,0.067-0.1,0.134-0.17,0.1
	L1779.23,441.905z"/>
<path fill="#FBF6E2" d="M1781.8,444.448c-0.03-0.067-0.1-0.1-0.2-0.1l-2.44-0.067c0,0-0.6-0.034-0.77,0.401s0.3,0.703,0.3,0.703
	h2.95c0.13,0,0.23-0.1,0.23-0.201C1781.94,444.95,1781.94,444.649,1781.8,444.448z"/>
<path fill="#FFE6B3" d="M1788.26,398.171c0,0,2.18,6.257,5.12,6.19c2.95-0.067,7.83-1.338,7.83-1.338s-4.08-5.421-5.62-8.6
	C1795.56,394.423,1791.34,397.1,1788.26,398.171z"/>
<path fill="#A07028" d="M1762.33,403.993c0,0-3.25,2.41-6.06,3.38c-0.06,0.033-0.1,0.1-0.1,0.167l3.85,11.143l3.68-1.171
	c0.67-0.201,1.41-0.101,1.94,0.301c0.24,0.167,0.44,0.401,0.5,0.703L1762.33,403.993z"/>
<path fill="#A07028" d="M1767.88,441.704c-0.6-1.673-0.9-2.844-1.1-3.814c-0.44-2.309,0.27-13.05,0.4-15.158
	c0.03-0.268,0-0.536-0.07-0.803l-4.98-17.869c-0.03-0.1,0.03-0.2,0.13-0.234c0.1-0.033,0.3-0.067,0.34,0.034l4.98,17.901
	c0.1,0.302,0.1,0.603,0.1,0.937c-0.13,2.108-0.97,12.883-0.53,15.158c0.53,2.778,2.17,7.161,9.3,20.679
	c0.03,0.101-0.1,0.168-0.2,0.201c-0.1,0.034-0.23,0.067-0.27,0C1771.3,449.835,1769.06,444.85,1767.88,441.704z"/>
<path fill="#FBF6E2" d="M1779.53,438.659c0,0-0.54-0.97,0.43-1.003c0.81,0,2.04,0.501,2.45,0.669c0.1,0.033,0.16,0.134,0.2,0.267
	c0.03,0.201,0,0.469-0.34,0.77c-0.1,0.067-0.2,0.1-0.3,0.067L1779.53,438.659z"/>
<path fill="#FBF6E2" d="M1783.68,429.524c0,0-0.44-1.037,0.53-0.937c0.81,0.067,1.98,0.703,2.38,0.904
	c0.1,0.067,0.17,0.167,0.17,0.268c0,0.2-0.07,0.468-0.4,0.736c-0.11,0.067-0.21,0.067-0.34,0.033L1783.68,429.524z"/>
<path fill="#FBF6E2" d="M1785.38,426.948c0,0-0.16-1.105,0.74-0.803c0.74,0.267,1.74,1.171,2.08,1.472
	c0.1,0.067,0.13,0.201,0.1,0.301c-0.04,0.201-0.17,0.435-0.57,0.602c-0.1,0.034-0.24,0.034-0.34-0.033L1785.38,426.948z"/>
<path fill="#FBF6E2" d="M1787.29,424.639c0,0,0-1.104,0.87-0.669c0.7,0.368,1.54,1.405,1.84,1.773c0.07,0.1,0.1,0.201,0.04,0.335
	c-0.07,0.167-0.24,0.435-0.64,0.535c-0.1,0.034-0.23,0-0.3-0.1L1787.29,424.639z"/>
<path fill="#FBF6E2" d="M1790.27,422.598c-0.17-0.201-0.2-0.502-0.07-0.703c0.14-0.234,0.37-0.401,0.77-0.134
	c0.67,0.435,1.24,1.339,1.51,1.74c0.07,0.101,0.07,0.234,0,0.335c-0.1,0.167-0.27,0.401-0.7,0.468c-0.1,0-0.24-0.033-0.31-0.134
	L1790.27,422.598z"/>
<path fill="#FBF6E2" d="M1792.88,420.724c-0.17-0.201-0.17-0.502-0.03-0.703c0.13-0.234,0.36-0.401,0.77-0.1
	c0.63,0.468,1.2,1.372,1.43,1.773c0.07,0.101,0.07,0.235,0,0.335c-0.1,0.167-0.3,0.368-0.7,0.435c-0.1,0-0.23-0.033-0.3-0.134
	L1792.88,420.724z"/>
<path fill="#FBF6E2" d="M1795.42,419.118c-0.13-0.234-0.13-0.502,0.04-0.703c0.16-0.201,0.4-0.335,0.8-0.033
	c0.6,0.502,1,1.305,1.2,1.74c0.04,0.1,0.04,0.234-0.03,0.334c-0.1,0.168-0.33,0.368-0.74,0.368c-0.1,0-0.23-0.067-0.26-0.167
	L1795.42,419.118z"/>
<path fill="#FBF6E2" d="M1797.87,417.746c-0.14-0.234-0.14-0.502,0.03-0.703c0.17-0.201,0.4-0.334,0.8-0.033
	c0.6,0.502,0.87,1.305,1.07,1.706c0.04,0.101,0.04,0.235-0.03,0.335c-0.1,0.167-0.34,0.368-0.74,0.368c-0.1,0-0.23-0.067-0.26-0.167
	L1797.87,417.746z"/>
<path fill="#FBF6E2" d="M1780.87,434.309c0,0-0.81-0.1-0.64,0.837c0.03,0.1,0.1,0.201,0.2,0.234l2.71,1.138
	c0.2,0.067,0.44,0.033,0.6-0.101c0.14-0.134,0.24-0.301,0.24-0.569c0-0.234-0.14-0.468-0.37-0.568
	C1782.84,434.978,1780.87,434.309,1780.87,434.309z"/>
<path fill="#FBF6E2" d="M1785.12,432.134l-2.58-0.937c0,0-1.1,0.335-0.37,1.105l2.58,1.003c0.1,0.034,0.23,0.101,0.3,0.034
	c0.23-0.201,0.57-0.402,0.37-0.937C1785.32,432.302,1785.25,432.201,1785.12,432.134z"/>
<path fill="#FBF6E2" d="M1789.9,397.535c-0.63-1.773-0.9-3.714-0.67-5.722c0.2-1.773-0.4-3.446-1.77-4.952
	c-0.17-0.201-0.17-0.468,0.03-0.636c0.2-0.167,0.47-0.167,0.64,0.034c1.54,1.706,2.21,3.613,2.01,5.655
	c-0.51,4.684,1.77,9.135,5.79,11.276c0.13,0.067,0.3,0.167,0.46,0.234c9.41,4.886,8.07,10.608,8,10.842
	c-0.07,0.234-0.3,0.401-0.57,0.334c-0.23-0.066-0.4-0.301-0.33-0.568c0-0.034,0.3-1.339-0.47-3.179c-0.7-1.74-2.51-4.283-7.09-6.659
	c-0.17-0.067-0.31-0.167-0.47-0.234C1792.85,402.621,1790.91,400.279,1789.9,397.535z"/>
<path fill="#FBF6E2" d="M1785.38,403.491c-1.43-3.915-0.36-7.93-0.33-8.131c0.07-0.234,0.3-0.401,0.57-0.334
	c0.23,0.067,0.4,0.301,0.33,0.569c0,0.067-1.37,5.286,1.17,9.369c1.48,2.342,3.92,3.881,7.33,4.551c7.2,1.438,7.53,5.42,7.57,5.588
	c0,0.267-0.17,0.468-0.44,0.501c-0.23,0.034-0.47-0.167-0.5-0.435c0-0.133-0.37-3.479-6.83-4.751c-3.68-0.736-6.32-2.409-7.93-4.952
	C1785.92,404.796,1785.62,404.127,1785.38,403.491z"/>
<path fill="#C18167" d="M55.083,165.792l3.712-7.856l-6.915-19.17l-13.043-1.373c0,0,5.212,13.857-4.78,21.357
	C24.04,166.224,55.083,165.792,55.083,165.792z"/>
<path fill="#DB6403" d="M46.387,201.259l77.544,2.288l3.127,5.39c0,0-43.297,27.839-88.908,7.78
	C38.15,216.717,43.413,208.378,46.387,201.259z"/>
<path fill="#F2810B" d="M105.575,280.023c0,0-61.577-20.695-75.077-58.45c-10.856-30.382-6.559-39.459-0.89-54.866l15.026-4.118
	l10.526-1.424c36.585,14.593,37.933,26.568,39.433,35.67c2.288,13.856,9.331,32.543,26.696,36.052
	C123.881,233.395,105.575,280.023,105.575,280.023z"/>
<path fill="#DB6403" d="M60.371,187.25c-0.076-2.364-8.873,39.942-17.339,54.484c0,0,14.06-14.873,20.594-30.661
	c2.059-4.983,2.034-10.602,0.051-15.611L60.371,187.25z"/>
<path fill="#C18167" d="M161.839,366.11c0,0-22.017-9.204-36.839-6.763c-14.823,2.44-25.069,16.449-62.976,23.924
	c-11.263,2.212-8.161,8.517-8.161,8.517l-0.966,2.009l3.839,1.144l102.51-4.653c0,0,17.594,0.89,19.628-4.297
	C182.967,375.491,161.839,366.11,161.839,366.11z"/>
<path fill="#D2BE96" d="M124.999,359.347c-14.847,2.313-25.475,14.619-62.976,23.924c-16.424,4.068-4.983,10.348-7.348,10.246
	l0.61,1.424l1.449,0.025l87.841-3.915l-10.068-31.984C133.898,359.016,129.093,358.711,124.999,359.347z"/>
<path fill="#09B7CE" d="M134.458,359.042l10.068,31.983l7.805-0.356c0,0-0.204-0.05,0,0l-7.602-30.051
	C141.831,359.576,136.847,359.194,134.458,359.042z"/>
<path fill="#C8975A" d="M36.955,405.593l-0.051,0.127c-0.178,0.407,0,0.89,0.407,1.068l0.712,0.331c0.407,0.178,0.864,0,1.068-0.407
	l0.051-0.127c0.178-0.407,0-0.89-0.407-1.068l-0.712-0.33C37.616,405.009,37.159,405.187,36.955,405.593z"/>
<path fill="#C8975A" d="M39.625,399.822l-0.051,0.127c-0.178,0.407,0,0.89,0.407,1.068l0.712,0.331c0.407,0.178,0.864,0,1.068-0.407
	l0.051-0.127c0.178-0.407,0-0.89-0.407-1.068l-0.737-0.305C40.286,399.237,39.803,399.415,39.625,399.822z"/>
<path fill="#C8975A" d="M41.735,395.169l-0.051,0.128c-0.178,0.406,0,0.889,0.407,1.067l0.712,0.331
	c0.407,0.178,0.864,0,1.068-0.407l0.051-0.127c0.178-0.407,0-0.89-0.407-1.068l-0.712-0.33
	C42.397,394.585,41.939,394.763,41.735,395.169z"/>
<path fill="#C8975A" d="M46.566,384.44l-0.051,0.128c-0.178,0.406,0,0.889,0.407,1.067l0.712,0.331c0.407,0.178,0.864,0,1.068-0.407
	l0.051-0.127c0.178-0.407,0-0.89-0.407-1.068l-0.712-0.33C47.227,383.856,46.744,384.034,46.566,384.44z"/>
<path fill="#C8975A" d="M48.625,379.788l-0.051,0.127c-0.178,0.407,0,0.89,0.407,1.068l0.712,0.33c0.407,0.178,0.864,0,1.068-0.406
	l0.051-0.128c0.178-0.406,0-0.889-0.407-1.067l-0.712-0.331C49.286,379.203,48.803,379.381,48.625,379.788z"/>
<path fill="#331B1E" d="M61.871,382.712c0,0-0.203,1.983-3.915,2.745l-0.636,1.272c0,0-1.932,5.644,0.864,7.169
	c2.797,1.5,1.856,3.051,1.856,3.051s-4.627-0.508-7.882,3.585c-3.254,4.093-9.356,11.263-9.356,11.263s-3.127,3.559-7.297,1.297
	l8.517-18.535l0.712-1.551l1.398-3.05l0.712-1.551l1.271-2.797l1.653-3.687l0.915-2.211L61.871,382.712z"/>
<path fill="#C8975A" d="M45.218,402.949l-2.593-5.466l0.712-1.551l3.051,6.458L45.218,402.949z"/>
<path fill="#C8975A" d="M47.685,399.187l-2.949-6.306l0.712-1.55l3.432,7.296L47.685,399.187z"/>
<path fill="#C8975A" d="M49.998,395.474l-3.28-6.94l0.712-1.551l3.763,7.932L49.998,395.474z"/>
<path fill="#C8975A" d="M45.498,404.653c-0.254-0.127-0.559,0-0.686,0.254c-0.127,0.254,0,0.559,0.254,0.686
	c0.254,0.128,0.559,0,0.687-0.254C45.879,405.085,45.752,404.78,45.498,404.653z"/>
<path fill="#C8975A" d="M47.634,401.729c-0.254-0.127-0.559,0-0.687,0.254c-0.127,0.254,0,0.56,0.254,0.687
	c0.254,0.127,0.559,0,0.686-0.255C48.015,402.161,47.914,401.856,47.634,401.729z"/>
<path fill="#C8975A" d="M49.82,398.678c-0.254-0.127-0.559,0-0.686,0.254c-0.127,0.255,0,0.56,0.254,0.687
	c0.254,0.127,0.559,0,0.687-0.254C50.202,399.085,50.075,398.78,49.82,398.678z"/>
<path fill="#C8975A" d="M51.905,396.059c-0.254-0.127-0.559,0-0.687,0.255c-0.127,0.254,0,0.559,0.254,0.686
	c0.254,0.127,0.559,0,0.686-0.254C52.286,396.491,52.159,396.186,51.905,396.059z"/>
<path fill="#C8975A" d="M44.99,405.009c-0.025,0.025-0.025,0.076-0.025,0.127c0,0.178,0.127,0.33,0.305,0.33l3.153,0.077
	c0.102,0,0.203-0.051,0.254-0.127c0.051-0.077,0.076-0.178,0.051-0.28l-0.864-2.568l2.822,0.178c0.102,0,0.203-0.051,0.28-0.127
	c0.051-0.076,0.076-0.203,0.051-0.305l-0.89-2.67l2.669,0.509c0.102,0.025,0.229-0.026,0.305-0.102
	c0.076-0.076,0.102-0.203,0.051-0.305l-1.119-3.356c-0.051-0.178-0.229-0.254-0.407-0.203c-0.178,0.05-0.254,0.228-0.203,0.406
	l0.966,2.848l-2.669-0.509c-0.102-0.025-0.229,0.026-0.305,0.102c-0.076,0.076-0.102,0.204-0.051,0.305l0.915,2.746l-2.822-0.178
	c-0.102,0-0.203,0.051-0.28,0.127c-0.076,0.076-0.076,0.204-0.051,0.305l0.864,2.594l-2.695-0.077
	C45.168,404.805,45.041,404.882,44.99,405.009z"/>
<path fill="#313658" d="M109.771,271.455c0,0,8.008,24.28,30.636,20.263c12.254-2.161,7.042-4.652,16.475-20.364
	c9.432-15.713,17.847-34.298,17.847-34.298S127.288,200.573,109.771,271.455z"/>
<path fill="#C18167" d="M269.282,214.708l-101.011,52.425l-32.187-36.051c-1.983,0.991,44.06-48.84,110.799-36.128
	c0,0,9.458-1.449,16.017-1.271C269.46,193.81,269.282,214.708,269.282,214.708z"/>
<path fill="#C18167" d="M158.229,390.39l-40.323-98.138l39.458-27.89c-0.763-2.085,37.399,52.908,23.035,105.994
	c0,0,0.33,9.584-0.585,16.093C178.924,392.958,158.229,390.39,158.229,390.39z"/>
<path fill="#C18167" d="M263.409,219.717c0,0,4.118,16.602,18.737,22.017c14.619,5.416,35.34,3.585,54.332,10.577
	c7.907,2.924,14.212,5.415,18.865,7.347c5.262,2.187,11.237-0.712,12.813-6.203l1.729-6.051l-8.618,1.449l-87.714-49.425
	c0,0-8.543-9.305-19.221-4.576c-7.195,3.203-8.975,11.466-3.89,17.746C252.883,215.649,263.409,219.717,263.409,219.717z"/>
<path fill="#FFE9BD" d="M328.546,158.622c12.458,1.653,21.229,13.094,19.602,25.577c-1.627,12.484-13.068,21.28-25.526,19.628
	c-12.458-1.653-21.229-13.094-19.602-25.577C304.647,165.767,316.088,156.97,328.546,158.622z"/>
<path fill="#331B1E" d="M315.707,179.47l4.551,8.492l9.432-1.526l1.297-9.788l-8.136-4.398L315.707,179.47z"/>
<path fill="#331B1E" d="M336.275,201.564l-3.203-1.805l2.313-9.255l9.433-1.398l1.347,2.39
	C346.165,191.521,342.072,199.555,336.275,201.564z"/>
<path fill="#331B1E" d="M320.919,203.827c0,0-9.356-2.339-12.789-7.78l9.458-2.543l4.932,7.933L320.919,203.827z"/>
<path fill="#331B1E" d="M302.868,185.674l6.839-7.119l-4.348-7.729C305.334,170.826,302.08,175.529,302.868,185.674z"/>
<path fill="#331B1E" d="M312.91,161.724l8.212,3.305l5.822-6.508C326.969,158.495,321.427,157.301,312.91,161.724z"/>
<path fill="#331B1E" d="M337.8,172.835l10.297,4.296c0,0-0.61-9.407-9.229-13.958L337.8,172.835z"/>
<path fill="#331B1E" d="M316.241,179.216c-0.051,0.305-0.306,0.509-0.611,0.483l-6-0.61c-0.305-0.025-0.508-0.305-0.483-0.61
	c0.026-0.305,0.305-0.534,0.61-0.483l6,0.61C316.063,178.631,316.266,178.911,316.241,179.216z"/>
<path fill="#331B1E" d="M320.791,188.038c0,0.051-0.025,0.102-0.05,0.178l-2.67,5.543c-0.127,0.279-0.458,0.381-0.737,0.254
	c-0.28-0.127-0.382-0.458-0.254-0.737l2.669-5.543c0.127-0.279,0.458-0.381,0.737-0.254
	C320.715,187.581,320.817,187.81,320.791,188.038z"/>
<path fill="#331B1E" d="M322.901,172.733c-0.025,0.229-0.203,0.432-0.457,0.483c-0.305,0.051-0.585-0.153-0.636-0.458l-1.22-7.627
	c-0.051-0.305,0.152-0.585,0.458-0.636c0.305-0.051,0.584,0.153,0.635,0.458l1.22,7.627
	C322.901,172.631,322.901,172.682,322.901,172.733z"/>
<path fill="#331B1E" d="M335.919,190.581c0,0.076-0.051,0.178-0.102,0.254c-0.178,0.254-0.508,0.305-0.763,0.127l-5.669-4.068
	c-0.254-0.178-0.305-0.508-0.127-0.763c0.178-0.254,0.508-0.305,0.762-0.127l5.67,4.068
	C335.868,190.199,335.944,190.403,335.919,190.581z"/>
<path fill="#331B1E" d="M333.606,199.835c-0.026,0.203-0.153,0.381-0.356,0.458c-3.61,1.22-7.221,1.805-10.729,1.728
	c-0.305,0-0.534-0.254-0.534-0.559c0-0.305,0.254-0.534,0.559-0.534c3.382,0.077,6.865-0.483,10.348-1.678
	c0.279-0.101,0.61,0.051,0.686,0.356C333.606,199.657,333.606,199.759,333.606,199.835z"/>
<path fill="#331B1E" d="M309.097,196.174c-0.026,0.127-0.077,0.254-0.178,0.356c-0.229,0.204-0.585,0.178-0.763-0.051
	c-0.153-0.178-3.966-4.703-5.339-11.212c-0.051-0.305,0.127-0.585,0.432-0.661c0.305-0.051,0.585,0.127,0.661,0.432
	c1.322,6.229,5.059,10.679,5.11,10.729C309.071,195.869,309.097,196.047,309.097,196.174z"/>
<path fill="#331B1E" d="M347.69,176.775l-2.135,13.018c-0.051,0.305-0.331,0.508-0.636,0.457s-0.483-0.33-0.458-0.635l2.111-13.018
	c0.05-0.305,0.33-0.508,0.635-0.457C347.512,176.216,347.716,176.47,347.69,176.775z"/>
<path fill="#331B1E" d="M341.741,165.563c-0.025,0.153-0.102,0.305-0.254,0.381c-0.254,0.178-0.585,0.102-0.763-0.152
	c-3.559-5.415-12.763-6.382-14.085-6.356c-0.127,0.051-0.28,0.051-0.407,0c-0.229-0.076-0.381-0.331-0.356-0.559
	c0.026-0.255,0.204-0.458,0.433-0.509c0.559-0.152,11.212,0.509,15.356,6.814C341.741,165.309,341.766,165.436,341.741,165.563z"/>
<path fill="#331B1E" d="M338.715,172.784c-0.025,0.178-0.127,0.33-0.279,0.407l-7.195,3.94c-0.254,0.153-0.61,0.051-0.738-0.229
	c-0.152-0.254-0.05-0.61,0.229-0.737l7.195-3.941c0.255-0.152,0.611-0.05,0.738,0.229
	C338.716,172.555,338.741,172.657,338.715,172.784z"/>
<path fill="#331B1E" d="M313.876,161.979c-0.025,0.127-0.076,0.254-0.178,0.355c-2.415,2.06-5.466,4.958-7.653,9.077
	c-0.152,0.28-0.483,0.381-0.737,0.229c-0.28-0.153-0.381-0.483-0.229-0.738c2.263-4.296,5.416-7.296,7.907-9.407
	c0.229-0.203,0.585-0.178,0.763,0.051C313.876,161.673,313.901,161.826,313.876,161.979z"/>
<path fill="#E8D3AC" d="M361.267,248.853l8.618-1.449l-2.949,10.347c-0.915,3.255-4.5,4.933-7.602,3.611
	c-4.754-2.034-12.407-5.187-22.856-9.026c-18.992-6.992-39.713-5.136-54.332-10.576c-6.89-2.568-11.441-7.602-14.313-12.204
	l14.288-25.272L361.267,248.853z"/>
<path fill="#1EDEF2" d="M277.341,201.564l4.78,2.695l-14.288,25.272c-1.653-2.644-2.797-5.161-3.483-6.992l11.618-21.051
	L277.341,201.564z"/>
<path fill="#D2BE96" d="M266.459,217.785c0,0,25.984-2.848,39.332,19.5C305.791,237.31,301.036,213.666,266.459,217.785z"/>
<path fill="#09B7CE" d="M170.077,264.591l-2.848,4.347c0,0,12.865,23.721,16.831,66.027l-49.399,5.568l-20.34-58.756
	c0,0,7.068-34.449,22.196-41.441C136.517,240.336,156.576,250.582,170.077,264.591z"/>
<path fill="#C8975A" d="M391.369,240.921l0.433-0.356c0.305-0.28,0.33-0.687,0.05-0.941l-0.889-0.788
	c-0.28-0.255-0.763-0.229-1.094,0.051l-0.432,0.356c-0.305,0.279-0.33,0.686-0.051,0.94l0.89,0.788
	C390.581,241.226,391.064,241.2,391.369,240.921z"/>
<path fill="#C8975A" d="M386.717,244.989l0.432-0.356c0.305-0.28,0.331-0.687,0.051-0.941l-0.89-0.788
	c-0.28-0.254-0.763-0.229-1.093,0.051l-0.432,0.356c-0.305,0.279-0.331,0.686-0.051,0.94l0.89,0.788
	C385.903,245.268,386.386,245.243,386.717,244.989z"/>
<path fill="#C8975A" d="M380.996,249.921l0.432-0.356c0.305-0.28,0.33-0.687,0.051-0.941l-0.89-0.788
	c-0.28-0.254-0.763-0.229-1.093,0.051l-0.407,0.356c-0.305,0.279-0.331,0.686-0.051,0.94l0.89,0.789
	C380.182,250.2,380.665,250.175,380.996,249.921z"/>
<path fill="#C8975A" d="M376.394,253.913l0.432-0.356c0.305-0.28,0.331-0.687,0.051-0.941l-0.89-0.788
	c-0.279-0.254-0.762-0.229-1.093,0.051l-0.432,0.356c-0.305,0.279-0.331,0.686-0.051,0.94l0.89,0.788
	C375.581,254.192,376.064,254.167,376.394,253.913z"/>
<path fill="#C8975A" d="M367.114,261.972l0.433-0.356c0.305-0.28,0.33-0.686,0.05-0.941l-0.889-0.788
	c-0.28-0.254-0.763-0.229-1.094,0.051l-0.432,0.356c-0.305,0.28-0.33,0.686-0.051,0.941l0.89,0.788
	C366.326,262.252,366.809,262.252,367.114,261.972z"/>
<path fill="#C8975A" d="M363.403,265.303l0.432-0.356c0.305-0.28,0.33-0.687,0.051-0.941l-0.89-0.788
	c-0.28-0.254-0.763-0.229-1.094,0.051l-0.432,0.356c-0.305,0.279-0.33,0.686-0.051,0.94l0.89,0.788
	C362.614,265.582,363.097,265.557,363.403,265.303z"/>
<path fill="#331B1E" d="M349.979,257.37c0,0,1.194-1.932,5.644-1.5l3.407-3.076c0,0,0.711-1.195-1.653-3.585
	c-2.364-2.39-0.585-3.636-0.585-3.636s4.882,1.958,10.45-1.093c5.567-3.051,15.203-7.856,15.203-7.856s5.492-1.907,9.026,1.678
	l-17.746,15.407l-1.526,1.322l-3,2.619l-1.525,1.322l-2.771,2.39l-1.526,1.322l-2.085,1.932L349.979,257.37z"/>
<path fill="#C8975A" d="M376.14,244.226l0.534,6.941l-1.526,1.347l-0.585-8.11L376.14,244.226z"/>
<path fill="#C8975A" d="M371.564,247.201l0.559,7.906l-1.525,1.348l-0.611-9.051L371.564,247.201z"/>
<path fill="#C8975A" d="M367.216,250.175l0.61,8.67l-1.525,1.322l-0.661-9.789L367.216,250.175z"/>
<path fill="#C8975A" d="M376.648,242.395c0.229,0.203,0.61,0.178,0.865-0.051c0.254-0.229,0.279-0.559,0.05-0.762
	c-0.228-0.204-0.61-0.178-0.864,0.05C376.445,241.861,376.419,242.217,376.648,242.395z"/>
<path fill="#C8975A" d="M372.86,244.658c0.229,0.204,0.61,0.178,0.864-0.051c0.255-0.229,0.28-0.559,0.051-0.762
	c-0.229-0.204-0.61-0.178-0.864,0.05C372.657,244.124,372.631,244.455,372.86,244.658z"/>
<path fill="#C8975A" d="M368.97,247.048c0.229,0.203,0.611,0.178,0.865-0.051c0.254-0.229,0.279-0.559,0.051-0.763
	c-0.229-0.203-0.611-0.178-0.865,0.051C368.767,246.489,368.742,246.845,368.97,247.048z"/>
<path fill="#C8975A" d="M365.386,248.98c0.229,0.204,0.61,0.178,0.864-0.051c0.255-0.228,0.28-0.559,0.051-0.762
	c-0.229-0.204-0.61-0.178-0.864,0.05C365.182,248.446,365.157,248.802,365.386,248.98z"/>
<path fill="#C8975A" d="M377.36,242.217c0.026-0.025,0.077-0.076,0.102-0.127c0.102-0.178,0-0.356-0.178-0.432l-3.458-1.042
	c-0.101-0.026-0.254-0.026-0.356,0.05c-0.101,0.051-0.177,0.178-0.177,0.28l-0.306,2.848l-3.05-1.068
	c-0.102-0.051-0.255-0.026-0.356,0.025c-0.102,0.076-0.178,0.178-0.204,0.28l-0.305,2.974l-2.72-1.347
	c-0.102-0.051-0.255-0.051-0.382,0c-0.127,0.051-0.203,0.178-0.228,0.28l-0.382,3.712c-0.025,0.178,0.127,0.33,0.356,0.33
	c0.204,0,0.407-0.152,0.407-0.33l0.305-3.153l2.72,1.347c0.102,0.051,0.255,0.051,0.382,0c0.127-0.05,0.203-0.177,0.229-0.279
	l0.305-3.026l3.051,1.068c0.101,0.051,0.254,0.026,0.355-0.025c0.102-0.051,0.178-0.178,0.204-0.28l0.305-2.847l2.949,0.915
	C377.106,242.37,377.259,242.319,377.36,242.217z"/>
<path fill="#1EDEF2" d="M121.313,232.861l-14.365,43.933c0,0,35.645,32.06,60.815-1.296c25.984-34.425,23.67-32.645,23.67-32.645
	L133.364,230.7l-5.39,2.161H121.313z"/>
<path fill="#F2810B" d="M49.617,228.946c0,0-21.077,43.094-28.628,46.45c-7.551,3.356-20.161,3.788-20.161,3.788
	s-4.195-24.915,6.305-67.45C7.107,211.734,28.464,198.996,49.617,228.946z"/>
<path fill="#F2810B" d="M51.904,176.369c0,0,14.899,7.703,9.28,24.585c-5.619,16.881-12.661,30.255-12.661,30.255L6.37,215.242
	c0,0,6.28-38.111,34.246-40.882C40.591,174.36,44.887,173.623,51.904,176.369z"/>
<path fill="#F2810B" d="M28.286,264.997l11.568,71.188l-3.687,7.5c0,0-48.84-57.23-31.755-74.315
	C4.413,269.37,19.184,262.785,28.286,264.997z"/>
<path fill="#C18167" d="M36.142,343.686c0,0,3.559,3.406,7.144,4.678c3.585,1.271,10.424-7.882,10.424-7.882
	s-2.517-2.492-4.526-0.28c-1.983,2.212-6.356-0.559-6.356-0.559l-3.178-4.246C39.676,335.423,34.922,340.101,36.142,343.686z"/>
<path fill="#1EDEF2" d="M11.735,198.487l43.552,18.128c-2.314,5.492-4.373,9.814-5.593,12.305L7.107,211.733
	C7.896,208.606,9.345,203.699,11.735,198.487z"/>
<path fill="#ECE5DA" d="M7.616,209.776l42.941,17.263c0,0,0.966-2.186,1.246-2.517L8.455,207.005
	C8.201,207.793,7.616,209.776,7.616,209.776z"/>
<path fill="#C18167" d="M66.88,143.749l-11.771,21.433l-25.602,1.652l10.958-25.678L66.88,143.749z"/>
<path fill="#1EDEF2" d="M189.882,196.047l18.382,52.832l-57.052,34.729l-30.916-33.738c-2.669-2.924-0.356-5.924,2.238-8.924
	C132.195,229.607,157.111,205.301,189.882,196.047z"/>
<path fill="#ECE5DA" d="M181.924,198.589l19.475,54.434l-3.33,2.059l-19.043-55.374L181.924,198.589z"/>
<path fill="#ECE5DA" d="M177.729,200.267l18.865,55.705l-2.008,1.195l-19.018-56.01L177.729,200.267z"/>
<path fill="#AA6B55" d="M57.041,161.724l1.754-3.788c0,0-8.721-4.831-6.763-18.585c-0.076-1.424-5.975,4.093-5.542,10.653
	C46.82,155.292,57.041,161.724,57.041,161.724z"/>
<path fill="#C18167" d="M58.922,107.138c0,0,20.161-0.101,21.839,24.865c0,0,0.152,4.119-2.085,6.255l-0.483,1.474l1.144,6.585
	c0,0-0.305,1.602-1.83,1.5c-1.525-0.102-1.958-0.28-1.958-0.28l0.966,3.687l-1.424,1.627c0,0,0.229,2.136-1.042,2.492
	c-1.271,0.356-2.364,1.144-2.364,1.144l-0.941,3.178c0,0-1.322,2.364-3.508,2.212c-2.187-0.153-7.551-3.305-7.551-3.305
	s-9.483-4.806-10.424-8.136c-0.966-3.331-0.102-6.127-0.102-6.127l2.695-5.543l-13.043-1.373c0,0-3.483-8.619-0.636-15.814
	C41.049,114.384,47.227,106.935,58.922,107.138z"/>
<path fill="#C18167" d="M49.998,127.325c-5.034-1.373-6.203,3.433-5.746,6.305c0.254,1.653,0.381,2.848,0.153,4.348l7.449,0.788
	C53.964,134.851,55.032,128.673,49.998,127.325z"/>
<path fill="#4F2E30" d="M61.312,126.969c0,0,2.161-1.678,6.864,0.051l0.102-8.466l-18.763-9.61
	c-5.822,2.618-9.356,7.678-11.288,12.635c-2.822,7.196,0.636,15.814,0.636,15.814l5.568,0.585c0.229-1.5,0.102-2.695-0.153-4.347
	c-0.458-2.899,0.712-7.679,5.746-6.306c5.034,1.373,3.941,7.551,1.881,11.467l6.483-0.356
	C58.363,138.41,54.753,131.368,61.312,126.969z"/>
<path fill="#331B1E" d="M78.854,134.52l-1.093,1.958c0,0-3.458-2.924-7.627-1.068c0,0-0.636-0.635,3.381-2.441
	C73.515,132.969,78.092,133.605,78.854,134.52z"/>
<path fill="#331B1E" d="M71.329,137.724c0,0,3.839,0.127,4.195-0.661c0.356-0.788-0.051,2.847-1.144,3.407
	C73.261,141.029,71.329,137.724,71.329,137.724z"/>
<path fill="#4F2E30" d="M76.541,151.224c0,0-4.271-1.068-5.161,0.152l3.941,1.526L76.541,151.224z"/>
<path fill="#331B1E" d="M79.414,124.02c-4.907-16.958-20.492-16.882-20.492-16.882c-4.678-0.076-8.466,1.068-11.517,2.95
	l31.984,14.364C79.389,124.3,79.389,124.173,79.414,124.02z"/>
<path fill="#331B1E" d="M49.947,108.893c0,0-10.78-0.458-4.983-7.704c5.822-7.246,16.017,0.305,10.602,6.966L49.947,108.893z"/>
<path fill="#09B7CE" d="M128.61,267.489c-13.221,0-13.704-1.932-17.543-3.763l1.602-4.118c0.076,0.05,4.068,3.635,15.941,3.635
	c0.152,0,0.305,0,0.483,0c14.11-0.127,54.865-31.45,69.026-43.272l1.5,4.093c-2.135,1.78-51.992,43.222-70.475,43.4
	C128.966,267.489,128.788,267.489,128.61,267.489z"/>
<path fill="#C18167" d="M38.15,342.084c-0.458,0.661-0.33,0.686-0.127,1.5c0.28,1.246,1.119,3.152,3.559,4.957
	c4.144,3.128,8.619,6.357,8.619,6.357s8.568,6.152,10.221,5.262c1.653-0.89-0.356-1.957-0.356-1.957s-7.246-3.534-7.195-4.475
	c0.026-0.33,0.687-0.788,0.687-0.788s7.907,5.491,11.517,4.856c0,0,2.136-1.119-0.839-2.212c-2.975-1.093-9.178-4.602-9.178-4.602
	l0.559-0.864c0,0,10.958,5.771,12.916,4.398c1.958-1.347-2.034-3.076-2.034-3.076s-6.661-2.009-9.382-3.865l-0.076-1.195
	c0,0,9,3.534,10.907,2.975c1.907-0.559,2.034-1.653,0.915-2.085c-1.144-0.432-9.712-2.339-10.831-3.457
	c-0.534-0.534-3.712-3.153-4.729-3.865c-1.5-1.017,0.203-2.339,2.669-3.432c0.025-0.026,0.076-0.026,0.102-0.051
	c3.559-1.449,0.559-4.678,0.559-4.678s-1.5-1.348-2.263-0.026c-0.458,0.814,0.153,1.323-0.559,1.958
	c-0.686,0.61-1.881,0.788-2.339,1.297c-0.458,0.508-3.102,0.635-3.839,0.763c-1.678,0.305-2.288,0.864-3.178,1.296
	c-0.28,0.127-2.619,0.737-2.822,0.788c-0.864,0.178-0.813,0.331-1.271,0.992L38.15,342.084z"/>
<path fill="#723229" d="M123.932,203.547l3.127,5.39l6.203-3.992l-6.127-4.144L123.932,203.547z"/>
<path fill="#723229" d="M127.008,203.089c-0.534-0.457-0.432-0.508-0.457-1.245c-0.051-1.144,0.254-2.924,1.906-5.034
	c2.822-3.585,6.433-7.017,6.433-7.017s6.585-6.84,8.212-6.458c1.601,0.381,0.152,1.754,0.152,1.754s-5.746,4.271-5.517,5.06
	c0.076,0.279-0.101,0.228-0.101,0.228s5.898-6.203,9.127-6.483c0,0,2.059,0.483-0.229,2.085c-2.517,1.754-2.771,1.398-7.195,5.746
	l0.025,0.102c0,0,8.009-7.399,9.992-6.687s-1.042,3.076-1.042,3.076s-5.212,3.204-7.119,5.416h0.051c0,0,6.941-4.5,8.669-4.45
	c1.755,0.051,0.738,2.034-0.127,2.67c-0.864,0.61-7.093,3.407-7.78,4.602c-0.33,0.559-2.872,4.22-1.83,4.551
	c1.424,0.432,2.263-1.297,4.602-0.941c0.025,0,0.076,0,0.101,0.025c3.356,0.433,1.373,2.848,1.373,2.848
	c-0.076,0.178-0.559,0.254-1.881,0c-0.814-0.153-6.026,2.008-6.687,2.059c-1.5,0.127-3.483,1.094-4.347,0.916
	c-0.28-0.051-2.39-0.026-2.593-0.026c-0.789,0.051-0.789-0.102-1.297-0.559L127.008,203.089z"/>
<path fill="#F2810B" d="M1473.92,415.987l14.19,19.402l3.52-22.729L1473.92,415.987z"/>
</svg>
