<?xml version="1.0" encoding="utf-8"?>
<!-- Generator: Adobe Illustrator 17.0.0, SVG Export Plug-In . SVG Version: 6.00 Build 0)  -->
<!DOCTYPE svg PUBLIC "-//W3C//DTD SVG 1.1//EN" "http://www.w3.org/Graphics/SVG/1.1/DTD/svg11.dtd">
<svg version="1.1" id="Слой_1" xmlns="http://www.w3.org/2000/svg" xmlns:xlink="http://www.w3.org/1999/xlink" x="0px" y="0px"
	 width="54.667px" height="140px" viewBox="46.333 0 54.667 140" enable-background="new 46.333 0 54.667 140" xml:space="preserve"
	>
<path fill="#EABB9B" d="M45.989,82.446c-0.001,0.039-0.024,0.072-0.035,0.108c4.04,3.17,8.593,5.075,13.343,6.236l-1.106,0.95
	c-5.036-1.375-9.829-3.594-14.019-7.156c-3.688-1.026-7.257-2.865-10.336-5.323c0.226-0.324,0.411-0.677,0.583-1.04
	c2.619,2.125,5.639,3.847,8.664,4.842c0.076,0.025,0.163,0.049,0.24,0.074c-2.654-2.952-4.77-6.487-5.167-10.311
	c-0.081-0.786,1.149-0.641,1.23,0.135c0.405,3.916,2.924,7.53,5.754,10.408c1.716-3.224,1.223-7.46-0.57-10.891
	c-0.377-0.723,0.702-1.205,1.081-0.48C47.712,73.939,48.15,78.859,45.989,82.446z"/>
<path fill="#FFD5B5" d="M42.892,71.249c1.01,1.129,2.679,1.313,3.729,0.411c1.049-0.902,1.082-2.547,0.072-3.676
	c-1.01-1.129-2.679-1.313-3.729-0.411C41.913,68.474,41.882,70.12,42.892,71.249z"/>
<path fill="#FFD5B5" d="M36.551,72.581c1.01,1.129,2.679,1.313,3.729,0.411c1.05-0.902,1.082-2.547,0.072-3.676
	c-1.01-1.129-2.679-1.313-3.729-0.411C35.574,69.806,35.542,71.451,36.551,72.581z"/>
<path fill="#FFD5B5" d="M31.505,78.034c1.01,1.129,2.679,1.313,3.729,0.411c1.049-0.902,1.081-2.547,0.072-3.676
	c-1.01-1.129-2.679-1.313-3.729-0.411C30.528,75.258,30.496,76.905,31.505,78.034z"/>
<path fill="#00B7F0" d="M36.623,104.424c-0.001,0-0.006,0.003-0.007,0.003c-0.372,0.095-5.987,1.47-11.248,2.755
	c-3.407-4.773-5.619-10.252-3.593-15.558c1.609-4.215,6.3-7.239,10.846-8.279c5.425-1.241,11.256,0.64,16.191,2.867
	c4.534,2.047,8.712,4.772,12.792,7.527l-2.628,5.766l4.816-4.287c1.891,1.277,3.792,2.568,5.656,3.903l-3.301,3.306l5.021-2.047
	c2.312,1.729,4.535,3.551,6.542,5.558c3.929,3.93,5.719,8.695,5.07,14.013c-0.284,2.33-2.412,3.946-2.213,5.916
	c0.286,2.851,5.176,5.299,5.434,5.537c-0.284-0.218-5.362-3.217-7.429-1.955c-7.916,4.83-17.97,4.175-24.077,0.985
	c-8.5-4.439-16.346-9.669-23.06-16.29c-1.383-1.365-2.823-2.885-4.178-4.517c3.992-2.285,8.939-5.09,9.36-5.199
	C36.64,104.421,36.645,104.419,36.623,104.424z"/>
<path opacity="0.65" fill="#0074F0" enable-background="new    " d="M21.775,91.799c0.551-1.438,1.482-2.724,2.627-3.85
	c17.393,12.816,45.869,33.638,52.939,37.849c1.749,1.042,3.344,1.979,4.803,2.83c1.548,1.53,3.687,2.626,3.856,2.782
	c-0.284-0.218-5.362-3.204-7.429-1.947c-7.916,4.809-17.97,4.157-24.077,0.981c-8.5-4.421-16.346-9.628-23.06-16.222
	c-1.383-1.358-2.823-2.872-4.178-4.497c3.992-2.275,8.939-5.068,9.36-5.177c-0.372,0.095-5.987,1.463-11.248,2.744
	C21.961,102.538,19.748,97.083,21.775,91.799z"/>
<path fill="#A2563E" d="M76.114,111.815c-4.15-5.74-7.331-8.173-8.738-11.457c-2.775-6.472-6.289-8.849-8.611-9.724
	c-0.565-0.215-1.05-0.334-1.447-0.406c-0.644-0.119-1.026-0.095-1.026-0.095l-4.755-1.598l-3.045,5.629l3.347,2.783l1.057,0.875
	l20.322,17.619C73.219,115.441,79.604,116.642,76.114,111.815z"/>
<path fill="#A2563E" d="M62.231,60.661c0,0-12.499,7.196-16.26,30.293c-0.119,0.747,0.525,1.399,1.272,1.296
	c1.829-0.238,5.216-1.065,9.501-3.792c13.556-8.635,16.093-20.378,16.093-20.378S68.289,58.976,62.231,60.661z"/>
<path fill="#006CCE" d="M51.047,73.572c-0.35,0.207,7.076-13.079,16.681-19.845c0.207,0.048,2.695,3.292,3.498,2.258
	c0.827-1.065-5.383-0.04-4.087-0.421l1.05-0.31l2.616,18.748l-4.993,6.631L51.047,73.572z"/>
<path fill="#BD7550" d="M65.125,95.739l1.932-3.125l16.307-26.389c1.145-1.861,0.819-4.27-0.795-5.741
	c-3.252-2.966-8.937-6.599-13.612-1.566c-7.005,7.529-12.69,22.946-10.527,32.05C59.504,95.493,61.611,98.108,65.125,95.739z"/>
<path fill="#0074F0" d="M76.148,80.082l-16.132-5.884c0,0,0.994-6.838,4.755-12.181c0.819-1.169,5.057-7.514,5.057-7.514
	l14.86,0.843c0,0,4.429,7.895-1.805,14.566C77.635,75.542,76.148,80.082,76.148,80.082z"/>
<path fill="#0074F0" d="M67.736,53.727c-1.757,2.115-3.347,6.472-3.498,8.961c-0.095,1.558-0.509-0.111,0.223,1.018
	c1.789,2.751,6.051-8.762,6.051-8.762L67.736,53.727z"/>
<path fill="#A2563E" d="M62.319,33.77c0,0-6.178,8.738-6.011,11.672c0.151,2.584,5.669,4.365,5.669,4.365s5.295-3.896,9.875-10.106
	C71.852,39.701,73.474,36.433,62.319,33.77z"/>
<path fill="#DB6403" d="M73.318,22.01c0,0-2.743-0.533-6.83,3.244c-3.125,2.894-4.922,8.993-4.922,8.993l10.432,6.051
	c0,0,8.794-8.531,4.015-15.918C76.013,24.379,75.353,23.187,73.318,22.01z"/>
<path fill="#A2563E" d="M61.74,49.967c-3.125,2.147-26.461,1.391-26.461,1.391l-1.264-1.956c0,0,15.353-6.885,25.093-6.941
	C59.109,42.461,64.865,47.812,61.74,49.967z"/>
<path fill="#1EDEF2" d="M61.953,33.088l8.913,4.874v-0.93l-8.651-4.723L61.953,33.088z"/>
<path fill="#FFE9BD" d="M61.383,35.057l9.939,5.645l-0.231-0.954l-9.525-5.502L61.383,35.057z"/>
<path fill="#A2563E" d="M46.003,90.84c-0.223,0.779,0.072,1.813,0.731,2.282c1.344,0.954,2.695,1.757,4.858,2.839
	c2.624,1.304,4.651-8.499,4.651-8.499s-7.06-6.623-8.547-1.018C47.355,87.708,46.425,89.394,46.003,90.84z"/>
<path fill="#543447" d="M76.456,112.501c-0.016,0.175-0.04,0.406-0.095,0.724c-0.072,0.453-0.302,0.866-0.644,1.16l-0.429,0.382
	c-0.509,0.445-1.304,0.398-1.725-0.127c-0.008-0.008-0.016-0.016-0.024-0.024c-0.27-0.342-0.549-0.461-0.795-0.485
	c-0.35-0.032-0.66,0.239-0.668,0.596c-0.008,0.477-0.135,1.344-0.803,2.521c-0.74,1.296-1.296,3.252-2.234,4.055
	c-1.741,1.487-0.716,2.83-0.191,3.419l0.135,0.079c0,0,2.171-1.033,3.053-1.972c0.891-0.93,3.3-3.275,3.3-3.275l0.501-0.668
	l0.509-0.454l0.914-0.818c0,0,1.049-0.931,1.558-1.312c0.954-0.716-1.225-3.069-2.059-3.904
	C76.663,112.278,76.472,112.342,76.456,112.501z"/>
<path fill="#EAE3BD" d="M70.533,120.555c0.079,0.096,0.072,0.247-0.024,0.35c-0.087,0.103-0.231,0.111-0.31,0.016
	c-0.079-0.096-0.072-0.247,0.024-0.35C70.318,120.468,70.461,120.46,70.533,120.555z"/>
<path fill="#EAE3BD" d="M71.462,119.034c0.079,0.095,0.071,0.246-0.024,0.349c-0.087,0.104-0.231,0.112-0.31,0.016
	c-0.08-0.095-0.072-0.246,0.024-0.35C71.248,118.954,71.383,118.946,71.462,119.034z"/>
<path fill="#EAE3BD" d="M72.435,117.486c0.08,0.095,0.072,0.246-0.024,0.349c-0.088,0.104-0.231,0.112-0.31,0.016
	c-0.079-0.095-0.072-0.246,0.024-0.349C72.22,117.398,72.355,117.398,72.435,117.486z"/>
<path fill="#EAE3BD" d="M73.236,116.063c0.079,0.095,0.072,0.246-0.024,0.35c-0.088,0.103-0.231,0.111-0.31,0.016
	c-0.079-0.096-0.072-0.247,0.024-0.35C73.021,115.975,73.156,115.968,73.236,116.063z"/>
<path fill="#DDBA7C" d="M70.46,120.842c-0.016,0.015-0.032,0.023-0.048,0.039c-0.072,0.032-0.143,0-0.167-0.079l-0.413-1.392
	c-0.016-0.047-0.008-0.095,0.024-0.143c0.032-0.047,0.064-0.071,0.111-0.071l1.137-0.104l-0.413-1.232
	c-0.016-0.048-0.008-0.103,0.016-0.143c0.024-0.04,0.071-0.072,0.111-0.08l1.193-0.103l-0.525-1.097
	c-0.024-0.048-0.016-0.104,0.008-0.151c0.024-0.048,0.072-0.08,0.119-0.088l1.495-0.127c0.072-0.008,0.135,0.056,0.127,0.143
	c0,0.088-0.064,0.159-0.135,0.167l-1.264,0.111l0.525,1.098c0.024,0.047,0.016,0.103-0.008,0.151
	c-0.024,0.047-0.072,0.079-0.119,0.087l-1.216,0.111l0.413,1.233c0.016,0.048,0.008,0.095-0.016,0.143
	c-0.024,0.048-0.072,0.072-0.111,0.079l-1.145,0.104l0.358,1.192C70.516,120.73,70.5,120.794,70.46,120.842z"/>
<path fill="#DDBA7C" d="M78.54,114.52c0,0,1.026,0.58,1.216,1.9c0.064,0.429-0.604,1.113-1.32,1.717
	c-0.668,0.565-1.479,0.915-2.322,1.161c-0.334,0.095-1.352,0.819-1.86,1.646c-1.336,2.163-4.945,3.959-5.311,3.928
	c-0.079-0.008-0.445-0.199-0.286-0.263c2.473-1.01,4.612-2.894,6.949-5.756c1.837-2.25,2.799-2.855,3.069-3.133
	C79.104,115.275,78.54,114.52,78.54,114.52z"/>
<path fill="#A2563E" d="M39.55,49.139c0,0-1.813-1.63-4.365-3.045c-1.63-0.906-2.934,0.565-3.053,2.147
	c-0.071,0.938,1.026,2.703,1.948,2.91l3.395,0.294L39.55,49.139z"/>
<path fill="#F2810B" d="M82.103,17.097c0,0-4.198,2.218-8.142,2.886l-3.633,2.783c0,0-4.5,10.463-1.948,15.87
	c2.6,5.502-1.598,14.995-1.598,14.995s0.191,0.835,7.164,1.59c6.973,0.755,10.742,0.127,10.742,0.127s16.418-22.342,10.36-30.142
	C95.047,25.207,97.344,13.13,82.103,17.097z"/>
<path fill="#BD7550" d="M86.523,32.633c0,0,6.536,15.154,6.727,18.279c0.159,2.584,4.604,1.455,4.604,1.455s4.15-6.027,2.489-22.676
	C100.342,29.699,94.784,24.69,86.523,32.633z"/>
<path fill="#DB6403" d="M88.169,16.652c0,0-4.977,1.662-4.055,7.14c0.922,5.486,2.632,10.487,2.632,10.487l13.842-3.991
	c0,0-0.31-11.505-8.825-13.715C91.755,16.572,90.467,16.143,88.169,16.652z"/>
<path fill="#BD7550" d="M92.836,45.289L70.598,64.92l1.169,1.026c0,0,19.591-4.341,26.143-13.691
	C97.917,52.254,95.667,47.38,92.836,45.289z"/>
<path fill="#1EDEF2" d="M100.467,29.038l-14.001,4.389l-0.286-0.962l14.12-4.516L100.467,29.038z"/>
<path fill="#FFE9BD" d="M100.668,31.434L87.04,34.948l-0.294-0.668l13.851-3.983L100.668,31.434z"/>
<path fill="#BD7550" d="M66.965,91.485c0,0-4.365-4.127-6.719-1.328c-2.354,2.791-0.684,3.896-0.684,3.896l5.685,32.153l0.62,3.284
	l2.107-0.087c0,0,1.749,1.399,1.55-4.93c-0.382-12.546,2.695-16.983,2.345-21.849c-0.167-2.33-1.296-4.969-2.425-7.1
	c-0.278-0.525-0.557-1.01-0.819-1.463C67.713,92.51,66.965,91.485,66.965,91.485z"/>
<path fill="#A2563E" d="M63.194,91.781c0,0,1.137,1.98,0.175,3.006c-0.962,1.026-1.026-0.048-1.026-0.048s1.479-1.153,0.7-2.393
	C62.256,91.097,63.194,91.781,63.194,91.781z"/>
<path fill="#543447" d="M69.276,126.254c-0.008,0.175-0.024,0.405-0.056,0.723c-0.048,0.453-0.254,0.875-0.58,1.193l-0.413,0.397
	c-0.485,0.469-1.28,0.469-1.725-0.039c-0.008-0.008-0.016-0.016-0.024-0.024c-0.286-0.326-0.572-0.438-0.819-0.446
	c-0.35-0.015-0.644,0.279-0.636,0.629c0.016,0.477-0.064,1.351-0.676,2.56c-0.676,1.328-1.129,3.315-2.028,4.158
	c-1.662,1.566-0.564,2.862-0.016,3.427l0.143,0.072c0,0,2.115-1.145,2.95-2.123c0.835-0.978,3.133-3.443,3.133-3.443l0.469-0.692
	l0.485-0.477l0.867-0.867c0,0,1.002-0.978,1.495-1.391c0.914-0.763-1.375-2.997-2.25-3.8
	C69.467,126.023,69.276,126.103,69.276,126.254z"/>
<path fill="#EAE3BD" d="M63.775,134.602c0.088,0.087,0.08,0.246,0,0.35c-0.087,0.103-0.223,0.119-0.302,0.031
	c-0.088-0.087-0.08-0.246,0-0.349C63.552,134.522,63.688,134.506,63.775,134.602z"/>
<path fill="#EAE3BD" d="M64.619,133.043c0.087,0.088,0.079,0.247,0,0.35c-0.088,0.103-0.223,0.119-0.302,0.032
	c-0.087-0.088-0.08-0.247,0-0.35C64.396,132.964,64.531,132.948,64.619,133.043z"/>
<path fill="#EAE3BD" d="M65.509,131.445c0.088,0.088,0.079,0.247,0,0.35c-0.087,0.104-0.223,0.12-0.302,0.032
	c-0.088-0.087-0.079-0.246,0-0.35C65.295,131.366,65.43,131.35,65.509,131.445z"/>
<path fill="#EAE3BD" d="M66.24,129.976c0.087,0.087,0.079,0.246,0,0.35c-0.088,0.103-0.223,0.119-0.302,0.031
	c-0.087-0.087-0.079-0.246,0-0.349C66.017,129.904,66.152,129.888,66.24,129.976z"/>
<path fill="#DDBA7C" d="M63.712,134.891c-0.016,0.015-0.024,0.031-0.048,0.039c-0.072,0.04-0.143,0.008-0.175-0.063l-0.485-1.368
	c-0.016-0.048-0.008-0.095,0.016-0.143c0.024-0.048,0.064-0.072,0.103-0.079l1.137-0.159l-0.477-1.209
	c-0.016-0.048-0.016-0.095,0.008-0.143c0.024-0.048,0.064-0.08,0.111-0.08l1.185-0.167l-0.58-1.073
	c-0.024-0.048-0.024-0.103,0-0.151c0.024-0.048,0.064-0.088,0.111-0.088l1.487-0.206c0.072-0.008,0.135,0.047,0.135,0.135
	c0,0.087-0.056,0.159-0.127,0.167l-1.264,0.175l0.58,1.073c0.024,0.048,0.024,0.104,0,0.151c-0.024,0.048-0.064,0.088-0.111,0.096
	l-1.209,0.167l0.477,1.208c0.016,0.048,0.016,0.096-0.008,0.143c-0.024,0.048-0.064,0.08-0.111,0.08l-1.145,0.167l0.413,1.169
	C63.76,134.779,63.752,134.843,63.712,134.891z"/>
<path fill="#DDBA7C" d="M71.456,128.164c0,0,1.049,0.525,1.312,1.837c0.087,0.421-0.541,1.145-1.232,1.781
	c-0.644,0.596-1.431,0.986-2.258,1.28c-0.326,0.111-1.304,0.882-1.773,1.741c-1.216,2.226-4.739,4.206-5.104,4.198
	c-0.079,0-0.453-0.175-0.302-0.246c2.417-1.129,4.461-3.125,6.647-6.107c1.717-2.337,2.648-2.989,2.91-3.291
	C72.061,128.888,71.456,128.164,71.456,128.164z"/>
<path fill="#BD7550" d="M73.753,63.824l0.286,1.232c0.024,0.111,0.016,0.239-0.032,0.342l-0.302,0.684
	c-0.342,0.771-1.081,1.288-1.916,1.352l-2.043,0.143c-0.072,0.008-0.135,0-0.207-0.024l-1.932-0.612
	c-0.223-0.072-0.374-0.27-0.382-0.501l-0.135-2.918c-0.008-0.262,0.167-0.493,0.421-0.556l3.212-0.763
	c0.016-0.008,0.04-0.008,0.056-0.016C72.059,61.733,73.451,62.496,73.753,63.824z"/>
<path fill="#C49D65" d="M32.734,45.554c0.135,0.056,0.286,0.048,0.421-0.024c0.207-0.111,0.302-0.35,0.231-0.573l-4.548-14.836
	c-0.079-0.262-0.35-0.405-0.612-0.326c-0.262,0.08-0.405,0.358-0.326,0.612l3.856,12.562l-6.838-8.03
	c-0.175-0.207-0.485-0.231-0.692-0.056c-0.207,0.175-0.501,0.159-0.326,0.366l8.651,10.169
	C32.599,45.474,32.663,45.522,32.734,45.554z"/>
<path fill="#C49D65" d="M32.615,45.96l6.711,11.052c0.39,0.636,1.216,0.843,1.861,0.453c0.636-0.39,0.843-1.216,0.453-1.861
	l-6.711-11.052c-0.39-0.636-1.216-0.843-1.861-0.453C32.432,44.489,32.225,45.316,32.615,45.96z"/>
<path fill="#E8D3AC" d="M25.892,20.97l-10.36,2.839l0.032,0.115l10.36-2.839L25.892,20.97z"/>
<path fill="#E8D3AC" d="M26.388,22.131l-10.36,2.838l0.032,0.115l10.36-2.838L26.388,22.131z"/>
<path fill="#E8D3AC" d="M26.892,23.298l-10.36,2.839l0.032,0.115l10.36-2.839L26.892,23.298z"/>
<path fill="#E8D3AC" d="M27.431,24.381l-10.36,2.838l0.032,0.115l10.36-2.838L27.431,24.381z"/>
<path fill="#E8D3AC" d="M27.915,25.572l-10.36,2.838l0.031,0.115l10.36-2.838L27.915,25.572z"/>
<path fill="#E8D3AC" d="M28.384,26.822l-10.36,2.838l0.031,0.115l10.36-2.838L28.384,26.822z"/>
<path fill="#E8D3AC" d="M28.872,28.013l-10.36,2.839l0.031,0.115l10.36-2.839L28.872,28.013z"/>
<path fill="#E8D3AC" d="M29.388,29.149l-10.36,2.839l0.032,0.115l10.36-2.839L29.388,29.149z"/>
<path fill="#E8D3AC" d="M29.895,30.291l-10.36,2.838l0.031,0.115l10.36-2.838L29.895,30.291z"/>
<path fill="#E8D3AC" d="M30.38,31.506l-10.36,2.838l0.031,0.115l10.36-2.838L30.38,31.506z"/>
<path fill="#E8D3AC" d="M30.907,32.614l-10.36,2.839l0.031,0.115l10.36-2.839L30.907,32.614z"/>
<path fill="#E8D3AC" d="M25.403,19.775l-10.36,2.838l0.031,0.115l10.36-2.838L25.403,19.775z"/>
<path fill="#E8D3AC" d="M24.899,18.607l-10.36,2.838l0.031,0.115l10.36-2.838L24.899,18.607z"/>
<path fill="#E8D3AC" d="M24.458,17.303l-10.36,2.838l0.031,0.115l10.36-2.838L24.458,17.303z"/>
<path fill="#E8D3AC" d="M23.954,16.135l-10.36,2.838l0.032,0.115l10.36-2.838L23.954,16.135z"/>
<path fill="#E8D3AC" d="M23.415,15.061l-10.36,2.838l0.031,0.115l10.36-2.838L23.415,15.061z"/>
<path fill="#E8D3AC" d="M22.958,13.811l-10.36,2.838l0.031,0.115l10.36-2.838L22.958,13.811z"/>
<path fill="#E8D3AC" d="M22.485,12.557l-10.36,2.838l0.031,0.115l10.36-2.838L22.485,12.557z"/>
<path fill="#E8D3AC" d="M21.962,11.451l-10.36,2.838l0.031,0.115l10.36-2.838L21.962,11.451z"/>
<path fill="#E8D3AC" d="M21.481,10.228l-10.36,2.838l0.031,0.115l10.36-2.838L21.481,10.228z"/>
<path fill="#E8D3AC" d="M14.966,10.697l-0.102,0.061L28.12,32.911l0.102-0.061L14.966,10.697z"/>
<path fill="#E8D3AC" d="M13.887,11.021l-0.102,0.061l13.684,22.879l0.102-0.061L13.887,11.021z"/>
<path fill="#E8D3AC" d="M13.141,12.075l-0.102,0.061L26.427,34.48l0.102-0.061L13.141,12.075z"/>
<path fill="#E8D3AC" d="M12.114,12.579l-0.102,0.061l13.38,22.346l0.102-0.061L12.114,12.579z"/>
<path fill="#E8D3AC" d="M11.106,13.009l-0.102,0.061l13.38,22.346l0.102-0.061L11.106,13.009z"/>
<path fill="#E8D3AC" d="M10.102,13.415L10,13.477l13.38,22.346l0.102-0.061L10.102,13.415z"/>
<path fill="#E8D3AC" d="M16.196,10.716l-0.102,0.061l13.388,22.343l0.102-0.061L16.196,10.716z"/>
<path fill="#E8D3AC" d="M17.204,10.306l-0.102,0.061l13.38,22.346l0.102-0.061L17.204,10.306z"/>
<path fill="#E8D3AC" d="M18.145,10.032l-0.102,0.061l13.388,22.343l0.102-0.061L18.145,10.032z"/>
<path fill="#C49D65" d="M21.142,33.785c-2.218-1.701-4.421-4.365-6.194-7.514c-3.817-6.719-4.453-13.318-1.455-15.011
	c2.997-1.694,8.325,2.242,12.133,8.969c3.809,6.726,4.445,13.318,1.455,15.011c-0.962,0.541-2.171,0.525-3.53-0.032
	C22.78,34.905,21.977,34.429,21.142,33.785z M13.97,12.11c-2.433,1.375-1.598,7.641,1.821,13.676
	c1.717,3.029,3.824,5.597,5.939,7.219c1.972,1.511,3.737,2.012,4.85,1.383c2.433-1.375,1.598-7.641-1.821-13.675
	c-2.425-4.278-5.613-7.498-8.126-8.523C15.6,11.76,14.678,11.713,13.97,12.11z"/>
<path fill="#EDB312" d="M21.762,33.334c-2.218-1.701-4.413-4.365-6.202-7.514c-1.773-3.141-2.926-6.401-3.244-9.175
	c-0.334-2.918,0.31-4.993,1.805-5.836c1.495-0.843,3.602-0.326,5.931,1.455c2.218,1.701,4.413,4.365,6.202,7.514
	c1.781,3.149,2.934,6.408,3.252,9.175c0.334,2.918-0.31,4.993-1.805,5.836c-0.962,0.541-2.171,0.525-3.53-0.032
	C23.408,34.455,22.597,33.978,21.762,33.334z M14.598,11.667c-1.113,0.628-1.59,2.409-1.312,4.874
	c0.302,2.648,1.415,5.772,3.133,8.81c1.717,3.029,3.824,5.597,5.939,7.219c1.972,1.511,3.737,2.012,4.85,1.383
	c1.113-0.628,1.59-2.409,1.312-4.874c-0.302-2.648-1.415-5.772-3.133-8.81c-1.717-3.029-3.824-5.597-5.939-7.219
	c-0.763-0.58-1.495-1.018-2.171-1.296C16.213,11.318,15.282,11.278,14.598,11.667z"/>
<path fill="#EDB312" d="M33.427,45.257c0.135,0.056,0.286,0.048,0.421-0.024c0.207-0.111,0.302-0.35,0.231-0.572l-4.548-14.836
	c-0.08-0.262-0.35-0.405-0.612-0.326c-0.262,0.079-0.406,0.358-0.326,0.612l3.856,12.562l-6.838-8.03
	c-0.175-0.207-0.485-0.231-0.692-0.056c-0.207,0.175-0.827-0.223-0.644-0.024l8.969,10.551
	C33.292,45.186,33.355,45.233,33.427,45.257z"/>
<path fill="#CB5A48" d="M32.871,45.141l7.044,11.592c0.294,0.485,0.93,0.644,1.423,0.35c0.485-0.294,0.644-0.93,0.35-1.423
	l-7.044-11.592c-0.294-0.485-0.93-0.644-1.423-0.35C32.735,44.02,32.576,44.656,32.871,45.141z"/>
<path fill="#A2563E" d="M38.418,48.337c0,0-2.035-2.171-1.765-3.57c0.27-1.399-2.815,0.334,0.103,2.695L38.418,48.337z"/>
<path fill="#A2563E" d="M32.759,46.588c0,0-1.375,1.972,0.072,3.045c1.018,0.755,0.358-1.161,2.998-0.612
	C38.388,49.562,34.834,43.281,32.759,46.588z"/>
<path fill="#BD7550" d="M67.695,6.309c0,0-0.819,2.194,0.231,3.999c0.525,0.906,0.231,2.306,0.223,3.626
	c-0.008,0.787,0.938,0.024,1.455,0.286c0.581,0.294,0.93,2.043,1.415,2.592c1.304,1.479,4.468-0.557,4.468-0.557
	s3.594-1.988,3.125-3.602c-0.207-0.731-0.223-1.065-0.215-1.36c0.008-0.334,0.302-0.024,0.564-0.231
	c0.66-0.533,1.328-1.813,0.223-3.61c-0.731-1.193-3.101-1.073-3.371,1.193c-0.048,0.382-0.716,0.358-0.755,0.016
	c-0.859-7.18-2.441-4.071-5.287-2.346C68.323,7.184,67.846,5.466,67.695,6.309z"/>
<path fill="#BD7550" d="M82.104,17.098c-0.898,1.717-2.29,3.141-4.007,4.023c-2.64,1.352-3.983,0.652-4.095-0.095h-0.016
	l-0.31-5.892c0,0,5.876-7.013,6.003-4.914C79.806,12.319,82.104,17.098,82.104,17.098z"/>
<path fill="#EDB312" d="M18.892,39.44c0,2.314-1.876,4.19-4.19,4.19c-2.314,0-4.19-1.876-4.19-4.19c0-2.314,1.876-4.19,4.19-4.19
	C17.016,35.25,18.892,37.118,18.892,39.44z"/>
<path fill="#E8D3AC" d="M72.114,6.307c0,0-1.98,1.383-4.969,0.413c-3.705-1.193-1.701-3.991-1.701-3.991s2.513,0.938,6.758-1.868
	c3.419-2.258,7.307,0.08,9.08,5.208c0.493,1.431-0.072,3.777,0.986,4.858c0.127,0.127,0.199,0.246,0.191,0.334
	c-0.072,1.177-2.512,4.373-3.26-0.398c0,0,0.843-3.395-0.811-3.92c-1.646-0.533-2.823,3.093-2.823,3.093l-0.684-0.111
	C74.881,9.925,74.46,5.735,72.114,6.307z"/>
<path fill="#A05338" d="M68.442,9.479c0,0,1.813-0.588,3.029-0.135c1.224,0.461-2.051,0.35-2.6,0.843
	C68.315,10.679,68.442,9.479,68.442,9.479z"/>
<path fill="#161233" d="M71.155,10.379c0,0-0.239,1.169-0.819,1.01c-0.58-0.159-0.914-0.843-0.914-0.843L71.155,10.379z"/>
</svg>
