<?xml version="1.0" encoding="utf-8"?>
<!-- Generator: Adobe Illustrator 17.0.0, SVG Export Plug-In . SVG Version: 6.00 Build 0)  -->
<!DOCTYPE svg PUBLIC "-//W3C//DTD SVG 1.1//EN" "http://www.w3.org/Graphics/SVG/1.1/DTD/svg11.dtd">
<svg version="1.1" id="Слой_1" xmlns="http://www.w3.org/2000/svg" xmlns:xlink="http://www.w3.org/1999/xlink" x="0px" y="0px"
	 width="71.167px" height="127px" viewBox="0 0 71.167 127" enable-background="new 0 0 71.167 127" xml:space="preserve">
<g>
	<defs>
		<rect id="SVGID_1_" x="6" y="62" width="108" height="65"/>
	</defs>
	<clipPath id="SVGID_2_">
		<use xlink:href="#SVGID_1_"  overflow="visible"/>
	</clipPath>
	<g clip-path="url(#SVGID_2_)">
		<path fill="#DB6403" d="M40.429,136.39c2.711,3.473,13.617-0.549,24.36-8.984c10.743-8.435,17.255-18.088,14.544-21.562
			c-2.711-3.473-13.617,0.549-24.36,8.984C44.23,123.262,37.719,132.916,40.429,136.39z"/>
		<path opacity="0.47" fill="#F2810B" enable-background="new    " d="M54.391,115.306c-7.744,6.224-12.541,14.07-13.832,21.39
			l38.64-31.055C71.196,105.791,62.136,109.081,54.391,115.306z"/>
	</g>
</g>
<path fill="#4F2E30" d="M78.571,11.338c0,0-8.016-1.123-9.063,4.494c-1.047,5.617,10.636,1.721,10.636,1.721l0.823-4.795
	L78.571,11.338z"/>
<path fill="#006CCE" d="M73.717,63.277c0.499-8.443-27.304-21.943-27.304-21.943c-6.851-3.073-20.85-5.659-20.85-5.659l3.869,7.251
	C25.517,52.797,66.394,65.6,67.521,65.935l5.686-1.371C73.641,63.711,73.717,63.277,73.717,63.277z"/>
<path fill="#006CCE" d="M65.711,63.738c0.019,0-0.076,0.621-0.076,0.621c-1.066,0.445-1.999,0.944-2.833,1.5
	c-3.9,2.593-6.12,6.177-6.942,9.703c-0.647,2.761-0.887,5.427-1.538,7.388c-1.649,5.027-6.5,11.63-6.5,11.63l2.251,1.927
	c0,0,2.692,1.805,4.528,3.13c1.832,1.333,2.452-0.091,2.452-0.091s-3.176-2.388-3.149-5.499c0.027-3.111,3.195-5.369,11.741-16.223
	c5.861-7.453,7.666-12.498,8.073-14.555L65.711,63.738z"/>
<path fill="#945E48" d="M50.359,90.507c-0.415-0.472-2.906,2.548-2.917,4.139l2.129,1.424l7.62,7.072
	c0.704-0.194,1.242-1.851-0.465-4.238c-1.474-2.076-1.954-4.082-1.98-5.575c-0.019-0.925-0.389-1.081-1.276-1.295
	C52.274,91.756,50.701,91.588,50.359,90.507z"/>
<path fill="#334242" d="M55.675,99.838l-7.742-4.924l-1.222,1.923l7.742,4.924L55.675,99.838z"/>
<path fill="none" stroke="#000000" stroke-width="4" stroke-miterlimit="10" d="M57.691,111.201l0.278-4.779"/>
<path fill="#331B1E" d="M45.359,61.887H32.453c-1.5,0-2.73-1.23-2.73-2.73s1.23-2.73,2.73-2.73l6.851,1.344
	c1.5,0,8.785-0.111,8.785,1.39C48.089,60.657,46.859,61.887,45.359,61.887z"/>
<path fill="#331B1E" d="M25.96,126.94C11.649,126.94,0,115.295,0,100.98C0,86.665,11.649,75.02,25.96,75.02
	c14.315,0,25.96,11.645,25.96,25.961C51.924,115.295,40.275,126.94,25.96,126.94z M25.96,76.748
	c-13.359,0-24.231,10.868-24.231,24.232c0,13.359,10.868,24.231,24.231,24.231c13.359,0,24.231-10.868,24.231-24.231
	C50.192,87.617,39.323,76.748,25.96,76.748z"/>
<path fill="#DBC8AA" d="M25.959,125.309c-13.416,0-24.33-10.918-24.33-24.33c0-13.416,10.914-24.331,24.33-24.331
	c13.416,0,24.33,10.914,24.33,24.331C50.282,114.395,39.375,125.309,25.959,125.309z M25.959,77.802
	c-12.776,0-23.173,10.396-23.173,23.173c0,12.776,10.396,23.173,23.173,23.173c12.776,0,23.177-10.397,23.177-23.173
	C49.136,88.202,38.736,77.802,25.959,77.802z"/>
<path fill="#DBC8AA" d="M25.003,102.254l-0.171,0.129l14.178,18.938l0.171-0.129L25.003,102.254z"/>
<path fill="#DBC8AA" d="M24.577,101.851l-0.194,0.087l9.943,21.463l0.194-0.091L24.577,101.851z"/>
<path fill="#DBC8AA" d="M27.023,101.69l-2.281,23.546l0.213,0.019l2.281-23.546L27.023,101.69z"/>
<path fill="#DBC8AA" d="M27.401,101.098l-0.213,0.023l2.635,23.507l0.213-0.023L27.401,101.098z"/>
<path fill="#DBC8AA" d="M26.097,102.484l-0.027,0.21l23.466,3.008l0.027-0.209L26.097,102.484z"/>
<path fill="#DBC8AA" d="M47.765,110.52l-22.331-7.807l0.072-0.205l22.331,7.807L47.765,110.52z"/>
<path fill="#DBC8AA" d="M42.399,118.68l-15.305-18.047l0.167-0.137l15.305,18.047L42.399,118.68z"/>
<path fill="#DBC8AA" d="M26.922,99.962l-0.129,0.167l18.709,14.479l0.129-0.167L26.922,99.962z"/>
<path fill="#DBC8AA" d="M46.025,87.559l-18.907,14.215l0.129,0.172L46.154,87.73L46.025,87.559z"/>
<path fill="#DBC8AA" d="M48.148,92.18L26.73,102.218l0.091,0.194l21.421-10.038L48.148,92.18z"/>
<path fill="#DBC8AA" d="M26.562,99.551l-0.019,0.213l23.553,2.216l0.019-0.213L26.562,99.551z"/>
<path fill="#DBC8AA" d="M49.453,96.679l-23.5,2.723l0.023,0.213l23.5-2.723L49.453,96.679z"/>
<path fill="#DBC8AA" d="M30.291,77.227l-2.951,23.469l0.209,0.027l2.951-23.47L30.291,77.227z"/>
<path fill="#DBC8AA" d="M35.128,78.934l-7.753,22.35l0.202,0.068l7.753-22.35L35.128,78.934z"/>
<path fill="#DBC8AA" d="M43.353,84.185L25.352,99.535l0.137,0.164L43.49,84.348L43.353,84.185z"/>
<path fill="#DBC8AA" d="M39.242,81.121L24.813,99.865l0.168,0.129l14.429-18.744L39.242,81.121z"/>
<path fill="#DBC8AA" d="M12.328,80.805l-0.167,0.129L26.601,99.67l0.168-0.13L12.328,80.805z"/>
<path fill="#DBC8AA" d="M16.983,78.647l-0.19,0.091l10.248,21.322l0.19-0.092L16.983,78.647z"/>
<path fill="#DBC8AA" d="M26.332,76.672l-1.965,23.572l0.213,0.019l1.965-23.572L26.332,76.672z"/>
<path fill="#DBC8AA" d="M21.463,77.368l-0.209,0.027l2.967,23.47l0.209-0.027L21.463,77.368z"/>
<path fill="#DBC8AA" d="M25.508,99.453l-23.5-2.677l0.019-0.213l23.508,2.677L25.508,99.453z"/>
<path fill="#DBC8AA" d="M3.717,91.727l-0.069,0.202l22.438,7.491l0.069-0.202L3.717,91.727z"/>
<path fill="#DBC8AA" d="M8.98,83.5l-0.16,0.141l15.556,17.822l0.16-0.141L8.98,83.5z"/>
<path fill="#DBC8AA" d="M5.93,87.605l-0.129,0.171l18.911,14.212l0.13-0.171L5.93,87.605z"/>
<path fill="#DBC8AA" d="M24.354,100.004L5.66,114.502l0.129,0.167l18.694-14.498L24.354,100.004z"/>
<path fill="#DBC8AA" d="M3.603,110.05l-0.091-0.195l21.284-10.312l0.091,0.194L3.603,110.05z"/>
<path fill="#DBC8AA" d="M25.08,102.395L1.5,100.518l0.019-0.213l23.58,1.877L25.08,102.395z"/>
<path fill="#DBC8AA" d="M25.665,102.34l-23.462,3.024l0.027,0.213l23.462-3.024L25.665,102.34z"/>
<path fill="#DBC8AA" d="M24.07,101.246l-2.593,23.515l0.213,0.023l2.593-23.515L24.07,101.246z"/>
<path fill="#DBC8AA" d="M16.831,123.142l-0.202-0.072l7.414-22.461l0.202,0.065L16.831,123.142z"/>
<path fill="#DBC8AA" d="M26.144,102.235l-17.777,15.61l0.141,0.16l17.777-15.61L26.144,102.235z"/>
<path fill="#DBC8AA" d="M26.644,101.918l-14.14,18.965l0.171,0.125l14.14-18.961L26.644,101.918z"/>
<path fill="#331B1E" d="M99.327,126.94c-14.315,0-25.96-11.649-25.96-25.96c0-14.315,11.645-25.961,25.96-25.961
	c14.315,0,25.961,11.645,25.961,25.961C125.288,115.295,113.638,126.94,99.327,126.94z M99.327,76.748
	c-13.359,0-24.231,10.868-24.231,24.232c0,13.359,10.868,24.231,24.231,24.231c13.363,0,24.232-10.868,24.232-24.231
	C123.555,87.617,112.686,76.748,99.327,76.748z"/>
<path fill="#DBC8AA" d="M99.33,125.309c-13.416,0-24.33-10.918-24.33-24.33c0-13.416,10.918-24.331,24.33-24.331
	c13.413,0,24.331,10.914,24.331,24.331C123.661,114.395,112.746,125.309,99.33,125.309z M99.33,77.802
	c-12.776,0-23.173,10.396-23.173,23.173c0,12.776,10.396,23.173,23.173,23.173c12.777,0,23.177-10.397,23.177-23.173
	C122.503,88.202,112.107,77.802,99.33,77.802z"/>
<path fill="#DBC8AA" d="M99.315,103.08c-0.194,0-0.388-0.027-0.583-0.084c-0.556-0.156-1.017-0.518-1.306-1.02
	c-0.583-1.036-0.221-2.35,0.815-2.944c1.036-0.583,2.361-0.221,2.943,0.815c0.286,0.499,0.351,1.085,0.206,1.637
	c-0.156,0.556-0.518,1.017-1.017,1.307C100.047,102.985,99.685,103.08,99.315,103.08z M99.315,99.912
	c-0.168,0-0.335,0.046-0.491,0.129c-0.48,0.278-0.659,0.887-0.381,1.371s0.887,0.659,1.371,0.381c0.233-0.13,0.408-0.35,0.472-0.609
	c0.073-0.259,0.039-0.53-0.091-0.77C100.001,100.098,99.67,99.912,99.315,99.912z"/>
<path fill="#DBC8AA" d="M98.367,102.254l-0.171,0.126l14.178,18.938l0.171-0.13L98.367,102.254z"/>
<path fill="#DBC8AA" d="M97.94,101.852l-0.194,0.091l9.947,21.463l0.194-0.092L97.94,101.852z"/>
<path fill="#DBC8AA" d="M100.387,101.687l-2.282,23.545l0.213,0.019l2.281-23.545L100.387,101.687z"/>
<path fill="#DBC8AA" d="M100.768,101.102l-0.213,0.022l2.635,23.508l0.209-0.023L100.768,101.102z"/>
<path fill="#DBC8AA" d="M99.46,102.484l-0.027,0.21l23.465,3.008l0.027-0.209L99.46,102.484z"/>
<path fill="#DBC8AA" d="M121.14,110.52l-22.331-7.807l0.065-0.205l22.331,7.807L121.14,110.52z"/>
<path fill="#DBC8AA" d="M115.774,118.68l-15.305-18.047l0.156-0.137l15.305,18.047L115.774,118.68z"/>
<path fill="#DBC8AA" d="M100.294,99.961l-0.13,0.167l18.71,14.479l0.129-0.167L100.294,99.961z"/>
<path fill="#DBC8AA" d="M119.396,87.547l-18.904,14.223l0.13,0.172l18.903-14.224L119.396,87.547z"/>
<path fill="#DBC8AA" d="M121.511,92.18l-21.421,10.038l0.091,0.194l21.421-10.038L121.511,92.18z"/>
<path fill="#DBC8AA" d="M99.929,99.555l-0.019,0.213l23.554,2.212l0.019-0.213L99.929,99.555z"/>
<path fill="#DBC8AA" d="M122.824,96.679l-23.5,2.723l0.023,0.213l23.5-2.723L122.824,96.679z"/>
<path fill="#DBC8AA" d="M103.662,77.22l-2.951,23.469l0.209,0.027l2.952-23.47L103.662,77.22z"/>
<path fill="#DBC8AA" d="M108.5,78.934l-7.754,22.35l0.202,0.068l7.753-22.35L108.5,78.934z"/>
<path fill="#DBC8AA" d="M116.724,84.18L98.723,99.53l0.137,0.164l18.001-15.351L116.724,84.18z"/>
<path fill="#DBC8AA" d="M112.62,81.117L98.188,99.861l0.168,0.13l14.433-18.744L112.62,81.117z"/>
<path fill="#DBC8AA" d="M85.695,80.809l-0.168,0.13l14.441,18.736l0.167-0.13L85.695,80.809z"/>
<path fill="#DBC8AA" d="M90.351,78.648l-0.19,0.091l10.248,21.322l0.19-0.092L90.351,78.648z"/>
<path fill="#DBC8AA" d="M99.699,76.68l-1.965,23.572l0.213,0.019l1.965-23.572L99.699,76.68z"/>
<path fill="#DBC8AA" d="M94.838,77.368l-0.213,0.027l2.967,23.47l0.209-0.027L94.838,77.368z"/>
<path fill="#DBC8AA" d="M98.883,99.453l-23.508-2.677l0.019-0.213l23.508,2.677L98.883,99.453z"/>
<path fill="#DBC8AA" d="M99.465,99.423l-22.434-7.491l0.065-0.213l22.441,7.498L99.465,99.423z"/>
<path fill="#DBC8AA" d="M82.351,83.499l-0.16,0.141l15.556,17.822l0.16-0.141L82.351,83.499z"/>
<path fill="#DBC8AA" d="M79.294,87.609l-0.129,0.171l18.911,14.208l0.13-0.171L79.294,87.609z"/>
<path fill="#DBC8AA" d="M97.726,100.004l-18.694,14.498l0.13,0.167l18.694-14.498L97.726,100.004z"/>
<path fill="#DBC8AA" d="M76.966,110.05l-0.091-0.195l21.288-10.312l0.091,0.194L76.966,110.05z"/>
<path fill="#DBC8AA" d="M74.874,100.297l-0.019,0.213l23.58,1.881l0.015-0.213L74.874,100.297z"/>
<path fill="#DBC8AA" d="M99.044,102.336l-23.462,3.024l0.027,0.209l23.462-3.024L99.044,102.336z"/>
<path fill="#DBC8AA" d="M97.445,101.246l-2.597,23.515l0.213,0.023l2.593-23.515L97.445,101.246z"/>
<path fill="#DBC8AA" d="M90.194,123.142l-0.202-0.072l7.414-22.461l0.206,0.065L90.194,123.142z"/>
<path fill="#DBC8AA" d="M99.523,102.231l-17.776,15.61l0.141,0.16l17.776-15.61L99.523,102.231z"/>
<path fill="#DBC8AA" d="M100.018,101.918l-14.147,18.961l0.171,0.125l14.147-18.96L100.018,101.918z"/>
<path fill="#331B1E" d="M108.282,67.193c-0.545,0-1.009-0.426-1.055-0.982c-0.046-0.583,0.388-1.093,0.971-1.139
	c0.24-0.019,5.899-0.545,5.575-5.221c-0.11-1.63-0.659-2.86-1.622-3.667c-1.683-1.417-4.174-1.158-4.204-1.158
	c-0.038,0-0.084,0.011-0.122,0.011H96.214l-12.407,7.731c-0.499,0.305-0.381,0.628-0.686,0.137
	c-0.316-0.499-0.556-1.862-0.057-2.167l12.285-7.658c0.168-0.103,0.362-0.156,0.564-0.156h11.858
	c0.499-0.046,3.492-0.221,5.72,1.638c1.436,1.196,2.239,2.925,2.388,5.168c0.369,5.427-4.76,7.27-7.529,7.483
	C108.335,67.193,108.308,67.193,108.282,67.193z"/>
<path fill="#BD7550" d="M82.745,19.688c0,0,1.291,1.98,4.273,8.637c2.982,6.657,5.644,10.297,5.644,10.297l-5.945,3.203
	l-8.267-14.213C78.457,27.622,82.452,20.78,82.745,19.688z"/>
<path fill="#BD7550" d="M100.518,50.859c-0.046-0.038-13.21-8.138-13.805-9.037c-1.047-1.592,5.868-3.279,5.868-3.279
	s7.814,8.972,11.39,10.362l2.426,0.453c0,0,4.749,2.658,5.544,3.545c0.796,0.899,0.103,0.693,0.103,0.693s-4.082-1.066-6.862,0.13
	c0,0,0.693,3.176-1.093,3.073c0,0-0.194-1.98-1.489-3.176C101.314,52.454,100.324,52.054,100.518,50.859z"/>
<path fill="#1EDEF2" d="M73.812,15.51c0,0-0.221,4.322,1.085,9.6c0.583,2.38,1.82,1.408,2.982-0.74
	c1.676-3.039,4.863-4.694,4.863-4.694c0,0.637-4.482,10.978-7.845,13.262c-1.862,1.139-5.986,1.809-8.062,1.142
	c-1.725-0.556-3.618,0-5.903-0.762c-4.825-1.608-14.208,0.442-15.229,2.542c-1.363,2.803,0.072,5.183,0.072,5.183
	s-14.288-4.223-20.823-5.583c0,0,2.262-8.831,15.168-15.667c6.935-3.667,14.703-5.48,22.544-5.434l9.258,0.057L73.812,15.51z"/>
<path fill="#BD7550" d="M82.726,19.714l0.023-0.015c0-0.004,0.004-0.008,0.004-0.011l0.023-0.004l2.883-1.729l2.711,0.167
	c0,0,1.158,0.305,1.554-2.315c0.046-0.278,0.065-0.99,0.213-1.618h0.297c0.602,0,1.101-0.122,0.743-1.165
	c-0.008-0.038-0.537-2.045-0.544-2.083c-0.187-0.602,0.103-0.175,0.251-1.592c0.148-1.417-0.518-3.279-0.518-3.279
	s-0.206-0.415-0.716-0.941l-6.261,0.446c0,0-4.92,3.469-4.958,6.432c-0.038,2.906-6.512,2.418-6.512,2.418
	s1.558,13.758,4.056,13.758c0,0,3.047-5.331,6.763-8.441L82.726,19.714z"/>
<path fill="#DB6403" d="M56.339,106.94c-0.057,0-0.11,0-0.168-0.007l-30.34-4.814c-0.335-0.057-0.628-0.27-0.777-0.575
	c-0.156-0.305-0.149-0.666,0.008-0.971l18.016-34.506c0.187-0.35,0.545-0.575,0.944-0.575l41.479,0.206
	c0.583,0,1.055,0.48,1.055,1.066c0,0.583-0.046,1.055-0.628,1.055c0,0,0,0-0.011,0l-41.258-0.194l-17.041,32.609l28.302,4.49
	l30.191-34.506c0.388-0.446,1.055-0.48,1.5-0.103c0.446,0.388,0.48,1.055,0.103,1.5l-30.583,34.951
	C56.933,106.799,56.636,106.94,56.339,106.94z"/>
<path fill="#DB6403" d="M56.339,106.943c-0.453,0-0.868-0.285-1.009-0.742L41.182,61.546c-0.175-0.556,0.129-1.158,0.693-1.333
	c0.556-0.175,1.158,0.129,1.333,0.693l14.147,44.646c0.175,0.556-0.129,1.158-0.693,1.333
	C56.552,106.924,56.442,106.943,56.339,106.943z"/>
<path fill="#331B1E" d="M58.357,107.96c0.803,0,1.455-0.651,1.455-1.454c0-0.804-0.651-1.455-1.455-1.455
	c-0.804,0-1.455,0.651-1.455,1.455C56.906,107.309,57.554,107.96,58.357,107.96z"/>
<path fill="#331B1E" d="M58.357,114.19c-4.238,0-7.685-3.443-7.685-7.685c0-4.242,3.443-7.685,7.685-7.685
	c4.242,0,7.685,3.443,7.685,7.685C66.042,110.747,62.588,114.19,58.357,114.19z M58.357,100.34c-3.397,0-6.165,2.768-6.165,6.165
	c0,3.397,2.769,6.166,6.165,6.166c3.397,0,6.165-2.769,6.165-6.166C64.522,103.108,61.757,100.34,58.357,100.34z"/>
<path fill="#331B1E" d="M99.381,102.466c-0.426,0-0.823-0.251-0.99-0.666L82.606,62.024c-0.13-0.324-0.091-0.693,0.11-0.99
	c0.194-0.286,0.529-0.465,0.88-0.465h11.859c0.499-0.046,3.492-0.221,5.724,1.63c1.436,1.196,2.239,2.925,2.388,5.168
	c0.369,5.427-4.761,7.27-7.529,7.483c-0.594,0.046-1.093-0.388-1.139-0.971c-0.046-0.583,0.388-1.093,0.971-1.139
	c0.24-0.019,5.899-0.545,5.575-5.221c-0.11-1.63-0.658-2.871-1.629-3.675c-1.676-1.398-4.166-1.158-4.193-1.146
	c-0.038,0-0.084,0.012-0.122,0.012H85.15l15.214,38.314c0.213,0.545-0.046,1.158-0.594,1.379
	C99.64,102.44,99.511,102.466,99.381,102.466z"/>
<path fill="#BD7550" d="M92.233,57.915L71.791,47.694c-0.861-0.434-1.573-1.112-2.037-1.953c-0.636-5.375-7.331-16.053-8.062-21.94
	c0,0,0.156-7.15,5.663-6.846c5.51,0.297,5.952,14.271,5.952,14.271s3.526,9.469,4.574,10.801l20.054,15.686l0.194,3.473l-0.796,2.38
	h-5.465l0.899-3.576L92.233,57.915z"/>
<path fill="#331B1E" d="M64.109,110.652l-6.242-3.98l0.175-6.805l1.211,0.027l-0.156,6.131l5.655,3.602L64.109,110.652z"/>
<path fill="#331B1E" d="M58.11,105.876l-5.419,4.28l0.754,0.952l5.419-4.284L58.11,105.876z"/>
<path fill="#DB6403" d="M99.3,103.08c-0.194,0-0.388-0.027-0.583-0.084c-0.556-0.156-1.017-0.518-1.306-1.02
	c-0.583-1.036-0.221-2.35,0.815-2.944c1.036-0.583,2.361-0.221,2.944,0.815c0.285,0.499,0.35,1.085,0.205,1.637
	c-0.156,0.556-0.518,1.017-1.017,1.307C100.031,102.985,99.673,103.08,99.3,103.08z M99.3,99.912c-0.168,0-0.343,0.046-0.491,0.129
	c-0.484,0.278-0.659,0.887-0.381,1.371c0.278,0.484,0.887,0.659,1.371,0.381c0.232-0.13,0.407-0.35,0.472-0.609
	c0.072-0.259,0.038-0.53-0.092-0.77C99.985,100.098,99.654,99.912,99.3,99.912z"/>
<path fill="#331B1E" d="M59.384,100.312c-0.221-0.008-0.4-0.195-0.4-0.415c0.011-0.221,0.194-0.408,0.415-0.396h0.137
	c0.221,0.008,0.4,0.194,0.4,0.415c-0.008,0.22-0.194,0.407-0.415,0.399h-0.137V100.312z"/>
<path fill="#331B1E" d="M32.304,106.923c-0.038,0-0.084-0.008-0.122-0.027l-0.259-0.091c-0.103-0.038-0.175-0.103-0.221-0.187
	c-0.091,0.038-0.194,0.046-0.286,0.008l-0.259-0.092c-0.103-0.038-0.175-0.102-0.221-0.186c-0.091,0.038-0.194,0.045-0.286,0.007
	l-0.259-0.091c-0.103-0.038-0.175-0.103-0.221-0.187c-0.091,0.038-0.194,0.046-0.286,0.008l-0.259-0.091
	c-0.103-0.038-0.175-0.103-0.221-0.187c-0.091,0.038-0.194,0.046-0.286,0.008l-0.259-0.092c-0.103-0.038-0.175-0.103-0.221-0.186
	c-0.091,0.038-0.194,0.045-0.286,0.007l-0.259-0.091c-0.103-0.038-0.175-0.103-0.221-0.187c-0.091,0.038-0.194,0.046-0.286,0.008
	l-0.259-0.092c-0.129-0.045-0.221-0.148-0.259-0.278c-0.137,0.008-0.27-0.045-0.362-0.156l-0.168-0.213
	c-0.065-0.084-0.091-0.187-0.084-0.278c-0.091-0.019-0.187-0.076-0.251-0.156l-0.167-0.213c-0.065-0.084-0.091-0.187-0.084-0.278
	c-0.091-0.019-0.187-0.076-0.251-0.156l-0.167-0.214c-0.057-0.072-0.084-0.156-0.084-0.232c-0.057-0.008-0.103-0.019-0.156-0.046
	l-0.232-0.129c-0.091-0.057-0.156-0.13-0.187-0.221c-0.091,0.019-0.194,0.008-0.286-0.046l-0.084-0.045
	c-0.065-0.039-0.129-0.073-0.187-0.122c-0.103-0.076-0.168-0.187-0.168-0.305c-0.122-0.008-0.232-0.065-0.305-0.175
	c-0.065-0.092-0.122-0.194-0.175-0.297c-0.057-0.122-0.046-0.252,0-0.351c-0.103-0.064-0.168-0.175-0.187-0.297
	c-0.008-0.091-0.008-0.194-0.008-0.285v-0.046c0.008-0.129,0.072-0.24,0.168-0.305c-0.057-0.102-0.065-0.232-0.019-0.35
	c0.046-0.103,0.091-0.206,0.149-0.305c0.065-0.111,0.175-0.175,0.297-0.194c0-0.122,0.057-0.24,0.149-0.324
	c0.091-0.072,0.187-0.137,0.286-0.194c0.11-0.065,0.24-0.065,0.35-0.019c0.057-0.103,0.149-0.175,0.27-0.206l0.267-0.057
	c0.11-0.027,0.232,0,0.316,0.065c0.072-0.084,0.194-0.137,0.316-0.137l0.27,0.008c0.103,0,0.194,0.046,0.267,0.11
	c0.072-0.065,0.167-0.103,0.278-0.091l0.27,0.008c0.103,0,0.194,0.046,0.27,0.11c0.072-0.065,0.168-0.103,0.278-0.091l0.27,0.008
	c0.11,0,0.194,0.046,0.27,0.11c0.072-0.065,0.167-0.103,0.278-0.091l0.27,0.008c0.103,0,0.194,0.046,0.27,0.11
	c0.072-0.065,0.168-0.103,0.278-0.091l0.27,0.008c0.103,0,0.194,0.046,0.27,0.111c0.072-0.065,0.168-0.103,0.278-0.091l0.27,0.008
	c0.103,0,0.194,0.046,0.27,0.11c0.072-0.065,0.168-0.103,0.278-0.091l0.27,0.008c0.103,0,0.194,0.046,0.27,0.111
	c0.072-0.065,0.168-0.103,0.278-0.091l0.27,0.011c0.103,0,0.194,0.046,0.27,0.11c0.072-0.065,0.168-0.103,0.278-0.091l0.27,0.012
	c0.091,0,0.194,0.046,0.27,0.11c0.072-0.065,0.168-0.103,0.278-0.091l0.27,0.011c0.11,0,0.194,0.046,0.267,0.111
	c0.072-0.065,0.167-0.103,0.278-0.091l0.27,0.008c0.103,0,0.194,0.046,0.27,0.11c0.072-0.065,0.168-0.103,0.278-0.091l0.27,0.008
	c0.103,0,0.194,0.046,0.27,0.111c0.072-0.065,0.167-0.103,0.278-0.091l0.27,0.008c0.103,0,0.194,0.046,0.27,0.11
	c0.072-0.065,0.168-0.103,0.278-0.091l0.27,0.008c0.11,0,0.194,0.046,0.27,0.11c0.072-0.065,0.167-0.103,0.278-0.091l0.27,0.008
	c0.103,0,0.194,0.046,0.27,0.111c0.072-0.065,0.168-0.103,0.278-0.091l0.267,0.008c0.091,0,0.194,0.046,0.27,0.11
	c0.072-0.065,0.168-0.103,0.278-0.091l0.267,0.008c0.111,0,0.194,0.046,0.27,0.111c0.072-0.065,0.168-0.103,0.278-0.091l0.27,0.008
	c0.103,0.008,0.194,0.046,0.267,0.11c0.072-0.065,0.167-0.103,0.278-0.091l0.27,0.008c0.103,0,0.194,0.046,0.267,0.11
	c0.072-0.065,0.168-0.103,0.278-0.091l0.27,0.008c0.103,0,0.194,0.046,0.267,0.11c0.072-0.065,0.168-0.103,0.278-0.091l0.27,0.008
	c0.111,0,0.194,0.046,0.267,0.11c0.072-0.065,0.168-0.103,0.278-0.091l0.27,0.008c0.103,0.008,0.194,0.046,0.267,0.111
	c0.072-0.065,0.167-0.103,0.278-0.091l0.27,0.008c0.091,0,0.194,0.046,0.267,0.11c0.072-0.065,0.168-0.103,0.278-0.091l0.27,0.008
	c0.11,0.008,0.194,0.046,0.27,0.111c0.072-0.065,0.167-0.103,0.278-0.091l0.27,0.008c0.103,0,0.194,0.046,0.27,0.11
	c0.072-0.065,0.168-0.103,0.278-0.091l0.27,0.008c0.103,0.008,0.194,0.046,0.27,0.11c0.072-0.065,0.167-0.103,0.278-0.091
	l0.27,0.008c0.091,0,0.194,0.046,0.27,0.11c0.072-0.065,0.168-0.103,0.278-0.091l0.27,0.008c0.11,0.008,0.194,0.046,0.27,0.11
	c0.072-0.065,0.167-0.103,0.278-0.091l0.267,0.008c0.103,0,0.194,0.046,0.27,0.111c0.076-0.065,0.168-0.103,0.278-0.091L50,99.409
	c0.091,0.011,0.194,0.046,0.267,0.11c0.072-0.065,0.167-0.103,0.278-0.091l0.27,0.008c0.111,0,0.194,0.046,0.27,0.111
	c0.072-0.065,0.168-0.103,0.278-0.091l0.27,0.008c0.103,0.008,0.194,0.046,0.27,0.11c0.072-0.065,0.168-0.103,0.278-0.091
	l0.27,0.008c0.103,0,0.194,0.046,0.27,0.111c0.072-0.065,0.168-0.103,0.278-0.091l0.27,0.008c0.103,0,0.194,0.046,0.267,0.11
	c0.076-0.065,0.167-0.103,0.278-0.091l0.27,0.008c0.103,0,0.194,0.046,0.27,0.11c0.072-0.065,0.168-0.103,0.278-0.091l0.27,0.008
	c0.103,0.008,0.194,0.046,0.27,0.111c0.076-0.065,0.167-0.103,0.278-0.091l0.27,0.008c0.091,0,0.194,0.046,0.27,0.11
	c0.072-0.065,0.168-0.103,0.278-0.091l0.27,0.008c0.11,0.008,0.194,0.046,0.27,0.111c0.072-0.065,0.167-0.103,0.278-0.091
	l0.27,0.008c0.103,0,0.194,0.046,0.27,0.11c0.072-0.065,0.168-0.103,0.278-0.091l0.27,0.008c0.103,0,0.194,0.046,0.27,0.11
	c0.076-0.065,0.168-0.103,0.278-0.091l0.27,0.008c0.221,0.008,0.396,0.194,0.396,0.415c-0.008,0.22-0.194,0.407-0.415,0.399
	l-0.27-0.007c-0.11-0.008-0.194-0.046-0.27-0.111c-0.072,0.065-0.168,0.103-0.278,0.092l-0.27-0.008c-0.103,0-0.194-0.046-0.27-0.11
	c-0.072,0.064-0.168,0.103-0.278,0.091l-0.267-0.007c-0.103,0-0.194-0.046-0.27-0.111c-0.076,0.065-0.168,0.103-0.278,0.091
	l-0.267-0.007c-0.103,0-0.194-0.046-0.27-0.111c-0.072,0.065-0.167,0.103-0.278,0.092l-0.27-0.008c-0.11,0-0.194-0.045-0.27-0.11
	c-0.072,0.065-0.168,0.103-0.278,0.091l-0.27-0.007c-0.103-0.008-0.194-0.046-0.27-0.111c-0.072,0.065-0.167,0.103-0.278,0.092
	l-0.267-0.008c-0.103,0-0.194-0.046-0.27-0.111c-0.076,0.065-0.168,0.103-0.278,0.092l-0.27-0.008
	c-0.11-0.007-0.194-0.045-0.267-0.11c-0.072,0.065-0.167,0.103-0.278,0.091l-0.27-0.007c-0.103,0-0.194-0.046-0.27-0.111
	c-0.072,0.065-0.168,0.103-0.278,0.092l-0.27-0.008c-0.103-0.008-0.194-0.046-0.27-0.111c-0.072,0.065-0.167,0.103-0.278,0.092
	l-0.27-0.008c-0.122,0-0.194-0.045-0.266-0.11c-0.076,0.065-0.168,0.103-0.278,0.091l-0.27-0.007
	c-0.11-0.012-0.194-0.046-0.27-0.111c-0.072,0.065-0.167,0.103-0.278,0.092l-0.27-0.008c-0.103,0-0.194-0.046-0.27-0.11
	c-0.072,0.064-0.168,0.102-0.278,0.091l-0.267-0.008c-0.091-0.007-0.194-0.045-0.27-0.11c-0.072,0.065-0.167,0.103-0.278,0.091
	l-0.267-0.007c-0.11,0-0.194-0.046-0.27-0.111c-0.072,0.065-0.168,0.103-0.278,0.092l-0.267-0.008
	c-0.103-0.008-0.194-0.046-0.27-0.111c-0.072,0.065-0.167,0.103-0.278,0.092l-0.266-0.008c-0.103,0-0.194-0.045-0.27-0.11
	c-0.072,0.065-0.168,0.103-0.278,0.091l-0.27-0.007c-0.103,0-0.194-0.046-0.267-0.111c-0.072,0.065-0.167,0.103-0.278,0.092
	l-0.27-0.008c-0.111,0-0.194-0.046-0.27-0.11c-0.072,0.065-0.168,0.102-0.278,0.091l-0.27-0.008
	c-0.103-0.007-0.194-0.045-0.267-0.11c-0.072,0.065-0.167,0.103-0.278,0.091l-0.27-0.008c-0.091,0-0.194-0.046-0.267-0.11
	c-0.072,0.065-0.168,0.103-0.278,0.091l-0.27-0.008c-0.11-0.008-0.194-0.046-0.267-0.11c-0.072,0.065-0.167,0.103-0.278,0.091
	l-0.27-0.008c-0.103,0-0.194-0.046-0.27-0.111c-0.072,0.065-0.168,0.103-0.278,0.091l-0.27-0.008
	c-0.103-0.008-0.194-0.046-0.27-0.11c-0.072,0.065-0.167,0.103-0.278,0.091l-0.27-0.008c-0.122,0-0.194-0.046-0.27-0.111
	c-0.072,0.065-0.168,0.103-0.278,0.091l-0.27-0.008c-0.11-0.008-0.194-0.046-0.27-0.11c-0.072,0.065-0.167,0.103-0.278,0.091
	l-0.27-0.008c-0.103,0-0.194-0.046-0.27-0.111c-0.072,0.065-0.168,0.103-0.278,0.091l-0.27-0.008
	c-0.091-0.008-0.194-0.046-0.27-0.11c-0.072,0.065-0.167,0.103-0.278,0.091l-0.27-0.008c-0.11,0-0.194-0.046-0.27-0.11
	c-0.072,0.065-0.168,0.103-0.278,0.091l-0.27-0.008c-0.103,0-0.194-0.046-0.27-0.111c-0.072,0.065-0.168,0.103-0.278,0.091
	l-0.27-0.008c-0.103,0-0.194-0.046-0.27-0.11c-0.072,0.065-0.167,0.103-0.278,0.091l-0.267-0.008
	c-0.122-0.008-0.194-0.046-0.27-0.111c-0.072,0.065-0.168,0.103-0.278,0.091l-0.27-0.008c-0.11,0-0.194-0.046-0.27-0.11
	c-0.072,0.065-0.167,0.103-0.278,0.091l-0.27-0.008c-0.103-0.008-0.194-0.046-0.27-0.11c-0.072,0.065-0.168,0.103-0.278,0.091
	l-0.27-0.008c-0.103,0-0.194-0.046-0.27-0.11c-0.072,0.065-0.168,0.103-0.278,0.091l-0.27-0.008c-0.111-0.008-0.194-0.046-0.27-0.11
	c-0.072,0.065-0.168,0.103-0.278,0.091l-0.27-0.008c-0.103,0-0.194-0.046-0.27-0.111c-0.072,0.065-0.167,0.103-0.278,0.091
	l-0.27-0.008c-0.103-0.008-0.194-0.046-0.27-0.11c-0.072,0.065-0.168,0.103-0.278,0.091l-0.27-0.008
	c-0.122,0-0.194-0.046-0.27-0.111c-0.072,0.065-0.167,0.103-0.278,0.091l-0.27-0.011c-0.103,0-0.194-0.046-0.27-0.11
	c-0.072,0.065-0.168,0.103-0.278,0.091l-0.267-0.012c-0.084,0-0.156-0.027-0.221-0.072c-0.057,0.065-0.129,0.11-0.213,0.13
	l-0.27,0.057c-0.084,0.019-0.168,0.008-0.24-0.019c-0.038,0.065-0.091,0.122-0.156,0.156c-0.057,0.038-0.11,0.072-0.167,0.11
	c-0.065,0.046-0.129,0.072-0.202,0.084c0,0.072-0.019,0.148-0.057,0.214c-0.038,0.053-0.065,0.122-0.091,0.186
	c-0.027,0.073-0.072,0.137-0.137,0.176c0.038,0.064,0.057,0.137,0.046,0.22v0.027c0,0.057,0,0.122,0.008,0.175
	c0.008,0.076-0.008,0.156-0.038,0.221c0.065,0.038,0.11,0.091,0.149,0.168c0.027,0.064,0.065,0.122,0.103,0.175
	c0.046,0.065,0.065,0.141,0.072,0.213c0.072,0,0.149,0.027,0.213,0.072c0.038,0.027,0.072,0.046,0.111,0.073l0.084,0.045
	c0.091,0.058,0.156,0.13,0.187,0.221c0.091-0.019,0.194-0.011,0.286,0.046l0.24,0.13c0.129,0.072,0.202,0.205,0.202,0.342
	c0.11,0.008,0.213,0.065,0.278,0.156l0.168,0.214c0.065,0.083,0.091,0.186,0.084,0.278c0.091,0.019,0.187,0.072,0.251,0.156
	l0.167,0.213c0.065,0.084,0.091,0.187,0.084,0.278c0.091,0.019,0.187,0.072,0.251,0.156l0.168,0.213
	c0.038,0.046,0.057,0.092,0.065,0.138c0.057,0,0.111,0,0.168,0.019l0.259,0.091c0.103,0.038,0.175,0.103,0.221,0.187
	c0.091-0.039,0.194-0.046,0.286-0.008l0.259,0.091c0.103,0.038,0.175,0.103,0.221,0.187c0.091-0.038,0.194-0.046,0.286-0.008
	l0.259,0.092c0.103,0.038,0.175,0.103,0.221,0.186c0.091-0.038,0.194-0.045,0.286-0.007l0.259,0.091
	c0.103,0.038,0.175,0.103,0.221,0.187c0.091-0.038,0.194-0.046,0.286-0.008l0.259,0.092c0.103,0.038,0.175,0.102,0.221,0.186
	c0.091-0.038,0.194-0.046,0.286-0.008l0.259,0.092c0.103,0.038,0.175,0.103,0.221,0.186c0.091-0.038,0.194-0.045,0.286-0.007
	l0.259,0.091c0.213,0.076,0.324,0.305,0.251,0.518C32.647,106.82,32.479,106.93,32.304,106.923z"/>
<path fill="#331B1E" d="M32.961,107.286c-0.167-0.008-0.305-0.11-0.369-0.259c-0.137-0.103-0.202-0.285-0.137-0.464
	c0.072-0.214,0.305-0.324,0.518-0.252l0.129,0.046c0.156,0.057,0.259,0.194,0.27,0.362l0.008,0.137
	c0.019,0.221-0.156,0.415-0.381,0.434C32.992,107.286,32.973,107.286,32.961,107.286z"/>
<path fill="#331B1E" d="M58.407,112.96c-0.012,0-0.012,0-0.019,0l-0.278-0.019c-0.103-0.011-0.194-0.057-0.27-0.129
	c-0.076,0.057-0.175,0.091-0.278,0.084l-0.278-0.019c-0.103-0.008-0.194-0.054-0.27-0.13c-0.076,0.057-0.175,0.091-0.278,0.084
	l-0.278-0.019c-0.103-0.008-0.194-0.057-0.27-0.13c-0.076,0.057-0.175,0.092-0.278,0.084l-0.278-0.019
	c-0.103-0.008-0.194-0.057-0.27-0.129c-0.072,0.057-0.175,0.091-0.278,0.083l-0.278-0.019c-0.103-0.007-0.194-0.057-0.27-0.129
	c-0.072,0.053-0.175,0.091-0.278,0.084l-0.267-0.019c-0.103-0.008-0.194-0.058-0.27-0.13c-0.076,0.057-0.175,0.091-0.278,0.084
	l-0.278-0.019c-0.103-0.012-0.194-0.057-0.27-0.13c-0.076,0.057-0.175,0.092-0.278,0.084l-0.278-0.019
	c-0.103-0.008-0.194-0.057-0.27-0.129c-0.072,0.057-0.175,0.091-0.278,0.083l-0.27-0.019c-0.103-0.007-0.194-0.057-0.27-0.129
	c-0.072,0.057-0.175,0.091-0.278,0.084l-0.278-0.019c-0.103-0.008-0.194-0.058-0.27-0.13c-0.072,0.053-0.175,0.092-0.278,0.084
	l-0.27-0.019c-0.103-0.012-0.194-0.057-0.27-0.13c-0.072,0.058-0.175,0.092-0.278,0.084l-0.278-0.019
	c-0.103-0.007-0.194-0.057-0.27-0.129c-0.072,0.057-0.175,0.091-0.278,0.083l-0.278-0.019c-0.103-0.007-0.194-0.057-0.27-0.129
	c-0.072,0.057-0.175,0.091-0.278,0.084l-0.278-0.019c-0.103-0.008-0.194-0.057-0.27-0.13c-0.072,0.057-0.175,0.092-0.278,0.084
	l-0.278-0.019c-0.103-0.008-0.194-0.057-0.267-0.13c-0.072,0.058-0.175,0.092-0.278,0.084l-0.278-0.019
	c-0.103-0.007-0.194-0.057-0.27-0.129c-0.072,0.057-0.175,0.091-0.278,0.083l-0.278-0.019c-0.103-0.007-0.194-0.057-0.27-0.129
	c-0.072,0.057-0.175,0.091-0.278,0.084l-0.278-0.019c-0.103-0.008-0.194-0.054-0.27-0.13c-0.072,0.057-0.175,0.092-0.278,0.084
	l-0.278-0.019c-0.103-0.008-0.194-0.057-0.27-0.13c-0.072,0.058-0.175,0.092-0.278,0.084l-0.278-0.019
	c-0.103-0.007-0.194-0.057-0.266-0.129c-0.072,0.057-0.175,0.091-0.278,0.084l-0.27-0.02c-0.103-0.007-0.194-0.057-0.267-0.129
	c-0.072,0.057-0.175,0.091-0.278,0.084l-0.278-0.019c-0.103-0.008-0.194-0.057-0.266-0.13c-0.072,0.057-0.175,0.092-0.278,0.084
	l-0.278-0.019c-0.103-0.008-0.194-0.057-0.27-0.129c-0.072,0.057-0.175,0.091-0.278,0.083l-0.278-0.019
	c-0.103-0.007-0.194-0.057-0.27-0.129c-0.072,0.057-0.175,0.091-0.278,0.084l-0.278-0.019c-0.103-0.008-0.194-0.058-0.27-0.13
	c-0.072,0.057-0.175,0.091-0.278,0.084l-0.278-0.019c-0.103-0.008-0.194-0.057-0.27-0.13c-0.072,0.054-0.175,0.092-0.278,0.084
	l-0.278-0.019c-0.103-0.008-0.194-0.057-0.27-0.129c-0.072,0.057-0.175,0.091-0.278,0.083l-0.278-0.019
	c-0.103-0.007-0.194-0.057-0.27-0.129c-0.072,0.057-0.175,0.091-0.278,0.084l-0.278-0.019c-0.103-0.008-0.194-0.058-0.27-0.13
	c-0.072,0.057-0.175,0.091-0.278,0.084l-0.278-0.019c-0.103-0.008-0.194-0.057-0.27-0.13c-0.072,0.057-0.175,0.092-0.278,0.084
	l-0.11-0.007c-0.091-0.008-0.175-0.046-0.251-0.111l-0.122-0.11c-0.072-0.077-0.122-0.168-0.129-0.267
	c-0.091,0-0.194-0.038-0.27-0.11c-0.072-0.073-0.13-0.176-0.137-0.278l-0.019-0.267c-0.008-0.103,0.027-0.206,0.084-0.278
	c-0.072-0.065-0.122-0.156-0.122-0.266l-0.019-0.278c-0.008-0.103,0.027-0.206,0.084-0.278c-0.072-0.065-0.122-0.157-0.122-0.267
	l-0.019-0.278c-0.008-0.103,0.027-0.206,0.084-0.278c-0.072-0.065-0.122-0.156-0.122-0.267l-0.019-0.278
	c-0.019-0.22,0.156-0.415,0.381-0.434c0.232-0.019,0.415,0.156,0.434,0.381l0.019,0.278c0.008,0.103-0.027,0.202-0.084,0.278
	c0.072,0.065,0.122,0.156,0.122,0.27l0.019,0.278c0.008,0.103-0.027,0.206-0.084,0.278c0.072,0.065,0.122,0.157,0.122,0.271
	l0.019,0.278c0.008,0.103-0.027,0.205-0.084,0.278c0.072,0.065,0.122,0.156,0.122,0.27l0.019,0.232c0,0.008,0,0.02,0,0.027
	c0.103,0,0.202,0.038,0.278,0.111l0.019,0.019c0.091,0.019,0.168,0.057,0.232,0.121c0.072-0.057,0.175-0.091,0.278-0.083l0.27,0.019
	c0.103,0.007,0.194,0.057,0.27,0.129c0.072-0.057,0.175-0.091,0.278-0.084l0.27,0.019c0.103,0.008,0.194,0.058,0.27,0.13
	c0.072-0.057,0.175-0.091,0.278-0.084l0.278,0.019c0.103,0.008,0.194,0.057,0.27,0.13c0.072-0.054,0.175-0.092,0.278-0.084
	l0.278,0.019c0.103,0.008,0.194,0.057,0.27,0.129c0.072-0.057,0.175-0.091,0.278-0.083l0.278,0.019
	c0.103,0.011,0.194,0.057,0.27,0.129c0.072-0.057,0.175-0.091,0.278-0.084l0.278,0.019c0.103,0.008,0.194,0.054,0.267,0.13
	c0.072-0.057,0.175-0.091,0.278-0.084l0.27,0.019c0.103,0.008,0.194,0.057,0.267,0.13c0.072-0.057,0.175-0.092,0.278-0.084
	l0.278,0.019c0.103,0.008,0.194,0.057,0.267,0.129c0.072-0.057,0.175-0.091,0.278-0.083l0.278,0.019
	c0.103,0.007,0.194,0.057,0.27,0.129c0.072-0.057,0.175-0.091,0.278-0.084l0.267,0.019c0.103,0.008,0.194,0.058,0.27,0.13
	c0.072-0.057,0.175-0.092,0.278-0.084l0.278,0.019c0.103,0.008,0.194,0.057,0.27,0.13c0.072-0.058,0.175-0.092,0.278-0.084
	l0.278,0.019c0.103,0.007,0.194,0.057,0.27,0.129c0.072-0.057,0.175-0.091,0.278-0.083l0.27,0.019
	c0.103,0.007,0.194,0.057,0.27,0.129c0.072-0.057,0.175-0.091,0.278-0.084l0.27,0.019c0.103,0.008,0.194,0.057,0.27,0.13
	c0.072-0.053,0.175-0.092,0.278-0.084l0.278,0.019c0.103,0.012,0.194,0.057,0.27,0.13c0.072-0.058,0.175-0.092,0.278-0.084
	l0.278,0.019c0.103,0.007,0.194,0.057,0.267,0.129c0.072-0.057,0.175-0.091,0.278-0.083l0.278,0.019
	c0.103,0.007,0.194,0.057,0.27,0.129c0.072-0.057,0.175-0.091,0.278-0.084l0.278,0.019c0.103,0.008,0.194,0.057,0.266,0.13
	c0.076-0.057,0.175-0.092,0.278-0.084l0.278,0.019c0.103,0.008,0.194,0.057,0.27,0.13c0.076-0.058,0.175-0.092,0.278-0.084
	l0.278,0.019c0.103,0.007,0.194,0.057,0.27,0.129c0.076-0.057,0.175-0.091,0.278-0.084l0.278,0.02
	c0.103,0.007,0.194,0.057,0.27,0.129c0.072-0.057,0.175-0.091,0.278-0.084l0.27,0.019c0.103,0.008,0.194,0.057,0.27,0.13
	c0.072-0.057,0.175-0.092,0.278-0.084l0.27,0.019c0.103,0.008,0.194,0.057,0.27,0.129c0.072-0.057,0.175-0.091,0.278-0.083
	l0.278,0.019c0.103,0.007,0.194,0.057,0.27,0.129c0.072-0.053,0.175-0.091,0.278-0.084l0.278,0.019
	c0.103,0.008,0.194,0.058,0.27,0.13c0.072-0.057,0.175-0.091,0.278-0.084l0.278,0.019c0.103,0.008,0.194,0.057,0.27,0.13
	c0.072-0.057,0.175-0.092,0.278-0.084l0.278,0.019c0.103,0.008,0.194,0.057,0.27,0.129c0.072-0.057,0.175-0.091,0.278-0.083
	l0.278,0.019c0.103,0.007,0.194,0.057,0.27,0.129c0.072-0.057,0.175-0.091,0.278-0.084l0.278,0.019
	c0.103,0.008,0.194,0.058,0.27,0.13c0.072-0.057,0.175-0.091,0.278-0.084l0.278,0.019c0.221,0.019,0.388,0.213,0.381,0.434
	C58.803,112.804,58.616,112.968,58.407,112.96z"/>
<path fill="#331B1E" d="M59.08,113.014c-0.008,0-0.008,0-0.019,0l-0.141-0.007c-0.221-0.019-0.388-0.214-0.381-0.435
	c0.019-0.22,0.206-0.388,0.434-0.38l0.141,0.007c0.221,0.019,0.389,0.214,0.381,0.434C59.487,112.858,59.301,113.026,59.08,113.014z
	"/>
<path fill="#0074F0" d="M24.962,35.473c0,0-0.602,2.628-0.842,6.257c-0.168,2.517,0.445,5.019,1.797,7.155
	c2.704,4.277,10.343,11.942,25.766,19.749l0.187,0.899c0,0-4.962,9.631,0,22.441c0,0,1.786,10.629,1.093,13.405
	s-0.499,3.972-0.499,3.972l9.185,4.185c0,0,0.822-2.064-2.498-3.861c0,0-1.721-3.991-1.721-5.187s2.982-24.719,2.776-31.97
	c-0.084-2.898,0.065-3.454,0.278-4.277c0.388-1.546,0.297-4.193-0.4-5.628c-0.369-0.769-0.853-1.527-1.462-2.11
	c-1.276-1.222-5.091-9.418-17.997-20.926C40.542,39.498,26.703,35.694,24.962,35.473z"/>
<path fill="#334242" d="M60.664,113.326l-8.252-4.01l-0.994,2.049l8.252,4.01L60.664,113.326z"/>
<path fill="#331B1E" d="M25.952,103.081c-0.194,0-0.388-0.027-0.583-0.084c-0.556-0.156-1.017-0.518-1.306-1.02
	c-0.583-1.036-0.221-2.35,0.815-2.944c1.036-0.583,2.361-0.221,2.944,0.815c0.286,0.499,0.35,1.085,0.202,1.637
	c-0.156,0.556-0.518,1.017-1.017,1.307C26.683,102.986,26.322,103.081,25.952,103.081z M25.941,99.913
	c-0.168,0-0.335,0.046-0.491,0.129c-0.48,0.278-0.659,0.887-0.381,1.371s0.887,0.659,1.371,0.381c0.232-0.13,0.407-0.35,0.472-0.609
	c0.072-0.259,0.038-0.53-0.091-0.77C26.638,100.099,26.295,99.913,25.941,99.913z"/>
<path fill="#945E48" d="M53.2,104.468c-0.529-0.342-2.14,3.222-1.721,4.768l2.433,0.815l9.212,4.814
	c0.621-0.37,0.712-2.11-1.565-3.972c-1.973-1.611-2.955-3.428-3.378-4.852c-0.259-0.88-0.659-0.944-1.573-0.906
	C55.375,105.173,53.821,105.432,53.2,104.468z"/>
<path fill="#331B1E" d="M32.778,107.348l-4.619-0.156c-0.842-0.027-1.508-0.743-1.474-1.584c0.027-0.842,0.739-1.508,1.584-1.474
	l4.619,0.156c0.842,0.027,1.508,0.743,1.474,1.584C34.324,106.708,33.612,107.375,32.778,107.348z"/>
<path fill="#331B1E" d="M35.099,108.995c-0.038,0.99-0.872,1.767-1.862,1.74c-0.99-0.038-1.767-0.872-1.74-1.862
	c0.038-0.99,0.872-1.767,1.862-1.74C34.349,107.159,35.126,107.997,35.099,108.995z"/>
<path fill="#331B1E" d="M87.696,10.206c0.24,0,1.196,0.137,1.622-0.027c0,0-0.175,0.887-0.937,0.872
	c-0.666-0.019-0.731-0.647-0.705-0.796C87.688,10.222,87.696,10.206,87.696,10.206z"/>
<path fill="#331B1E" d="M90.049,15.215c0,0-1.12,0-1.028,0.13c0.084,0.129,0.964,0.343,0.964,0.343L90.049,15.215z"/>
<path fill="#331B1E" d="M87.254,9.465c0,0,2.213-0.4,2.574-0.084c0.362,0.316,0.335-0.48,0.335-0.48S88.56,8.334,87.254,9.465z"/>
<path fill="#4F2E30" d="M90.364,6.067c0,0-1.657-1.295-4.429-0.072c-2.772,1.222-2.696,3.146-2.696,3.146s-1.047-0.625-1.649,0.35
	c-0.598,0.975-0.175,2.57,0.198,2.795s0.948-0.301,0.948-0.301s0.198,1.15-0.998,2.346c-1.196,1.196-3.047,1.999-3.047,1.999
	l-3.408-2.46c0,0-1.649-7.613,2.022-10.899C82.294-1.492,88.574,0.622,90.364,6.067z"/>
<path fill="#0074F0" d="M90.622,6.898c-0.598-0.526-2.346-0.468-4.162-0.206c-1.299,0.187-3.972,0.377-6.268,1.184
	c-0.788,0.278-1.325,2.049-2.049,2.136c-1.896,0.225-2.887,0.225-3.58,0.244c-0.328,0.008,1.101-2.053-0.114-3.416
	c-1.024-1.15,0.202-4.372,5.408-6.12c4.855-1.63,7.894-0.267,10.427,1.797c1.348,1.101,2.068,2.243,1.999,3.02
	C92.21,6.323,91.148,6.643,90.622,6.898z"/>
<path fill="#005CAF" d="M86.035,2.842c-2.266-0.076-3.397,0.244-3.047,0.804c0.35,0.56,0.392,1.436,1.249,1.447
	c0.857,0.011,4.341-0.682,4.962-0.941c0.621-0.259-0.232-0.598-0.842-0.842C87.749,3.067,86.035,2.842,86.035,2.842z"/>
<path fill="#005CAF" d="M80.591,3.196c-1.036-0.027-3.222,0.4-4.147,1.797c-0.925,1.398-0.8,2.049-0.301,2.098
	c0.499,0.05,3.77-1.325,4.596-1.398c0.823-0.076,1.523-0.225,1.398-0.647C82.012,4.625,81.566,3.223,80.591,3.196z"/>
<path fill="#005CAF" d="M85.933,2.248c-0.895-0.008-3.721-0.076-5.644,0.251c-1.923,0.328-2.296,0.251-1.649-0.251
	c0.647-0.499,2.464-1.104,3.747-1.348C85.286,0.352,88.98,2.275,85.933,2.248z"/>
<path fill="#005CAF" d="M90.377,6.768c0.038,0.019,0.072,0.042,0.107,0.061c0.031,0.023,0.065,0.042,0.091,0.069
	c0.526-0.255,1.584-0.575,1.653-1.356c0.019-0.198-0.015-0.419-0.099-0.655c-2.072,0.152-9.079,1.181-11.988,2.989
	c2.292-0.811,4.97-0.998,6.268-1.184c1.546-0.225,3.043-0.297,3.82,0.011C90.286,6.722,90.331,6.745,90.377,6.768z"/>
</svg>
