<?xml version="1.0" encoding="utf-8"?>
<!-- Generator: Adobe Illustrator 17.0.0, SVG Export Plug-In . SVG Version: 6.00 Build 0)  -->
<!DOCTYPE svg PUBLIC "-//W3C//DTD SVG 1.1//EN" "http://www.w3.org/Graphics/SVG/1.1/DTD/svg11.dtd">
<svg version="1.1" id="Слой_1" xmlns="http://www.w3.org/2000/svg" xmlns:xlink="http://www.w3.org/1999/xlink" x="0px" y="0px"
	 width="461px" height="334px" viewBox="0 0 461 334" enable-background="new 0 0 461 334" xml:space="preserve">
<path fill="#DB6403" d="M267.449,372.341c11.294,14.429,56.737-2.278,101.5-37.315c44.763-35.038,71.896-75.138,60.602-89.567
	c-11.294-14.428-56.737,2.278-101.5,37.316C283.288,317.812,256.156,357.913,267.449,372.341z"/>
<path opacity="0.47" fill="#F2810B" enable-background="new    " d="M325.634,284.763c-32.266,25.855-52.252,58.446-57.634,88.854
	l161-129C395.653,245.241,357.902,258.909,325.634,284.763z"/>
<path fill="#7AA5F4" d="M108.807,278.512c4.959,13.022,15.573,27.875,30.36,41.043c14.337,12.766,29.778,21.409,43.026,25.05
	c-2.302,4.104-4.848,8.108-7.521,12.027c-7.584-11.199-20.639-22.903-37.27-32.354c-17.281-9.819-34.937-15.228-49.094-15.904
	c7.434,11.589,20.868,23.846,38.149,33.664c16.599,9.429,33.532,14.779,47.388,15.788c-3.227,4.677-6.592,9.237-9.86,13.694
	c-13.031,17.775-27.58,34.462-42.559,50.633c-10.979,11.852-21.89,23.803-32.99,35.539c-11.208,11.85-23.679,24.721-38.67,31.177
	c-0.028,0.013-0.041,0.035-0.069,0.048l3.456,3.098c12.703-6.122,23.347-16.141,33.369-26.168
	c14.103-14.111,27.38-29.246,40.941-43.882c15.275-16.489,29.64-33.8,42.916-51.911c0.717-0.982,1.436-1.967,2.154-2.956
	c9.362,9.342,23.81,18.272,41.264,24.647c18.818,6.873,37.341,9.389,51.634,7.846c-9.222-10.13-24.557-19.979-43.38-26.851
	c-17.151-6.262-34.041-8.897-47.72-8.148c3.083-4.326,6.084-8.741,8.848-13.267c13.387,3.421,31.88,3.65,52.034-0.18
	c20.579-3.907,38.722-11.235,50.983-19.752c-13.446-3.63-32.329-3.93-52.91-0.02c-19.673,3.736-37.103,10.598-49.313,18.634
	c2.918-4.888,5.53-9.912,7.646-15.105c12.403-2.112,27.558-7.902,42.839-17.057c16.786-10.05,30.314-22.085,38.292-33.129
	c-12.989,1.51-29.661,7.56-46.448,17.613c-13.125,7.86-24.212,16.929-32.262,25.793c0.699-2.276,1.293-4.586,1.761-6.932
	c9.283-10.697,18.324-25.929,25.179-43.634c7.745-19.993,11.143-39.093,10.296-53.36c-10.513,10.705-21.037,27.571-28.777,47.562
	c-6.551,16.925-9.979,33.199-10.368,46.456c-0.187,0.289-0.334,0.622-0.399,1.011c-0.359,2.158-0.854,4.283-1.441,6.385
	c-2.223-10.456-7.096-22.309-14.465-33.843c-9.017-14.112-19.89-24.865-29.928-30.589c1.232,11.907,6.581,26.541,15.6,40.65
	c8.199,12.828,17.929,22.838,27.171,28.859c-1.579,4.366-3.56,8.622-5.827,12.767c-5.182-12.65-15.529-26.864-29.744-39.522
	C138.311,290.769,122.321,281.939,108.807,278.512z"/>
<path fill="#4F2E30" d="M337.565,29.774c0,0-21.05-2.95-23.8,11.8s27.93,4.52,27.93,4.52l2.16-12.59L337.565,29.774z"/>
<path fill="#006CCE" d="M324.825,166.164c1.31-22.17-71.7-57.62-71.7-57.62c-17.99-8.07-54.75-14.86-54.75-14.86l10.16,19.04
	c-10.28,25.92,97.06,59.54,100.02,60.42l14.93-3.6C324.625,167.304,324.825,166.164,324.825,166.164z"/>
<path fill="#006CCE" d="M303.795,167.374c0.05,0-0.2,1.63-0.2,1.63c-2.8,1.17-5.25,2.48-7.44,3.94
	c-10.24,6.81-16.07,16.22-18.23,25.48c-1.7,7.25-2.33,14.25-4.04,19.4c-4.33,13.2-17.07,30.54-17.07,30.54l5.91,5.06
	c0,0,7.07,4.74,11.89,8.22c4.81,3.5,6.44-0.24,6.44-0.24s-8.34-6.27-8.27-14.44s8.39-14.1,30.83-42.6
	c15.39-19.57,20.13-32.82,21.2-38.22L303.795,167.374z"/>
<path fill="#945E48" d="M263.485,237.664c-1.09-1.24-7.63,6.69-7.66,10.87l5.59,3.74l20.01,18.57c1.85-0.51,3.26-4.86-1.22-11.13
	c-3.87-5.45-5.13-10.72-5.2-14.64c-0.05-2.43-1.02-2.84-3.35-3.4C268.515,240.944,264.385,240.504,263.485,237.664z"/>
<path fill="#334242" d="M277.445,262.174l-20.33-12.93l-3.21,5.05l20.33,12.93L277.445,262.174z"/>
<path fill="none" stroke="#000000" stroke-width="4" stroke-miterlimit="10" d="M282.735,292.004l0.73-12.55"/>
<path fill="#331B1E" d="M250.355,162.514h-33.89c-3.94,0-7.17-3.23-7.17-7.17c0-3.94,3.23-7.17,7.17-7.17l17.99,3.53
	c3.94,0,23.07-0.29,23.07,3.65C257.525,159.284,254.295,162.514,250.355,162.514z"/>
<path fill="#331B1E" d="M199.415,333.334c-37.58,0-68.17-30.58-68.17-68.17s30.59-68.17,68.17-68.17
	c37.59,0,68.17,30.58,68.17,68.17C267.595,302.754,237.005,333.334,199.415,333.334z M199.415,201.534
	c-35.08,0-63.63,28.54-63.63,63.63c0,35.08,28.54,63.63,63.63,63.63c35.08,0,63.63-28.54,63.63-63.63
	S234.505,201.534,199.415,201.534z"/>
<path fill="#DBC8AA" d="M199.415,329.054c-35.23,0-63.89-28.67-63.89-63.89c0-35.23,28.66-63.89,63.89-63.89
	s63.89,28.66,63.89,63.89C263.285,300.394,234.645,329.054,199.415,329.054z M199.415,204.304c-33.55,0-60.85,27.3-60.85,60.85
	s27.3,60.85,60.85,60.85s60.86-27.3,60.86-60.85C260.275,231.614,232.965,204.304,199.415,204.304z"/>
<path fill="#DBC8AA" d="M196.905,268.514l-0.45,0.34l37.23,49.73l0.45-0.34L196.905,268.514z"/>
<path fill="#DBC8AA" d="M195.785,267.454l-0.51,0.23l26.11,56.36l0.51-0.24L195.785,267.454z"/>
<path fill="#DBC8AA" d="M202.205,267.034l-5.99,61.83l0.56,0.05l5.99-61.83L202.205,267.034z"/>
<path fill="#DBC8AA" d="M203.195,265.474l-0.56,0.06l6.92,61.73l0.56-0.06L203.195,265.474z"/>
<path fill="#DBC8AA" d="M199.775,269.114l-0.07,0.55l61.62,7.9l0.07-0.55L199.775,269.114z"/>
<path fill="#DBC8AA" d="M256.675,290.224l-58.64-20.5l0.19-0.54l58.64,20.5L256.675,290.224z"/>
<path fill="#DBC8AA" d="M242.575,311.644l-40.19-47.39l0.44-0.36l40.19,47.39L242.575,311.644z"/>
<path fill="#DBC8AA" d="M201.945,262.494l-0.34,0.44l49.13,38.02l0.34-0.44L201.945,262.494z"/>
<path fill="#DBC8AA" d="M252.105,229.924l-49.65,37.33l0.34,0.45l49.65-37.33L252.105,229.924z"/>
<path fill="#DBC8AA" d="M257.675,242.054l-56.24,26.36l0.24,0.51l56.25-26.36L257.675,242.054z"/>
<path fill="#DBC8AA" d="M200.995,261.414l-0.05,0.56l61.85,5.82l0.05-0.56L200.995,261.414z"/>
<path fill="#DBC8AA" d="M261.105,253.874l-61.71,7.15l0.06,0.56l61.71-7.15L261.105,253.874z"/>
<path fill="#DBC8AA" d="M210.785,202.794l-7.75,61.63l0.55,0.07l7.75-61.63L210.785,202.794z"/>
<path fill="#DBC8AA" d="M223.485,207.274l-20.36,58.69l0.53,0.18l20.36-58.69L223.485,207.274z"/>
<path fill="#DBC8AA" d="M245.085,221.064l-47.27,40.31l0.36,0.43l47.27-40.31L245.085,221.064z"/>
<path fill="#DBC8AA" d="M234.295,213.024l-37.89,49.22l0.44,0.34l37.89-49.22L234.295,213.024z"/>
<path fill="#DBC8AA" d="M163.615,212.184l-0.44,0.34l37.92,49.2l0.44-0.34L163.615,212.184z"/>
<path fill="#DBC8AA" d="M175.845,206.524l-0.5,0.24l26.91,55.99l0.5-0.24L175.845,206.524z"/>
<path fill="#DBC8AA" d="M200.395,201.334l-5.16,61.9l0.56,0.05l5.16-61.9L200.395,201.334z"/>
<path fill="#DBC8AA" d="M187.605,203.164l-0.55,0.07l7.79,61.63l0.55-0.07L187.605,203.164z"/>
<path fill="#DBC8AA" d="M198.225,261.154l-61.71-7.03l0.05-0.56l61.73,7.03L198.225,261.154z"/>
<path fill="#DBC8AA" d="M141.005,240.864l-0.18,0.53l58.92,19.67l0.18-0.53L141.005,240.864z"/>
<path fill="#DBC8AA" d="M154.825,219.264l-0.42,0.37l40.85,46.8l0.42-0.37L154.825,219.264z"/>
<path fill="#DBC8AA" d="M146.815,230.044l-0.34,0.45l49.66,37.32l0.34-0.45L146.815,230.044z"/>
<path fill="#DBC8AA" d="M195.195,262.604l-49.09,38.07l0.34,0.44l49.09-38.07L195.195,262.604z"/>
<path fill="#DBC8AA" d="M140.705,288.984l-0.24-0.51l55.89-27.08l0.24,0.51L140.705,288.984z"/>
<path fill="#DBC8AA" d="M197.105,268.884l-61.92-4.93l0.05-0.56l61.92,4.93L197.105,268.884z"/>
<path fill="#DBC8AA" d="M198.645,268.734l-61.61,7.94l0.07,0.56l61.61-7.94L198.645,268.734z"/>
<path fill="#DBC8AA" d="M194.455,265.864l-6.81,61.75l0.56,0.06l6.81-61.75L194.455,265.864z"/>
<path fill="#DBC8AA" d="M175.445,323.364l-0.53-0.19l19.47-58.98l0.53,0.17L175.445,323.364z"/>
<path fill="#DBC8AA" d="M199.895,268.464l-46.68,40.99l0.37,0.42l46.68-40.99L199.895,268.464z"/>
<path fill="#DBC8AA" d="M201.205,267.634l-37.13,49.8l0.45,0.33l37.13-49.79L201.205,267.634z"/>
<path fill="#331B1E" d="M392.075,333.334c-37.59,0-68.17-30.59-68.17-68.17c0-37.59,30.58-68.17,68.17-68.17
	s68.17,30.58,68.17,68.17S429.655,333.334,392.075,333.334z M392.075,201.534c-35.08,0-63.63,28.54-63.63,63.63
	c0,35.08,28.54,63.63,63.63,63.63s63.63-28.54,63.63-63.63C455.695,230.074,427.155,201.534,392.075,201.534z"/>
<path fill="#DBC8AA" d="M392.075,329.054c-35.23,0-63.89-28.67-63.89-63.89c0-35.23,28.67-63.89,63.89-63.89
	s63.89,28.66,63.89,63.89S427.305,329.054,392.075,329.054z M392.075,204.304c-33.55,0-60.85,27.3-60.85,60.85
	s27.3,60.85,60.85,60.85s60.86-27.3,60.86-60.85C452.925,231.614,425.625,204.304,392.075,204.304z"/>
<path fill="#DBC8AA" d="M392.045,270.684c-0.51,0-1.02-0.07-1.53-0.22c-1.46-0.41-2.67-1.36-3.43-2.68
	c-1.53-2.72-0.58-6.17,2.14-7.73c2.72-1.53,6.2-0.58,7.73,2.14c0.75,1.31,0.92,2.85,0.54,4.3c-0.41,1.46-1.36,2.67-2.67,3.43
	C393.965,270.434,393.015,270.684,392.045,270.684z M392.045,262.364c-0.44,0-0.88,0.12-1.29,0.34c-1.26,0.73-1.73,2.33-1,3.6
	c0.73,1.27,2.33,1.73,3.6,1c0.61-0.34,1.07-0.92,1.24-1.6c0.19-0.68,0.1-1.39-0.24-2.02
	C393.845,262.854,392.975,262.364,392.045,262.364z"/>
<path fill="#DBC8AA" d="M389.555,268.514l-0.451,0.33l37.231,49.73l0.45-0.34L389.555,268.514z"/>
<path fill="#DBC8AA" d="M388.435,267.454l-0.51,0.24l26.12,56.36l0.51-0.24L388.435,267.454z"/>
<path fill="#DBC8AA" d="M394.855,267.024l-5.99,61.83l0.56,0.05l5.99-61.83L394.855,267.024z"/>
<path fill="#DBC8AA" d="M395.855,265.484l-0.56,0.06l6.92,61.73l0.55-0.06L395.855,265.484z"/>
<path fill="#DBC8AA" d="M392.424,269.114l-0.07,0.55l61.621,7.9l0.069-0.55L392.424,269.114z"/>
<path fill="#DBC8AA" d="M449.355,290.224l-58.64-20.5l0.17-0.54l58.64,20.5L449.355,290.224z"/>
<path fill="#DBC8AA" d="M435.255,311.644l-40.19-47.39l0.41-0.36l40.19,47.39L435.255,311.644z"/>
<path fill="#DBC8AA" d="M394.615,262.494l-0.34,0.44l49.13,38.02l0.34-0.44L394.615,262.494z"/>
<path fill="#DBC8AA" d="M444.775,229.894l-49.64,37.35l0.34,0.45l49.64-37.35L444.775,229.894z"/>
<path fill="#DBC8AA" d="M450.325,242.054l-56.25,26.36l0.24,0.51l56.25-26.36L450.325,242.054z"/>
<path fill="#DBC8AA" d="M393.655,261.424l-0.051,0.56l61.85,5.81l0.051-0.56L393.655,261.424z"/>
<path fill="#DBC8AA" d="M453.775,253.874l-61.71,7.15l0.06,0.56l61.71-7.15L453.775,253.874z"/>
<path fill="#DBC8AA" d="M403.455,202.774l-7.75,61.63l0.55,0.07l7.75-61.63L403.455,202.774z"/>
<path fill="#DBC8AA" d="M416.155,207.274l-20.36,58.69l0.53,0.18l20.36-58.69L416.155,207.274z"/>
<path fill="#DBC8AA" d="M437.755,221.054l-47.27,40.31l0.36,0.43l47.27-40.31L437.755,221.054z"/>
<path fill="#DBC8AA" d="M426.975,213.014l-37.9,49.22l0.44,0.34l37.9-49.22L426.975,213.014z"/>
<path fill="#DBC8AA" d="M356.275,212.194l-0.44,0.34l37.92,49.2l0.44-0.34L356.275,212.194z"/>
<path fill="#DBC8AA" d="M368.495,206.524l-0.5,0.24l26.91,55.99l0.5-0.24L368.495,206.524z"/>
<path fill="#DBC8AA" d="M393.055,201.354l-5.16,61.9l0.56,0.05l5.16-61.9L393.055,201.354z"/>
<path fill="#DBC8AA" d="M380.285,203.164l-0.56,0.07l7.79,61.63l0.55-0.07L380.285,203.164z"/>
<path fill="#DBC8AA" d="M390.905,261.154l-61.73-7.03l0.05-0.56l61.73,7.03L390.905,261.154z"/>
<path fill="#DBC8AA" d="M392.435,261.074l-58.91-19.67l0.17-0.56l58.93,19.69L392.435,261.074z"/>
<path fill="#DBC8AA" d="M347.495,219.264l-0.42,0.37l40.85,46.8l0.42-0.37L347.495,219.264z"/>
<path fill="#DBC8AA" d="M339.465,230.054l-0.34,0.45l49.66,37.31l0.34-0.45L339.465,230.054z"/>
<path fill="#DBC8AA" d="M387.865,262.604l-49.09,38.07l0.34,0.44l49.09-38.07L387.865,262.604z"/>
<path fill="#DBC8AA" d="M333.355,288.984l-0.24-0.51l55.9-27.08l0.24,0.51L333.355,288.984z"/>
<path fill="#DBC8AA" d="M327.855,263.374l-0.05,0.56l61.92,4.94l0.04-0.56L327.855,263.374z"/>
<path fill="#DBC8AA" d="M391.325,268.724l-61.61,7.94l0.07,0.55l61.61-7.94L391.325,268.724z"/>
<path fill="#DBC8AA" d="M387.125,265.864l-6.82,61.75l0.56,0.06l6.81-61.75L387.125,265.864z"/>
<path fill="#DBC8AA" d="M368.095,323.364l-0.53-0.19l19.47-58.98l0.54,0.17L368.095,323.364z"/>
<path fill="#DBC8AA" d="M392.585,268.454l-46.68,40.99l0.37,0.42l46.68-40.99L392.585,268.454z"/>
<path fill="#DBC8AA" d="M393.885,267.634l-37.15,49.79l0.45,0.33l37.15-49.79L393.885,267.634z"/>
<path fill="#331B1E" d="M415.585,176.444c-1.43,0-2.65-1.12-2.77-2.58c-0.12-1.53,1.02-2.87,2.55-2.99
	c0.63-0.05,15.49-1.43,14.64-13.71c-0.29-4.28-1.73-7.51-4.26-9.63c-4.42-3.72-10.96-3.04-11.04-3.04c-0.1,0-0.22,0.03-0.32,0.03
	h-30.49l-32.58,20.3c-1.31,0.8-1,1.65-1.8,0.36c-0.83-1.31-1.46-4.89-0.15-5.69l32.26-20.11c0.44-0.27,0.95-0.41,1.48-0.41h31.14
	c1.31-0.12,9.17-0.58,15.02,4.3c3.77,3.14,5.88,7.68,6.27,13.57c0.97,14.25-12.5,19.09-19.77,19.65
	C415.725,176.444,415.655,176.444,415.585,176.444z"/>
<path fill="#BD7550" d="M348.525,51.694c0,0,3.39,5.2,11.22,22.68c7.83,17.48,14.82,27.04,14.82,27.04l-15.61,8.41L337.245,72.5
	C337.265,72.53,347.755,54.564,348.525,51.694z"/>
<path fill="#BD7550" d="M395.205,133.554c-0.12-0.1-34.69-21.37-36.25-23.73c-2.75-4.18,15.41-8.61,15.41-8.61
	s20.52,23.56,29.91,27.21l6.37,1.19c0,0,12.47,6.98,14.56,9.31c2.09,2.36,0.27,1.82,0.27,1.82s-10.72-2.8-18.02,0.34
	c0,0,1.82,8.34-2.87,8.07c0,0-0.51-5.2-3.91-8.34C397.295,137.744,394.695,136.694,395.205,133.554z"/>
<path fill="#1EDEF2" d="M325.065,40.734c0,0-0.58,11.35,2.85,25.21c1.53,6.25,4.78,3.696,7.83-1.944
	c4.4-7.98,12.77-12.326,12.77-12.326c0,1.674-11.77,28.826-20.6,34.826c-4.89,2.99-15.72,4.75-21.17,3c-4.53-1.46-9.5,0-15.5-2
	c-12.669-4.223-37.309,1.161-39.99,6.674c-3.58,7.36,0.19,13.61,0.19,13.61s-37.52-11.09-54.68-14.66c0,0,5.94-23.19,39.83-41.14
	c18.21-9.63,38.61-14.39,59.2-14.27l24.31,0.15L325.065,40.734z"/>
<path fill="#BD7550" d="M348.475,51.764l0.06-0.04c0-0.01,0.01-0.02,0.01-0.03l0.06-0.01l7.57-4.54l7.12,0.44
	c0,0,3.04,0.8,4.08-6.08c0.12-0.73,0.17-2.6,0.56-4.25h0.78c1.58,0,2.89-0.32,1.95-3.06c-0.02-0.1-1.41-5.37-1.43-5.47
	c-0.49-1.58,0.27-0.46,0.66-4.18c0.39-3.72-1.36-8.61-1.36-8.61s-0.54-1.09-1.88-2.47l-16.44,1.17c0,0-12.92,9.11-13.02,16.89
	c-0.1,7.63-17.1,6.35-17.1,6.35S324.185,74,330.745,74c0,0,8-14,17.76-22.166L348.475,51.764z"/>
<path fill="#DB6403" d="M279.185,280.824c-0.15,0-0.29,0-0.44-0.02l-79.67-12.64c-0.88-0.15-1.65-0.71-2.04-1.51
	c-0.41-0.8-0.39-1.75,0.02-2.55l47.31-90.61c0.49-0.92,1.43-1.51,2.48-1.51l108.92,0.54c1.53,0,2.77,1.26,2.77,2.8
	c0,1.53-0.12,2.77-1.65,2.77c0,0,0,0-0.03,0l-108.34-0.51l-44.75,85.63l74.32,11.79l79.28-90.61c1.02-1.17,2.77-1.26,3.94-0.27
	c1.17,1.02,1.26,2.77,0.27,3.94l-80.31,91.78C280.745,280.454,279.965,280.824,279.185,280.824z"/>
<path fill="#DB6403" d="M279.185,280.824c-1.19,0-2.28-0.75-2.65-1.95l-37.15-117.26c-0.46-1.46,0.34-3.04,1.82-3.5
	c1.46-0.46,3.04,0.34,3.5,1.82l37.15,117.24c0.46,1.46-0.34,3.04-1.82,3.5C279.745,280.774,279.455,280.824,279.185,280.824z"/>
<path fill="#331B1E" d="M284.485,283.494c2.11,0,3.82-1.71,3.82-3.82c0-2.11-1.71-3.82-3.82-3.82c-2.11,0-3.82,1.71-3.82,3.82
	C280.675,281.784,282.375,283.494,284.485,283.494z"/>
<path fill="#331B1E" d="M284.485,299.854c-11.13,0-20.18-9.04-20.18-20.18c0-11.14,9.04-20.18,20.18-20.18
	c11.14,0,20.18,9.04,20.18,20.18C304.665,290.814,295.595,299.854,284.485,299.854z M284.485,263.484
	c-8.92,0-16.19,7.27-16.19,16.19c0,8.92,7.27,16.19,16.19,16.19c8.92,0,16.19-7.27,16.19-16.19
	C300.675,270.754,293.415,263.484,284.485,263.484z"/>
<path fill="#331B1E" d="M392.215,269.074c-1.12,0-2.16-0.66-2.6-1.75l-41.45-104.45c-0.34-0.85-0.24-1.82,0.29-2.6
	c0.51-0.75,1.39-1.22,2.31-1.22h31.14c1.31-0.12,9.17-0.58,15.03,4.28c3.77,3.14,5.88,7.68,6.27,13.57
	c0.97,14.25-12.5,19.09-19.77,19.65c-1.56,0.12-2.87-1.02-2.99-2.55s1.02-2.87,2.55-2.99c0.63-0.05,15.49-1.43,14.64-13.71
	c-0.29-4.28-1.73-7.54-4.28-9.65c-4.4-3.67-10.94-3.04-11.01-3.01c-0.1,0-0.22,0.03-0.32,0.03h-27.18l39.95,100.61
	c0.56,1.43-0.12,3.04-1.56,3.62C392.895,269.004,392.555,269.074,392.215,269.074z"/>
<path fill="#BD7550" d="M373.445,152.084l-53.68-26.84c-2.26-1.14-4.13-2.92-5.35-5.13c-1.67-14.114-19.25-42.154-21.17-57.614
	c0,0,0.41-18.776,14.87-17.976c14.47,0.78,15.63,37.476,15.63,37.476s9.26,24.864,12.01,28.364l52.66,41.19l0.51,9.12l-2.09,6.25
	h-14.35l2.36-9.39L373.445,152.084z"/>
<path fill="#331B1E" d="M299.585,290.564l-16.39-10.45l0.46-17.87l3.18,0.07l-0.41,16.1l14.85,9.46L299.585,290.564z"/>
<path fill="#331B1E" d="M283.835,278.024l-14.23,11.24l1.98,2.5l14.23-11.25L283.835,278.024z"/>
<path fill="#DB6403" d="M391.995,270.684c-0.51,0-1.02-0.07-1.53-0.22c-1.46-0.41-2.67-1.36-3.43-2.68
	c-1.53-2.72-0.58-6.17,2.14-7.73c2.72-1.53,6.2-0.58,7.73,2.14c0.75,1.31,0.92,2.85,0.54,4.3c-0.41,1.46-1.36,2.67-2.67,3.43
	C393.915,270.434,392.975,270.684,391.995,270.684z M391.995,262.364c-0.44,0-0.9,0.12-1.29,0.34c-1.27,0.73-1.73,2.33-1,3.6
	c0.73,1.27,2.33,1.73,3.6,1c0.61-0.34,1.07-0.92,1.24-1.6c0.19-0.68,0.1-1.39-0.24-2.02
	C393.795,262.854,392.925,262.364,391.995,262.364z"/>
<path fill="#331B1E" d="M287.185,263.414c-0.58-0.02-1.05-0.51-1.05-1.09c0.03-0.58,0.51-1.07,1.09-1.04h0.36
	c0.58,0.02,1.05,0.51,1.05,1.09c-0.02,0.58-0.51,1.07-1.09,1.05h-0.36V263.414z"/>
<path fill="#331B1E" d="M216.075,280.774c-0.1,0-0.22-0.02-0.32-0.07l-0.68-0.24c-0.27-0.1-0.46-0.27-0.58-0.49
	c-0.24,0.1-0.51,0.12-0.75,0.02l-0.68-0.24c-0.27-0.1-0.46-0.27-0.58-0.49c-0.24,0.1-0.51,0.12-0.75,0.02l-0.68-0.24
	c-0.27-0.1-0.46-0.27-0.58-0.49c-0.24,0.1-0.51,0.12-0.75,0.02l-0.68-0.24c-0.27-0.1-0.46-0.27-0.58-0.49
	c-0.24,0.1-0.51,0.12-0.75,0.02l-0.68-0.24c-0.27-0.1-0.46-0.27-0.58-0.49c-0.24,0.1-0.51,0.12-0.75,0.02l-0.68-0.24
	c-0.27-0.1-0.46-0.27-0.58-0.49c-0.24,0.1-0.51,0.12-0.75,0.02l-0.68-0.24c-0.34-0.12-0.58-0.39-0.68-0.73
	c-0.36,0.02-0.71-0.12-0.95-0.41l-0.44-0.56c-0.17-0.22-0.24-0.49-0.22-0.73c-0.24-0.05-0.49-0.2-0.66-0.41l-0.44-0.56
	c-0.17-0.22-0.24-0.49-0.22-0.73c-0.24-0.05-0.49-0.2-0.66-0.41l-0.44-0.56c-0.15-0.19-0.22-0.41-0.22-0.61
	c-0.15-0.02-0.27-0.05-0.41-0.12l-0.61-0.34c-0.24-0.15-0.41-0.34-0.49-0.58c-0.24,0.05-0.51,0.02-0.75-0.12l-0.22-0.12
	c-0.17-0.1-0.34-0.19-0.49-0.32c-0.27-0.2-0.44-0.49-0.44-0.8c-0.32-0.02-0.61-0.17-0.8-0.46c-0.17-0.24-0.32-0.51-0.46-0.78
	c-0.15-0.32-0.12-0.66,0-0.92c-0.27-0.17-0.44-0.46-0.49-0.78c-0.02-0.24-0.02-0.51-0.02-0.75v-0.12c0.02-0.34,0.19-0.63,0.44-0.8
	c-0.15-0.27-0.17-0.61-0.05-0.92c0.12-0.27,0.24-0.54,0.39-0.8c0.17-0.29,0.46-0.46,0.78-0.51c0-0.32,0.15-0.63,0.39-0.85
	c0.24-0.19,0.49-0.36,0.75-0.51c0.29-0.17,0.63-0.17,0.92-0.05c0.15-0.27,0.39-0.46,0.71-0.54l0.7-0.15c0.29-0.07,0.61,0,0.83,0.17
	c0.19-0.22,0.51-0.36,0.83-0.36l0.71,0.02c0.27,0,0.51,0.12,0.7,0.29c0.19-0.17,0.44-0.27,0.73-0.24l0.71,0.02
	c0.27,0,0.51,0.12,0.71,0.29c0.19-0.17,0.44-0.27,0.73-0.24l0.71,0.02c0.29,0,0.51,0.12,0.71,0.29c0.19-0.17,0.44-0.27,0.73-0.24
	l0.71,0.02c0.27,0,0.51,0.12,0.71,0.29c0.19-0.17,0.44-0.27,0.73-0.24l0.71,0.02c0.27,0,0.51,0.12,0.71,0.29
	c0.19-0.17,0.44-0.27,0.73-0.24l0.71,0.02c0.27,0,0.51,0.12,0.71,0.29c0.19-0.17,0.44-0.27,0.73-0.24l0.71,0.02
	c0.27,0,0.51,0.12,0.71,0.29c0.19-0.17,0.44-0.27,0.73-0.24l0.71,0.03c0.27,0,0.51,0.12,0.71,0.29c0.19-0.17,0.44-0.27,0.73-0.24
	l0.71,0.03c0.24,0,0.51,0.12,0.71,0.29c0.19-0.17,0.44-0.27,0.73-0.24l0.71,0.03c0.29,0,0.51,0.12,0.7,0.29
	c0.19-0.17,0.44-0.27,0.73-0.24l0.71,0.02c0.27,0,0.51,0.12,0.71,0.29c0.19-0.17,0.44-0.27,0.73-0.24l0.71,0.02
	c0.27,0,0.51,0.12,0.71,0.29c0.19-0.17,0.44-0.27,0.73-0.24l0.71,0.02c0.27,0,0.51,0.12,0.71,0.29c0.19-0.17,0.44-0.27,0.73-0.24
	l0.71,0.02c0.29,0,0.51,0.12,0.71,0.29c0.19-0.17,0.44-0.27,0.73-0.24l0.71,0.02c0.27,0,0.51,0.12,0.71,0.29
	c0.19-0.17,0.44-0.27,0.73-0.24l0.7,0.02c0.24,0,0.51,0.12,0.71,0.29c0.19-0.17,0.44-0.27,0.73-0.24l0.7,0.02
	c0.29,0,0.51,0.12,0.71,0.29c0.19-0.17,0.44-0.27,0.73-0.24l0.71,0.02c0.27,0.02,0.51,0.12,0.7,0.29c0.19-0.17,0.44-0.27,0.73-0.24
	l0.71,0.02c0.27,0,0.51,0.12,0.7,0.29c0.19-0.17,0.44-0.27,0.73-0.24l0.71,0.02c0.27,0,0.51,0.12,0.7,0.29
	c0.19-0.17,0.44-0.27,0.73-0.24l0.71,0.02c0.29,0,0.51,0.12,0.7,0.29c0.19-0.17,0.44-0.27,0.73-0.24l0.71,0.02
	c0.27,0.02,0.51,0.12,0.7,0.29c0.19-0.17,0.44-0.27,0.73-0.24l0.71,0.02c0.24,0,0.51,0.12,0.7,0.29c0.19-0.17,0.44-0.27,0.73-0.24
	l0.71,0.02c0.29,0.02,0.51,0.12,0.71,0.29c0.19-0.17,0.44-0.27,0.73-0.24l0.71,0.02c0.27,0,0.51,0.12,0.71,0.29
	c0.19-0.17,0.44-0.27,0.73-0.24l0.71,0.02c0.27,0.02,0.51,0.12,0.71,0.29c0.19-0.17,0.44-0.27,0.73-0.24l0.71,0.02
	c0.24,0,0.51,0.12,0.71,0.29c0.19-0.17,0.44-0.27,0.73-0.24l0.71,0.02c0.29,0.02,0.51,0.12,0.71,0.29c0.19-0.17,0.44-0.27,0.73-0.24
	l0.7,0.02c0.27,0,0.51,0.12,0.71,0.29c0.2-0.17,0.44-0.27,0.73-0.24l0.71,0.02c0.24,0.03,0.51,0.12,0.7,0.29
	c0.19-0.17,0.44-0.27,0.73-0.24l0.71,0.02c0.29,0,0.51,0.12,0.71,0.29c0.19-0.17,0.44-0.27,0.73-0.24l0.71,0.02
	c0.27,0.02,0.51,0.12,0.71,0.29c0.19-0.17,0.44-0.27,0.73-0.24l0.71,0.02c0.27,0,0.51,0.12,0.71,0.29c0.19-0.17,0.44-0.27,0.73-0.24
	l0.71,0.02c0.27,0,0.51,0.12,0.7,0.29c0.2-0.17,0.44-0.27,0.73-0.24l0.71,0.02c0.27,0,0.51,0.12,0.71,0.29
	c0.19-0.17,0.44-0.27,0.73-0.24l0.71,0.02c0.27,0.02,0.51,0.12,0.71,0.29c0.2-0.17,0.44-0.27,0.73-0.24l0.71,0.02
	c0.24,0,0.51,0.12,0.71,0.29c0.19-0.17,0.44-0.27,0.73-0.24l0.71,0.02c0.29,0.02,0.51,0.12,0.71,0.29c0.19-0.17,0.44-0.27,0.73-0.24
	l0.71,0.02c0.27,0,0.51,0.12,0.71,0.29c0.19-0.17,0.44-0.27,0.73-0.24l0.71,0.02c0.27,0,0.51,0.12,0.71,0.29
	c0.2-0.17,0.44-0.27,0.73-0.24l0.71,0.02c0.58,0.02,1.04,0.51,1.04,1.09c-0.02,0.58-0.51,1.07-1.09,1.05l-0.71-0.02
	c-0.29-0.02-0.51-0.12-0.71-0.29c-0.19,0.17-0.44,0.27-0.73,0.24l-0.71-0.02c-0.27,0-0.51-0.12-0.71-0.29
	c-0.19,0.17-0.44,0.27-0.73,0.24l-0.7-0.02c-0.27,0-0.51-0.12-0.71-0.29c-0.2,0.17-0.44,0.27-0.73,0.24l-0.7-0.02
	c-0.27,0-0.51-0.12-0.71-0.29c-0.19,0.17-0.44,0.27-0.73,0.24l-0.71-0.02c-0.29,0-0.51-0.12-0.71-0.29
	c-0.19,0.17-0.44,0.27-0.73,0.24l-0.71-0.02c-0.27-0.02-0.51-0.12-0.71-0.29c-0.19,0.17-0.44,0.27-0.73,0.24l-0.7-0.02
	c-0.27,0-0.51-0.12-0.71-0.29c-0.2,0.17-0.44,0.27-0.73,0.24l-0.71-0.02c-0.29-0.02-0.51-0.12-0.7-0.29
	c-0.19,0.17-0.44,0.27-0.73,0.24l-0.71-0.02c-0.27,0-0.51-0.12-0.71-0.29c-0.19,0.17-0.44,0.27-0.73,0.24l-0.71-0.02
	c-0.27-0.02-0.51-0.12-0.71-0.29c-0.19,0.17-0.44,0.27-0.73,0.24l-0.71-0.02c-0.32,0-0.51-0.12-0.7-0.29
	c-0.2,0.17-0.44,0.27-0.73,0.24l-0.71-0.02c-0.29-0.03-0.51-0.12-0.71-0.29c-0.19,0.17-0.44,0.27-0.73,0.24l-0.71-0.02
	c-0.27,0-0.51-0.12-0.71-0.29c-0.19,0.17-0.44,0.27-0.73,0.24l-0.7-0.02c-0.24-0.02-0.51-0.12-0.71-0.29
	c-0.19,0.17-0.44,0.27-0.73,0.24l-0.7-0.02c-0.29,0-0.51-0.12-0.71-0.29c-0.19,0.17-0.44,0.27-0.73,0.24l-0.7-0.02
	c-0.27-0.02-0.51-0.12-0.71-0.29c-0.19,0.17-0.44,0.27-0.73,0.24l-0.7-0.02c-0.27,0-0.51-0.12-0.71-0.29
	c-0.19,0.17-0.44,0.27-0.73,0.24l-0.71-0.02c-0.27,0-0.51-0.12-0.7-0.29c-0.19,0.17-0.44,0.27-0.73,0.24l-0.71-0.02
	c-0.29,0-0.51-0.12-0.71-0.29c-0.19,0.17-0.44,0.27-0.73,0.24l-0.71-0.02c-0.27-0.02-0.51-0.12-0.7-0.29
	c-0.19,0.17-0.44,0.27-0.73,0.24l-0.71-0.02c-0.24,0-0.51-0.12-0.7-0.29c-0.19,0.17-0.44,0.27-0.73,0.24l-0.71-0.02
	c-0.29-0.02-0.51-0.12-0.7-0.29c-0.19,0.17-0.44,0.27-0.73,0.24l-0.71-0.02c-0.27,0-0.51-0.12-0.71-0.29
	c-0.19,0.17-0.44,0.27-0.73,0.24l-0.71-0.02c-0.27-0.02-0.51-0.12-0.71-0.29c-0.19,0.17-0.44,0.27-0.73,0.24l-0.71-0.02
	c-0.32,0-0.51-0.12-0.71-0.29c-0.19,0.17-0.44,0.27-0.73,0.24l-0.71-0.02c-0.29-0.02-0.51-0.12-0.71-0.29
	c-0.19,0.17-0.44,0.27-0.73,0.24l-0.71-0.02c-0.27,0-0.51-0.12-0.71-0.29c-0.19,0.17-0.44,0.27-0.73,0.24l-0.71-0.02
	c-0.24-0.02-0.51-0.12-0.71-0.29c-0.19,0.17-0.44,0.27-0.73,0.24l-0.71-0.02c-0.29,0-0.51-0.12-0.71-0.29
	c-0.19,0.17-0.44,0.27-0.73,0.24l-0.71-0.02c-0.27,0-0.51-0.12-0.71-0.29c-0.19,0.17-0.44,0.27-0.73,0.24l-0.71-0.02
	c-0.27,0-0.51-0.12-0.71-0.29c-0.19,0.17-0.44,0.27-0.73,0.24l-0.7-0.02c-0.32-0.02-0.51-0.12-0.71-0.29
	c-0.19,0.17-0.44,0.27-0.73,0.24l-0.71-0.02c-0.29,0-0.51-0.12-0.71-0.29c-0.19,0.17-0.44,0.27-0.73,0.24l-0.71-0.02
	c-0.27-0.02-0.51-0.12-0.71-0.29c-0.19,0.17-0.44,0.27-0.73,0.24l-0.71-0.02c-0.27,0-0.51-0.12-0.71-0.29
	c-0.19,0.17-0.44,0.27-0.73,0.24l-0.71-0.02c-0.29-0.02-0.51-0.12-0.71-0.29c-0.19,0.17-0.44,0.27-0.73,0.24l-0.71-0.02
	c-0.27,0-0.51-0.12-0.71-0.29c-0.19,0.17-0.44,0.27-0.73,0.24l-0.71-0.02c-0.27-0.02-0.51-0.12-0.71-0.29
	c-0.19,0.17-0.44,0.27-0.73,0.24l-0.71-0.02c-0.32,0-0.51-0.12-0.71-0.29c-0.19,0.17-0.44,0.27-0.73,0.24l-0.71-0.03
	c-0.27,0-0.51-0.12-0.71-0.29c-0.19,0.17-0.44,0.27-0.73,0.24l-0.7-0.03c-0.22,0-0.41-0.07-0.58-0.19
	c-0.15,0.17-0.34,0.29-0.56,0.34l-0.71,0.15c-0.22,0.05-0.44,0.02-0.63-0.05c-0.1,0.17-0.24,0.32-0.41,0.41
	c-0.15,0.1-0.29,0.19-0.44,0.29c-0.17,0.12-0.34,0.19-0.53,0.22c0,0.19-0.05,0.39-0.15,0.56c-0.1,0.14-0.17,0.32-0.24,0.49
	c-0.07,0.19-0.19,0.36-0.36,0.46c0.1,0.17,0.15,0.36,0.12,0.58v0.07c0,0.15,0,0.32,0.02,0.46c0.02,0.2-0.02,0.41-0.1,0.58
	c0.17,0.1,0.29,0.24,0.39,0.44c0.07,0.17,0.17,0.32,0.27,0.46c0.12,0.17,0.17,0.37,0.19,0.56c0.19,0,0.39,0.07,0.56,0.19
	c0.1,0.07,0.19,0.12,0.29,0.19l0.22,0.12c0.24,0.15,0.41,0.34,0.49,0.58c0.24-0.05,0.51-0.03,0.75,0.12l0.63,0.34
	c0.34,0.19,0.53,0.54,0.53,0.9c0.29,0.02,0.56,0.17,0.73,0.41l0.44,0.56c0.17,0.22,0.24,0.49,0.22,0.73
	c0.24,0.05,0.49,0.19,0.66,0.41l0.44,0.56c0.17,0.22,0.24,0.49,0.22,0.73c0.24,0.05,0.49,0.19,0.66,0.41l0.44,0.56
	c0.1,0.12,0.15,0.24,0.17,0.36c0.15,0,0.29,0,0.44,0.05l0.68,0.24c0.27,0.1,0.46,0.27,0.58,0.49c0.24-0.1,0.51-0.12,0.75-0.02
	l0.68,0.24c0.27,0.1,0.46,0.27,0.58,0.49c0.24-0.1,0.51-0.12,0.75-0.02l0.68,0.24c0.27,0.1,0.46,0.27,0.58,0.49
	c0.24-0.1,0.51-0.12,0.75-0.02l0.68,0.24c0.27,0.1,0.46,0.27,0.58,0.49c0.24-0.1,0.51-0.12,0.75-0.02l0.68,0.24
	c0.27,0.1,0.46,0.27,0.58,0.49c0.24-0.1,0.51-0.12,0.75-0.02l0.68,0.24c0.27,0.1,0.46,0.27,0.58,0.49c0.24-0.1,0.51-0.12,0.75-0.02
	l0.68,0.24c0.56,0.2,0.85,0.8,0.66,1.36C216.975,280.504,216.535,280.794,216.075,280.774z"/>
<path fill="#331B1E" d="M217.795,281.724c-0.44-0.02-0.8-0.29-0.97-0.68c-0.36-0.27-0.53-0.75-0.36-1.22
	c0.19-0.56,0.8-0.85,1.36-0.66l0.34,0.12c0.41,0.15,0.68,0.51,0.71,0.95l0.02,0.36c0.05,0.58-0.41,1.09-1,1.14
	C217.875,281.724,217.825,281.724,217.795,281.724z"/>
<path fill="#331B1E" d="M284.615,296.624c-0.03,0-0.03,0-0.05,0l-0.73-0.05c-0.27-0.03-0.51-0.15-0.71-0.34
	c-0.2,0.15-0.46,0.24-0.73,0.22l-0.73-0.05c-0.27-0.02-0.51-0.14-0.71-0.34c-0.2,0.15-0.46,0.24-0.73,0.22l-0.73-0.05
	c-0.27-0.02-0.51-0.15-0.71-0.34c-0.2,0.15-0.46,0.24-0.73,0.22l-0.73-0.05c-0.27-0.02-0.51-0.15-0.71-0.34
	c-0.19,0.15-0.46,0.24-0.73,0.22l-0.73-0.05c-0.27-0.02-0.51-0.15-0.71-0.34c-0.19,0.14-0.46,0.24-0.73,0.22l-0.7-0.05
	c-0.27-0.02-0.51-0.15-0.71-0.34c-0.2,0.15-0.46,0.24-0.73,0.22l-0.73-0.05c-0.27-0.03-0.51-0.15-0.71-0.34
	c-0.2,0.15-0.46,0.24-0.73,0.22l-0.73-0.05c-0.27-0.02-0.51-0.15-0.71-0.34c-0.19,0.15-0.46,0.24-0.73,0.22l-0.71-0.05
	c-0.27-0.02-0.51-0.15-0.71-0.34c-0.19,0.15-0.46,0.24-0.73,0.22l-0.73-0.05c-0.27-0.02-0.51-0.15-0.71-0.34
	c-0.19,0.14-0.46,0.24-0.73,0.22l-0.71-0.05c-0.27-0.03-0.51-0.15-0.71-0.34c-0.19,0.15-0.46,0.24-0.73,0.22l-0.73-0.05
	c-0.27-0.02-0.51-0.15-0.71-0.34c-0.19,0.15-0.46,0.24-0.73,0.22l-0.73-0.05c-0.27-0.02-0.51-0.15-0.71-0.34
	c-0.19,0.15-0.46,0.24-0.73,0.22l-0.73-0.05c-0.27-0.02-0.51-0.15-0.71-0.34c-0.19,0.15-0.46,0.24-0.73,0.22l-0.73-0.05
	c-0.27-0.02-0.51-0.15-0.7-0.34c-0.19,0.15-0.46,0.24-0.73,0.22l-0.73-0.05c-0.27-0.02-0.51-0.15-0.71-0.34
	c-0.19,0.15-0.46,0.24-0.73,0.22l-0.73-0.05c-0.27-0.02-0.51-0.15-0.71-0.34c-0.19,0.15-0.46,0.24-0.73,0.22l-0.73-0.05
	c-0.27-0.02-0.51-0.14-0.71-0.34c-0.19,0.15-0.46,0.24-0.73,0.22l-0.73-0.05c-0.27-0.02-0.51-0.15-0.71-0.34
	c-0.19,0.15-0.46,0.24-0.73,0.22l-0.73-0.05c-0.27-0.02-0.51-0.15-0.7-0.34c-0.19,0.15-0.46,0.24-0.73,0.22l-0.71-0.05
	c-0.27-0.02-0.51-0.15-0.7-0.34c-0.19,0.15-0.46,0.24-0.73,0.22l-0.73-0.05c-0.27-0.02-0.51-0.15-0.7-0.34
	c-0.19,0.15-0.46,0.24-0.73,0.22l-0.73-0.05c-0.27-0.02-0.51-0.15-0.71-0.34c-0.19,0.15-0.46,0.24-0.73,0.22l-0.73-0.05
	c-0.27-0.02-0.51-0.15-0.71-0.34c-0.19,0.15-0.46,0.24-0.73,0.22l-0.73-0.05c-0.27-0.02-0.51-0.15-0.71-0.34
	c-0.19,0.15-0.46,0.24-0.73,0.22l-0.73-0.05c-0.27-0.02-0.51-0.15-0.71-0.34c-0.19,0.14-0.46,0.24-0.73,0.22l-0.73-0.05
	c-0.27-0.02-0.51-0.15-0.71-0.34c-0.19,0.15-0.46,0.24-0.73,0.22l-0.73-0.05c-0.27-0.02-0.51-0.15-0.71-0.34
	c-0.19,0.15-0.46,0.24-0.73,0.22l-0.73-0.05c-0.27-0.02-0.51-0.15-0.71-0.34c-0.19,0.15-0.46,0.24-0.73,0.22l-0.73-0.05
	c-0.27-0.02-0.51-0.15-0.71-0.34c-0.19,0.15-0.46,0.24-0.73,0.22l-0.29-0.02c-0.24-0.02-0.46-0.12-0.66-0.29l-0.32-0.29
	c-0.19-0.2-0.32-0.44-0.34-0.7c-0.24,0-0.51-0.1-0.71-0.29c-0.19-0.19-0.34-0.46-0.36-0.73l-0.05-0.7
	c-0.02-0.27,0.07-0.54,0.22-0.73c-0.19-0.17-0.32-0.41-0.32-0.7l-0.05-0.73c-0.02-0.27,0.07-0.54,0.22-0.73
	c-0.19-0.17-0.32-0.41-0.32-0.7l-0.05-0.73c-0.02-0.27,0.07-0.54,0.22-0.73c-0.19-0.17-0.32-0.41-0.32-0.7l-0.05-0.73
	c-0.05-0.58,0.41-1.09,1-1.14c0.61-0.05,1.09,0.41,1.14,1l0.05,0.73c0.02,0.27-0.07,0.53-0.22,0.73c0.19,0.17,0.32,0.41,0.32,0.71
	l0.05,0.73c0.02,0.27-0.07,0.54-0.22,0.73c0.19,0.17,0.32,0.41,0.32,0.71l0.05,0.73c0.02,0.27-0.07,0.54-0.22,0.73
	c0.19,0.17,0.32,0.41,0.32,0.71l0.05,0.61c0,0.02,0,0.05,0,0.07c0.27,0,0.53,0.1,0.73,0.29l0.05,0.05c0.24,0.05,0.44,0.15,0.61,0.32
	c0.19-0.15,0.46-0.24,0.73-0.22l0.71,0.05c0.27,0.02,0.51,0.15,0.71,0.34c0.19-0.15,0.46-0.24,0.73-0.22l0.71,0.05
	c0.27,0.02,0.51,0.15,0.71,0.34c0.19-0.15,0.46-0.24,0.73-0.22l0.73,0.05c0.27,0.02,0.51,0.15,0.71,0.34
	c0.19-0.14,0.46-0.24,0.73-0.22l0.73,0.05c0.27,0.02,0.51,0.15,0.71,0.34c0.19-0.15,0.46-0.24,0.73-0.22l0.73,0.05
	c0.27,0.03,0.51,0.15,0.71,0.34c0.19-0.15,0.46-0.24,0.73-0.22l0.73,0.05c0.27,0.02,0.51,0.14,0.7,0.34
	c0.19-0.15,0.46-0.24,0.73-0.22l0.71,0.05c0.27,0.02,0.51,0.15,0.7,0.34c0.19-0.15,0.46-0.24,0.73-0.22l0.73,0.05
	c0.27,0.02,0.51,0.15,0.7,0.34c0.19-0.15,0.46-0.24,0.73-0.22l0.73,0.05c0.27,0.02,0.51,0.15,0.71,0.34
	c0.19-0.15,0.46-0.24,0.73-0.22l0.7,0.05c0.27,0.02,0.51,0.15,0.71,0.34c0.19-0.15,0.46-0.24,0.73-0.22l0.73,0.05
	c0.27,0.02,0.51,0.15,0.71,0.34c0.19-0.15,0.46-0.24,0.73-0.22l0.73,0.05c0.27,0.02,0.51,0.15,0.71,0.34
	c0.19-0.15,0.46-0.24,0.73-0.22l0.71,0.05c0.27,0.02,0.51,0.15,0.71,0.34c0.19-0.15,0.46-0.24,0.73-0.22l0.71,0.05
	c0.27,0.02,0.51,0.15,0.71,0.34c0.19-0.14,0.46-0.24,0.73-0.22l0.73,0.05c0.27,0.03,0.51,0.15,0.71,0.34
	c0.19-0.15,0.46-0.24,0.73-0.22l0.73,0.05c0.27,0.02,0.51,0.15,0.7,0.34c0.19-0.15,0.46-0.24,0.73-0.22l0.73,0.05
	c0.27,0.02,0.51,0.15,0.71,0.34c0.19-0.15,0.46-0.24,0.73-0.22l0.73,0.05c0.27,0.02,0.51,0.15,0.7,0.34
	c0.2-0.15,0.46-0.24,0.73-0.22l0.73,0.05c0.27,0.02,0.51,0.15,0.71,0.34c0.2-0.15,0.46-0.24,0.73-0.22l0.73,0.05
	c0.27,0.02,0.51,0.15,0.71,0.34c0.2-0.15,0.46-0.24,0.73-0.22l0.73,0.05c0.27,0.02,0.51,0.15,0.71,0.34
	c0.19-0.15,0.46-0.24,0.73-0.22l0.71,0.05c0.27,0.02,0.51,0.15,0.71,0.34c0.19-0.15,0.46-0.24,0.73-0.22l0.71,0.05
	c0.27,0.02,0.51,0.15,0.71,0.34c0.19-0.15,0.46-0.24,0.73-0.22l0.73,0.05c0.27,0.02,0.51,0.15,0.71,0.34
	c0.19-0.14,0.46-0.24,0.73-0.22l0.73,0.05c0.27,0.02,0.51,0.15,0.71,0.34c0.19-0.15,0.46-0.24,0.73-0.22l0.73,0.05
	c0.27,0.02,0.51,0.15,0.71,0.34c0.19-0.15,0.46-0.24,0.73-0.22l0.73,0.05c0.27,0.02,0.51,0.15,0.71,0.34
	c0.19-0.15,0.46-0.24,0.73-0.22l0.73,0.05c0.27,0.02,0.51,0.15,0.71,0.34c0.19-0.15,0.46-0.24,0.73-0.22l0.73,0.05
	c0.27,0.02,0.51,0.15,0.71,0.34c0.19-0.15,0.46-0.24,0.73-0.22l0.73,0.05c0.58,0.05,1.02,0.56,1,1.14
	C285.655,296.214,285.165,296.644,284.615,296.624z"/>
<path fill="#331B1E" d="M286.385,296.764c-0.02,0-0.02,0-0.05,0l-0.37-0.02c-0.58-0.05-1.02-0.56-1-1.14c0.05-0.58,0.54-1.02,1.14-1
	l0.37,0.02c0.58,0.05,1.02,0.56,1,1.14C287.455,296.354,286.965,296.794,286.385,296.764z"/>
<path fill="#0074F0" d="M196.795,93.154c0,0-1.58,6.9-2.21,16.43c-0.44,6.61,1.17,13.18,4.72,18.79
	c7.1,11.23,27.16,31.36,67.66,51.86l0.49,2.36c0,0-13.03,25.29,0,58.93c0,0,4.69,27.91,2.87,35.2c-1.82,7.29-1.31,10.43-1.31,10.43
	l24.12,10.99c0,0,2.16-5.42-6.56-10.14c0,0-4.52-10.48-4.52-13.62c0-3.14,7.83-64.91,7.29-83.95c-0.22-7.61,0.17-9.07,0.73-11.23
	c1.02-4.06,0.78-11.01-1.05-14.78c-0.97-2.02-2.24-4.01-3.84-5.54c-3.35-3.21-13.37-24.73-47.26-54.95
	C237.705,103.724,201.365,93.734,196.795,93.154z"/>
<path fill="#334242" d="M290.545,297.584l-21.67-10.53l-2.61,5.38l21.67,10.53L290.545,297.584z"/>
<path fill="#331B1E" d="M199.395,270.684c-0.51,0-1.02-0.07-1.53-0.22c-1.46-0.41-2.67-1.36-3.43-2.68
	c-1.53-2.72-0.58-6.17,2.14-7.73c2.72-1.53,6.2-0.58,7.73,2.14c0.75,1.31,0.92,2.85,0.53,4.3c-0.41,1.46-1.36,2.67-2.67,3.43
	C201.315,270.434,200.365,270.684,199.395,270.684z M199.365,262.364c-0.44,0-0.88,0.12-1.29,0.34c-1.26,0.73-1.73,2.33-1,3.6
	c0.73,1.27,2.33,1.73,3.6,1c0.61-0.34,1.07-0.92,1.24-1.6c0.19-0.68,0.1-1.39-0.24-2.02
	C201.195,262.854,200.295,262.364,199.365,262.364z"/>
<path fill="#945E48" d="M270.945,274.324c-1.39-0.9-5.62,8.46-4.52,12.52l6.39,2.14l24.19,12.64c1.63-0.97,1.87-5.54-4.11-10.43
	c-5.18-4.23-7.76-9-8.87-12.74c-0.68-2.31-1.73-2.48-4.13-2.38C276.655,276.174,272.575,276.854,270.945,274.324z"/>
<path fill="#331B1E" d="M217.315,281.894l-12.13-0.41c-2.21-0.07-3.96-1.95-3.87-4.16c0.07-2.21,1.94-3.96,4.16-3.87l12.13,0.41
	c2.21,0.07,3.96,1.95,3.87,4.16C221.375,280.214,219.505,281.964,217.315,281.894z"/>
<path fill="#331B1E" d="M223.415,286.214c-0.1,2.6-2.29,4.64-4.89,4.57c-2.6-0.1-4.64-2.29-4.57-4.89c0.1-2.6,2.29-4.64,4.89-4.57
	S223.485,283.594,223.415,286.214z"/>
<path fill="#331B1E" d="M361.535,26.804c0.63,0,3.14,0.36,4.26-0.07c0,0-0.46,2.33-2.46,2.29c-1.75-0.05-1.92-1.7-1.85-2.09
	C361.515,26.844,361.535,26.804,361.535,26.804z"/>
<path fill="#331B1E" d="M367.715,39.954c0,0-2.94,0-2.7,0.34c0.22,0.34,2.53,0.9,2.53,0.9L367.715,39.954z"/>
<path fill="#331B1E" d="M360.365,24.854c0,0,5.81-1.05,6.76-0.22s0.88-1.26,0.88-1.26S363.795,21.884,360.365,24.854z"/>
<path fill="#4F2E30" d="M368.535,15.934c0,0-4.35-3.4-11.63-0.19s-7.08,8.26-7.08,8.26s-2.75-1.64-4.33,0.92
	c-1.57,2.56-0.46,6.75,0.52,7.34c0.98,0.59,2.49-0.79,2.49-0.79s0.52,3.02-2.62,6.16c-3.14,3.14-8,5.25-8,5.25l-8.95-6.46
	c0,0-4.33-19.99,5.31-28.62C347.345-3.916,363.835,1.634,368.535,15.934z"/>
<path fill="#0074F0" d="M369.215,18.114c-1.57-1.38-6.16-1.23-10.93-0.54c-3.41,0.49-10.43,0.99-16.46,3.11
	c-2.07,0.73-3.48,5.38-5.38,5.61c-4.98,0.59-7.58,0.59-9.4,0.64c-0.86,0.02,2.89-5.39-0.3-8.97c-2.69-3.02,0.53-11.48,14.2-16.07
	c12.75-4.28,20.73-0.7,27.38,4.72c3.54,2.89,5.43,5.89,5.25,7.93C373.385,16.604,370.595,17.444,369.215,18.114z"/>
<path fill="#005CAF" d="M357.165,7.464c-5.95-0.2-8.92,0.64-8,2.11c0.92,1.47,1.03,3.77,3.28,3.8s11.4-1.79,13.03-2.47
	s-0.61-1.57-2.21-2.21C361.665,8.054,357.165,7.464,357.165,7.464z"/>
<path fill="#005CAF" d="M342.875,8.394c-2.72-0.07-8.46,1.05-10.89,4.72c-2.43,3.67-2.1,5.38-0.79,5.51
	c1.31,0.13,9.9-3.48,12.07-3.67c2.16-0.2,4-0.59,3.67-1.7C346.605,12.144,345.435,8.464,342.875,8.394z"/>
<path fill="#005CAF" d="M356.905,5.904c-2.35-0.02-9.77-0.2-14.82,0.66c-5.05,0.86-6.03,0.66-4.33-0.66c1.7-1.31,6.47-2.9,9.84-3.54
	C355.205,0.924,364.905,5.974,356.905,5.904z"/>
<path fill="#005CAF" d="M368.565,17.774c0.1,0.05,0.19,0.11,0.28,0.16c0.08,0.06,0.17,0.11,0.24,0.18c1.38-0.67,4.16-1.51,4.34-3.56
	c0.05-0.52-0.04-1.1-0.26-1.72c-5.44,0.4-23.84,3.1-31.48,7.85c6.02-2.13,13.05-2.62,16.46-3.11c4.06-0.59,7.99-0.78,10.03,0.03
	C368.325,17.654,368.445,17.714,368.565,17.774z"/>
</svg>
