<?xml version="1.0" encoding="utf-8"?>
<!-- Generator: Adobe Illustrator 17.0.0, SVG Export Plug-In . SVG Version: 6.00 Build 0)  -->
<!DOCTYPE svg PUBLIC "-//W3C//DTD SVG 1.1//EN" "http://www.w3.org/Graphics/SVG/1.1/DTD/svg11.dtd">
<svg version="1.1" id="Слой_1" xmlns="http://www.w3.org/2000/svg" xmlns:xlink="http://www.w3.org/1999/xlink" x="0px" y="0px"
	 width="190px" height="835px" viewBox="443 0 190 835" enable-background="new 443 0 190 835" xml:space="preserve">
<rect x="559.644" y="3.644" transform="matrix(-0.9528 -0.3038 0.3038 -0.9528 1115.167 209.1688)" fill="#0074F0" width="28.415" height="28.415"/>
<linearGradient id="SVGID_1_" gradientUnits="userSpaceOnUse" x1="381.9819" y1="469.8293" x2="869.0269" y2="-175.9778" gradientTransform="matrix(1 0 0 -1 -333.46 613.4)">
	<stop  offset="0" style="stop-color:#0074F0"/>
	<stop  offset="1" style="stop-color:#00E7F0"/>
</linearGradient>
<path fill="none" stroke="url(#SVGID_1_)" stroke-linecap="square" stroke-dasharray="7,12" d="M555.656,433.054
	c0.168,3.592,0.274,7.202,0.319,10.827l-0.499,0.006l0.005,0.5c0.013,1.153,0.019,2.308,0.019,3.465
	c0,1.156-0.006,2.312-0.019,3.465l-0.005,0.5l0.499,0.005c-0.045,3.626-0.151,7.235-0.319,10.828l-0.499-0.024l-0.024,0.499
	c-0.111,2.309-0.247,4.612-0.408,6.907l-0.035,0.499l0.498,0.035c-0.259,3.618-0.581,7.217-0.962,10.798l-0.497-0.054l-0.054,0.497
	c-0.247,2.292-0.52,4.576-0.817,6.851l-0.065,0.496l0.495,0.065c-0.475,3.597-1.012,7.174-1.609,10.729l-0.493-0.084l-0.083,0.493
	c-0.385,2.267-0.794,4.525-1.227,6.773l-0.094,0.491l0.49,0.095c-0.692,3.563-1.444,7.103-2.256,10.618l-0.487-0.113l-0.113,0.487
	c-0.523,2.245-1.07,4.479-1.64,6.704l-0.125,0.484l0.484,0.124c-0.906,3.509-1.872,6.991-2.896,10.446l-0.479-0.143l-0.142,0.479
	c-0.659,2.211-1.342,4.409-2.049,6.597l-0.154,0.475l0.476,0.154c-1.12,3.447-2.298,6.866-3.534,10.254l-0.469-0.172l-0.172,0.469
	c-0.792,2.161-1.607,4.309-2.445,6.444l-0.183,0.466l0.465,0.182c-1.33,3.373-2.718,6.714-4.162,10.021l-0.457-0.2l-0.201,0.457
	c-0.924,2.109-1.872,4.204-2.842,6.285l-0.211,0.453l0.453,0.211c-1.535,3.281-3.126,6.526-4.772,9.736l-0.444-0.229l-0.229,0.445
	c-1.055,2.049-2.132,4.083-3.232,6.103l-0.239,0.439l0.439,0.239c-1.737,3.178-3.528,6.319-5.373,9.421l-0.429-0.256l-0.256,0.429
	c-1.179,1.976-2.38,3.936-3.602,5.879l-0.266,0.424l0.423,0.266c-1.933,3.063-3.919,6.086-5.957,9.067l-0.412-0.283l-0.283,0.413
	c-1.301,1.898-2.624,3.779-3.968,5.642l-0.292,0.406l0.405,0.292c-2.122,2.933-4.294,5.822-6.516,8.667l-0.394-0.308l-0.308,0.393
	c-1.421,1.813-2.862,3.607-4.323,5.382l-0.317,0.386l0.386,0.318c-2.305,2.791-4.659,5.536-7.06,8.233l-0.373-0.333l-0.333,0.373
	c-1.532,1.716-3.084,3.411-4.654,5.087l-0.342,0.365l0.364,0.341c-2.48,2.637-5.007,5.225-7.579,7.762l-0.35-0.357l-0.357,0.351
	c-1.641,1.613-3.301,3.205-4.979,4.776l-0.365,0.341l0.342,0.365c-2.646,2.468-5.336,4.884-8.069,7.246l-0.326-0.378l-0.379,0.326
	c-1.744,1.501-3.505,2.98-5.283,4.437l-0.387,0.317l0.317,0.387c-2.802,2.287-5.647,4.52-8.533,6.695l-0.3-0.399l-0.4,0.3
	c-1.838,1.381-3.693,2.739-5.565,4.073l-0.407,0.291l0.29,0.406c-2.948,2.095-5.937,4.131-8.964,6.107l-0.272-0.419l-0.419,0.273
	c-1.928,1.254-3.871,2.483-5.83,3.688l-0.425,0.262l0.261,0.425c-3.082,1.889-6.202,3.717-9.358,5.482l-0.243-0.437l-0.437,0.244
	c-2.009,1.118-4.032,2.211-6.069,3.279l-0.443,0.232l0.232,0.442c-3.204,1.671-6.443,3.279-9.714,4.822l-0.213-0.453l-0.452,0.213
	c-2.081,0.976-4.175,1.926-6.282,2.849l-0.458,0.201l0.2,0.457c-3.312,1.444-6.656,2.822-10.03,4.132l-0.18-0.466l-0.467,0.18
	c-2.141,0.827-4.295,1.627-6.461,2.399l-0.471,0.168l0.167,0.47c-3.402,1.206-6.834,2.344-10.294,3.413l-0.146-0.478l-0.479,0.147
	c-2.197,0.674-4.405,1.32-6.624,1.937l-0.482,0.134l0.134,0.481c-3.477,0.961-6.98,1.851-10.508,2.671l-0.112-0.487l-0.488,0.112
	c-2.236,0.515-4.483,1.002-6.739,1.459l-0.49,0.1l0.099,0.489c-3.537,0.71-7.097,1.349-10.68,1.915l-0.077-0.493l-0.494,0.077
	c-2.265,0.353-4.538,0.678-6.82,0.973l-0.496,0.064l0.064,0.496c-3.574,0.455-7.169,0.838-10.783,1.148l-0.042-0.498l-0.498,0.042
	c-2.29,0.192-4.587,0.355-6.893,0.488l-0.499,0.028l0.029,0.499c-3.592,0.2-7.203,0.327-10.83,0.381l-0.006-0.499l-0.5,0.006
	c-1.153,0.015-2.308,0.023-3.464,0.023s-2.311-0.008-3.464-0.023l-0.5-0.006l-0.006,0.499c-3.627-0.054-7.238-0.181-10.83-0.381
	l0.029-0.499l-0.5-0.029c-2.305-0.132-4.602-0.295-6.892-0.487l-0.499-0.042l-0.041,0.498c-3.615-0.31-7.209-0.693-10.783-1.148
	l0.064-0.496l-0.496-0.064c-2.282-0.295-4.556-0.62-6.82-0.973l-0.494-0.077l-0.077,0.493c-3.583-0.566-7.143-1.205-10.68-1.915
	l0.099-0.49l-0.49-0.099c-2.256-0.457-4.503-0.944-6.739-1.459l-0.488-0.112l-0.112,0.487c-3.528-0.82-7.031-1.71-10.508-2.671
	l0.134-0.481l-0.482-0.134c-2.219-0.617-4.427-1.263-6.625-1.937l-0.478-0.147l-0.146,0.478c-3.46-1.069-6.892-2.207-10.294-3.413
	l0.167-0.47l-0.471-0.168c-2.166-0.772-4.32-1.572-6.462-2.399l-0.466-0.18l-0.18,0.466c-3.374-1.31-6.718-2.688-10.03-4.132
	l0.2-0.457l-0.458-0.201c-2.107-0.923-4.201-1.873-6.282-2.849l-0.452-0.213l-0.213,0.453c-3.272-1.543-6.51-3.151-9.714-4.822
	l0.232-0.442l-0.443-0.232c-2.037-1.068-4.06-2.161-6.069-3.28l-0.437-0.243l-0.243,0.437c-3.156-1.765-6.276-3.593-9.358-5.482
	l0.261-0.425l-0.425-0.262c-1.959-1.205-3.902-2.434-5.83-3.688l-0.419-0.273l-0.272,0.419c-3.027-1.976-6.016-4.012-8.964-6.107
	l0.29-0.406l-0.407-0.291c-1.872-1.334-3.727-2.692-5.565-4.073l-0.4-0.3l-0.3,0.399c-2.886-2.175-5.73-4.408-8.533-6.695
	l0.317-0.387l-0.387-0.317c-1.778-1.457-3.539-2.936-5.283-4.437l-0.379-0.326l-0.326,0.378c-2.733-2.362-5.423-4.778-8.069-7.246
	l0.341-0.365l-0.365-0.341c-1.678-1.571-3.337-3.163-4.979-4.776l-0.357-0.351l-0.35,0.357c-2.572-2.537-5.099-5.125-7.579-7.762
	l0.365-0.341l-0.342-0.365c-1.57-1.676-3.122-3.371-4.654-5.087l-0.333-0.373l-0.372,0.333c-2.401-2.697-4.755-5.442-7.06-8.233
	l0.386-0.318l-0.318-0.386c-1.461-1.775-2.902-3.569-4.323-5.382l-0.308-0.393l-0.393,0.308c-2.222-2.845-4.395-5.734-6.517-8.667
	l0.405-0.292l-0.292-0.406c-1.343-1.863-2.666-3.744-3.968-5.642l-0.283-0.413l-0.412,0.283c-2.037-2.981-4.023-6.004-5.957-9.067
	l0.423-0.266l-0.266-0.424c-1.222-1.943-2.423-3.903-3.602-5.879l-0.256-0.429l-0.429,0.256c-1.844-3.102-3.636-6.243-5.373-9.421
	l0.439-0.239l-0.239-0.439c-1.099-2.02-2.177-4.054-3.232-6.104l-0.229-0.444l-0.444,0.229c-1.646-3.21-3.237-6.455-4.772-9.736
	l0.453-0.211l-0.211-0.453c-0.97-2.081-1.917-4.176-2.842-6.285l-0.201-0.457l-0.458,0.2c-1.444-3.307-2.831-6.648-4.162-10.02
	l0.465-0.183l-0.183-0.465c-0.838-2.136-1.654-4.284-2.446-6.445l-0.172-0.469l-0.469,0.172c-1.236-3.388-2.414-6.807-3.534-10.254
	l0.475-0.154l-0.154-0.475c-0.707-2.188-1.389-4.386-2.049-6.597l-0.143-0.479l-0.479,0.143c-1.024-3.455-1.99-6.937-2.896-10.446
	l0.484-0.124l-0.124-0.484c-0.571-2.225-1.117-4.459-1.64-6.704l-0.113-0.487l-0.487,0.113c-0.812-3.515-1.565-7.055-2.257-10.618
	l0.491-0.095l-0.095-0.491c-0.433-2.248-0.842-4.506-1.226-6.773l-0.084-0.493l-0.493,0.084c-0.597-3.555-1.134-7.132-1.609-10.729
	l0.495-0.065l-0.065-0.496c-0.297-2.275-0.57-4.559-0.818-6.851l-0.054-0.497l-0.497,0.054c-0.382-3.581-0.703-7.18-0.962-10.798
	l0.498-0.035l-0.035-0.499c-0.161-2.295-0.297-4.598-0.408-6.907l-0.024-0.499l-0.499,0.024c-0.167-3.593-0.274-7.202-0.319-10.828
	l0.5-0.005l-0.005-0.5c-0.013-1.153-0.019-2.309-0.019-3.465c0-1.157,0.006-2.312,0.019-3.465l0.005-0.5l-0.5-0.006
	c0.045-3.625,0.152-7.235,0.319-10.827l0.499,0.024l0.024-0.499c0.111-2.31,0.247-4.612,0.408-6.907l0.035-0.499l-0.498-0.035
	c0.26-3.618,0.581-7.218,0.962-10.798l0.497,0.054l0.054-0.497c0.248-2.292,0.521-4.576,0.818-6.852l0.065-0.496l-0.495-0.064
	c0.476-3.598,1.013-7.174,1.609-10.729l0.493,0.084l0.084-0.493c0.384-2.267,0.793-4.525,1.226-6.774l0.095-0.491l-0.491-0.094
	c0.692-3.564,1.445-7.103,2.257-10.619l0.487,0.114l0.113-0.487c0.522-2.245,1.069-4.48,1.64-6.704l0.124-0.484l-0.484-0.124
	c0.906-3.509,1.872-6.991,2.896-10.446l0.479,0.142l0.143-0.479c0.659-2.21,1.342-4.409,2.049-6.596l0.154-0.476l-0.475-0.153
	c1.12-3.448,2.298-6.866,3.534-10.254l0.469,0.172l0.172-0.47c0.792-2.16,1.607-4.308,2.446-6.444l0.183-0.465l-0.465-0.183
	c1.33-3.372,2.718-6.713,4.162-10.021l0.458,0.201l0.201-0.458c0.925-2.108,1.872-4.203,2.842-6.285l0.211-0.453l-0.453-0.211
	c1.535-3.28,3.126-6.526,4.772-9.735l0.444,0.229l0.229-0.445c1.055-2.049,2.132-4.084,3.232-6.103l0.239-0.439l-0.439-0.239
	c1.737-3.179,3.528-6.32,5.373-9.421l0.429,0.256l0.256-0.43c1.179-1.975,2.38-3.935,3.602-5.879l0.266-0.423l-0.423-0.266
	c1.933-3.064,3.919-6.086,5.957-9.067l0.412,0.282l0.283-0.412c1.302-1.898,2.625-3.779,3.968-5.642l0.292-0.406l-0.405-0.292
	c2.122-2.933,4.295-5.823,6.517-8.667l0.393,0.308l0.309-0.394c1.421-1.812,2.862-3.606,4.323-5.381l0.318-0.387l-0.386-0.317
	c2.305-2.792,4.659-5.537,7.06-8.234l0.372,0.333l0.333-0.373c1.532-1.715,3.084-3.411,4.654-5.086l0.342-0.365l-0.365-0.342
	c2.48-2.637,5.007-5.224,7.579-7.761l0.35,0.356l0.357-0.35c1.641-1.613,3.301-3.205,4.979-4.776l0.365-0.342l-0.341-0.364
	c2.646-2.469,5.336-4.885,8.069-7.246l0.326,0.378l0.379-0.326c1.744-1.501,3.505-2.981,5.283-4.438l0.387-0.317l-0.317-0.386
	c2.803-2.288,5.647-4.52,8.533-6.696l0.3,0.4l0.4-0.3c1.838-1.381,3.693-2.739,5.565-4.074l0.407-0.29l-0.29-0.407
	c2.948-2.094,5.937-4.13,8.964-6.107l0.272,0.419l0.419-0.272c1.928-1.254,3.871-2.484,5.83-3.688l0.425-0.262l-0.261-0.426
	c3.082-1.888,6.202-3.716,9.358-5.481l0.243,0.436l0.437-0.243c2.009-1.118,4.032-2.212,6.069-3.279l0.443-0.232l-0.232-0.443
	c3.204-1.671,6.443-3.278,9.714-4.821l0.213,0.452l0.452-0.212c2.081-0.977,4.175-1.926,6.282-2.85l0.458-0.2l-0.2-0.458
	c3.312-1.443,6.656-2.821,10.03-4.131l0.18,0.466l0.467-0.18c2.141-0.827,4.295-1.627,6.461-2.399l0.471-0.168l-0.167-0.471
	c3.402-1.206,6.834-2.344,10.294-3.412l0.146,0.478l0.479-0.147c2.197-0.674,4.405-1.32,6.624-1.937l0.482-0.135l-0.134-0.481
	c3.477-0.96,6.98-1.851,10.508-2.67l0.112,0.487l0.488-0.113c2.236-0.515,4.483-1.001,6.739-1.459l0.49-0.099l-0.099-0.489
	c3.537-0.71,7.097-1.349,10.68-1.916l0.077,0.494l0.494-0.077c2.265-0.354,4.538-0.678,6.82-0.973l0.496-0.065l-0.064-0.495
	c3.574-0.455,7.169-0.839,10.783-1.149l0.042,0.498l0.498-0.042c2.29-0.192,4.587-0.354,6.893-0.487l0.499-0.029l-0.029-0.498
	c3.592-0.2,7.203-0.328,10.83-0.382l0.006,0.5l0.5-0.007c1.153-0.015,2.308-0.022,3.464-0.022s2.311,0.007,3.464,0.022l0.5,0.007
	l0.006-0.5c3.627,0.054,7.238,0.182,10.83,0.382l-0.029,0.498l0.5,0.029c2.305,0.133,4.602,0.295,6.892,0.487l0.499,0.042
	l0.041-0.498c3.615,0.31,7.209,0.694,10.783,1.149l-0.064,0.495l0.496,0.065c2.282,0.295,4.556,0.619,6.82,0.973l0.494,0.077
	l0.077-0.494c3.583,0.567,7.143,1.206,10.68,1.916l-0.099,0.489l0.49,0.099c2.256,0.458,4.503,0.944,6.74,1.459l0.487,0.113
	l0.112-0.487c3.528,0.819,7.031,1.71,10.508,2.67l-0.134,0.482l0.482,0.134c2.219,0.617,4.427,1.263,6.625,1.937l0.478,0.147
	l0.146-0.478c3.46,1.068,6.892,2.206,10.294,3.412l-0.167,0.471l0.471,0.168c2.166,0.772,4.32,1.572,6.462,2.399l0.466,0.18
	l0.18-0.466c3.375,1.31,6.718,2.688,10.03,4.131l-0.2,0.458l0.458,0.2c2.107,0.924,4.201,1.874,6.282,2.85l0.452,0.212l0.213-0.452
	c3.272,1.543,6.51,3.15,9.714,4.821l-0.232,0.443l0.443,0.232c2.037,1.067,4.06,2.161,6.069,3.279l0.437,0.243l0.243-0.436
	c3.156,1.765,6.276,3.593,9.358,5.481l-0.261,0.426l0.425,0.262c1.959,1.204,3.902,2.434,5.83,3.688l0.419,0.272l0.272-0.419
	c3.027,1.977,6.016,4.013,8.964,6.107l-0.29,0.407l0.407,0.29c1.872,1.335,3.727,2.693,5.565,4.074l0.4,0.3l0.3-0.4
	c2.886,2.176,5.73,4.408,8.533,6.696l-0.317,0.386l0.387,0.317c1.778,1.457,3.539,2.937,5.283,4.438l0.379,0.326l0.326-0.379
	c2.733,2.362,5.423,4.778,8.069,7.247l-0.342,0.364l0.365,0.342c1.678,1.571,3.338,3.163,4.979,4.776l0.357,0.35l0.35-0.356
	c2.572,2.537,5.099,5.124,7.579,7.761l-0.364,0.342l0.342,0.365c1.57,1.675,3.122,3.371,4.654,5.086l0.333,0.373l0.373-0.333
	c2.401,2.697,4.755,5.442,7.06,8.234l-0.386,0.317l0.317,0.387c1.461,1.775,2.902,3.569,4.323,5.381l0.308,0.394l0.394-0.308
	c2.222,2.844,4.394,5.734,6.516,8.667l-0.405,0.292l0.292,0.405c1.344,1.864,2.667,3.745,3.968,5.643l0.283,0.412l0.412-0.282
	c2.038,2.981,4.024,6.003,5.957,9.067l-0.423,0.266l0.266,0.423c1.222,1.944,2.423,3.904,3.602,5.879l0.256,0.43l0.429-0.256
	c1.845,3.101,3.636,6.242,5.373,9.421l-0.439,0.239l0.239,0.439c1.1,2.019,2.177,4.054,3.232,6.103l0.229,0.445l0.444-0.229
	c1.646,3.209,3.237,6.455,4.772,9.735l-0.453,0.211l0.211,0.453c0.97,2.082,1.918,4.177,2.842,6.285l0.201,0.458l0.457-0.201
	c1.444,3.308,2.832,6.649,4.162,10.021l-0.465,0.183l0.183,0.465c0.838,2.136,1.653,4.284,2.445,6.444l0.172,0.47l0.469-0.172
	c1.236,3.388,2.414,6.806,3.534,10.254l-0.476,0.153l0.154,0.476c0.707,2.187,1.39,4.386,2.049,6.596l0.142,0.479l0.479-0.142
	c1.024,3.455,1.99,6.937,2.896,10.446l-0.484,0.124l0.125,0.484c0.57,2.224,1.117,4.459,1.64,6.704l0.113,0.487l0.487-0.114
	c0.812,3.516,1.564,7.055,2.256,10.619l-0.49,0.094l0.094,0.491c0.433,2.249,0.842,4.507,1.227,6.774l0.083,0.493l0.493-0.084
	c0.597,3.555,1.134,7.131,1.609,10.729l-0.495,0.064l0.065,0.496c0.297,2.276,0.57,4.56,0.817,6.852l0.054,0.497l0.497-0.054
	c0.381,3.58,0.703,7.18,0.962,10.798l-0.498,0.035l0.035,0.499c0.161,2.295,0.297,4.597,0.408,6.907l0.024,0.499L555.656,433.054z"
	/>
<circle fill="#DB6403" cx="626.627" cy="829.424" r="5.5"/>
</svg>
