<svg width="1232" height="595" viewBox="0 0 1232 595" fill="none" xmlns="http://www.w3.org/2000/svg">
<path d="M30.4161 405.578C35.2923 374.908 86.5919 378.829 86.5919 378.829C86.5919 378.829 126.339 427.327 136.407 427.504C146.478 427.679 110.519 379.4 110.519 379.4C129.572 375.474 181.16 393.81 181.16 393.81C181.16 393.81 184.58 454.997 194.383 452.691C204.187 450.385 188.591 398.666 188.591 398.666C207.818 402.257 227.535 422.124 227.535 422.124C253.066 455.19 209.292 486.267 209.292 486.267C209.292 486.267 210.935 507.448 226.572 530.264C226.572 530.264 229.995 534.421 233.801 541.703L228.725 542.248C228.162 540.931 227.562 539.66 226.922 538.453C226.921 538.44 226.918 538.438 226.908 538.43C226.9 538.413 226.892 538.395 226.88 538.379C226.451 537.631 225.829 536.565 225.061 535.274C225.057 535.271 225.057 535.271 225.057 535.271C225.057 535.266 225.051 535.266 225.054 535.263C223.178 532.393 221.886 530.26 221.051 528.712C221.045 528.707 221.044 528.701 221.043 528.695C215.373 519.661 207.34 507.955 202.596 505.829C202.596 505.829 203.07 504.979 203.435 503.382C203.164 504.162 202.888 504.975 202.596 505.829C195.899 525.392 152.763 533.159 128.013 530.787C103.26 528.415 113.085 520.453 124.937 507.966C136.789 495.485 164.427 495.475 172.03 490.262C179.637 485.051 167.372 481.969 151.359 484.943C135.349 487.915 129.009 504.926 103.193 510.208C77.3781 515.489 52.2451 468.562 52.2451 468.562C70.8536 472.221 102.077 458.821 102.654 452.476C103.232 446.137 55.4805 451.886 47.8313 450.822C40.1782 449.756 25.5436 436.257 30.4161 405.578Z" fill="#1FDFF2"/>
<path d="M1001.86 39.9878C1002.57 38.9165 1003.3 37.8701 1004.05 36.8362C1005.27 35.167 1007.5 34.594 1009.36 35.4597L1169.09 109.596C1169.62 109.845 1169.92 110.431 1169.8 111.01C1169.35 113.084 1168.83 115.152 1168.23 117.213C1168.02 117.955 1167.18 118.328 1166.48 118.004L1002.38 41.8376C1001.69 41.5137 1001.43 40.6355 1001.86 39.9878Z" fill="#F26B52"/>
<path d="M1016.56 22.8784C1016.58 22.8535 1016.61 22.8286 1016.64 22.8037C1017.91 21.6514 1019.76 21.4085 1021.31 22.1248L1169.32 90.8237C1170.87 91.5462 1171.88 93.1158 1171.82 94.8286C1171.82 94.8659 1171.82 94.8971 1171.81 94.9344C1171.7 98.0424 1168.51 100.06 1165.68 98.7524L1017.6 30.0223C1014.78 28.7144 1014.25 24.9774 1016.56 22.8784Z" fill="#F26B52"/>
<path d="M1137.85 19.6459C1138.04 19.8016 1138.24 19.9635 1138.43 20.1192C1142.3 23.3393 1138.39 29.4618 1133.82 27.3379L1092.72 8.26043C1088.15 6.14278 1090.3 -0.801855 1095.26 0.0763457C1095.38 0.0950308 1095.5 0.119944 1095.62 0.138629C1095.88 0.188456 1096.11 0.263197 1096.36 0.369079C1100.44 2.22513 1137.56 19.4528 1137.56 19.4528C1137.66 19.5151 1137.76 19.5774 1137.85 19.6459Z" fill="#F26B52"/>
<path d="M1156.91 56.9414L1055.2 9.73033C1051.52 8.02375 1052.02 2.64244 1055.93 1.62721C1055.98 1.61476 1056.03 1.6023 1056.08 1.58984C1057.05 1.34071 1058.07 1.44659 1058.97 1.87012L1160.47 48.9815C1161.37 49.3988 1162.12 50.1151 1162.55 51.012C1162.58 51.0556 1162.6 51.1054 1162.62 51.149C1164.39 54.7988 1160.59 58.648 1156.91 56.9414Z" fill="#F26B52"/>
<path d="M1028.12 13.9158C1029.81 12.8071 1031.52 11.7545 1033.27 10.7642C1034.47 10.0791 1035.93 10.048 1037.19 10.6272L1167.86 71.2853C1169.12 71.8646 1170.04 73.0106 1170.29 74.3684C1170.65 76.3428 1170.96 78.3296 1171.2 80.3289C1171.32 81.3068 1170.3 82.0293 1169.41 81.6182L1028.3 16.1144C1027.4 15.7033 1027.3 14.4514 1028.12 13.9158Z" fill="#F26B52"/>
<path d="M1157.51 132.716L996.945 58.1871C994.809 57.1968 993.831 54.6556 994.821 52.513C994.834 52.4819 994.853 52.4445 994.865 52.4134C994.877 52.3822 994.896 52.3449 994.909 52.3137C995.905 50.1774 998.471 49.2805 1000.61 50.2708L1161.17 124.8C1163.31 125.79 1164.28 128.331 1163.29 130.474C1163.28 130.505 1163.26 130.542 1163.25 130.573C1163.24 130.604 1163.22 130.642 1163.21 130.673C1162.21 132.815 1159.64 133.712 1157.51 132.716Z" fill="#F26B52"/>
<path d="M1020.28 163.347C1020.08 163.191 1019.89 163.029 1019.7 162.874C1015.82 159.653 1019.74 153.531 1024.31 155.655L1065.41 174.732C1069.97 176.85 1067.82 183.795 1062.87 182.916C1062.75 182.898 1062.63 182.873 1062.51 182.854C1062.25 182.804 1062.01 182.73 1061.77 182.624C1057.69 180.768 1020.56 163.54 1020.56 163.54C1020.46 163.478 1020.36 163.422 1020.28 163.347Z" fill="#F26B52"/>
<path d="M1099.14 181.129L997.643 134.017C996.74 133.6 995.999 132.884 995.563 131.987C995.538 131.943 995.519 131.894 995.494 131.85C993.738 128.2 997.531 124.351 1001.21 126.058L1102.92 173.269C1106.6 174.975 1106.1 180.357 1102.19 181.372C1102.14 181.384 1102.09 181.397 1102.04 181.409C1101.07 181.652 1100.04 181.546 1099.14 181.129Z" fill="#F26B52"/>
<path d="M987.839 108.631C987.833 108.593 987.827 108.562 987.821 108.525C987.173 105.056 990.673 102.284 993.881 103.772L1124.68 164.48C1127.88 165.969 1128.02 170.429 1124.96 172.179C1124.93 172.197 1124.89 172.216 1124.86 172.229C1123.66 172.914 1122.2 172.945 1120.95 172.366L990.262 111.714C989.01 111.128 988.089 109.988 987.839 108.631Z" fill="#F26B52"/>
<path d="M988.904 69.4542C988.911 69.423 988.923 69.3919 988.929 69.3545C989.577 66.7324 992.486 65.3746 994.934 66.5082L1152.45 139.623C1154.9 140.757 1155.74 143.858 1154.15 146.044C1154.13 146.069 1154.11 146.101 1154.09 146.125C1152.87 147.801 1150.64 148.399 1148.76 147.527L991.277 74.4306C989.39 73.5587 988.412 71.4722 988.904 69.4542Z" fill="#F26B52"/>
<path d="M986.301 88.158C986.301 88.1206 986.301 88.0895 986.307 88.0521C986.419 84.9441 989.615 82.9261 992.436 84.2341L1140.52 152.97C1143.34 154.278 1143.86 158.022 1141.56 160.114C1141.54 160.139 1141.51 160.164 1141.48 160.189C1140.21 161.341 1138.36 161.584 1136.81 160.868L988.805 92.1628C987.248 91.4403 986.245 89.8645 986.301 88.158Z" fill="#F26B52"/>
<path fill-rule="evenodd" clip-rule="evenodd" d="M1158.65 348.003C1158.65 348.003 1218.31 335.898 1228.52 371.199C1238.73 406.498 1223.52 424.496 1214.69 426.864C1211.8 427.64 1203.76 428.187 1194.3 428.83C1174.87 430.151 1149.48 431.877 1150.56 436.829C1152.17 444.19 1190.79 455.358 1212.1 448.34C1212.1 448.34 1203.68 470.186 1190.07 486.691L1127.21 494.876C1125.02 493.647 1122.95 492.396 1120.93 491.181C1113.38 486.629 1106.67 482.581 1098.12 482.07C1078.89 480.921 1064.94 486.33 1074.63 491.341C1078.26 493.218 1085.1 493.824 1093.05 494.53C1099.01 495.059 1105.6 495.644 1111.95 496.863L1029.1 507.65C1030.58 498.105 1030.3 492.095 1030.3 492.095C1030.3 492.095 974.356 462.009 999.495 419.457C999.495 419.457 1019.74 393.241 1041.79 386.213C1041.79 386.213 1031.05 449.216 1042.89 450.495C1054.74 451.769 1049.81 379.426 1049.81 379.426C1049.81 379.426 1107.7 350.353 1130.64 352.177C1130.64 352.177 1095.48 414.12 1107.28 412.441C1119.08 410.76 1158.65 348.003 1158.65 348.003Z" fill="#0074F0"/>
</svg>
