<svg width="19" height="18" viewBox="0 0 19 18" fill="none" xmlns="http://www.w3.org/2000/svg">
<path d="M18.4536 5.5V14.75C18.4536 16.5449 16.9985 18 15.2036 18H3.70361C1.90869 18 0.453613 16.5449 0.453613 14.75V5.5H18.4536ZM4.70361 12C4.01326 12 3.45361 12.5596 3.45361 13.25C3.45361 13.9404 4.01326 14.5 4.70361 14.5C5.39397 14.5 5.95361 13.9404 5.95361 13.25C5.95361 12.5596 5.39397 12 4.70361 12ZM9.45361 12C8.76326 12 8.20361 12.5596 8.20361 13.25C8.20361 13.9404 8.76326 14.5 9.45361 14.5C10.144 14.5 10.7036 13.9404 10.7036 13.25C10.7036 12.5596 10.144 12 9.45361 12ZM4.70361 7.5C4.01326 7.5 3.45361 8.05964 3.45361 8.75C3.45361 9.44036 4.01326 10 4.70361 10C5.39397 10 5.95361 9.44036 5.95361 8.75C5.95361 8.05964 5.39397 7.5 4.70361 7.5ZM9.45361 7.5C8.76326 7.5 8.20361 8.05964 8.20361 8.75C8.20361 9.44036 8.76326 10 9.45361 10C10.144 10 10.7036 9.44036 10.7036 8.75C10.7036 8.05964 10.144 7.5 9.45361 7.5ZM14.2036 7.5C13.5133 7.5 12.9536 8.05964 12.9536 8.75C12.9536 9.44036 13.5133 10 14.2036 10C14.894 10 15.4536 9.44036 15.4536 8.75C15.4536 8.05964 14.894 7.5 14.2036 7.5ZM15.2036 0C16.9985 0 18.4536 1.45507 18.4536 3.25V4H0.453613V3.25C0.453613 1.45507 1.90869 0 3.70361 0H15.2036Z" fill="#0074F0"/>
</svg>
